<svg xmlns="http://www.w3.org/2000/svg" width="60.5" height="60.5" overflow="visible"><style>.st2{fill:#f0f3bd}</style><circle cx="30.2" cy="30.3" r="28.5" fill="#0b132b"/><path d="M30.2 58.8c5.9 0 11.5-1.8 16-4.9-.4-2-1.2-4.2-2.7-6.7-2.2-3.7-4.2-14.4-4.4-21.2-.1-4.6-.1-9.2-.1-13.8 0-.6-.8-.9-1.1-.3-2.6 4.4-7.4 11.1-7.9 11.4-.8.4-1.7 1.8-3.8.5-1.9-1.3-5.6-6.9-7.8-10.5-.3-.5-1.1-.3-1.1.3 0 4.1-.1 11-.1 13.7 0 0-1.9 17.5-2.3 25.5 0 .5-.1 1-.1 1.5 4.4 2.8 9.7 4.5 15.4 4.5z" fill="#02c39a"/><path class="st2" d="M21.7 35.5c3.9 0 3.9-6.1 0-6.1-3.9.1-3.9 6.1 0 6.1zM32.3 35.3c3.9 0 3.9-6.1 0-6.1-3.9.1-3.9 6.1 0 6.1z"/><g><path d="M57 30.3c-.1 11.1-7 21.3-17.5 25.1-10.7 3.9-22.7.6-30-8.1-7.2-8.6-8-21.3-2.2-30.9C13.1 6.8 24.6 1.8 35.6 4 48 6.6 56.9 17.7 57 30.3c0 2.3 3.5 2.3 3.5 0-.1-12.7-8.1-24.1-20-28.5-11.7-4.4-25.6-.6-33.6 9.1-8.1 9.8-9.3 24.1-2.6 35 6.6 10.9 19.5 16.5 31.9 14C48.4 57.5 58.3 47.3 60.1 35c.2-1.6.4-3.2.4-4.8 0-2.2-3.5-2.2-3.5.1z" fill="#fdf2ce"/></g></svg>