<svg id="Layer_1" data-name="Layer 1" xmlns="http://www.w3.org/2000/svg" viewBox="0 0 573.87 153.6"><path d="M89.66,86.59v-43c0-1.49-.38-3.62,1.71-3.76.88-.06,1.79,0,2.67,0H235c3,0,6.11-.09,9.16,0,1.95.05,1.82,1.74,1.82,3.17V80.08c0,2.12.15,4.32,0,6.44-.12,1.69-1.44,1.66-2.66,1.66H92.52c-1.22,0-2.76.14-2.86-1.59-.09-1.51-2.44-1.52-2.36,0a4.05,4.05,0,0,0,4,4H243.6c2.42,0,4.58-1.25,4.7-4,.08-2,0-4,0-6V42.82c0-.58,0-1.18,0-1.76a4,4,0,0,0-4-3.63c-.85,0-1.7,0-2.54,0H99.22c-2.64,0-5.3-.11-7.94,0a4.05,4.05,0,0,0-4,4c0,.62,0,1.24,0,1.86V86.59A1.18,1.18,0,0,0,89.66,86.59Z" fill="#fdf2ce"/><path d="M498.79,87.83V42c0-.32-.19-1.44,0-1.72s.56-.11.84-.11h44.31a9.4,9.4,0,0,1,2.31,0c.35.11.24,0,.3.43a20.52,20.52,0,0,1,0,2.48v44.2c0,.34.07.51-.17.64s-1.5,0-1.92,0H499.93c-.11,0-1.12.1-1.14-.07-.19-1.9-3.19-1.92-3,0,.35,3.51,3.62,3.07,6.17,3.07h38.17c2.08,0,4.18.1,6.26,0a3.17,3.17,0,0,0,3.16-3.18c0-.7,0-1.42,0-2.13V61.16c0-6.86.13-13.74,0-20.61a3.21,3.21,0,0,0-3.08-3.4c-.5,0-1,0-1.51,0H499.63a3.67,3.67,0,0,0-3.13,1.13,4,4,0,0,0-.71,2.81V87.83A1.5,1.5,0,0,0,498.79,87.83Z" fill="#fdf2ce"/><path d="M524.46,55.12Q527,58,529.71,60.8c1,1,2,2,3,3.05.14.13.28.27.41.41l.16-.4a4.69,4.69,0,0,0-.58.51c-.17.17-.32.35-.48.52-2.7,2.81-5.63,5.42-8.51,8-1.43,1.3.7,3.42,2.12,2.12,3.07-2.78,6.09-5.61,9-8.56,1-1,1.87-2,1-3.53-.73-1.33-2.2-2.42-3.24-3.51-2-2.11-4-4.27-6-6.45-1.3-1.43-3.41.69-2.12,2.12Z" fill="#fdf2ce"/><path d="M533.58,62.42H510.67a1.5,1.5,0,0,0,0,3h22.91a1.5,1.5,0,0,0,0-3Z" fill="#fdf2ce"/><text transform="translate(471.47 104.5)" font-size="16" fill="#fdf2ce" font-family="VT323-Regular, VT323">rotate anticlock</text><path d="M442.29,50.81H396.44c-.32,0-1.44.2-1.72,0s-.11-.56-.11-.83V5.66a9.32,9.32,0,0,1,0-2.3c.11-.36,0-.25.43-.3a20.52,20.52,0,0,1,2.48,0h44.2c.34,0,.51-.08.64.17s0,1.49,0,1.92V49.67c0,.11.1,1.13-.07,1.14-1.9.2-1.92,3.2,0,3,3.51-.35,3.07-3.61,3.07-6.17V9.48c0-2.08.1-4.19,0-6.27A3.16,3.16,0,0,0,442.18.06c-.7,0-1.42,0-2.13,0H415.62c-6.86,0-13.74-.13-20.61,0a3.21,3.21,0,0,0-3.4,3.07c0,.5,0,1,0,1.51V50a3.68,3.68,0,0,0,1.13,3.13,4,4,0,0,0,2.81.7h46.74A1.5,1.5,0,0,0,442.29,50.81Z" fill="#fdf2ce"/><path d="M409.58,25.15q2.88-2.59,5.68-5.26c1-1,2-2,3.05-3,.13-.14.27-.27.41-.41l-.4-.15a4.69,4.69,0,0,0,.51.57l.52.49c2.81,2.7,5.42,5.62,8,8.5,1.3,1.43,3.42-.69,2.12-2.12-2.78-3.06-5.61-6.08-8.56-9-1-1-2-1.87-3.53-1-1.33.73-2.42,2.2-3.51,3.25-2.11,2-4.27,4-6.45,6-1.43,1.29.69,3.41,2.12,2.12Z" fill="#fdf2ce"/><path d="M416.88,16v22.9a1.5,1.5,0,0,0,3,0V16a1.5,1.5,0,0,0-3,0Z" fill="#fdf2ce"/><path d="M394.68,84.63h45.86c.32,0,1.44-.19,1.71,0s.11.56.11.84v44.31a8.93,8.93,0,0,1,0,2.31c-.1.35,0,.24-.42.3a20.69,20.69,0,0,1-2.49,0h-44.2c-.34,0-.51.07-.64-.17a5.89,5.89,0,0,1,0-1.92V85.77c0-.11-.09-1.12.07-1.14,1.9-.19,1.92-3.19,0-3-3.51.35-3.07,3.62-3.07,6.17V126c0,2.08-.09,4.18,0,6.26a3.18,3.18,0,0,0,3.18,3.16c.71,0,1.42,0,2.13,0h24.43c6.87,0,13.75.13,20.61,0a3.21,3.21,0,0,0,3.4-3.08c0-.5,0-1,0-1.51V85.47a3.67,3.67,0,0,0-1.13-3.13,4,4,0,0,0-2.81-.71H394.68A1.5,1.5,0,0,0,394.68,84.63Z" fill="#fdf2ce"/><path d="M427.39,110.3c-1.91,1.72-3.81,3.47-5.68,5.25-1,1-2,2-3,3l-.42.41.41.16a4.88,4.88,0,0,0-.52-.58c-.16-.17-.35-.32-.52-.48-2.81-2.7-5.42-5.63-8-8.51-1.3-1.43-3.41.7-2.12,2.12,2.79,3.07,5.62,6.09,8.56,9,1,1,2,1.87,3.54,1,1.32-.73,2.42-2.2,3.5-3.24,2.11-2,4.27-4,6.45-6,1.44-1.3-.69-3.41-2.12-2.12Z" fill="#fdf2ce"/><path d="M420.09,119.42V96.51a1.5,1.5,0,0,0-3,0v22.91a1.5,1.5,0,0,0,3,0Z" fill="#fdf2ce"/><text transform="translate(376.89 67.53)" font-size="16" fill="#fdf2ce" font-family="VT323-Regular, VT323">extend lights</text><text transform="translate(370.49 149.76)" font-size="16" fill="#fdf2ce" font-family="VT323-Regular, VT323">contract lights</text><text transform="translate(151.8 103.23)" font-size="16" fill="#fdf2ce" font-family="VT323-Regular, VT323">shoot</text><text transform="translate(20.16 103.23)" font-size="16" fill="#fdf2ce" font-family="VT323-Regular, VT323">off</text><path d="M338.18,40.22V86.08c0,.32.2,1.44,0,1.71s-.56.11-.83.11H293a8.93,8.93,0,0,1-2.31,0c-.35-.1-.24,0-.29-.42a20.69,20.69,0,0,1,0-2.49V40.79c0-.34-.08-.51.17-.64a5.89,5.89,0,0,1,1.92,0H337c.11,0,1.13-.09,1.14.07.2,1.9,3.2,1.92,3,0-.35-3.51-3.61-3.07-6.17-3.07H296.85c-2.08,0-4.19-.09-6.27,0a3.16,3.16,0,0,0-3.15,3.18c0,.71,0,1.42,0,2.13V66.89c0,6.87-.13,13.75,0,20.61a3.19,3.19,0,0,0,3.07,3.4c.5,0,1,0,1.51,0h45.34a3.68,3.68,0,0,0,3.13-1.13,4,4,0,0,0,.7-2.81V40.22A1.5,1.5,0,0,0,338.18,40.22Z" fill="#fdf2ce"/><path d="M312.52,72.93c-1.73-1.91-3.48-3.81-5.26-5.68-1-1-2-2-3-3l-.41-.42-.15.41a4.9,4.9,0,0,0,.57-.52c.17-.16.32-.35.49-.52,2.7-2.81,5.62-5.42,8.5-8,1.43-1.3-.69-3.41-2.12-2.12-3.06,2.79-6.08,5.62-9,8.56-1,1-1.87,2-1,3.54.73,1.32,2.2,2.42,3.25,3.5,2,2.11,4,4.27,6,6.45,1.3,1.44,3.42-.69,2.13-2.12Z" fill="#fdf2ce"/><path d="M303.4,65.63h22.9a1.5,1.5,0,0,0,0-3H303.4a1.5,1.5,0,0,0,0,3Z" fill="#fdf2ce"/><text transform="translate(263.11 104.5)" font-size="16" fill="#fdf2ce" font-family="VT323-Regular, VT323">rotate clockwise</text><path d="M2.36,87.79V41.93a6.53,6.53,0,0,1,0-1.71c.19-.57.66-.43,1.16-.43H43.57a60,60,0,0,1,6.57,0c.51.05.59.29.62.74.06.82,0,1.67,0,2.49v44.2c0,.48.07.83-.49,1a8.8,8.8,0,0,1-1.92,0H3.82c-.37,0-1.4.19-1.46-.39-.15-1.49-2.51-1.51-2.35,0,.32,3.24,3.5,2.75,5.85,2.75H44c2.08,0,4.19.1,6.26,0,3-.14,2.84-2.83,2.84-5V61.12c0-6.87.13-13.75,0-20.61a2.88,2.88,0,0,0-2.75-3.08c-.5,0-1,0-1.51,0H3.52a3.33,3.33,0,0,0-2.9,1A3.75,3.75,0,0,0,0,41.05V87.79A1.18,1.18,0,0,0,2.36,87.79Z" fill="#fdf2ce"/><path d="M14.53,79.31C19,69.47,23,59.4,28.07,49.85H26c4.32,9.76,8.34,19.65,12.55,29.46.6,1.39,2.63.19,2-1.19-4.22-9.81-8.23-19.7-12.56-29.46a1.18,1.18,0,0,0-2,0c-5.12,9.55-9,19.62-13.54,29.46-.63,1.37,1.4,2.57,2,1.19Z" fill="#fdf2ce"/><path d="M17.7,69.93H35.16a1.18,1.18,0,0,0,0-2.35H17.7a1.18,1.18,0,0,0,0,2.35Z" fill="#fdf2ce"/></svg>