<svg id="Layer_1" data-name="Layer 1" xmlns="http://www.w3.org/2000/svg" viewBox="0 0 119.87 71.23"><path d="M69.05,50.73V4.87c0-.32-.19-1.44,0-1.71s.56-.12.84-.12H114.2a9.4,9.4,0,0,1,2.31,0c.35.11.25,0,.3.43a20.52,20.52,0,0,1,0,2.48v44.2c0,.34.07.51-.17.65a5.89,5.89,0,0,1-1.92,0H70.19c-.11,0-1.12.09-1.14-.07-.19-1.91-3.19-1.93-3,0,.36,3.5,3.62,3.07,6.17,3.07h38.17c2.08,0,4.18.09,6.26,0a3.18,3.18,0,0,0,3.16-3.18c0-.71,0-1.43,0-2.14V24.05c0-6.86.13-13.74,0-20.61A3.21,3.21,0,0,0,116.73,0c-.49,0-1,0-1.5,0H69.89a3.68,3.68,0,0,0-3.13,1.13A4,4,0,0,0,66.05,4V50.73A1.5,1.5,0,0,0,69.05,50.73Z" fill="#fdf2ce"/><path d="M94.72,18c1.73,1.91,3.47,3.81,5.25,5.67,1,1,2,2,3,3,.13.14.27.27.41.41l.15-.4a5.71,5.71,0,0,0-.58.51l-.48.53c-2.7,2.8-5.63,5.42-8.51,8-1.43,1.3.7,3.42,2.13,2.12,3.06-2.78,6.08-5.61,9-8.56,1-1,1.87-2,1-3.53-.72-1.33-2.2-2.42-3.24-3.5-2-2.12-4-4.27-6-6.45-1.29-1.44-3.41.69-2.12,2.12Z" fill="#fdf2ce"/><path d="M103.84,25.31H80.94a1.5,1.5,0,0,0,0,3h22.9a1.5,1.5,0,0,0,0-3Z" fill="#fdf2ce"/><path d="M50.81,3.11V49c0,.32.2,1.44,0,1.71s-.56.12-.83.12H5.66a9.32,9.32,0,0,1-2.3,0c-.36-.11-.25,0-.3-.43a20.69,20.69,0,0,1,0-2.49V3.69c0-.34-.08-.51.17-.65A5.89,5.89,0,0,1,5.15,3H49.67c.11,0,1.13-.09,1.14.07C51,5,54,5,53.81,3.11,53.46-.39,50.2,0,47.64,0H9.48C7.4,0,5.29,0,3.21,0A3.16,3.16,0,0,0,.06,3.22c0,.71,0,1.43,0,2.13V29.78c0,6.87-.13,13.75,0,20.61A3.22,3.22,0,0,0,3.13,53.8c.5,0,1,0,1.51,0H50a3.69,3.69,0,0,0,3.13-1.14,4,4,0,0,0,.7-2.81V3.11A1.5,1.5,0,0,0,50.81,3.11Z" fill="#fdf2ce"/><path d="M25.15,35.82c-1.73-1.91-3.48-3.81-5.26-5.67-1-1-2-2-3-3-.14-.14-.27-.28-.41-.41l-.15.4a5.73,5.73,0,0,0,.57-.51c.17-.17.32-.36.49-.53,2.7-2.81,5.62-5.42,8.5-8,1.43-1.3-.69-3.42-2.12-2.12-3.06,2.78-6.08,5.61-9,8.56-1,1-1.87,2-1,3.53.73,1.33,2.2,2.42,3.25,3.5,2,2.12,4,4.27,6,6.45,1.29,1.44,3.41-.69,2.12-2.12Z" fill="#fdf2ce"/><path d="M16,28.53h22.9a1.5,1.5,0,0,0,0-3H16a1.5,1.5,0,0,0,0,3Z" fill="#fdf2ce"/><text transform="translate(23.74 67.39)" font-size="16" fill="#fdf2ce" font-family="VT323-Regular, VT323">move cannon</text></svg>