<svg id="Layer_1" data-name="Layer 1" xmlns="http://www.w3.org/2000/svg" viewBox="0 0 326.67 41.03"><path d="M12.57,8.28c0-1.33,0-4.74,0-6.77a.3.3,0,0,1,.55-.15c1.1,1.79,2.92,4.58,3.88,5.2s1.5,0,1.89-.24A41.23,41.23,0,0,0,22.87.68a.31.31,0,0,1,.57.16c0,2.29,0,4.58,0,6.86.1,3.34,1.11,8.68,2.2,10.5,2.9,4.84.9,7.84-1.19,9.82-1.53,1.45-4.15,1.66-6.39,1.56a7.94,7.94,0,0,1-2.32-.44c-4.41-1.59-4.53-5.05-4.35-8.22C11.64,16.94,12.57,8.28,12.57,8.28Z" fill="#02c39a"/><path d="M15.32,27.46A33.5,33.5,0,0,0,14.09,38a1.54,1.54,0,0,0,1.5,1.5,1.51,1.51,0,0,0,1.5-1.5,30.21,30.21,0,0,1,1.13-9.74,1.5,1.5,0,0,0-2.9-.8Z" fill="#02c39a"/><path d="M21.66,27.47a59.26,59.26,0,0,0,.21,9.79,1.5,1.5,0,0,0,3,0,59.26,59.26,0,0,1-.21-9.79,1.51,1.51,0,0,0-1.5-1.5,1.54,1.54,0,0,0-1.5,1.5Z" fill="#02c39a"/><path d="M12,17.27,1.1,20.2a1.53,1.53,0,0,0-1,1.85A1.53,1.53,0,0,0,1.9,23.1l10.89-2.94A1.5,1.5,0,0,0,12,17.27Z" fill="#02c39a"/><path d="M14.12,21.1c-3.83,1.26-7.26,3.46-11,4.88a1.55,1.55,0,0,0-1,1.85,1.53,1.53,0,0,0,1.85,1.05c2.07-.79,4.06-1.73,6-2.71.82-.41,1.64-.82,2.48-1.2.47-.22.63-.29,1.06-.46s1-.36,1.44-.52A1.54,1.54,0,0,0,16,22.14a1.51,1.51,0,0,0-1.84-1Z" fill="#02c39a"/><path d="M14.81,12.43a1.5,1.5,0,0,0,0-3,1.5,1.5,0,0,0,0,3Z" fill="#f0f3bd"/><path d="M20.06,12.31a1.5,1.5,0,0,0,0-3,1.5,1.5,0,0,0,0,3Z" fill="#f0f3bd"/><path d="M240,6.81c0-.71,0-1.82,0-3A1.29,1.29,0,0,0,237.65,3a12.64,12.64,0,0,1-2.18,2.1c-1,.67-1.5,0-1.89-.23a17.26,17.26,0,0,1-1.69-2.2,1.54,1.54,0,0,0-2.8.88c0,.9,0,1.8,0,2.7-.09,3.33-1.1,8.68-2.19,10.49-2.9,4.84-.9,7.84,1.19,9.82,1.52,1.44,4.13,1.66,6.35,1.56a8,8,0,0,0,2.38-.44c4.38-1.6,4.5-5.06,4.32-8.22-.22-4-1.14-12.54-1.15-12.63Z" fill="#30d6ba"/><path d="M234.31,26.79a30.48,30.48,0,0,1,1.12,9.74,1.5,1.5,0,1,0,3,0A33.21,33.21,0,0,0,237.2,26a1.5,1.5,0,1,0-2.89.8Z" fill="#30d6ba"/><path d="M227.87,26a61.53,61.53,0,0,1-.21,9.79,1.5,1.5,0,0,0,1.5,1.5,1.54,1.54,0,0,0,1.5-1.5,61.53,61.53,0,0,0,.21-9.79,1.53,1.53,0,0,0-1.5-1.5,1.51,1.51,0,0,0-1.5,1.5Z" fill="#30d6ba"/><path d="M239.94,16.22c2,0,3.6-1.43,4.87-2.86A46,46,0,0,1,248.68,9l.27-.23c-.21.19-.07.06.06,0a6.59,6.59,0,0,1,.57-.34c.29-.16-.21.05,0,0l.3-.1.3-.06s-.34,0-.19,0h.22a1.53,1.53,0,0,0,1.5-1.5,1.51,1.51,0,0,0-1.5-1.5c-2,0-3.6,1.42-4.87,2.85a46,46,0,0,1-3.87,4.39l-.28.23c.22-.19.08-.06,0,0s-.38.23-.57.34.21-.05,0,0l-.29.1-.3.06s.33,0,.18,0a.74.74,0,0,0-.21,0,1.5,1.5,0,0,0,0,3Z" fill="#30d6ba"/><path d="M236.31,19.36a19.16,19.16,0,0,0,5.24,0,22,22,0,0,1,2.44-.15,14.16,14.16,0,0,1,2.94.33,1.5,1.5,0,1,0,.8-2.89,19.3,19.3,0,0,0-5.92-.32c-.76.08-1.52.18-2.29.21-.4,0-.81,0-1.22,0l-.65,0-.3,0c.25,0-.24,0-.24,0a1.54,1.54,0,0,0-1.84,1.05,1.52,1.52,0,0,0,1,1.85Z" fill="#30d6ba"/><path d="M237.71,11a1.5,1.5,0,0,0,0-3,1.5,1.5,0,0,0,0,3Z" fill="#f0f3bd"/><path d="M232.46,10.84a1.5,1.5,0,0,0,0-3,1.5,1.5,0,0,0,0,3Z" fill="#f0f3bd"/><path d="M165,7.25c0-.71,2.44-.34,2.43-1.49s-2.49-1.75-3.27-.85A5,5,0,0,1,161,6.25a9.54,9.54,0,0,1-5.6-1.67c-1.26-.81-2.79-.62-2.8.88,0,.9,1.43-.11,1.4.79a28.77,28.77,0,0,1-2.63,10.4c-2.91,4.85-.91,7.85,1.18,9.82,1.53,1.44,4.14,1.66,6.36,1.56a8,8,0,0,0,2.38-.44c4.38-1.6,4.5-5.06,4.32-8.22C165.38,15.41,165,7.25,165,7.25Z" fill="#457b9d"/><path d="M164.43,18.14h12.29a1.5,1.5,0,0,0,0-3H164.43a1.5,1.5,0,0,0,0,3Z" fill="#457b9d"/><path d="M159.31,17.77c4,1.85,8.11,3.4,12.21,5a1.79,1.79,0,0,0,2.19-1.24,1.83,1.83,0,0,0-1.24-2.19c-2.61-1-5.23-2-7.81-3.06l-.51-.21-.27-.11c.56.2.29.13.16.07l-.92-.4-2-.92a1.84,1.84,0,0,0-2.44.64,1.79,1.79,0,0,0,.64,2.43Z" fill="#457b9d"/><path d="M162.21,10.88a1.5,1.5,0,0,0,0-3,1.5,1.5,0,0,0,0,3Z" fill="#f0f3bd"/><path d="M157,10.76a1.5,1.5,0,0,0,0-3,1.5,1.5,0,0,0,0,3Z" fill="#f0f3bd"/><path d="M159.41,24.68a30.51,30.51,0,0,1,1.12,9.75,1.5,1.5,0,1,0,3,0,33.27,33.27,0,0,0-1.23-10.55,1.5,1.5,0,0,0-2.89.8Z" fill="#457b9d"/><path d="M153,23.9a61.58,61.58,0,0,1-.21,9.79,1.51,1.51,0,0,0,1.5,1.5,1.54,1.54,0,0,0,1.5-1.5A61.58,61.58,0,0,0,156,23.9a1.5,1.5,0,0,0-3,0Z" fill="#457b9d"/><path d="M314,9.81c0-.71,2-6.82,2-8A1.3,1.3,0,0,0,313.65,1c-.81.93-3.63,6.75-4.18,7.1-1,.67-1.5,0-1.89-.23-.15-.08-1.86-6-2.69-7.2a1.53,1.53,0,0,0-2.79.88c0,.9,1,6.8,1,7.7-.1,3.33-1.11,8.68-2.2,10.49-2.9,4.84-.9,7.84,1.19,9.82,1.52,1.44,4.13,1.66,6.36,1.56a8,8,0,0,0,2.37-.44c4.39-1.6,4.5-5.06,4.33-8.22-.22-4-1.15-12.54-1.16-12.63Z" fill="#d81e5b"/><path d="M308.31,29.79a30.2,30.2,0,0,1,1.12,9.74,1.5,1.5,0,1,0,3,0A33.21,33.21,0,0,0,311.2,29a1.5,1.5,0,1,0-2.89.8Z" fill="#d81e5b"/><path d="M301.87,29a61.53,61.53,0,0,1-.21,9.79,1.5,1.5,0,0,0,1.5,1.5,1.54,1.54,0,0,0,1.5-1.5,61.53,61.53,0,0,0,.21-9.79,1.5,1.5,0,0,0-3,0Z" fill="#d81e5b"/><path d="M313.94,19.22h11.28a1.5,1.5,0,0,0,0-3H313.94a1.5,1.5,0,0,0,0,3Z" fill="#d81e5b"/><path d="M311.31,22.36c4,.69,7.69,2.35,11.63,3.21a1.53,1.53,0,0,0,1.84-1.05,1.5,1.5,0,0,0-1-1.84c-3.93-.86-7.65-2.53-11.62-3.22a1.55,1.55,0,0,0-1.84,1.05,1.52,1.52,0,0,0,1,1.85Z" fill="#d81e5b"/><path d="M311.71,14a1.5,1.5,0,0,0,0-3,1.5,1.5,0,0,0,0,3Z" fill="#f0f3bd"/><path d="M306.46,13.84a1.5,1.5,0,0,0,0-3,1.5,1.5,0,0,0,0,3Z" fill="#f0f3bd"/><path d="M95.27,6.72c0-.72,4-1.82,4-3A1.3,1.3,0,0,0,97,2.9c-.81.93-3.63,1.75-4.17,2.1-1,.67-4.5,0-4.89-.24a36.18,36.18,0,0,1-3.69-2.19c-1.27-.81-2.79-.63-2.8.88,0,.9,4,1.79,4,2.69-.1,3.34-2.11,8.68-3.2,10.5-2.9,4.84-.9,7.84,1.19,9.82,1.53,1.44,4.13,1.66,6.36,1.56a8,8,0,0,0,2.38-.45c4.38-1.59,4.5-5.05,4.32-8.21-.22-4-1.14-12.54-1.15-12.64Z" fill="#5bc0be"/><path d="M89.62,26.7a30.21,30.21,0,0,1,1.13,9.74,1.51,1.51,0,0,0,1.5,1.5,1.53,1.53,0,0,0,1.5-1.5A33.47,33.47,0,0,0,92.52,25.9a1.5,1.5,0,1,0-2.9.8Z" fill="#5bc0be"/><path d="M83.18,25.91A59.28,59.28,0,0,1,83,35.7a1.51,1.51,0,0,0,1.5,1.5A1.53,1.53,0,0,0,86,35.7a59.28,59.28,0,0,0,.21-9.79,1.5,1.5,0,1,0-3,0Z" fill="#5bc0be"/><path d="M78.6,25.49A16.85,16.85,0,0,1,80,23.1l.12-.16-.07.09c.1-.12.19-.24.29-.35s.46-.51.7-.76a23.48,23.48,0,0,1,1.81-1.64l.64-.51c.13-.11,0,0-.06,0l.2-.15.37-.27c.56-.42,1.13-.83,1.71-1.22a1.54,1.54,0,0,0,.54-2.05,1.52,1.52,0,0,0-2.06-.54c-2.8,1.92-5.7,4-7.46,7-.26.44-.49.91-.73,1.37a1.5,1.5,0,0,0,2.59,1.51Z" fill="#5bc0be"/><path d="M95.11,16.15a1.34,1.34,0,0,1-1.51.32c-.28-.1-.15-.06-.07,0,.31.15-.27-.25,0,0s.47.42.69.65.59.66.87,1l.22.27c.25.32-.18-.25.06.09s.34.45.5.68a17,17,0,0,1,3,7,1.52,1.52,0,0,0,1.85,1.05,1.54,1.54,0,0,0,1.05-1.84A20.07,20.07,0,0,0,98,17c-.85-1.13-3.24-4.68-5-2.93a1.5,1.5,0,0,0,2.12,2.12Z" fill="#5bc0be"/><path d="M93,10.87a1.5,1.5,0,0,0,0-3,1.5,1.5,0,0,0,0,3Z" fill="#f0f3bd"/><path d="M87.78,10.75a1.5,1.5,0,0,0,0-3,1.5,1.5,0,0,0,0,3Z" fill="#f0f3bd"/></svg>