<svg id="Layer_1" data-name="Layer 1" xmlns="http://www.w3.org/2000/svg" viewBox="0 0 1034.56 77.03"><path d="M747,21.06c1.28.9,3.15-.25,4.51-1a2.93,2.93,0,0,0-1.6,2.1,2.35,2.35,0,0,0,1.06,2.36,4.32,4.32,0,0,0-2-.66A1.53,1.53,0,0,0,747.38,25a1,1,0,0,0-1.71-.12,1.86,1.86,0,0,1-.27.45c-.26.25-.47-.68-.81-.8-1.59-.56-9.1-3.74-11.43,4.31-.86,3-3.09,10.79-.93,11.55,2.83,1,15.36-6.8,21-9.21,11.72-5,18.76-.64,19.74.36,3.49,3.54,6,8.39,2.54,13.75-1.07,1.67-10.36,9.4-13.42,11-2.38,1.22-7.25,4.07-9.33,1.11-2.22-3.15-.09-5.12,2.22-6.12.07,0,13.24-6,14.79-8.49s.37-8.49-6.28-8.55c-5.54,0-19.93,7.77-22.4,9.27s-7.9,5-10.85,4.55c-3.94-.53-5.92-2.52-6.47-6.47-.39-2.81,4.07-16.26,6.52-19.3A9.48,9.48,0,0,1,738,18.41,14.07,14.07,0,0,1,747,21.06Z" fill="#f0c1a9"/><path d="M747,21.06c1.28.9,3.15-.25,4.51-1a2.93,2.93,0,0,0-1.6,2.1,2.35,2.35,0,0,0,1.06,2.36,4.32,4.32,0,0,0-2-.66A1.53,1.53,0,0,0,747.38,25a1,1,0,0,0-1.71-.12,1.86,1.86,0,0,1-.27.45c-.26.25-.47-.68-.81-.8-1.59-.56-9.1-3.74-11.43,4.31-.86,3-3.09,10.79-.93,11.55,2.83,1,15.36-6,21-8.41,11.72-5,17.63-1.05,19.88,1.43s5.19,8.2.17,12.65c-1.48,1.31-18,12.72-18.54,10-.44-2.35,11.24-8.64,16.45-13.1,2.21-1.9-1-9.81-7.61-9.87-5.55,0-20,8.9-22.49,10.4s-7.9,5-10.85,4.55c-3.94-.53-5.92-2.52-6.47-6.47-.39-2.81,4.07-16.26,6.52-19.3A9.48,9.48,0,0,1,738,18.41,14.07,14.07,0,0,1,747,21.06Z" fill="#cc9883"/><path d="M747.05,22.71c.19.67-11-3.48-14.08,4.33-.86,2.21-5.13,13.08-2.29,14.74,3.38,2,17.26-5.81,21.49-7.92,9.52-4.76,16-3.12,17.82-1.74,3.12,2.35,6.32,8.53,3.61,11.87-1,1.19-13.62,9.81-13.76,9.09-.05-.28,10.51-7.8,12.23-9.31,2.49-2.19.71-13.79-11.82-11.06-4.18.91-14.34,6.49-16.24,7.65s-10.66,5.82-12.93,5.51c-3-.42-4.56-1.95-5-5-.3-2.16,4.8-16.16,6.69-18.51,1.57-2,4.06-2.33,6.7-2.14C739.48,20.23,746.67,21.34,747.05,22.71Z" fill="#f0c1a9"/><path d="M730.72,26.77c.6.4,1.21.76,1.84,1.1a.62.62,0,0,0,.83-.22.62.62,0,0,0-.22-.83c-.63-.33-1.24-.7-1.84-1.09a.6.6,0,0,0-.82.21.61.61,0,0,0,.21.83Z" fill="#cc9883"/><path d="M729.91,29.09l.34.13-.14-.06a12.11,12.11,0,0,1,1.64.85.62.62,0,0,0,.83-.22.6.6,0,0,0-.22-.82,12.77,12.77,0,0,0-2.13-1,.64.64,0,0,0-.47.06.65.65,0,0,0-.27.36.59.59,0,0,0,.06.47.67.67,0,0,0,.36.28Z" fill="#cc9883"/><path d="M729.18,31.48l1.49,1a.62.62,0,0,0,.46.07.61.61,0,0,0,.15-1.11l-1.49-1a.64.64,0,0,0-.47-.06.63.63,0,0,0-.36.28.61.61,0,0,0,.22.82Z" fill="#cc9883"/><path d="M728.27,33.94l1.65.93a.62.62,0,0,0,.83-.22.62.62,0,0,0-.22-.83l-1.65-.92a.6.6,0,0,0-.82.21.62.62,0,0,0,.21.83Z" fill="#cc9883"/><path d="M727.44,36.52l1.75.92a.6.6,0,0,0,.61-1l-1.75-.92a.6.6,0,0,0-.82.22.61.61,0,0,0,.21.82Z" fill="#cc9883"/><path d="M746.89,23.08a.61.61,0,0,0,0-1.21.61.61,0,0,0,0,1.21Z"/><path d="M902.49,32.06l-6.85-4.83s-12.88,1.61-12.48,8.46c0,0,4.43,8.85,12.48,8.45l6.85-3.62S901.68,33.67,902.49,32.06Z" fill="#e0894f"/><path d="M955.22,41.73s.41,10.06-19.32,9.66a61.68,61.68,0,0,1-33.41-10.87s-.81-6.85,0-8.46c0,0,14.09-7.24,23.35-8.45s25.36-4.83,28.58,9.66a23.66,23.66,0,0,0-15.9,11.07S947.37,45.15,955.22,41.73Z" fill="#c0644b"/><path d="M931.67,33.88s.41,6-.8,7.24c0,0-10.07,5.24-15.3-3.62C915.57,37.5,920.4,26.63,931.67,33.88Z" fill="#e0894f"/><polygon points="907.48 29.69 902.69 28.24 908.32 28.24 905.51 25.82 911.14 26.63 908.73 23.81 914.36 25.02 911.95 22.2 917.18 24.21 917.18 20.59 920.4 25.02 907.48 29.69" fill="#e0894f"/><polygon points="906.53 43.11 902.29 44.74 907.92 44.74 905.1 46.76 911.34 45.59 908.32 49.17 915.57 47.37 911.95 51.59 917.79 48.16 915.97 51.59 921.61 48.87 906.53 43.11" fill="#e0894f"/><polygon points="928.68 50.19 922.41 55.62 931.67 56.42 934.67 50.78 928.68 50.19" fill="#e0894f"/><polyline points="951.4 43.34 951.8 39.71 952.41 43.54" fill="#f1faee"/><polyline points="948.58 43.74 948.99 39.31 949.39 44.14" fill="#f1faee"/><polyline points="946.17 44.14 946.97 40.12 946.97 44.54" fill="#f1faee"/><polyline points="943.75 44.14 944.15 41.32 944.56 44.54" fill="#f1faee"/><polyline points="941.54 44.34 941.74 42.53 942.14 44.95" fill="#f1faee"/><polyline points="952.21 33.88 952.61 37.5 953.21 33.67" fill="#f1faee"/><polyline points="949.39 35.08 949.79 39.51 950.19 34.68" fill="#f1faee"/><polyline points="946.57 36.29 947.38 40.32 947.38 35.89" fill="#f1faee"/><polyline points="944.15 37.9 944.56 40.72 944.96 37.5" fill="#f1faee"/><polyline points="942.34 39.71 942.54 41.52 942.95 39.11" fill="#f1faee"/><circle cx="945.97" cy="29.25" r="1.81" stroke="#f1faee" stroke-miterlimit="10" stroke-width="0.4"/><circle cx="946.27" cy="28.74" r="0.5" fill="#f1faee"/><path d="M921.87,41.8a25.38,25.38,0,0,0,5.13-.66,18.94,18.94,0,0,0,4.85-1.72c.68-.37.07-1.41-.61-1a17.91,17.91,0,0,1-4.56,1.6,23,23,0,0,1-4.81.61.61.61,0,0,0,0,1.21Z" fill="#b46836"/><path d="M919.08,40.34c4.11-.35,8.19-1.25,12.32-1.27a.6.6,0,0,0,0-1.2c-4.13,0-8.21.91-12.32,1.27-.76.06-.77,1.27,0,1.2Z" fill="#b46836"/><path d="M916.51,38l15.13.1a.61.61,0,0,0,0-1.21l-15.13-.1a.61.61,0,0,0,0,1.21Z" fill="#b46836"/><path d="M918.91,35.13c2.51.43,5,1,7.55,1.27.88.11,1.76.2,2.63.35a4.64,4.64,0,0,1,2,.58c.58.51,1.44-.34.85-.85a4.49,4.49,0,0,0-2.13-.82c-1-.19-1.91-.3-2.87-.41-2.59-.29-5.16-.84-7.74-1.29-.76-.13-1.08,1-.32,1.17Z" fill="#b46836"/><path d="M922.3,33a15,15,0,0,1,9.06,3.48c.6.49,1.45-.36.85-.85a16.31,16.31,0,0,0-9.91-3.84.61.61,0,0,0,0,1.21Z" fill="#b46836"/><path d="M884.31,36.18a109.42,109.42,0,0,1,18.46,0c.77.06.77-1.15,0-1.21a110.48,110.48,0,0,0-18.46,0c-.77.06-.78,1.27,0,1.21Z" fill="#b46836"/><path d="M886.37,33.73c5.29-.28,10.65.7,15.83,1.63.76.14,1.09-1,.33-1.16-5.29-1-10.76-2-16.16-1.68-.77,0-.77,1.25,0,1.21Z" fill="#b46836"/><path d="M891.21,31.23a25.83,25.83,0,0,1,5.27,1.41l5.4,1.64a.61.61,0,0,0,.33-1.17l-5.62-1.7A26.43,26.43,0,0,0,891.21,30c-.78-.06-.77,1.15,0,1.21Z" fill="#b46836"/><path d="M886.89,38.88c2.61.28,5-.87,7.5-1.36A69.25,69.25,0,0,0,902.22,36c.74-.24.42-1.4-.32-1.17a60.17,60.17,0,0,1-7.55,1.43c-2.49.46-4.88,1.65-7.46,1.37-.77-.08-.76,1.12,0,1.21Z" fill="#b46836"/><path d="M891.38,41.3c3.81-1.78,8.22-2.44,11.54-5.17.6-.5-.26-1.35-.86-.86a17.91,17.91,0,0,1-5.49,2.79c-1.94.71-3.93,1.32-5.8,2.2-.7.33-.09,1.37.61,1Z" fill="#b46836"/><path d="M896.37,41.77c2.38-1.81,5.28-3,7.42-5.12.55-.55-.31-1.4-.86-.85-2.06,2.06-4.87,3.18-7.17,4.93a.62.62,0,0,0-.21.83.6.6,0,0,0,.82.21Z" fill="#b46836"/><path d="M927.42,54.75q.18-.24.42-.51c.14-.16.3-.32.46-.47s.6-.55.9-.82a7.87,7.87,0,0,0,1.73-2.08.61.61,0,0,0-1-.61,5.45,5.45,0,0,1-.74,1.07,11.5,11.5,0,0,1-.87.84,12.57,12.57,0,0,0-1.89,2,.6.6,0,0,0,.21.83.62.62,0,0,0,.83-.22Z" fill="#b46836"/><path d="M929.61,55.39A37,37,0,0,0,932.17,51a.6.6,0,1,0-1.16-.32,36.32,36.32,0,0,1-2.44,4.15.61.61,0,0,0,.21.83.63.63,0,0,0,.83-.22Z" fill="#b46836"/><path d="M932.1,54.74A14.63,14.63,0,0,0,933,51.1a.62.62,0,0,0-.42-.75.61.61,0,0,0-.74.42c-.15.58-.22,1.18-.33,1.77,0,.29-.11.58-.19.87s-.09.29-.14.43-.05.11,0,0,0,0,0,0a1.28,1.28,0,0,1-.11.2.62.62,0,0,0,.22.83.62.62,0,0,0,.83-.22Z" fill="#b46836"/><path d="M935.75,34.94a33.7,33.7,0,0,1,.47-3.75,6.83,6.83,0,0,1,1-3.07.6.6,0,1,0-.85-.85,7.39,7.39,0,0,0-1.28,3.46,33.18,33.18,0,0,0-.53,4.21c0,.77,1.15.77,1.2,0Z" fill="#874030"/><path d="M936.09,35.63c1.21-1.66,2.45-3.29,3.73-4.91a.62.62,0,0,0,0-.85.61.61,0,0,0-.86,0Q937,32.41,935,35a.61.61,0,1,0,1.05.61Z" fill="#874030"/><path d="M123.22,42.25A129.1,129.1,0,0,0,150.64,64.9c.61.37,1.16-.45.73-1a156.47,156.47,0,0,0-11.14-11.46c-3.93-3.69-8.31-7.48-8.84-13.22-.08-.76-1.28-.77-1.21,0,.53,5.67,4.41,9.64,8.38,13.32a153.27,153.27,0,0,1,12,12.22l.73-1A128.28,128.28,0,0,1,124.07,41.4c-.53-.57-1.38.28-.85.85Z" fill="#f1faee"/><path d="M134.67,26.18a100.57,100.57,0,0,1,9.39,18.65,144.83,144.83,0,0,1,6.3,19.71c.18.76,1.34.44,1.16-.32a143.38,143.38,0,0,0-6.45-20.1,101.73,101.73,0,0,0-9.35-18.55c-.43-.64-1.48,0-1.05.61Z" fill="#f1faee"/><path d="M145.75,26.83c-.61,7.32,1.48,14.45,4.69,21a125.44,125.44,0,0,0,10.42,17.3c.44.62,1.47.06,1-.61a55.6,55.6,0,0,1-8.51-33.23c.06-.77-1.15-.77-1.21,0-.94,11.59,2.49,24.06,8.68,33.84l1-.61a128.35,128.35,0,0,1-10.08-16.62c-3.29-6.53-5.48-13.65-4.86-21,.07-.77-1.14-.77-1.21,0Z" fill="#f1faee"/><path d="M139.05,39.9c.25,2.64,2,5,3.41,7.2a64.24,64.24,0,0,0,5.33,7,54.08,54.08,0,0,0,13.29,11.25.6.6,0,0,0,.61-1,52.4,52.4,0,0,1-12.47-10.42,60.86,60.86,0,0,1-5.14-6.52c-1.47-2.13-3.57-4.8-3.83-7.44-.07-.76-1.28-.77-1.2,0Z" fill="#f1faee"/><path d="M160.33,62.73c3.53-3.26,5.66-8,7.53-12.31,2.39-5.55,4.72-11.16,6.55-16.93.24-.74-.93-1.06-1.16-.32-1.8,5.67-4.08,11.18-6.43,16.65-1.83,4.24-3.89,8.88-7.34,12.06-.58.53.28,1.38.85.85Z" fill="#f1faee"/><path d="M151.52,64.54c1.82-13,8.49-25.19,8.08-38.56,0-.77-1.24-.78-1.21,0,.41,13.25-6.23,25.32-8,38.24-.11.76,1.06,1.09,1.16.32Z" fill="#f1faee"/><path d="M166.49,64.6a102.22,102.22,0,0,1-1-21.48c.48-7.09,1.87-14.3,5.23-20.63.36-.69-.68-1.3-1-.61-3.4,6.4-4.85,13.66-5.36,20.84a102.54,102.54,0,0,0,1,22.21c.11.76,1.28.44,1.17-.33Z" fill="#f1faee"/><path d="M161.69,65.32A70.18,70.18,0,0,0,188,37.25c.36-.69-.69-1.3-1-.61a69,69,0,0,1-25.85,27.64.6.6,0,0,0,.61,1Z" fill="#f1faee"/><path d="M165.9,65.37c3.66,0,6.92-1.75,9.86-3.75,2.78-1.89,5.54-3.89,8.14-6a139.55,139.55,0,0,0,12-11c.54-.57-.31-1.42-.85-.86a142.45,142.45,0,0,1-11.29,10.41c-2.39,2-4.94,3.82-7.48,5.63-3.06,2.17-6.45,4.36-10.34,4.34a.61.61,0,0,0,0,1.21Z" fill="#f1faee"/><path d="M166.63,64.68c3.4-7.55,9.07-13.86,12.31-21.49,2.29-5.41,2.58-11.48,3.52-17.22.12-.76-1-1.09-1.17-.32-.93,5.67-1.19,11.73-3.46,17.07-3.22,7.59-8.87,13.85-12.25,21.35-.31.71.73,1.32,1,.61Z" fill="#f1faee"/><path d="M122.46,41.89c-.17.39-.76.15-1-.15-2.25-2.35-2.74-5.86-2.7-9.11a5.74,5.74,0,0,1,4.55,3.29,8,8,0,0,1,.26,5.74" fill="#dc5a42"/><path d="M129.9,39.86a15.19,15.19,0,0,1-1.48-5.13,6.85,6.85,0,0,1,1.51-5A8.93,8.93,0,0,1,133,36.08c.05,1.47-.48,3.2-1.88,3.65" fill="#dc5a42"/><path d="M134.15,25.5c-1.56.07-3.73-.64-4.44-2a8.13,8.13,0,0,1-.66-2.64l-.59-4.42a18.94,18.94,0,0,1,3.26,1.89,6.85,6.85,0,0,1,1.62,1.51c1.13,1.6,1,3.74.81,5.7" fill="#dc5a42"/><path d="M139.15,40.2c-1.92-2.49-3.72-3.79.22-10.13a20.29,20.29,0,0,1,2,4.53,6.66,6.66,0,0,1,.33,3.33,3.45,3.45,0,0,1-2.55,2.37" fill="#dc5a42"/><path d="M148.92,21.33A13.86,13.86,0,0,0,147.5,17c-1.45,2-3.26,3.35-3.17,5.78,0,.45,1.73,3.65,2.17,3.56C146.5,26.37,149.06,22.85,148.92,21.33Z" fill="#dc5a42"/><path d="M159.2,26.08a1.69,1.69,0,0,1-2.2-.76,4.92,4.92,0,0,1-.43-2.53c0-1.84,0-3.68.07-5.51a18,18,0,0,1,3.37,4.9c.61,1.29,1,3-.11,4" fill="#dc5a42"/><path d="M152.8,31.76c-2.6-2.76-2.5-4.39.15-9.08.53,1.5,1.93,2.48,2.4,4.48.19.84-1.46,4.08-2.14,4.6" fill="#dc5a42"/><path d="M170.06,22.3c-1.19-3.29.92-8.12,3.82-10.09,1,2.88,1.34,8.14-3.82,10.09" fill="#dc5a42"/><path d="M173,34.17c-.79.23-1.3-.83-1.38-1.65a12.32,12.32,0,0,1,1.67-7.36c1.32,1.31,2.68,2.75,3.07,4.57s-.66,4.08-2.51,4.27" fill="#dc5a42"/><path d="M181.88,25.81c-.86,0-1.39-.92-1.63-1.74a11.89,11.89,0,0,1,.65-8.42,12.49,12.49,0,0,1,2.74,4.41c.69,1.88.76,4.33-.84,5.54" fill="#dc5a42"/><path d="M187.18,37.7c-.89-2.54,1.88-6.83,4.22-8.16a13.56,13.56,0,0,1,.26,4c-.19,1.33-.95,3.39-4.43,4.14" fill="#dc5a42"/><path d="M195.65,43.83a3.22,3.22,0,0,1,1.59-3.16,9.48,9.48,0,0,1,3.55-1.13,3.86,3.86,0,0,1-5.1,4.94" fill="#dc5a42"/><path d="M99.65,9.56c.47-3,3.54-4.9,6.38-6.06A47.48,47.48,0,0,1,116.42.59a17.43,17.43,0,0,1-15.7,10.78" fill="#c36c67"/><path d="M100.24,9.72c.52-3,3.4-4.59,6-5.64a48.2,48.2,0,0,1,10.39-2.91l-.74-.74a16.84,16.84,0,0,1-15.12,10.33.61.61,0,0,0,0,1.21A18.07,18.07,0,0,0,117,.75c.19-.47-.34-.81-.74-.74a45.88,45.88,0,0,0-11.19,3.25c-2.66,1.18-5.45,3.07-6,6.14-.13.76,1,1.09,1.17.32Z" fill="#dc7c77"/><path d="M56.73,37.76c-5.9,6.49-11.89,13.1-19.23,18a43.76,43.76,0,0,1-11.27,5.54,39.88,39.88,0,0,1-6.11,1.34,15.75,15.75,0,0,0-5.46,1.54,11,11,0,0,0-5.52,8.88c-.05.78,1.16.78,1.21,0a9.68,9.68,0,0,1,5.81-8.27c2-.82,4.18-.92,6.28-1.3a35.51,35.51,0,0,0,5.71-1.57c7.39-2.68,13.77-7.44,19.42-12.82,3.5-3.34,6.76-6.92,10-10.5.52-.57-.33-1.43-.86-.85Z" fill="#dc7c77"/><path d="M56.9,35.73a38.36,38.36,0,0,0-10.53,3.93,73,73,0,0,0-9.78,5.8,43.83,43.83,0,0,0-7,6.91c-2.09,2.43-4.34,5-7.39,6.23-3.54,1.44-7.59-.26-11,1.72a.6.6,0,0,0,.61,1c3-1.75,6.7-.31,9.92-1.31a16.82,16.82,0,0,0,7.09-5c2.21-2.4,4.17-5,6.66-7.15A52.85,52.85,0,0,1,45,41.75c3.88-2.09,7.85-4,12.21-4.85.76-.14.44-1.31-.32-1.17Z" fill="#dc7c77"/><path d="M55.65,33.32C48.81,37.72,40,37,33.23,41.59a33.58,33.58,0,0,0-8.07,8.19c-2.45,3.38-4.36,7.15-7,10.4-3,3.68-7.62,6.82-12.55,5.36a.61.61,0,0,0-.32,1.17c3.69,1.09,7.55-.18,10.52-2.47,3.38-2.62,5.53-6.42,7.78-10a44.22,44.22,0,0,1,8-9.91,26.6,26.6,0,0,1,11.58-5.52c4.49-1.11,9.13-1.93,13.08-4.47.65-.42.05-1.47-.61-1Z" fill="#dc7c77"/><path d="M55.42,32.21,39.25,34.46c-4.84.67-9.85,1.17-14.32,3.3-7.72,3.68-11.63,11.7-15.3,19C7.56,60.8,5,65.31.42,66.88-.32,67.13,0,68.29.74,68,8.52,65.4,11,55.9,14.79,49.55A28.5,28.5,0,0,1,23.44,40c4.17-2.67,9.15-3.38,14-4l18.34-2.54c.76-.11.44-1.27-.32-1.17Z" fill="#dc7c77"/><path d="M58.41,36.51a64.83,64.83,0,0,1-24.94,6.23c-4.33.19-8.74,0-13,1.08a31.74,31.74,0,0,0-8.17,3.32C9.75,48.61,7,50.58,6,53.5c-.26.73.91,1,1.17.32.93-2.69,3.75-4.49,6.11-5.81a29.86,29.86,0,0,1,8.51-3.23c4.24-.86,8.6-.63,12.9-.89a66.17,66.17,0,0,0,11.62-1.76A67.16,67.16,0,0,0,59,37.56c.7-.34.09-1.38-.61-1.05Z" fill="#dc7c77"/><path d="M57.37,37.44A107.7,107.7,0,0,1,39.15,57.83c-3.34,3-6.8,5.81-10.32,8.58-2.12,1.67-4.51,3.54-5.12,6.34-.45,2.12.68,4.07,2.87,4.25s4.6-.74,6.64-1.57A49,49,0,0,0,45.3,68.74C54.08,61.68,62.82,54.64,72,48.05c.62-.45,0-1.5-.61-1q-11.3,8.13-22.09,16.91a74.34,74.34,0,0,1-6.64,5.22,67.85,67.85,0,0,1-6.28,3.54c-1.84.92-11.46,6-11.54,1.06,0-2.9,3.05-5,5.05-6.61C33.2,64.5,36.49,61.8,39.68,59A109.58,109.58,0,0,0,58.41,38.05c.43-.65-.62-1.26-1-.61Z" fill="#dc7c77"/><path d="M56.84,33.81c-6.68-.63-13.39,0-19.16,3.69-5.2,3.34-9.28,8.23-14.81,11.1A20.07,20.07,0,0,1,12,50.84c-4.42-.39-.87-7.23.7-9,2.4-2.72,5.68-4.52,8.68-6.48q4.89-3.18,9.71-6.46c7.24-4.92,14.39-10,21.54-15,.63-.45,0-1.49-.61-1-6.82,4.8-13.64,9.61-20.54,14.31-3.48,2.37-7,4.72-10.51,7-3.09,2-6.47,3.88-9,6.64C10,43.1,8.41,46.24,8.88,49.4c.51,3.43,4.8,2.85,7.37,2.51,7.07-.92,12.13-5.47,17.39-9.86,3-2.55,6.28-4.92,10.12-6.11A33.35,33.35,0,0,1,56.84,35c.78.07.77-1.14,0-1.21Z" fill="#dc7c77"/><path d="M57.73,37.23C50.26,37,41.64,38.3,36.65,44.46c-2.76,3.41-4.13,7.74-6.33,11.5a28.53,28.53,0,0,1-9,10.08C17,68.75,11.6,69.81,6.79,67.9c-.72-.29-1,.88-.32,1.16,8.25,3.28,16.86-1.54,21.9-8,2.76-3.53,4.58-7.52,6.57-11.5a17.88,17.88,0,0,1,9-9,31.8,31.8,0,0,1,13.8-2.11c.77,0,.77-1.18,0-1.21Z" fill="#dc7c77"/><path d="M71.71,47.83a25.46,25.46,0,0,1,6-5.7,13.39,13.39,0,0,1,7.88-2.28c.17,0,.4.07.42.25a.34.34,0,0,1-.13.29c-3.75,4.44-9.67,6.37-15.39,7.38" fill="#dc7c77"/><path d="M72.14,48.26a25.17,25.17,0,0,1,5.79-5.54A14.63,14.63,0,0,1,81.54,41a12.79,12.79,0,0,1,1.83-.43,11,11,0,0,1,1.17-.11l1-.05-.06-.46c-.1.5-1,1.15-1.39,1.49a15.36,15.36,0,0,1-1.74,1.39,22.75,22.75,0,0,1-3.68,2,36.65,36.65,0,0,1-8.29,2.34c-.76.14-.44,1.3.32,1.17,4.66-.84,9.4-2.23,13.18-5.18a13.49,13.49,0,0,0,2.53-2.42c.73-1-.28-1.51-1.18-1.52a13.9,13.9,0,0,0-7.31,2.08,25.39,25.39,0,0,0-6.61,6.09c-.48.6.37,1.46.86.85Z" fill="#dc7c77"/><path d="M52.94,12.77a11.94,11.94,0,0,1,12-5.26,41.5,41.5,0,0,1-12.45,5.75" fill="#dc7c77"/><path d="M53.46,13.07a11.35,11.35,0,0,1,11.29-5L64.6,7a41.88,41.88,0,0,1-12.3,5.69.6.6,0,0,0,.32,1.16A42.55,42.55,0,0,0,65.21,8c.39-.26.41-1-.14-1.1a12.63,12.63,0,0,0-12.66,5.53c-.41.66.63,1.27,1.05.61Z" fill="#dc7c77"/><path d="M53,32.37l3.25,7.09a32,32,0,0,0,5.25-1A82.67,82.67,0,0,0,108.85,5.62C92.07,9.69,74.62,14.1,61.51,25.34c-2.49,2.13-6.4,4.49-8.47,7" fill="#dc7c77"/><path d="M52.52,32.68l1.57,3.43,1,2.24a6.92,6.92,0,0,0,.64,1.38c.7.91,3.24-.06,4.13-.26,2.27-.52,4.5-1.13,6.71-1.84a83.7,83.7,0,0,0,29.69-17A82.3,82.3,0,0,0,109.37,5.92c.32-.45-.2-1-.68-.88C92.77,8.9,76.14,13,63,23.34c-1.79,1.4-3.53,2.86-5.36,4.22a28.74,28.74,0,0,0-5,4.38c-.5.6.35,1.45.85.86,2.5-3,6-5,8.94-7.44a62.06,62.06,0,0,1,10.24-6.9A109.65,109.65,0,0,1,95.47,9.67C100,8.41,104.48,7.3,109,6.2l-.68-.89a82.22,82.22,0,0,1-41.68,31c-2,.65-4,1.22-6,1.71a14.29,14.29,0,0,1-4.36.81l.53.3-3.26-7.09c-.32-.71-1.36-.1-1,.61Z" fill="#dc7c77"/><path d="M64,24.67c4.24,1.63,5,6.75,5,10.71a.6.6,0,0,0,1.2,0,17,17,0,0,0-1.31-7.5,8.5,8.5,0,0,0-4.56-4.38c-.72-.28-1,.89-.32,1.17Z" fill="#c36c67"/><path d="M59.79,31.91a3.23,3.23,0,0,0,1,2.13,2.54,2.54,0,0,0,1.57.66,4,4,0,0,0,2.76-.55,3.21,3.21,0,0,0,1.21-3.46,3.48,3.48,0,0,0-2.82-2.4A3.32,3.32,0,0,0,59.79,31.91Z" fill="#f1faee"/><path d="M64.39,30A1.84,1.84,0,0,1,65,32.61a2.22,2.22,0,0,1-2.45.56,1.76,1.76,0,0,1-1.08-2.47A2,2,0,0,1,64.39,30Z"/><path d="M62.31,31.31a.61.61,0,0,0,0-1.21.61.61,0,0,0,0,1.21Z" fill="#f1faee"/><path d="M802.82,32.58a7.48,7.48,0,0,1,4,.7,9.42,9.42,0,0,1,3.45,2.35c.51.58,1.36-.27.85-.86a10.43,10.43,0,0,0-4-2.65,8.54,8.54,0,0,0-4.67-.7c-.76.14-.44,1.3.33,1.16Z" fill="#fdf2ce"/><path d="M819.12,28.48a8.17,8.17,0,0,1,.92-3.8,8.62,8.62,0,0,1,2.29-3,.63.63,0,0,0,.22-.83.61.61,0,0,0-.83-.21A9.66,9.66,0,0,0,819,24.07a9.47,9.47,0,0,0-1.09,4.41.61.61,0,0,0,1.21,0Z" fill="#fdf2ce"/><path d="M824.8,26.94a6.45,6.45,0,0,1,1.09-2.9,12,12,0,0,1,2.28-2.34.6.6,0,0,0,0-.85.61.61,0,0,0-.85,0,12.43,12.43,0,0,0-2.52,2.65,7.67,7.67,0,0,0-1.2,3.44.6.6,0,0,0,.6.61.61.61,0,0,0,.6-.61Z" fill="#fdf2ce"/><path d="M831.06,26.54a4.74,4.74,0,0,1,.25-1.29,4.45,4.45,0,0,1,.56-1.11,3.85,3.85,0,0,1,.38-.46c.16-.18.34-.35.52-.52a9.66,9.66,0,0,1,1.24-.91c.65-.41,0-1.46-.61-1a8.77,8.77,0,0,0-2.57,2.32,6,6,0,0,0-1,3,.61.61,0,0,0,1.21,0Z" fill="#fdf2ce"/><path d="M836.92,26.68c.12-.28.21-.57.33-.86,0-.09.07-.18.11-.27-.07.15,0,0,0,0l.06-.12c.09-.19.18-.38.29-.57s.23-.37.35-.54l.05-.07h0l.1-.12.24-.26.27-.26.13-.11.09-.07s0,0,0,0a6,6,0,0,1,.73-.45.6.6,0,0,0-.61-1,5.89,5.89,0,0,0-2.37,2.27,14.76,14.76,0,0,0-.93,2.17.6.6,0,1,0,1.16.32Z" fill="#fdf2ce"/><path d="M841.45,27.91a10.1,10.1,0,0,1,2.43-3.69.6.6,0,0,0-.85-.85,11.39,11.39,0,0,0-2.75,4.22.61.61,0,0,0,1.17.32Z" fill="#fdf2ce"/><path d="M817.68,49.53c.53,2.64,2.24,4.77,4,6.71.53.57,1.38-.28.85-.85-1.64-1.8-3.21-3.74-3.71-6.19-.15-.76-1.32-.43-1.16.33Z" fill="#fdf2ce"/><path d="M823.47,49.37a6.11,6.11,0,0,0,1,3.08,12,12,0,0,0,1.93,2.4c.56.54,1.42-.31.86-.85a10.77,10.77,0,0,1-1.71-2.1,5.12,5.12,0,0,1-.89-2.53.61.61,0,0,0-1.21,0Z" fill="#fdf2ce"/><path d="M828.13,49.58a4.9,4.9,0,0,0,1,2.7,8,8,0,0,0,2.15,2.1.62.62,0,0,0,.83-.22.62.62,0,0,0-.22-.83l-.23-.15-.14-.11,0,0-.49-.43a6.89,6.89,0,0,1-.82-.94,4.62,4.62,0,0,1-.35-.55c-.06-.1-.12-.2-.17-.3l-.07-.14s-.06-.14,0-.06a3.58,3.58,0,0,1-.19-.55l0-.17s0-.16,0-.08,0-.09,0-.08a.92.92,0,0,1,0-.16.61.61,0,0,0-.6-.61.62.62,0,0,0-.61.61Z" fill="#fdf2ce"/><path d="M833.5,49.35a7.81,7.81,0,0,0,3.71,4.19.61.61,0,0,0,.61-1,10.41,10.41,0,0,1-1-.69l0,0-.12-.1-.26-.22c-.16-.14-.32-.3-.47-.45s-.27-.31-.4-.47.06.09-.06-.07l-.09-.12-.17-.25a5.86,5.86,0,0,1-.3-.55l-.08-.16c0,.06,0,0,0,0s-.08-.22-.11-.33a.63.63,0,0,0-.75-.42.61.61,0,0,0-.42.74Z" fill="#fdf2ce"/><path d="M839,49c.44,1.65,1.74,2.77,2.92,3.91a.61.61,0,0,0,.86-.86c-.55-.52-1.12-1-1.63-1.61l-.16-.2a.52.52,0,0,1-.06-.07c0,.06-.05-.06-.05-.07a5.44,5.44,0,0,1-.57-1c0,.06,0,0,0,0l-.05-.14-.09-.3a.61.61,0,0,0-.74-.42A.62.62,0,0,0,839,49Z" fill="#fdf2ce"/><path d="M852.08,28.8a2.09,2.09,0,0,1,2.2-2.31,10,10,0,0,1,3,.63,2.5,2.5,0,0,1,1.26,2.47" fill="#fdf2ce"/><path d="M852.66,28.64a1.32,1.32,0,0,1,.1-.62,1.57,1.57,0,0,1,.51-.63,2.46,2.46,0,0,1,1.92-.2,10.58,10.58,0,0,1,1.24.28,2.44,2.44,0,0,1,.82.33,1.89,1.89,0,0,1,.7,1.63c-.15.76,1,1.09,1.17.32a3.07,3.07,0,0,0-1-2.75,5.43,5.43,0,0,0-2.85-1,3.46,3.46,0,0,0-2.9.55A2.55,2.55,0,0,0,851.5,29a.6.6,0,0,0,.74.42.62.62,0,0,0,.42-.74Z" fill="#0b132b"/><path d="M851.67,49.38a3.16,3.16,0,0,0,.57,2.65,3.46,3.46,0,0,0,1.92.7,4.79,4.79,0,0,0,3.31-.75,2,2,0,0,0,.59-2.67" fill="#fdf2ce"/><path d="M851.09,49.22a3.5,3.5,0,0,0,.11,2.19,2.7,2.7,0,0,0,.53,1,2.91,2.91,0,0,0,1.25.72c1.71.57,4.19.33,5.38-1.15a2.72,2.72,0,0,0,.28-2.8.62.62,0,0,0-.74-.42.61.61,0,0,0-.43.74,1.53,1.53,0,0,1-.28,2,3.74,3.74,0,0,1-2.57.73,4.52,4.52,0,0,1-1.37-.23,1.28,1.28,0,0,1-.77-.56,2.61,2.61,0,0,1-.23-1.82.61.61,0,0,0-.42-.74.6.6,0,0,0-.74.42Z" fill="#0b132b"/><path d="M809.45,39.42A9.8,9.8,0,0,1,813,31.13c2.63-2.19,6-3.24,9.4-3.9a43.18,43.18,0,0,1,13.27-.65c3.44.41,6.81,1.3,10.23,1.85,1.33.21,2.67.37,4,.54l2,.24,7.68,1c.86-.18,3.47-.59,4.27-.69-.6.88-1.61,2.16-2.22,3.05l3.95-.49-2.95,2.62,2.95.8a9.12,9.12,0,0,1-2.7,1.26,8.48,8.48,0,0,1,3.81,1.57c-1.23.32-2.46-.17-3.68.15.13.09,3.72,1.76,3.85,1.85-.29.11-4.05.25-4.34.37,1.77.76,2.94,1.79,4.38,2.26a32.57,32.57,0,0,1-5.31-.19,18.87,18.87,0,0,1,4.18,2.55,25.15,25.15,0,0,1-4.25-.38A9.17,9.17,0,0,1,864,47.17a9.71,9.71,0,0,1-4.25-.35l1.49,2.27-3.81-.49-36.7,1.06a10.33,10.33,0,0,1-3.19-.24C815.38,48.79,809.51,45.08,809.45,39.42Z" fill="#fdf2ce"/><path d="M850.07,28.67V48.62a.61.61,0,0,0,1.21,0V28.67a.61.61,0,0,0-1.21,0Z" fill="#0b132b"/><path d="M848.28,28.9a72.43,72.43,0,0,0-.68,9.43,43.71,43.71,0,0,0,.58,10.47c.15.77,1.31.44,1.17-.32a43.12,43.12,0,0,1-.55-10.15,71,71,0,0,1,.64-9.11c.14-.76-1-1.08-1.16-.32Z" fill="#0b132b"/><path d="M847.26,27.93c-2.26,4.35-2.22,9.26-2.18,14a22.7,22.7,0,0,0,.45,4,10.66,10.66,0,0,0,.85,3.44.61.61,0,0,0,1-.61,9.73,9.73,0,0,1-.72-3,22.33,22.33,0,0,1-.42-3.82c0-4.55-.14-9.29,2-13.44.36-.69-.68-1.3-1-.61Z" fill="#0b132b"/><path d="M845.54,27.51a26.44,26.44,0,0,0-2.84,12.12,27.11,27.11,0,0,0,1.35,9.92c.27.72,1.44.41,1.16-.32a25.75,25.75,0,0,1-1.3-9.26,25.46,25.46,0,0,1,2.67-11.85c.36-.69-.68-1.3-1-.61Z" fill="#0b132b"/><path d="M837.52,26.35c-2.2,3.54-2.55,7.71-2.46,11.78.09,3.88,0,8.18,2.09,11.62.4.66,1.45.06,1-.61-2-3.24-1.84-7.35-1.92-11-.09-3.87.2-7.81,2.29-11.17.41-.66-.63-1.27-1-.61Z" fill="#0b132b"/><path d="M843.15,27.56a19.52,19.52,0,0,0-2.78,10.55c0,3.76,0,7.92,2,11.24a.6.6,0,0,0,1-.61c-1.9-3.13-1.87-7.09-1.85-10.63a18.17,18.17,0,0,1,2.62-9.94c.41-.66-.63-1.27-1.05-.61Z" fill="#0b132b"/><path d="M840.33,27.16c-2.3,3.65-2.88,7.47-2.75,11.72a22.19,22.19,0,0,0,2.79,10.87c.41.66,1.45,0,1-.61a20.79,20.79,0,0,1-2.63-10.26c-.13-4.05.39-7.63,2.59-11.11.41-.66-.63-1.27-1-.61Z" fill="#0b132b"/><path d="M832.18,25.85c-2.46,3.88-2.43,8.54-2.49,13-.06,3.74.24,7.92,2.66,11,.48.61,1.33-.25.85-.85-2.28-2.86-2.36-7-2.3-10.49.07-4.1,0-8.38,2.32-12,.42-.65-.63-1.26-1-.61Z" fill="#0b132b"/><path d="M834.59,25.85c-2.48,3.93-2,8.58-2.09,13-.06,3.64-.11,7.9,2.26,10.9.48.61,1.33-.25.86-.85-2.2-2.78-2-7-1.91-10.35.07-4.13-.39-8.45,1.92-12.11.42-.66-.62-1.26-1-.61Z" fill="#0b132b"/><path d="M828.85,25.78a19.47,19.47,0,0,0-1.83,7.7,35.46,35.46,0,0,0,0,5.92,54,54,0,0,0,.9,6.08c.31,1.42.62,3.29,1.68,4.37.55.55,1.4-.3.86-.86-.94-1-1.17-2.85-1.43-4.09a52.69,52.69,0,0,1-.82-5.73,34.19,34.19,0,0,1,0-5.16,18.82,18.82,0,0,1,1.7-7.62c.37-.68-.67-1.29-1-.61Z" fill="#0b132b"/><path d="M825.13,26.36a51.61,51.61,0,0,0-1.58,13,50.52,50.52,0,0,0,.38,6.15A9.19,9.19,0,0,0,825.34,50c.47.61,1.52,0,1-.61-1-1.28-1.15-3.08-1.32-4.64a51.78,51.78,0,0,1,1.24-18.11.61.61,0,0,0-1.17-.32Z" fill="#0b132b"/><path d="M820.93,27.23c-1.31,3.78-1.33,8-1.42,11.92-.08,3.63.14,7.55,1.78,10.85.34.69,1.39.08,1-.61-1.59-3.19-1.7-7.06-1.6-10.56.11-3.76.12-7.69,1.37-11.28.26-.73-.91-1.05-1.17-.32Z" fill="#0b132b"/><path d="M816.38,28.81c-1,6.7-.58,13.58,0,20.3.06.77,1.27.77,1.21,0-.57-6.6-1-13.39-.05-20,.11-.76-1-1.09-1.16-.32Z" fill="#0b132b"/><path d="M803.79,46.76a15.17,15.17,0,0,0,4-1.71,13.06,13.06,0,0,0,3.43-2.66c.49-.59-.36-1.45-.86-.85A11.94,11.94,0,0,1,807.2,44a14.13,14.13,0,0,1-3.73,1.59c-.75.17-.43,1.34.32,1.16Z" fill="#fdf2ce"/><path d="M811.66,34.42c.51.55.27,1.39.06,2a8.92,8.92,0,0,0-.65,1.79c-.18,1.58,1.52,3.27.27,4.71-.51.58.34,1.44.86.85a3.27,3.27,0,0,0,.71-3,12.81,12.81,0,0,0-.43-1.37,2.45,2.45,0,0,1-.21-1.13,3.47,3.47,0,0,1,.31-.81,8.11,8.11,0,0,0,.45-1.25,2.8,2.8,0,0,0-.52-2.7c-.53-.57-1.39.29-.85.85Z" fill="#0b132b"/><path d="M808.65,39.34h.72a.61.61,0,0,0,.43-.17.53.53,0,0,0,.13-.2.59.59,0,0,0,.05-.23.62.62,0,0,0-.18-.43.66.66,0,0,0-.43-.17h-.72a.63.63,0,0,0-.43.17.51.51,0,0,0-.12.2.37.37,0,0,0-.05.23.61.61,0,0,0,.17.43.63.63,0,0,0,.43.17Z" fill="#fdf2ce"/><path d="M638.83,21.6c.95-.25,1.89-.54,2.83-.79a12.29,12.29,0,0,1,2.87-.58,2.53,2.53,0,0,1,2.05.72,2.29,2.29,0,0,1,.39,1.66,3.36,3.36,0,0,1-.17.85.84.84,0,0,1,0,.17c0,.07-.08.18,0,.05a1,1,0,0,1-.14.24c-.45.63.59,1.23,1,.61a3.63,3.63,0,0,0,.51-1.64,3.93,3.93,0,0,0-.35-2.27c-1.07-2.06-3.73-1.66-5.57-1.21-1.25.31-2.48.7-3.72,1a.61.61,0,0,0,.32,1.17Z" fill="#f1faee"/><path d="M639.8,20.47c.68,0-1.53,1.84-1.7,2l-.78.48A6.27,6.27,0,0,1,634.84,24a2.18,2.18,0,0,1-2.3-1.09,2,2,0,0,1,.58-2.19,3.51,3.51,0,0,1,2.24-.78,14,14,0,0,1,2.4.26S639,20.42,639.8,20.47Z" fill="#70ee49"/><path d="M674.4,45.86a24.5,24.5,0,0,0,5.61-.19,1.3,1.3,0,0,0-.84-.78,11.07,11.07,0,0,0,2.62-.39l-.95-1a18.66,18.66,0,0,1,3.57-.38,4.23,4.23,0,0,1-1.75-1.24l4.34-.35a5.71,5.71,0,0,0-2.49-1.45,58.61,58.61,0,0,0,7.49.36,7.35,7.35,0,0,0,4-.92,4.2,4.2,0,0,1-1.79-1.32l3.12-.49a7.61,7.61,0,0,1-1.32-1.34,6.32,6.32,0,0,1,2.78-1,19.72,19.72,0,0,1-4-.16,15.89,15.89,0,0,1,4.92-2,17.78,17.78,0,0,0-5.59-.22,8.5,8.5,0,0,1,2.65-1.12c-3.5-.34-6.71,2-10.21,2.28a14.07,14.07,0,0,0,3.27-2.52,18.24,18.24,0,0,0-6.2,1.5l2.93-2.24-4.83.85L685,29.08a32.63,32.63,0,0,1-5.9,2.67l.39-2.35a25.14,25.14,0,0,0-3.06.94l1.93-2.22a2.74,2.74,0,0,0-2.62.36,1.41,1.41,0,0,1-.74.41c-.29,0-.55-.4-.32-.57l-.83.31" fill="#f1faee"/><path d="M650.31,46.54c-2.08.55-3.32,2.59-4.63,4.3a21.61,21.61,0,0,1-6.21,5.49c1.51,1.91,4.15,2.46,6.58,2.65,6,.45,12.24-.64,17.1-4.12,5.27-3.77,8.71-10.14,14.76-12.45,2-.76,4.16-1,5.85-2.31s2.51-4.06.9-5.42c-.94-.79-2.28-.77-3.48-1-5.6-1.06-8.69-7.69-14.21-9.13-1.4-.37-2.87-.37-4.31-.6-3.07-.48-6-2-9.08-2.08-4.28-.08-8.06,2.58-11.49,5.13a5.91,5.91,0,0,0-2,2.18c-.31,1,.7,1.71,1.3,2.63l9.2,14.25" fill="#bf8e5e"/><path d="M648.49,30.86a5.61,5.61,0,0,1-3.21-.34c-1.08-.61-1.35-1.08-1.47-1.8a1.92,1.92,0,0,1,.65-1.92,1.47,1.47,0,0,1,2.06.77S647.34,30.59,648.49,30.86Z" fill="#f1faee"/><path d="M648.32,30.24h-.11c-.14,0,0,0,0,0l-.59,0a7,7,0,0,1-.79,0l-.19,0h-.09c.1,0,0,0,0,0l-.44-.1-.19-.06-.09,0h0a3.3,3.3,0,0,1-.45-.26,2.35,2.35,0,0,1-.61-.48s-.1-.13,0,0l-.08-.13s0-.1-.08-.14,0,0,0,0l0-.09c0-.1-.06-.2-.08-.3s0-.19,0-.09a1,1,0,0,1,0-.24,1.85,1.85,0,0,1,0-.23c0-.11,0,0,0-.1l.06-.22,0-.1c0,.07,0,0,0,0l.12-.19c0-.06,0,0,0,0l.06-.06a.46.46,0,0,1,.07-.07s-.09.06,0,0,.17-.09.1-.06l.11,0c.11,0-.09,0,0,0h.16c.11,0,0,0,0,0l.11,0,.15.05c-.12,0,.05,0,.08,0l.1.07,0,0,.09.09.06.07h0a1.37,1.37,0,0,1,.13.2s-.05-.15,0,0l.09.27a10.18,10.18,0,0,0,.36,1c.37.9.91,2.14,2,2.41a.64.64,0,0,0,.78-.44.65.65,0,0,0-.44-.79s-.16,0-.06,0,0,0-.05,0-.13-.13,0,0a1.31,1.31,0,0,1-.12-.11,2.29,2.29,0,0,1-.21-.23c.08.1,0,0,0,0l-.12-.18a4.89,4.89,0,0,1-.34-.64.77.77,0,0,1-.07-.16s-.08-.17,0-.1l0-.1-.08-.2c-.12-.31-.22-.62-.32-.94a2.19,2.19,0,0,0-1-1.2,2,2,0,0,0-1.93-.12,2.27,2.27,0,0,0-1.12,1.88,2.87,2.87,0,0,0,.39,1.79,3.79,3.79,0,0,0,1.59,1.32,5.83,5.83,0,0,0,3.53.31.63.63,0,0,0,.44-.78A.64.64,0,0,0,648.32,30.24Z" fill="#3d2412"/><path d="M644.55,27.64l.08-.12c.06-.08-.06.07,0,0l.16-.18.1-.1,0,0,.06,0,.09-.06.2-.11c.06,0-.11,0,0,0l.09,0,.25-.06c.07,0,0,0,0,0h.6l.14,0,.26.07.26.09.12,0c-.1,0,0,0,0,0q.29.13.57.3a.65.65,0,0,0,.87-.23.64.64,0,0,0-.23-.87,4.36,4.36,0,0,0-2.61-.74A3,3,0,0,0,643.44,27a.64.64,0,0,0,.23.87.66.66,0,0,0,.88-.23Z" fill="#3d2412"/><path d="M667.74,37.19a21.74,21.74,0,0,1-.1,5.81A24.7,24.7,0,0,1,666,48.24c-.3.72.87,1,1.16.32a23.79,23.79,0,0,0,1.67-5.4,22.52,22.52,0,0,0,.11-6c-.07-.77-1.28-.78-1.2,0Z" fill="#3d2412"/><path d="M665.32,37.19c.41,4.4-.87,8.64-2.54,12.66-.3.72.87,1,1.16.32,1.72-4.11,3-8.48,2.59-13-.07-.77-1.28-.78-1.21,0Z" fill="#3d2412"/><path d="M670.4,37.09a22.36,22.36,0,0,1-.6,8.5.61.61,0,0,0,1.17.32,23.43,23.43,0,0,0,.64-8.82.63.63,0,0,0-.6-.61.62.62,0,0,0-.61.61Z" fill="#3d2412"/><path d="M673.65,36.18a13.85,13.85,0,0,1-.75,6.66.61.61,0,0,0,1.17.33,15.4,15.4,0,0,0,.75-7.31.62.62,0,0,0-.75-.42.62.62,0,0,0-.42.74Z" fill="#f1faee"/><path d="M654.49,25c0-.75-2.8-4.72-2.8-5.46.48.67,1.82.89,2.42,1.45l1-2.44.07,2.38a18.17,18.17,0,0,0,1.06-2.44l.12,3.16c.73-1.19,1.41-2.41,2-3.67l-.26,3.63c.17,0,.32-.14.41-.29l1.89-2.8-.64,3.2,2-1.7-.46,1.46a.31.31,0,0,0,0,.23c.09.18.36.06.5-.07l1-.95a18.77,18.77,0,0,1-.64,3.68" fill="#f1faee"/><path d="M641,55.43c-.78-.08-1.25-.88-1.5-1.62a8.28,8.28,0,0,1,.29-5.88,13.74,13.74,0,0,0,0,3.68,5.3,5.3,0,0,0,1.74,3.18" fill="#f1faee"/><path d="M642.27,54.39c-.77-.09-1.25-.89-1.49-1.63a8.23,8.23,0,0,1,.29-5.88,13.81,13.81,0,0,0,0,3.69,5.23,5.23,0,0,0,1.74,3.17" fill="#f1faee"/><path d="M645.08,51.8c-.66-.37-.77-1.26-.81-2a4.61,4.61,0,0,1,.74-3.38c-.45,1.44-.31,3.54.9,4.46" fill="#f1faee"/><path d="M646.2,50.51c-.59-.33-.69-1.14-.72-1.83a4.27,4.27,0,0,1,.65-3.08c-.39,1.32-.27,3.23.8,4.06" fill="#f1faee"/><path d="M640.25,30.25c-.53,0-1.4,1.87-1.63,3.22a6.88,6.88,0,0,0,.13,3.58A11.59,11.59,0,0,1,641,30.89" fill="#f1faee"/><path d="M641.83,32.21c-1,2-1.78,5.09-1,7.14a14.78,14.78,0,0,1,1.7-6.09" fill="#f1faee"/><path d="M643.36,34.61a8.23,8.23,0,0,0-.45,4.13,2.11,2.11,0,0,0,.46,1.47,9.5,9.5,0,0,1,.75-4.24" fill="#f1faee"/><path d="M641.06,31.45c-.54.05-1.4,1.87-1.63,3.23a6.77,6.77,0,0,0,.13,3.58,11.61,11.61,0,0,1,2.2-6.17" fill="#f1faee"/><path d="M642.63,33.42c-1,2-1.77,5.09-1,7.14a14.58,14.58,0,0,1,1.7-6.09" fill="#f1faee"/><path d="M644.28,36a8.5,8.5,0,0,0-.45,4.14,2.19,2.19,0,0,0,.46,1.47,9.76,9.76,0,0,1,.75-4.24" fill="#f1faee"/><path d="M642.78,53.82c-1-1.76-1.74-4.51-.86-6.28a11.26,11.26,0,0,0,1.63,5.38" fill="#f1faee"/><path d="M643.94,52.84c-.92-1.67-1.64-4.28-.8-6A10.7,10.7,0,0,0,644.67,52" fill="#f1faee"/><path d="M639.68,30.36a3.63,3.63,0,0,0,.58,1.53,69.83,69.83,0,0,0,10.23,14,10.8,10.8,0,0,0-2.36-4.27,120.66,120.66,0,0,1-6.65-10.21l-1.25-2.08S639.62,29.31,639.68,30.36Z" fill="#774b2a"/><path d="M649.54,41.34a9.1,9.1,0,0,1,1.85,7.2,19.22,19.22,0,0,1-2.8,7.09,27.06,27.06,0,0,0,6.8-5,12.29,12.29,0,0,0,3.49-7.53c.12-2.13-.46-4.42.53-6.32a9.84,9.84,0,0,0,.83-1.57,6.74,6.74,0,0,0-.25-4.88c-1-2.26,2-4.05,4.12-5.28-1-.42-3.41-2-6.82-2a3.54,3.54,0,0,0-2.94,1.24c-1,1.35-.37,3.21.27,4.73,1.4,3.34,3,6.89,2.32,10.45a4,4,0,0,1-1.18,2.4,3.39,3.39,0,0,1-1.84.73,5.09,5.09,0,0,1-4.3-1.64" fill="#774b2a"/><path d="M661,28.49s-1.78,6.27,3.38,7.27c1.76.34,7.83-.06,9.11-.69a18.58,18.58,0,0,1,4.81-1.63L675,30.89a30.13,30.13,0,0,0-6.74-4.36c-3.73-1.55-6.95.56-7.3,2" fill="#774b2a"/><path d="M645.48,29.24a1.37,1.37,0,0,0,.86-.85,1.42,1.42,0,0,0-.34-1.57,2.1,2.1,0,0,0-.46-.32,1.79,1.79,0,0,0-1.14-.15,1.48,1.48,0,0,0-1.1,1.11.93.93,0,0,0,0,.29,1.71,1.71,0,0,0,.31.91,1.55,1.55,0,0,0,.79.59,2.07,2.07,0,0,0,1.13,0,.61.61,0,0,0,.42-.74.63.63,0,0,0-.75-.43l-.24.05.16,0a1.21,1.21,0,0,1-.38,0l.16,0-.25-.07.14.06a1.18,1.18,0,0,1-.19-.11l.12.09a.75.75,0,0,1-.15-.16l.09.12a1,1,0,0,1-.13-.23l.06.15a1,1,0,0,1-.09-.34l0,.16a.17.17,0,0,1,0-.07l0,.16a1.11,1.11,0,0,1,.07-.26l-.06.14a1.13,1.13,0,0,1,.12-.21l-.09.12.15-.15-.12.09a1.18,1.18,0,0,1,.19-.11l-.14.06a1.09,1.09,0,0,1,.24-.07l-.16,0h.26l-.16,0a1.29,1.29,0,0,1,.28.08l-.14-.06a1.22,1.22,0,0,1,.29.17l-.12-.09a1,1,0,0,1,.21.2l-.09-.13a1.09,1.09,0,0,1,.08.15l-.06-.15a.76.76,0,0,1,.06.2l0-.16a1,1,0,0,1,0,.25l0-.16a1.38,1.38,0,0,1-.08.27l.07-.15a1.32,1.32,0,0,1-.12.2l.1-.13a.62.62,0,0,1-.14.14l.13-.09-.13.07.14-.06-.07,0a.61.61,0,0,0,.33,1.17Z" fill="#3d2412"/><path d="M649,55c3.19.47,6.78,3,10,3.44-.4-.64-1.21-3.3-1.61-3.95l2.35-.75a3.51,3.51,0,0,0-.66-1.5l2.27-1.5-1.3-.64a7.14,7.14,0,0,0,2.31-1.68l-2.65-.78a6.5,6.5,0,0,0,3-2.05,2.53,2.53,0,0,0-1.51-.91l1.71-2.45-1.18-.74,1.06-1.24a2.21,2.21,0,0,1-1.32-.75c-.31-.44-.22-1.24.27-1.38a.42.42,0,0,0-.52-.17l.75-1.86c-.54.09-1-.42-1.2-1a4.22,4.22,0,0,1,.07-1.8,21.57,21.57,0,0,0-2.86,5,1.25,1.25,0,0,0-.13.78c.09.35.45.53.62.84.54.95-.8,2.3-.2,3.2a24.32,24.32,0,0,1-1.6,4.27,16,16,0,0,1-7,7.59" fill="#bf8e5e"/><path d="M648.85,55.53c3.5.6,6.46,2.85,10,3.45a.54.54,0,0,0,.59-.78c-.69-1.23-.91-2.7-1.61-3.94l-.31.77,2.35-.75a.55.55,0,0,0,.37-.65,4.63,4.63,0,0,0-.72-1.62l-.19.72,2.27-1.51a.53.53,0,0,0,0-.91l-1.29-.64v.91a8.36,8.36,0,0,0,2.41-1.76.53.53,0,0,0-.23-.88l-2.65-.77v1A7.52,7.52,0,0,0,663.07,46a.52.52,0,0,0,0-.74,3.45,3.45,0,0,0-1.74-1l.31.77,1.72-2.45a.55.55,0,0,0-.19-.72L662,41.07l.11.83,1.06-1.24a.53.53,0,0,0-.23-.88c-.16-.05-1.88-.63-.92-1.17a.53.53,0,0,0,.1-.83,1,1,0,0,0-.89-.33l.51.67.75-1.86a.53.53,0,0,0-.51-.67c-1,0-.71-1.63-.62-2.14a.53.53,0,0,0-1-.41,22.64,22.64,0,0,0-2,3.17c-.39.76-1.19,2-1,2.87a1.75,1.75,0,0,0,.31.68,1.4,1.4,0,0,1,.25,1.49,5.62,5.62,0,0,0-.28,1c0,.3.1.57.09.85a10.87,10.87,0,0,1-1.29,3.57,21.5,21.5,0,0,1-1.68,3,14.38,14.38,0,0,1-5.29,4.81c-.61.31-.08,1.22.53.91,4-2,6.58-5.92,8.11-10a7.07,7.07,0,0,0,.62-2.9c0-.81.54-1.54.4-2.37a2.69,2.69,0,0,0-.37-.76c-.4-.94,0-1.6.45-2.47a22.14,22.14,0,0,1,2.11-3.37l-1-.4c-.24,1.4-.22,3.41,1.64,3.47l-.5-.66-.75,1.86a.52.52,0,0,0,.5.66l.15,0,.11-.82a1.45,1.45,0,0,0-.64,1.73,2.41,2.41,0,0,0,1.81,1.36l-.23-.88-1.06,1.24a.54.54,0,0,0,.1.83l1.19.73-.19-.72-1.72,2.45a.53.53,0,0,0,.32.77,2.54,2.54,0,0,1,1.28.78v-.74a6.59,6.59,0,0,1-2.81,1.92.53.53,0,0,0,0,1l2.65.78-.23-.88a7.5,7.5,0,0,1-2.2,1.59.53.53,0,0,0,0,.91l1.29.64v-.91l-2.27,1.51a.54.54,0,0,0-.19.72,3.84,3.84,0,0,1,.61,1.37l.37-.65L657.2,54a.52.52,0,0,0-.31.77c.69,1.24.91,2.7,1.61,4l.59-.78c-3.5-.6-6.46-2.84-10-3.44-.66-.11-.94.9-.28,1Z" fill="#774b2a"/><path d="M423.11,15.78a15.81,15.81,0,0,0,8.86.91,9.49,9.49,0,0,0,2.58-.93,2.9,2.9,0,0,0,1.27-1c.36-.69-.69-1.3-1-.61-.08.14,0,0,0,.07a1.37,1.37,0,0,1-.22.2,4.28,4.28,0,0,1-.64.39,8.64,8.64,0,0,1-2.36.79,14.71,14.71,0,0,1-8.08-.93c-.73-.28-1,.89-.32,1.16Z" fill="#46834f"/><path d="M420,58.32c.35,0-.38-1.17-.64-1.41l-.73.58-.73-.84-.91.89a4.75,4.75,0,0,0-.71-1.16l-1.05,1.13a3.38,3.38,0,0,1-.92-1.71l-1.08,1a.55.55,0,0,1-.33.18c-.18,0-.29-.19-.36-.35a9.62,9.62,0,0,1-.42-1.1,3,3,0,0,1-.9.59c-.4.21-.57.55-.79.16a8,8,0,0,0-1.18-1.59c-.51.43-.69.76-1.32,1-.12-.5-.64-1-.76-1.5-.67.33-.94.65-1.62,1a5.59,5.59,0,0,1-.31-1.94l-1.58,1.12a9.5,9.5,0,0,0-.51-1.76,6.84,6.84,0,0,1-1.82.85c-.07-.64-.53-1-.59-1.61a5.51,5.51,0,0,1-1.48.73c-.08-.33-.16-1.07-.24-1.4a14.29,14.29,0,0,1-1.41.93c-.19.08-.08-1.31-.24-1.44s-1,1-1,.86L396.06,50a5.44,5.44,0,0,1-1.37.72V49.15l-1.95.77-.18-1.41a11,11,0,0,1-1.61.52c-.26-.05-.32-1.17-.45-1.4-.32.06-1,.43-1.35.52s-.47-1-.63-1.42a2.56,2.56,0,0,1-1.46.59c-.19-.09-.39-1-.41-1.45-.28.27-.89.69-1.17,1C385.47,46.83,403.85,57.72,420,58.32Z" fill="#f1faee"/><path d="M385.37,34.24c-.23,0,.11,1,.11,1.24a.33.33,0,0,0,.06.22c.09.08.24,0,.34,0,.62-.34.83-.28,1.44-.62-.16.77.08,1.14-.09,1.91a4.91,4.91,0,0,0,2.59-.91l-.06,1.35a.45.45,0,0,0,.11.41c.13.1.32,0,.47,0l1.15-.53-.43,1.4a4.12,4.12,0,0,0,2.66-.71c-.12.42-.24,1.25-.35,1.67a.37.37,0,0,0,0,.31.34.34,0,0,0,.31.11c.32,0,1.23-.43,1.83-.56l-.21,1.16a.28.28,0,0,0,0,.25.31.31,0,0,0,.28,0l1.67-.53a6.2,6.2,0,0,0,0,1.22c0,.18.07.41.26.46a.43.43,0,0,0,.29,0l1.38-.55a4.34,4.34,0,0,0,.1,1.48,6.5,6.5,0,0,1,1.6-.57l.35,1.93,1.4-.72c.16.42.14,1.4.21,1.43a8.29,8.29,0,0,0,1.77-.61c0,.56-.18,1.49.11,1.5a4.73,4.73,0,0,0,1.64-.18,2,2,0,0,0,.33,1.37c.26.26,1.89-.82,2-.55,0,.07-.23,1.72.26,1.71a4.64,4.64,0,0,0,1.86-.53c-.2.44.26,1.68.26,1.68s1.2-.41,1.4-.86l.27,1.92c.46-.19.93-.71,1.39-.89,0,.35,0,1.44,0,1.79a3.87,3.87,0,0,0,1.57-.84S390.5,34.73,385.37,34.24Z" fill="#f1faee"/><path d="M391.22,53.51a8.54,8.54,0,0,1,2.93,1.8c1.54,1.49,1.74,5,3.89,5,3.81,0,8.28,2.15,12.8,3.87,4.68,1.77,10.26,0,14.34-.54,3.23-.43,6.08-3,5.81-6.3a11.28,11.28,0,0,1-.18-2.45,6.15,6.15,0,0,1,1.07-2.36l2.82-4.38a4.31,4.31,0,0,1,1-1.22,5.63,5.63,0,0,1,1.71-.66c3.16-1,5.45-3.75,7-6.67a13,13,0,0,0,1.91-7.53c-.5-4.4-4.5-7.74-8.75-9s-8.79-.89-13.23-.77c-6.3.17-20.7.68-20.4-1.59.49-3.64,18.18-.85,24.85-.9,2.57,0,14.25-.1,14.92-5.14.15-1.07-.78-2.94-4.13-2.56-1.74.2-4.63,1.1-4.91,2.09s.52.83,1.52.6,2.54-1.14,3.52-1.46,3-.26,2.84,1.53c-.05.63-1.45,1.77-2,2.07C436,19.31,428.94,19.05,423.07,18s-12.05-2.74-17.7-.82c-2.23.76-4.4,2.55-4.29,4.91.33,7,28.21,7,28.89,9.23.45,1.46-4.9,2.53-5.68,2.6C416.21,34.57,411.06,33,403,32s-16.37-3.28-23.49,1.1c2.87.91,5.86,1,8.57,2.3,4,1.94,7,3,10.1,5,9,6,21,10.5,28.32,18.61-14.06-1.12-30-5.63-42.14-12.87C384.37,46.18,389.18,52.75,391.22,53.51Z" fill="#46834f"/><path d="M385.36,33.15a1.35,1.35,0,0,0,1.59-.06,1,1,0,0,0-.05-1.49,1.52,1.52,0,0,0-1.61.17S384.48,32.6,385.36,33.15Z" fill="#b1cf4b"/><path d="M385.69,32.24c.09-.27.46-.28.65-.2s.33.17.3.41-.27.39-.53.39C386.11,32.84,385.54,32.74,385.69,32.24Z"/><path d="M436.7,17.77c-6.89.52-13.93-.44-20.76-1.22a41.38,41.38,0,0,0-7.62-.45c-2.17.15-5.85.54-6.87,2.89-.87,2,1.1,3,2.69,3.52a38.91,38.91,0,0,0,11.38,1.28c2.6,0,5.19-.23,7.79-.36a77.3,77.3,0,0,1,7.91.06,35,35,0,0,1,5.51.53,9.68,9.68,0,0,1,4.3,1.63c1.88,1.64-1.76,3.74-3,4.35a30,30,0,0,1-6.72,2.24,62.84,62.84,0,0,1-13.74,1.4.61.61,0,0,0,0,1.21,69.58,69.58,0,0,0,11.79-1c3.73-.66,7.82-1.63,11-3.8,1.22-.84,2.51-2.16,2.34-3.77A3.27,3.27,0,0,0,440.55,24c-3-1.41-6.33-1.53-9.57-1.69-5.26-.26-10.44.34-15.69.31-3.71,0-7.85-.09-11.38-1.41-.71-.27-1.68-.65-1.4-1.59.33-1.1,2-1.58,2.93-1.83a23.4,23.4,0,0,1,8.59-.21c7.46.84,15.14,2,22.67,1.44.77-.06.77-1.26,0-1.21Z" fill="#77ab43"/><path d="M553,30.5c2.46.06,8.82-.28,8.71-.54S561,26.38,559,26.38c-.58,0-5.31,2.33-7.26,2.87A12.31,12.31,0,0,0,553,30.5Z" fill="#8b3d9b"/><path d="M554.24,34.59c.77-.9,5.67-.58,8.52-.3-.83,1-1.28,4.21-3.21,4.21a22.52,22.52,0,0,1-7.88-2.37A8.51,8.51,0,0,0,554.24,34.59Z" fill="#8b3d9b"/><path d="M548.86,30.52c-.45,1.35,0,1.54.12,3a69.79,69.79,0,0,0,8.64.94c7.64.17,47.65,2.58,56.57,5.88a15.36,15.36,0,0,0,5.74,1.43,18.5,18.5,0,0,0-6.84-4.21c-.81-.28-1.85-.88-1.55-1.69a1.41,1.41,0,0,1,.59-.62c3.16-2,7.72-.7,10.74-2.93-2.42-3.29-4.06-4.71-5.41-4.72-10.22,0-61.47,2.89-67.84,2.69" fill="#ae6ac2"/><path d="M549.89,30.52c-.63,0-5.62-2.52-6.28-2.46s-1.81,1.31-.46,2.2c.73.48,1.41,1,2.16,1.49-1.78,1.17-5.13,3.38-4.72,4.27.25.53,3.46.8,4.87-.16s2.76-2.16,4.44-2.45" fill="#8b3d9b"/><path d="M588.75,35.41a7.55,7.55,0,0,1-1.16,2.3l-1.4,2.23a45.91,45.91,0,0,1-3.13,4.34c-.49.59.35,1.45.85.85a48.08,48.08,0,0,0,3.32-4.58c.5-.79,1-1.58,1.49-2.37a7.84,7.84,0,0,0,1.19-2.45c.15-.76-1-1.08-1.16-.32Z" fill="#ae6ac2"/><path d="M605.07,37.78c-.78.85-4.47,2.62-4.85,3.37-.26.49,1,2.28,1.61,2.18.91-.16,4.39-4.12,5.41-5.08" fill="#ae6ac2"/><path d="M614.06,39.83a15.21,15.21,0,0,1-9.28,8A.61.61,0,0,0,605.1,49a16.4,16.4,0,0,0,10-8.57c.33-.7-.71-1.31-1-.61Z" fill="#ae6ac2"/><path d="M603.25,50.05a2.37,2.37,0,0,1-2.45.37c-1.82-1-1-2.34.26-2.09,1.51.32,3.09-1,4.6-.5A27.2,27.2,0,0,1,603.25,50.05Z" fill="#70ee49"/><path d="M613.57,30.85c1.17-1.09,2.36.58,1.57,1.3a3.93,3.93,0,0,1-4.3.5A17.36,17.36,0,0,0,613.57,30.85Z" fill="#70ee49"/><path d="M619.34,30.29a1.54,1.54,0,0,1-1.76,2.08,1.4,1.4,0,0,1-1.26-1.66c0-.28,0-.64.71-1.13A1.67,1.67,0,0,1,619.34,30.29Z" fill="#f1faee"/><path d="M617.36,31.33a.64.64,0,0,0,.76.18.89.89,0,0,0,.44-.87.72.72,0,0,0-1-.37A.68.68,0,0,0,617.36,31.33Z"/><path d="M621.78,32.63a14.87,14.87,0,0,1,0,1.89c0,.33-.1.71-.39.83a5.07,5.07,0,0,0-.51-2.65" fill="#f1faee"/><path d="M618.57,40.53c1.13-.91,1.21-2.06,1.74-3.41,0,1.42.07,3.11-.71,4.29" fill="#f1faee"/><path d="M613.18,37.54a1.69,1.69,0,0,0,.86-1.2,4.92,4.92,0,0,1,0,1.56" fill="#f1faee"/><path d="M614.65,38.19a2.9,2.9,0,0,0,.66-1.66,2.28,2.28,0,0,1,.08,2" fill="#f1faee"/><path d="M615.77,38.73a.67.67,0,0,0,.53-.38,3.14,3.14,0,0,0,.47-1.31,4.46,4.46,0,0,1-.11,2.14" fill="#f1faee"/><path d="M617.38,39.67a6,6,0,0,0,.85-2,3.74,3.74,0,0,1-.18,2.51" fill="#f1faee"/><path d="M614,34.07a1.69,1.69,0,0,1,.49,1.4,4.75,4.75,0,0,0,.44-1.5" fill="#f1faee"/><path d="M615.59,33.86a2.91,2.91,0,0,1,.16,1.78,2.24,2.24,0,0,0,.63-1.86" fill="#f1faee"/><path d="M616.81,33.66c.23.05.35.3.41.52a3.11,3.11,0,0,1,.07,1.39,4.42,4.42,0,0,0,.5-2.09" fill="#f1faee"/><path d="M618.79,33.32a5.88,5.88,0,0,1,.24,2.2,3.74,3.74,0,0,0,.54-2.46" fill="#f1faee"/><path d="M557.42,33.76a.61.61,0,0,0,0-1.21.61.61,0,0,0,0,1.21Z" fill="#70ee49"/><path d="M560.44,33.76a.61.61,0,0,0,0-1.21.61.61,0,0,0,0,1.21Z" fill="#70ee49"/><path d="M563.18,34.05a.61.61,0,0,0,0-1.21.61.61,0,0,0,0,1.21Z" fill="#70ee49"/><path d="M565.58,34.08a.61.61,0,0,0,0-1.21.61.61,0,0,0,0,1.21Z" fill="#70ee49"/><path d="M568.36,34.38a.61.61,0,0,0,0-1.21.61.61,0,0,0,0,1.21Z" fill="#70ee49"/><path d="M571.09,34.38a.61.61,0,0,0,0-1.21.61.61,0,0,0,0,1.21Z" fill="#70ee49"/><path d="M573.54,34.6a.61.61,0,0,0,0-1.21.61.61,0,0,0,0,1.21Z" fill="#70ee49"/><path d="M576.13,34.89a.6.6,0,0,0,0-1.2.6.6,0,0,0,0,1.2Z" fill="#70ee49"/><path d="M578.45,34.89a.6.6,0,0,0,0-1.2.6.6,0,0,0,0,1.2Z" fill="#70ee49"/><path d="M580.67,35.13a.61.61,0,0,0,0-1.21.61.61,0,0,0,0,1.21Z" fill="#70ee49"/><path d="M585.21,35.42a.61.61,0,0,0,0-1.21.61.61,0,0,0,0,1.21Z" fill="#70ee49"/><path d="M587.18,35.66a.61.61,0,0,0,0-1.21.61.61,0,0,0,0,1.21Z" fill="#70ee49"/><path d="M593.55,36.49a.6.6,0,0,0,0-1.2.6.6,0,0,0,0,1.2Z" fill="#70ee49"/><path d="M596,36.63a.61.61,0,0,0,0-1.21.61.61,0,0,0,0,1.21Z" fill="#70ee49"/><path d="M598.3,36.94a.61.61,0,0,0,0-1.21.61.61,0,0,0,0,1.21Z" fill="#70ee49"/><path d="M600.6,37.21a.6.6,0,0,0,0-1.2.6.6,0,0,0,0,1.2Z" fill="#70ee49"/><path d="M589.17,35.9a.6.6,0,0,0,0-1.2.6.6,0,0,0,0,1.2Z" fill="#70ee49"/><path d="M591.34,36.24a.6.6,0,0,0,0-1.2.6.6,0,0,0,0,1.2Z" fill="#70ee49"/><path d="M583,35.29a.61.61,0,0,0,0-1.21.61.61,0,0,0,0,1.21Z" fill="#70ee49"/><path d="M218.88,33.87c0,4.89-.13,8.16-.13,13,0,6.17,3,3.58,3.44,2.8,2-3.38,2.74-8.9,3.14-12.64" fill="#b27b60"/><path d="M220.5,25.7c1.41-5.42,2.47-8.12,5.61-10.76.36-.3.87-.6,1.27-.36a1.21,1.21,0,0,1,.4,1.06,44.54,44.54,0,0,1-1,10.43" fill="#b27b60"/><path d="M266.14,56.67c.6-2-4.27-2.54-6.33-3.41-1.53-.64-12.36-5-14.69-8.6,1.09-.22,22.13,7.47,22.28,5.34,0-2.36-20.84-10.22-20.76-10.68s6.5-.81,23.66,3.18c.69.16,1.1-1.32.42-1.53-7.8-2.45-24.08-9.33-23.78-9.69s4-2,20.52-.85c.93.06,2-1.92-1.17-2.08-4.29-.22-12.5-2.28-16.79-2.51-1-.05-.49,1.24-1.28,2-4,4-7.87,17.49-7.23,19S263.88,58.6,266.14,56.67Z" fill="#b27b60"/><path d="M266.19,62c1-2.12-2.82-2.06-5.55-3.17-3.35-1.36-15.47-7.43-16.14-10.31,7.48,4.13,12.84,4.94,22.2,7,1.49.33,4,1,4.33-.5,1-3-16.22-5.62-21.08-7.54-2.88-1.14-6.07-2.15-6.44-5.23,8.38.13,16.09,3.53,24.27,5.42,2.05.47,5.1,1.68,6.09-.18.34-.66.24-1.81-2-2.37C271.35,45,250,41,247.73,38.75c-1-1-2-2.6-1.15-3.78a3.21,3.21,0,0,1,2.5-1c8.14-.62,23.61,5.62,25.49,3.73,1.3-2.25-2.17-3-4-3.51-3.88-1-21.63-5.33-21.74-5.43-.54-.46.11-1.36.77-1.59,9.19-3.19,24.2-.91,24.41-2.56.26-1.83-2.9-2.17-5.53-2.06-16.24.68-32.4,3.72-48.63,2.89a10.7,10.7,0,0,0-3.79.25,3.34,3.34,0,0,0-2.43,2.67c-.15,1.77,1.54,3.07,3,4a284.07,284.07,0,0,1,23.48,16.89C257.06,62.72,265.57,63.39,266.19,62Z" fill="#d89b7e"/><path d="M234.85,43.68a1.73,1.73,0,0,1-1.61,2.11c-2.28.23-4.71-1-5.23-3a1.85,1.85,0,0,1,1-2.06,3.3,3.3,0,0,1,2.35.1C232.35,41.18,234.53,42.73,234.85,43.68Z" fill="#d89b7e"/><path d="M237.12,22.43c1.69-.31,3.34,1.19,3.34,2,0,.63-.28.77-.6,1a4.52,4.52,0,0,1-3.09.8,2.15,2.15,0,0,1-2-1.17C234.54,24.47,234.49,22.9,237.12,22.43Z" fill="#d89b7e"/><path d="M230.41,42.59c-.69.17-.59,1.35,0,1.81a1.87,1.87,0,0,0,2,.1c.38-.2.75-.63.57-1A2.45,2.45,0,0,0,230.41,42.59Z"/><path d="M237.92,23.42a.9.9,0,0,1,.79.86c0,.76-1.37.66-1.78.54a.94.94,0,0,1-.68-1C236.31,23.43,237.45,23.34,237.92,23.42Z"/><path d="M220.28,30.52a.61.61,0,0,0,0-1.21.61.61,0,0,0,0,1.21Z"/><path d="M224.22,28a.61.61,0,0,0,0-1.21.61.61,0,0,0,0,1.21Z"/><path d="M225.76,30.31l.25.18a.61.61,0,0,0,.3.08.68.68,0,0,0,.31-.08.63.63,0,0,0,.21-.22.55.55,0,0,0,.08-.31v-.19a.46.46,0,0,0-.06-.23.39.39,0,0,0-.12-.19.53.53,0,0,0-.2-.13.46.46,0,0,0-.23,0l-.16,0a.63.63,0,0,0-.27.16l-.09.12a.61.61,0,0,0-.08.3l0,.19.91-.52-.25-.18a.57.57,0,0,0-.22-.07.49.49,0,0,0-.24,0,.53.53,0,0,0-.21.11.41.41,0,0,0-.15.17l-.06.15a.58.58,0,0,0,0,.32l.06.14a.63.63,0,0,0,.21.22Z"/><path d="M229.1,32.23a.61.61,0,0,0,0-1.21.61.61,0,0,0,0,1.21Z"/><path d="M230.66,29.4a.84.84,0,0,0,.41-.11l.06,0,.16-.13a1.09,1.09,0,0,0,.13-.17l0-.05a1,1,0,0,0,.11-.42.61.61,0,0,0-.08-.3.58.58,0,0,0-.22-.22,1.48,1.48,0,0,0-.35-.13,1.17,1.17,0,0,0-.37,0,.73.73,0,0,0-.25,0l-.17.07-.05,0a1,1,0,0,0-.32.33,1.24,1.24,0,0,0-.1.2s0,0,0,.05a1.23,1.23,0,0,0,0,.19.81.81,0,0,0,.11.43.75.75,0,0,0,.25.25.82.82,0,0,0,.19.09l.06,0,.18,0h0l.19,0h0l.17-.07.15-.11a1.09,1.09,0,0,0,.13-.17h0l.07-.15a1.23,1.23,0,0,0,0-.19.4.4,0,0,0,0-.24.39.39,0,0,0-.12-.19.41.41,0,0,0-.2-.12.46.46,0,0,0-.23-.06.62.62,0,0,0-.43.18l-.09.12a.58.58,0,0,0-.08.31h0l0-.16s0,0,0,0l.06-.15,0,0,.1-.12,0,0,.12-.09,0,0,.14-.06h0l.16,0h-.07l.16,0h-.06l.15.06,0,0,.12.1,0,0,.1.12a.05.05,0,0,1,0,0l.06.15s0,0,0-.06l0,.16v0l0,.16s0-.05,0-.08l-.06.15a.43.43,0,0,1,0-.07l-.09.12a.23.23,0,0,1,.07-.07l-.12.1.07-.05-.14.06.1,0-.16,0a.33.33,0,0,1,.14,0l-.16,0a1.11,1.11,0,0,1,.26.07l-.14-.06h0l-.3-.52v0l0-.16a.24.24,0,0,1,0,.08l.06-.15s0,.05,0,.08l.09-.12s0,0-.06.05l.13-.09-.08,0,.14-.06-.07,0,.16,0h0a.46.46,0,0,0-.23.06.48.48,0,0,0-.32.32.44.44,0,0,0-.06.23.6.6,0,0,0,.18.42.58.58,0,0,0,.43.18Z"/><path d="M234.56,31.26a.61.61,0,0,0,0-1.21.61.61,0,0,0,0,1.21Z"/><path d="M232.82,33.42a.85.85,0,0,0,0,.42.75.75,0,0,0,.07.18l0,0a1,1,0,0,0,.29.29l.18.08a.76.76,0,0,0,.21,0h.05l.17,0,.14-.06.12-.1a.57.57,0,0,0,.11-.14l.07-.16v0a1.49,1.49,0,0,0,0-.21,0,0,0,0,0,0,0,1.49,1.49,0,0,0,0-.21s0,0,0,0-.05-.13-.08-.19a1,1,0,0,0-.12-.16l0,0a1.25,1.25,0,0,0-.17-.12h0l-.15-.07h0a.49.49,0,0,0-.24,0,.62.62,0,0,0-.23.07.41.41,0,0,0-.16.16.44.44,0,0,0-.11.2l0,.16a.55.55,0,0,0,.08.31l.09.12a.63.63,0,0,0,.27.16h0l-.15-.06.06,0-.13-.1,0,.06-.09-.13,0,.07-.06-.14s0,.05,0,.07l0-.16v.07l0-.16s0,0,0,.07l.06-.15s0,0,0,0l.36-.28h0l.16,0a0,0,0,0,1-.05,0l.16,0-.06,0,.15.06,0,0,.12.1,0,0,.1.12a.21.21,0,0,1,0-.06l.06.15s0,0,0-.06l0,.16v0l0,.16a0,0,0,0,1,0,0,.65.65,0,0,0,0-.24.49.49,0,0,0-.08-.23.39.39,0,0,0-.15-.16.43.43,0,0,0-.21-.11l-.16,0a.52.52,0,0,0-.3.08l-.12.09a.63.63,0,0,0-.16.27Z"/><path d="M230.36,34.28a.61.61,0,0,0,0-1.21.61.61,0,0,0,0,1.21Z"/><path d="M228,34.28a.61.61,0,0,0,0-1.21.61.61,0,0,0,0,1.21Z"/><path d="M224.52,33a.61.61,0,0,0,0-1.21.61.61,0,0,0,0,1.21Z"/><path d="M231.73,37.2h.19a.39.39,0,0,0,.24-.05.47.47,0,0,0,.19-.12.53.53,0,0,0,.13-.2.59.59,0,0,0,.05-.23l0-.16a.63.63,0,0,0-.16-.27l-.12-.09a.56.56,0,0,0-.31-.09h-.19a.46.46,0,0,0-.23.06.48.48,0,0,0-.32.32.37.37,0,0,0-.05.23l0,.16a.72.72,0,0,0,.15.27l.12.09a.68.68,0,0,0,.31.08Z"/><path d="M234.65,38.08a.61.61,0,0,0,0-1.21.61.61,0,0,0,0,1.21Z"/><path d="M239.24,36.77l-.42,0a.59.59,0,0,0-.23.05.53.53,0,0,0-.2.13l-.09.12a.54.54,0,0,0-.08.3.83.83,0,0,0,0,.22.71.71,0,0,0,.08.18,1.47,1.47,0,0,0,.1.13h0l0,0a.7.7,0,0,0,.17.13l.19.08h0l.17,0h0a.77.77,0,0,0,.4-.11.44.44,0,0,0,.17-.16.44.44,0,0,0,.11-.2.39.39,0,0,0,0-.24.37.37,0,0,0-.07-.23l-.09-.12a.63.63,0,0,0-.27-.16l-.16,0a.68.68,0,0,0-.31.08l0,0,.14-.06h0l.16,0H239l.16,0-.06,0,.14.06-.05,0,.12.1,0,0,.09.12,0,0,.07.14s0,0,0,0l0,.16v0l-.6.61.42,0a.37.37,0,0,0,.23,0,.47.47,0,0,0,.19-.12.53.53,0,0,0,.13-.2.46.46,0,0,0,.05-.23l0-.16a.63.63,0,0,0-.16-.27l-.12-.09a.55.55,0,0,0-.3-.09Z"/><path d="M236.11,34.72s0,0,0,.05l.07.16v0a.67.67,0,0,0,.12.16l0,0,.08.06.08.06h0l.15.06h0l.18,0h0l.16,0h0l.17-.07h0s.11-.08.13-.09h0l.09-.13h0l.06-.14v0l0-.16h0v0h0a.28.28,0,0,1,0-.09s0-.06,0-.08v0a.89.89,0,0,0-.08-.17h0l-.1-.13h0l-.12-.1h0l-.15-.06h0l-.16,0h0l-.16,0h0l-.15.06h0a.52.52,0,0,0-.17.16.49.49,0,0,0-.11.2.65.65,0,0,0,0,.24.49.49,0,0,0,.08.23l.09.12a.57.57,0,0,0,.27.16l.16,0a.53.53,0,0,0,.3-.09h0l-.14.06h0l-.16,0h0l-.16,0h0l-.14-.06h0l-.12-.1v0l-.09-.13v0l-.06-.15s0,0,0,0l0-.16v0l0-.16a0,0,0,0,1,0,0l.06-.15s0,0,0,0l.1-.12,0,0,.12-.1h0l.14-.06h0l.16,0h0l.16,0h0l.14.06,0,0,.12.1,0-.05.1.12-.05-.07.07.14a.08.08,0,0,1,0-.05.53.53,0,0,0-.11-.21A.41.41,0,0,0,237,34a.45.45,0,0,0-.22-.08.52.52,0,0,0-.25,0l-.14.06a.63.63,0,0,0-.22.21l-.06.15a.58.58,0,0,0,0,.32Z"/><path d="M237.83,32.44l.28.27.13-.95,0,0,.14-.06-.05,0,.16,0h-.06l.16,0-.07,0,.15.06a.18.18,0,0,1-.07-.05l.12.1a.23.23,0,0,1-.07-.07l.1.13,0-.08.06.15a.14.14,0,0,1,0-.07l0,.16v0l0,.16a.43.43,0,0,1,0,0l-.06.14,0,0a.44.44,0,0,0,.07-.22.49.49,0,0,0,0-.24.53.53,0,0,0-.11-.21.44.44,0,0,0-.17-.16l-.14-.06a.86.86,0,0,0-.32,0l-.15.06a.77.77,0,0,0-.22.22l0,.1s0,.07,0,.11v0a1.11,1.11,0,0,1,0,.17v0a.93.93,0,0,0,0,.22,1,1,0,0,0,.09.21,1.15,1.15,0,0,0,.14.17l0,0,.13.1h0a.88.88,0,0,0,.2.09.93.93,0,0,0,.23,0h0l.2,0,.18-.08,0,0a.53.53,0,0,0,.21-.21.39.39,0,0,0,.07-.23.39.39,0,0,0,0-.24.53.53,0,0,0-.15-.26l-.28-.27a.53.53,0,0,0-.2-.13.55.55,0,0,0-.46,0,.53.53,0,0,0-.2.13l-.09.12a.58.58,0,0,0-.08.31l0,.16a.61.61,0,0,0,.15.26Z"/><path d="M243.1,30.1l0,0,.13.11h0l.13.07.15.05.19,0h.07l.1,0h.13l.08,0,.07,0,.12-.1.05-.06a.35.35,0,0,0,.08-.13l0-.08a1.07,1.07,0,0,0,.06-.31v-.07a1.11,1.11,0,0,0,0-.19s0,0,0,0v0a.77.77,0,0,0-.07-.16v0l-.07-.08-.07-.09-.07-.05-.07-.06h0a.94.94,0,0,0-.15-.06h0l-.17,0h0l-.18,0h0l-.16.06,0,0h0l-.13.1h0a1.46,1.46,0,0,0-.09.13l0,0,0,.07,0,.08h0l0,.16v0h0s0,.14,0,.16h0a.41.41,0,0,0,.1.21.49.49,0,0,0,.17.15.39.39,0,0,0,.23.07.39.39,0,0,0,.24,0l.14-.06a.56.56,0,0,0,.22-.21l.06-.15a.58.58,0,0,0,0-.32h0l0,.16v0l0,.16s0,0,0,0l-.07.14,0,0-.09.12,0,0-.12.1,0,0-.15.07.06,0-.16,0h.06l-.16,0h0l-.14-.06,0,0-.12-.09,0,0-.09-.12,0,0-.06-.14s0,0,0,.07l0-.16a.21.21,0,0,1,0,.11l0-.16a.8.8,0,0,1,0,.15l.42-.43-.06,0,.16,0h-.1l.16,0-.09,0,.14.06-.08-.05.12.1,0,0a.53.53,0,0,0-.2-.13.55.55,0,0,0-.46,0,.53.53,0,0,0-.2.13l-.09.12a.53.53,0,0,0-.09.3l0,.16a.52.52,0,0,0,.15.27Z"/><path d="M241,35.06a.61.61,0,0,0,0-1.21.61.61,0,0,0,0,1.21Z"/><path d="M235.73,29.31a.61.61,0,0,0,0-1.21.61.61,0,0,0,0,1.21Z"/><path d="M227.34,27.84a.6.6,0,0,0,0-1.2.6.6,0,0,0,0,1.2Z"/><path d="M237.58,24.25a.6.6,0,0,0,0-1.2.6.6,0,0,0,0,1.2Z" fill="#f1faee"/><path d="M231.1,44.53a.61.61,0,0,0,0-1.21.61.61,0,0,0,0,1.21Z" fill="#f1faee"/><path d="M251.86,24.07a.61.61,0,0,0,0-1.21.61.61,0,0,0,0,1.21Z" fill="#f1faee"/><path d="M253.52,24.07a.61.61,0,0,0,0-1.21.61.61,0,0,0,0,1.21Z" fill="#f1faee"/><path d="M255.41,24a.6.6,0,0,0,0-1.2.6.6,0,0,0,0,1.2Z" fill="#f1faee"/><path d="M257.19,23.72a.61.61,0,0,0,0-1.21.61.61,0,0,0,0,1.21Z" fill="#f1faee"/><path d="M259.44,23.48a.61.61,0,0,0,0-1.21.61.61,0,0,0,0,1.21Z" fill="#f1faee"/><path d="M261.33,23.24a.6.6,0,0,0,0-1.2.6.6,0,0,0,0,1.2Z" fill="#f1faee"/><path d="M263,23.24a.6.6,0,0,0,0-1.2.6.6,0,0,0,0,1.2Z" fill="#f1faee"/><path d="M264.88,23.24a.6.6,0,0,0,0-1.2.6.6,0,0,0,0,1.2Z" fill="#f1faee"/><path d="M266.54,23.12a.6.6,0,0,0,0-1.2.6.6,0,0,0,0,1.2Z" fill="#f1faee"/><path d="M268.67,23.12a.6.6,0,0,0,0-1.2.6.6,0,0,0,0,1.2Z" fill="#f1faee"/><path d="M270.21,23.12a.6.6,0,0,0,0-1.2.6.6,0,0,0,0,1.2Z" fill="#f1faee"/><path d="M272.1,23.36a.61.61,0,0,0,0-1.21.61.61,0,0,0,0,1.21Z" fill="#f1faee"/><path d="M251.87,26.69a.61.61,0,0,0,0-1.21.61.61,0,0,0,0,1.21Z" fill="#f1faee"/><path d="M253.53,26.66a.61.61,0,0,0,0-1.21.61.61,0,0,0,0,1.21Z" fill="#f1faee"/><path d="M255.42,26.5a.61.61,0,0,0,0-1.21.61.61,0,0,0,0,1.21Z" fill="#f1faee"/><path d="M257.19,26.23a.61.61,0,0,0,0-1.21.61.61,0,0,0,0,1.21Z" fill="#f1faee"/><path d="M259.44,26a.61.61,0,0,0,0-1.21.61.61,0,0,0,0,1.21Z" fill="#f1faee"/><path d="M261.32,26.07a.6.6,0,0,0,0-1.2.6.6,0,0,0,0,1.2Z" fill="#f1faee"/><path d="M263,26a.61.61,0,0,0,0-1.21A.61.61,0,0,0,263,26Z" fill="#f1faee"/><path d="M264.88,26a.6.6,0,0,0,0-1.2.6.6,0,0,0,0,1.2Z" fill="#f1faee"/><path d="M266.53,25.85a.61.61,0,0,0,0-1.21.61.61,0,0,0,0,1.21Z" fill="#f1faee"/><path d="M268.66,25.81a.61.61,0,0,0,0-1.21.61.61,0,0,0,0,1.21Z" fill="#f1faee"/><path d="M270.2,25.78a.61.61,0,0,0,0-1.21.61.61,0,0,0,0,1.21Z" fill="#f1faee"/><path d="M272.1,25.58a.61.61,0,0,0,0-1.21.61.61,0,0,0,0,1.21Z" fill="#f1faee"/><path d="M252.7,30.43a.61.61,0,0,0,0-1.21.61.61,0,0,0,0,1.21Z" fill="#f1faee"/><path d="M254.27,31a.61.61,0,0,0,0-1.21.61.61,0,0,0,0,1.21Z" fill="#f1faee"/><path d="M256.09,31.49a.6.6,0,0,0,0-1.2.6.6,0,0,0,0,1.2Z" fill="#f1faee"/><path d="M257.84,31.86a.61.61,0,0,0,0-1.21.61.61,0,0,0,0,1.21Z" fill="#f1faee"/><path d="M260.05,32.38a.61.61,0,0,0,0-1.21.61.61,0,0,0,0,1.21Z" fill="#f1faee"/><path d="M261.91,32.79a.61.61,0,0,0,0-1.21.61.61,0,0,0,0,1.21Z" fill="#f1faee"/><path d="M263.88,33.33a.6.6,0,0,0,0-1.2.6.6,0,0,0,0,1.2Z" fill="#f1faee"/><path d="M265.66,33.56a.61.61,0,0,0,0-1.21.61.61,0,0,0,0,1.21Z" fill="#f1faee"/><path d="M267.67,34.4a.61.61,0,0,0,0-1.21.61.61,0,0,0,0,1.21Z" fill="#f1faee"/><path d="M269.92,34.81a.61.61,0,0,0,0-1.21.61.61,0,0,0,0,1.21Z" fill="#f1faee"/><path d="M272.66,35.63a.61.61,0,0,0,0-1.21.61.61,0,0,0,0,1.21Z" fill="#f1faee"/><path d="M252.76,34.5a.61.61,0,0,0,0-1.21.61.61,0,0,0,0,1.21Z" fill="#f1faee"/><path d="M254.35,35a.61.61,0,0,0,0-1.21.61.61,0,0,0,0,1.21Z" fill="#f1faee"/><path d="M256.19,35.42a.61.61,0,0,0,0-1.21.61.61,0,0,0,0,1.21Z" fill="#f1faee"/><path d="M258,35.71a.61.61,0,0,0,0-1.21.61.61,0,0,0,0,1.21Z" fill="#f1faee"/><path d="M260.18,36.14a.61.61,0,0,0,0-1.21.61.61,0,0,0,0,1.21Z" fill="#f1faee"/><path d="M262.06,36.47a.61.61,0,0,0,0-1.21.61.61,0,0,0,0,1.21Z" fill="#f1faee"/><path d="M264.05,36.93a.6.6,0,0,0,0-1.2.6.6,0,0,0,0,1.2Z" fill="#f1faee"/><path d="M265.84,37.09a.61.61,0,0,0,0-1.21.61.61,0,0,0,0,1.21Z" fill="#f1faee"/><path d="M267.88,37.84a.61.61,0,0,0,0-1.21.61.61,0,0,0,0,1.21Z" fill="#f1faee"/><path d="M270.15,38.16a.61.61,0,0,0,0-1.21.61.61,0,0,0,0,1.21Z" fill="#f1faee"/><path d="M272.28,38.52a.61.61,0,0,0,0-1.21.61.61,0,0,0,0,1.21Z" fill="#f1faee"/><path d="M249.48,40.49a.6.6,0,0,0,0-1.2.6.6,0,0,0,0,1.2Z" fill="#f1faee"/><path d="M251,41a.61.61,0,0,0,0-1.21A.61.61,0,0,0,251,41Z" fill="#f1faee"/><path d="M252.87,41.56a.61.61,0,0,0,0-1.21.61.61,0,0,0,0,1.21Z" fill="#f1faee"/><path d="M254.62,41.92a.6.6,0,0,0,0-1.2.6.6,0,0,0,0,1.2Z" fill="#f1faee"/><path d="M256.82,42.45a.61.61,0,0,0,0-1.21.61.61,0,0,0,0,1.21Z" fill="#f1faee"/><path d="M258.69,42.85a.61.61,0,0,0,0-1.21.61.61,0,0,0,0,1.21Z" fill="#f1faee"/><path d="M260.66,43.4a.61.61,0,0,0,0-1.21.61.61,0,0,0,0,1.21Z" fill="#f1faee"/><path d="M262.44,43.62a.6.6,0,0,0,0-1.2.6.6,0,0,0,0,1.2Z" fill="#f1faee"/><path d="M264.45,44.06a.61.61,0,0,0,0-1.21.61.61,0,0,0,0,1.21Z" fill="#f1faee"/><path d="M266.7,44.88a.61.61,0,0,0,0-1.21.61.61,0,0,0,0,1.21Z" fill="#f1faee"/><path d="M269.43,45.29a.6.6,0,0,0,0-1.2.6.6,0,0,0,0,1.2Z" fill="#f1faee"/><path d="M271.85,45.7a.61.61,0,0,0,0-1.21.61.61,0,0,0,0,1.21Z" fill="#f1faee"/><path d="M249.54,43.76a.61.61,0,0,0,0-1.21.61.61,0,0,0,0,1.21Z" fill="#f1faee"/><path d="M270.73,48.63a.61.61,0,0,0,0-1.21.61.61,0,0,0,0,1.21Z" fill="#f1faee"/><path d="M251.77,44.28a.61.61,0,0,0,0-1.21.61.61,0,0,0,0,1.21Z" fill="#f1faee"/><path d="M253.94,44.57a.61.61,0,0,0,0-1.21.61.61,0,0,0,0,1.21Z" fill="#f1faee"/><path d="M255.75,45a.61.61,0,0,0,0-1.21.61.61,0,0,0,0,1.21Z" fill="#f1faee"/><path d="M258,45.32a.6.6,0,0,0,0-1.2.6.6,0,0,0,0,1.2Z" fill="#f1faee"/><path d="M260,45.79a.61.61,0,0,0,0-1.21.61.61,0,0,0,0,1.21Z" fill="#f1faee"/><path d="M261.82,46.34a.6.6,0,0,0,0-1.2.6.6,0,0,0,0,1.2Z" fill="#f1faee"/><path d="M264.26,47.1a.61.61,0,0,0,0-1.21.61.61,0,0,0,0,1.21Z" fill="#f1faee"/><path d="M266.53,47.42a.61.61,0,0,0,0-1.21.61.61,0,0,0,0,1.21Z" fill="#f1faee"/><path d="M268.66,48.18a.61.61,0,0,0,0-1.21.61.61,0,0,0,0,1.21Z" fill="#f1faee"/><path d="M247.25,52.36a.61.61,0,0,0,0-1.21.61.61,0,0,0,0,1.21Z" fill="#f1faee"/><path d="M248.92,53.25a.61.61,0,0,0,0-1.21.61.61,0,0,0,0,1.21Z" fill="#f1faee"/><path d="M250.56,54.38a.6.6,0,0,0,0-1.2.6.6,0,0,0,0,1.2Z" fill="#f1faee"/><path d="M252.59,55.36a.61.61,0,0,0,0-1.21.61.61,0,0,0,0,1.21Z" fill="#f1faee"/><path d="M254.33,56.15a.6.6,0,0,0,0-1.2.6.6,0,0,0,0,1.2Z" fill="#f1faee"/><path d="M256.13,57.11a.61.61,0,0,0,0-1.21.61.61,0,0,0,0,1.21Z" fill="#f1faee"/><path d="M258.23,58.11a.6.6,0,0,0,0-1.2.6.6,0,0,0,0,1.2Z" fill="#f1faee"/><path d="M260.1,59a.61.61,0,0,0,0-1.21.61.61,0,0,0,0,1.21Z" fill="#f1faee"/><path d="M262.13,59.84a.61.61,0,0,0,0-1.21.61.61,0,0,0,0,1.21Z" fill="#f1faee"/><path d="M245.2,53.88a.6.6,0,0,0,0-1.2.6.6,0,0,0,0,1.2Z" fill="#f1faee"/><path d="M247.26,55.27a.61.61,0,0,0,0-1.21.61.61,0,0,0,0,1.21Z" fill="#f1faee"/><path d="M249.32,56.42a.61.61,0,0,0,0-1.21.61.61,0,0,0,0,1.21Z" fill="#f1faee"/><path d="M251,57.23A.61.61,0,0,0,251,56a.61.61,0,0,0,0,1.21Z" fill="#f1faee"/><path d="M253.16,58.43a.6.6,0,0,0,0-1.2.6.6,0,0,0,0,1.2Z" fill="#f1faee"/><path d="M255,59.72a.61.61,0,0,0,0-1.21.61.61,0,0,0,0,1.21Z" fill="#f1faee"/><path d="M256.64,60.64a.61.61,0,0,0,0-1.21.61.61,0,0,0,0,1.21Z" fill="#f1faee"/><path d="M258.87,61.49a.6.6,0,0,0,0-1.2.6.6,0,0,0,0,1.2Z" fill="#f1faee"/><path d="M261,62.29a.61.61,0,0,0,0-1.21.61.61,0,0,0,0,1.21Z" fill="#f1faee"/><path d="M250.3,48.07a.61.61,0,0,0,0-1.21.61.61,0,0,0,0,1.21Z" fill="#f1faee"/><path d="M252.06,48.78a.61.61,0,0,0,0-1.21.61.61,0,0,0,0,1.21Z" fill="#f1faee"/><path d="M253.77,49.34a.61.61,0,0,0,0-1.21.61.61,0,0,0,0,1.21Z" fill="#f1faee"/><path d="M255.9,50.09a.6.6,0,0,0,0-1.2.6.6,0,0,0,0,1.2Z" fill="#f1faee"/><path d="M257.71,50.29a.6.6,0,0,0,0-1.2.6.6,0,0,0,0,1.2Z" fill="#f1faee"/><path d="M259.6,51.05a.6.6,0,0,0,0-1.2.6.6,0,0,0,0,1.2Z" fill="#f1faee"/><path d="M261.35,51.47a.61.61,0,0,0,0-1.21.61.61,0,0,0,0,1.21Z" fill="#f1faee"/><path d="M263.3,51.72a.61.61,0,0,0,0-1.21.61.61,0,0,0,0,1.21Z" fill="#f1faee"/><path d="M265.45,52.37a.61.61,0,0,0,0-1.21.61.61,0,0,0,0,1.21Z" fill="#f1faee"/><path d="M267.72,53.08a.6.6,0,0,0,0-1.2.6.6,0,0,0,0,1.2Z" fill="#f1faee"/><path d="M248.52,50.61a.61.61,0,0,0,0-1.21.61.61,0,0,0,0,1.21Z" fill="#f1faee"/><path d="M250.67,51.37a.61.61,0,0,0,0-1.21.61.61,0,0,0,0,1.21Z" fill="#f1faee"/><path d="M252.39,52.29a.6.6,0,0,0,0-1.2.6.6,0,0,0,0,1.2Z" fill="#f1faee"/><path d="M254.56,52.92a.61.61,0,0,0,0-1.21.61.61,0,0,0,0,1.21Z" fill="#f1faee"/><path d="M256.79,53.49a.61.61,0,0,0,0-1.21.61.61,0,0,0,0,1.21Z" fill="#f1faee"/><path d="M258.71,54.17a.61.61,0,0,0,0-1.21.61.61,0,0,0,0,1.21Z" fill="#f1faee"/><path d="M260.84,54.51a.61.61,0,0,0,0-1.21.61.61,0,0,0,0,1.21Z" fill="#f1faee"/><path d="M262.78,55.12a.6.6,0,0,0,0-1.2.6.6,0,0,0,0,1.2Z" fill="#f1faee"/><path d="M265,55.68a.6.6,0,0,0,0-1.2.6.6,0,0,0,0,1.2Z" fill="#f1faee"/><path d="M267,56.27a.61.61,0,0,0,0-1.21.61.61,0,0,0,0,1.21Z" fill="#f1faee"/><path d="M484.76,33.62c-.07-.31-.32-1.38.37-1.92.52-.41,2.57.25,2.71-1.18.05-.45-.22-1.49.42-1.72.89-.33,4.09,5.2,5.08,6.76" fill="#91a5bc"/><path d="M475.94,35.53l2.51,3.86a1.14,1.14,0,0,0,.42.45,1.22,1.22,0,0,0,.47.07c1.22,0,2.45,0,3.67-.11.06-.2-.11-.39-.27-.52a21.65,21.65,0,0,0-7.13-3.93" fill="#91a5bc"/><path d="M511.38,53.84a53.42,53.42,0,0,1-.28,8.85c.73.2,7-4.17,9.4-6" fill="#91a5bc"/><path d="M523.79,53a8.85,8.85,0,0,0,.72,4.74.6.6,0,0,0,.82.22.62.62,0,0,0,.22-.83A7.74,7.74,0,0,1,525,53a.61.61,0,0,0-1.21,0Z" fill="#91a5bc"/><path d="M491.29,43.78a8.41,8.41,0,0,1-4.4.89c2.49,2.31,7.33,6.56,8.51,6.94S500.55,49.36,502,49" fill="#91a5bc"/><path d="M453.31,21.22c1.35-.29,2.72-.91,4.07-.59a13.63,13.63,0,0,1-1.07,2c2,1.87,9.27,8.85,9.12,9.46-.41,1.63-4,1.33-3.9,1.84,1.09,4.64,8.64-1.23,11.48.34,4.77,2.64,33.85,18.64,46.25,22.84,1.86.63,15,6.58,21.46,3.85-1.48-1.17-3-1.14-4.44-2.31,4.16-.59,8.14-1.34,8.22-1.76a1.89,1.89,0,0,0-.63-1.48c-10.08-12-62.09-22.28-65.8-23.57-10.25-3.57-17.24-15.46-27.9-17.49C452.53,16,453.31,21.22,453.31,21.22Z" fill="#9eb3ca"/><path d="M536.48,54.05a2,2,0,0,0,0,2.07,2.08,2.08,0,0,0,1.59.89,2.05,2.05,0,0,0,2-1.43,1.85,1.85,0,0,0-.45-1.72A2.21,2.21,0,0,0,536.48,54.05Z" fill="#fdf2ce"/><path d="M538,54.57a.66.66,0,0,1,1,.46c0,.44-.5.93-.87.7C537.13,55.13,538,54.57,538,54.57Z"/><path d="M530.78,54.35a3.84,3.84,0,0,0,.79,2.31,6.4,6.4,0,0,0,2.31,2,5.43,5.43,0,0,0,1.8.58.62.62,0,0,0,.75-.42.6.6,0,0,0-.42-.74,4.83,4.83,0,0,1-.93-.21,4.15,4.15,0,0,1-.76-.34l-.41-.25-.14-.11-.1-.07s0,0,0,0a5.86,5.86,0,0,1-.63-.59,3.58,3.58,0,0,1-.26-.29l-.07-.09c0,.05,0,.05,0,0l-.12-.17a6.11,6.11,0,0,1-.38-.65c0-.06-.05-.13,0,0l-.06-.17a2.07,2.07,0,0,1-.1-.33s0-.09,0-.12,0,.13,0,0a2.8,2.8,0,0,1,0-.29.61.61,0,1,0-1.21,0Z" fill="#91a5bc"/><path d="M528.66,51.71a15.7,15.7,0,0,0,.55,6.81c.23.73,1.39.42,1.16-.33a14.26,14.26,0,0,1-.54-6.16.63.63,0,0,0-.42-.74.61.61,0,0,0-.75.42Z" fill="#91a5bc"/><path d="M526.06,51.53a14.25,14.25,0,0,0,.69,6.79.61.61,0,0,0,1.17-.32,13,13,0,0,1-.69-6.15.64.64,0,0,0-.42-.75.63.63,0,0,0-.75.43Z" fill="#91a5bc"/><path d="M1010.46,37.54a20.68,20.68,0,0,0,8.06,1.75c2.12-.15,4.29-1.85,4.13-4-.06-.86-1.06-4.19-4.54-4.2-2,0-4,.39-5.8-.39-1-.43-6-6.16-5.93-6.31a11.79,11.79,0,0,1,9-4.7,22.55,22.55,0,0,1,9.68,2c3.23,1.41,6.59,4.25,7.65,7.61.6,1.89,3.87,11.12-1.28,18.24-.81,1.11-6,8.06-14.81,9.58-6,1-17.44-2-18.17-4.6-.19-.64,3.54-8.09,4.39-10.37,1.17-3.09,3.64-2.28,5.27-2.57A3.38,3.38,0,0,0,1010.46,37.54Z" fill="#f0deca"/><path d="M1005.82,23.51l10.81,10.8c.35.35.13,2.15-.36,2.19Q1003.46,37.58,990.6,38c-.56,0-.82-1.89-.38-2.24,4.45-3.51,12.88-10.63,14.82-12.27A.57.57,0,0,1,1005.82,23.51Z" fill="#f0deca"/><path d="M1003.71,23.42l11.13,11.11a.43.43,0,0,1-.27.74q-13.19,1.11-26.42,1.53a.44.44,0,0,1-.29-.78c4.43-3.47,13.5-11.13,15.27-12.63A.43.43,0,0,1,1003.71,23.42Z" fill="#a2231d"/><path d="M1004.29,38.24a102.09,102.09,0,0,0-13.2-.4,33,33,0,0,0-6.1.86,15.07,15.07,0,0,1-3.1.75A12.53,12.53,0,0,1,978,38.8a.6.6,0,0,0-.32,1.16,10.41,10.41,0,0,0,6.24.3,28.69,28.69,0,0,1,6.76-1.18,95,95,0,0,1,13.6.37c.78.06.78-1.15,0-1.21Z" fill="#f0deca"/><path d="M1003.78,40.57c-3.87-.4-7.45,1.24-11.25,1.57a24.72,24.72,0,0,1-11.41-1.75c-.72-.29-1,.87-.32,1.16a25.48,25.48,0,0,0,11.32,1.83c3.94-.28,7.68-2,11.66-1.61.78.08.77-1.12,0-1.2Z" fill="#f0deca"/><path d="M999.65,51.22c-3.59-1.37-7.18-3.32-11.08-3.58a17.89,17.89,0,0,0-5.82,1,19.65,19.65,0,0,1-7.37,1c-.77-.08-.76,1.13,0,1.21a18,18,0,0,0,6.44-.69c2.08-.54,4.25-1.41,6.42-1.35,3.88.12,7.54,2.2,11.08,3.55.73.28,1-.89.33-1.16Z" fill="#f0deca"/><path d="M1000.43,47.33c-6.22.86-12.21-.78-18-3-.72-.28-1,.89-.32,1.16,6,2.29,12.15,3.88,18.6,3,.77-.11.44-1.27-.32-1.16Z" fill="#f0deca"/><path d="M1001.46,45.56a94.22,94.22,0,0,1-11.1-1.24,48.08,48.08,0,0,0-13.18.06c-.77.11-.44,1.28.32,1.17a47.46,47.46,0,0,1,13.36.05,85.69,85.69,0,0,0,10.6,1.17.61.61,0,0,0,0-1.21Z" fill="#f0deca"/><path d="M1002.74,43.65c-1.87.63-4-.55-5.59-1.36a18,18,0,0,0-5.24-2.09c-5.1-.73-10,1.86-13.9,4.91-.61.47.25,1.32.85.85,3.76-3,9.32-6,14.22-4.23,3,1.07,6.6,4.22,10,3.09.73-.25.42-1.42-.32-1.17Z" fill="#f0deca"/><path d="M1000.47,47.13c-5-.51-9.57-2.5-14.38-3.76-4.4-1.15-8.7-1.17-12.86.82-.7.34-.09,1.38.61,1,4.36-2.08,8.82-1.64,13.32-.31s8.69,2.94,13.31,3.42c.77.08.77-1.13,0-1.21Z" fill="#f0deca"/><path d="M1000.12,49.69c-8.41-.85-16.68-3.56-25.2-3.27-.77,0-.78,1.23,0,1.21,8.52-.29,16.79,2.42,25.2,3.26.78.08.77-1.13,0-1.2Z" fill="#f0deca"/><path d="M1003.09,41.9c-5.6-.24-10.91-2.45-16.52-2.61a18.33,18.33,0,0,0-7.17,1.25,21.39,21.39,0,0,1-6.62,1.79c-.77,0-.77,1.25,0,1.21A19,19,0,0,0,979,42a18.49,18.49,0,0,1,7.58-1.5c5.6.16,10.92,2.36,16.52,2.61.77,0,.77-1.17,0-1.21Z" fill="#f0deca"/><path d="M1009.09,39.53c-3,1.36-4.67,4.4-5.67,7.36a22.94,22.94,0,0,0-1,4.26,13.29,13.29,0,0,0-.17,3c.08.77,1.29.78,1.21,0a17.21,17.21,0,0,1,1-6.59c.9-2.79,2.44-5.66,5.22-6.93.7-.33.09-1.37-.61-1Z" fill="#dfbda7"/><path d="M1012.62,38.67c-2,1.08-3.22,3.71-4,5.74a18.57,18.57,0,0,0-.94,10c.15.76,1.31.44,1.17-.32a17.31,17.31,0,0,1,.85-9.18c.66-1.8,1.71-4.27,3.51-5.23.69-.37.08-1.41-.61-1Z" fill="#dfbda7"/><path d="M1015.49,38.27c-1.92,1-2.37,3.94-2.62,5.88a32.05,32.05,0,0,0,.47,10.29c.15.76,1.31.44,1.16-.32a31.55,31.55,0,0,1-.5-9.3,15,15,0,0,1,.73-3.51,3.4,3.4,0,0,1,1.37-2c.68-.38.07-1.42-.61-1Z" fill="#dfbda7"/><path d="M1016.77,39.36a19.86,19.86,0,0,0,.15,6.79,45,45,0,0,0,1.52,6.79c.23.74,1.4.42,1.17-.32a44,44,0,0,1-1.46-6.41,18.87,18.87,0,0,1-.22-6.53c.16-.76-1-1.08-1.16-.32Z" fill="#dfbda7"/><path d="M1020,39a10.48,10.48,0,0,0,.94,5.48,13.65,13.65,0,0,0,3,4.78c.56.53,1.42-.32.85-.85a12.29,12.29,0,0,1-2.69-4.25,9.43,9.43,0,0,1-.94-4.83c.12-.76-1-1.09-1.17-.33Z" fill="#dfbda7"/><path d="M1021.71,38a7.54,7.54,0,0,0,4.58,3.17.6.6,0,1,0,.32-1.16,5.23,5.23,0,0,1-1-.28s-.17-.07-.06,0l-.1,0-.25-.13a5.39,5.39,0,0,1-.52-.3,5.15,5.15,0,0,1-.42-.31c-.18-.15-.34-.29-.5-.45a11.11,11.11,0,0,1-1-1.09.63.63,0,0,0-.83-.22.62.62,0,0,0-.22.83Z" fill="#dfbda7"/><path d="M1013.35,48.06c-.08-.18,0,.1,0-.09s0-.1,0-.15a.83.83,0,0,0,0-.15s0-.19,0-.09c0-.11,0-.23,0-.34a.86.86,0,0,0,0-.16s0-.19,0-.09a2.22,2.22,0,0,1,.43-1.07,2.89,2.89,0,0,1,.24-.25.74.74,0,0,1,.17-.14c.23-.15.49-.26.72-.41a1.46,1.46,0,0,0,.73-1.65.62.62,0,0,0-.74-.42.61.61,0,0,0-.43.74c0,.07,0,.09,0,.05v0c0-.09-.06.07,0,0a.26.26,0,0,1-.12.14,6.44,6.44,0,0,1-.72.42,3.13,3.13,0,0,0-1.08,1.15,3.36,3.36,0,0,0-.1,3.07.6.6,0,1,0,1-.61Z" fill="#a2231d"/><path d="M1026.59,42.74c1.06-.19,2.13.2,3.19-.06a3.2,3.2,0,0,0,1.41-.82c.46-.43.9-.89,1.36-1.33s-.3-1.4-.86-.86l-1.25,1.24a2,2,0,0,1-1.16.64,6.22,6.22,0,0,1-1.43,0,6.42,6.42,0,0,0-1.58,0,.61.61,0,0,0-.42.75.63.63,0,0,0,.74.42Z" fill="#a2231d"/><path d="M1022.8,39.92a6.63,6.63,0,0,0,3.79-.26,8.15,8.15,0,0,0,1.61-.89,3.35,3.35,0,0,1,1.68-.76,1.79,1.79,0,0,0,1.5-.48,4.23,4.23,0,0,0,.75-1.57c.41-1.19.77-2.56,2-3.1.71-.31.09-1.35-.61-1a4.15,4.15,0,0,0-2.07,2.34c-.25.61-.43,1.24-.65,1.85-.08.21-.17.58-.36.72s-.53.06-.77.07c-1.15.09-2,.92-2.93,1.45a5.28,5.28,0,0,1-3.66.5c-.76-.16-1.08,1-.32,1.17Z" fill="#a2231d"/><path d="M1023.7,37.61a4,4,0,0,0,3.06-1.47c.35-.4.64-1.1,1.22-1.14a4.09,4.09,0,0,0,1.77-.2c1-.49,1.41-1.65,1.87-2.6a12.84,12.84,0,0,1,2.23-3.23c.54-.56-.31-1.42-.85-.85a14.36,14.36,0,0,0-2.17,3c-.27.51-.48,1-.74,1.55a2.4,2.4,0,0,1-.84,1.07c-.47.26-1.07,0-1.58.13a2,2,0,0,0-1.32.88,3.26,3.26,0,0,1-2.65,1.69c-.78,0-.78,1.17,0,1.21Z" fill="#a2231d"/><path d="M1025.54,32.9a1.68,1.68,0,0,1,1.21-1.76c.51-.14,1.06,0,1.58-.11a2.92,2.92,0,0,0,1.22-.51c1.83-1.29,1.93-3.6,1.86-5.64a.61.61,0,0,0-1.21,0,8.15,8.15,0,0,1-.32,3.33,2.6,2.6,0,0,1-1.71,1.63c-.49.11-1,0-1.52.09a2.61,2.61,0,0,0-1.27.59,2.86,2.86,0,0,0-1.05,2.38c.05.77,1.26.78,1.21,0Z" fill="#a2231d"/><path d="M1026.65,24.26c-.05.9-.15,1.79-.2,2.69a.61.61,0,0,0,1.21,0c0-.9.15-1.79.2-2.69a.6.6,0,0,0-.6-.6.61.61,0,0,0-.61.6Z" fill="#a2231d"/><path d="M1022.46,21.86c.24,1.55.42,3.11.52,4.68a.62.62,0,0,0,.61.6.61.61,0,0,0,.6-.6c-.11-1.68-.31-3.34-.57-5a.6.6,0,0,0-.74-.42.62.62,0,0,0-.42.74Z" fill="#a2231d"/><path d="M1024.16,30.21a3.39,3.39,0,0,0-2-2.11c-.37-.14-1-.18-.93-.69s.55-1.09.74-1.6a3.18,3.18,0,0,0-.33-2.75,3.08,3.08,0,0,0-1-1c-.26-.15-1.17-.42-1.06-.84a.6.6,0,0,0-1.16-.32,1.51,1.51,0,0,0,.45,1.5,10,10,0,0,0,1.33.81,2,2,0,0,1,.49,2.55,3.8,3.8,0,0,0-.64,1.65,1.56,1.56,0,0,0,.69,1.39c.41.28.92.33,1.34.58a2,2,0,0,1,.93,1.15c.25.74,1.41.42,1.17-.32Z" fill="#a2231d"/><path d="M1015.74,21.09c-.52,1.58.8,3,2.19,3.55a2.74,2.74,0,0,1,.78.35c.23.21.18.62.23.9a4.17,4.17,0,0,0,1.08,2.19c.53.58,1.38-.28.86-.85a3.07,3.07,0,0,1-.79-1.81,1.86,1.86,0,0,0-1.11-1.66,4.73,4.73,0,0,1-1.62-.88,1.45,1.45,0,0,1-.46-1.47c.24-.74-.92-1.05-1.16-.32Z" fill="#a2231d"/><path d="M1010.24,22.16a47,47,0,0,1,5.24,2.68.6.6,0,0,0,.61-1,47.07,47.07,0,0,0-5.24-2.69.62.62,0,0,0-.83.22.62.62,0,0,0,.22.83Z" fill="#a2231d"/><path d="M1007.34,24.12c.12.75,1,.92,1.6.94s1.51-.12,2.27-.07a2.38,2.38,0,0,1,.95.24c.35.19.66.45,1,.62a3.94,3.94,0,0,0,2.34.35.61.61,0,0,0,.42-.75.62.62,0,0,0-.74-.42,2.67,2.67,0,0,1-1.76-.41,4.62,4.62,0,0,0-1.7-.78,8.18,8.18,0,0,0-1.85,0c-.3,0-.59,0-.89,0-.14,0-.27,0-.41,0l-.12,0s0,0,0,0a.61.61,0,0,0-.74-.43.63.63,0,0,0-.43.75Z" fill="#a2231d"/><path d="M1009.5,26.81c.43-.13.89.21,1.28.36a7.11,7.11,0,0,0,1.37.37,11.06,11.06,0,0,1,2.73.63.64.64,0,0,0,.83-.22.62.62,0,0,0-.22-.83,12.74,12.74,0,0,0-3.11-.76A6,6,0,0,1,1011,26a2.52,2.52,0,0,0-1.81-.32.61.61,0,0,0,.32,1.17Z" fill="#a2231d"/><path d="M1001.12,33.05a.61.61,0,0,0,0-1.21.61.61,0,0,0,0,1.21Z" fill="#f0deca"/><path d="M997.34,33.05a.61.61,0,0,0,0-1.21.61.61,0,0,0,0,1.21Z" fill="#f0deca"/><path d="M999.76,30a.61.61,0,0,0,0-1.21.61.61,0,0,0,0,1.21Z" fill="#f0deca"/><path d="M1002,30a.61.61,0,0,0,0-1.21.61.61,0,0,0,0,1.21Z" fill="#f0deca"/><path d="M999.61,31.84a.61.61,0,0,0,0-1.21.61.61,0,0,0,0,1.21Z" fill="#f0deca"/><path d="M994.61,34.41a.6.6,0,0,0,0-1.2.6.6,0,0,0,0,1.2Z" fill="#f0deca"/><path d="M997.49,34.41a.6.6,0,0,0,0-1.2.6.6,0,0,0,0,1.2Z" fill="#f0deca"/><path d="M1003.7,30.93a.61.61,0,0,0,0-1.21.61.61,0,0,0,0,1.21Z" fill="#f0deca"/><path d="M1003.55,28.2a.6.6,0,0,0,0-1.2.6.6,0,0,0,0,1.2Z" fill="#f0deca"/><path d="M984.16,38.64A23.61,23.61,0,0,1,994.92,42a6.19,6.19,0,0,0,4.2,1.1,35.3,35.3,0,0,0,5.69-2c.72-.27.41-1.43-.32-1.16a51.42,51.42,0,0,1-5.33,1.93c-1.92.46-3.54-.91-5.12-1.76a23.37,23.37,0,0,0-9.88-2.69c-.78,0-.77,1.17,0,1.21Z" fill="#f0deca"/><path d="M983.16,42.89c1.49-.25,2.9.39,4.29.83a20.26,20.26,0,0,0,3.85.8c3,.33,5.74-.31,8.66-.55.77-.06.77-1.27,0-1.21-3.08.25-6,.93-9.12.49a24.51,24.51,0,0,1-4.21-1.07,7.78,7.78,0,0,0-3.79-.46c-.77.13-.44,1.3.32,1.17Z" fill="#f0deca"/><path d="M988.76,39.1c2.85.41,5.74.73,8.58,1.26a7.42,7.42,0,0,1,3.22,1.45,7.52,7.52,0,0,0,2.84,1.55c.76.17,1.09-1,.33-1.16a8,8,0,0,1-2.83-1.63,7.85,7.85,0,0,0-3.24-1.38c-2.84-.53-5.73-.84-8.58-1.26-.76-.11-1.09,1.06-.32,1.17Z" fill="#f0deca"/><path d="M985.77,51.43a28.31,28.31,0,0,1,13.84-.2c.76.18,1.08-1,.32-1.16a29.57,29.57,0,0,0-14.48.2.6.6,0,0,0,.32,1.16Z" fill="#f0deca"/><path d="M979.76,49.05c6.08-.7,12,.84,18,1.87.76.13,1.09-1,.32-1.17-6-1-12.13-2.62-18.31-1.9-.76.08-.77,1.29,0,1.2Z" fill="#f0deca"/><path d="M1009.09,42a1.91,1.91,0,0,0,1.74-.09,3.89,3.89,0,0,0,1.19-1.2,10,10,0,0,0,.78-1.15l.13-.22.07-.11c.07-.11-.08.08,0,0l.08-.09c.09-.09-.08.05,0,0l.15-.09.07,0c-.06,0-.05,0,0,0a.61.61,0,0,0,.42-.74.61.61,0,0,0-.74-.42,2.17,2.17,0,0,0-1.1.83,5,5,0,0,0-.26.46c0,.08-.09.16-.14.23l-.1.14h0l-.06.07a7.46,7.46,0,0,1-.91,1.14s-.11.09,0,0l-.15.09-.15.09c.1-.05-.06,0-.07,0l-.17,0c.11,0,0,0-.06,0s0,0,0,0-.2-.07-.1,0a.61.61,0,0,0-.82.22.6.6,0,0,0,.22.82Z" fill="#a2231d"/><path d="M1011.66,45.39a1.8,1.8,0,0,1,.88-1.59c.64-.46,1.36-.8,2-1.3a6.24,6.24,0,0,0,2.15-3.57c.16-.76-1-1.09-1.16-.33a5.18,5.18,0,0,1-2.24,3.33c-1.25.81-3,1.69-2.81,3.46a.62.62,0,0,0,.61.6.6.6,0,0,0,.6-.6Z" fill="#a2231d"/><path d="M1017.82,42a9.65,9.65,0,0,0,.24-3,.61.61,0,0,0-.6-.6.6.6,0,0,0-.6.6,10.74,10.74,0,0,1,0,1.39l0,.32s0,.21,0,.13a.59.59,0,0,1,0,.13c0,.23-.08.46-.13.68a.6.6,0,1,0,1.16.33Z" fill="#a2231d"/><path d="M1022.24,49.05c1-1.73,1.9-4,.66-5.85a3.23,3.23,0,0,0-2.18-1.4c-.15,0-.43,0-.54-.18s-.1-.48-.1-.66l-.09-1.87c0-.78-1.25-.78-1.21,0l.08,1.69a3,3,0,0,0,.25,1.43c.51.84,1.53.59,2.24,1.08,1.79,1.24.71,3.72-.15,5.15a.6.6,0,0,0,1,.61Z" fill="#a2231d"/><path d="M1010.45,28.55c.18-.08.51.09.68.15l.89.32a5.82,5.82,0,0,1,1.51.82c.84.69,1.44,1.9,2.7,1.83.77-.05.78-1.26,0-1.21-.47,0-.81-.4-1.12-.73a6.41,6.41,0,0,0-1.42-1.23,9.41,9.41,0,0,0-1.77-.8,2.62,2.62,0,0,0-2.08-.19.6.6,0,0,0-.22.82.62.62,0,0,0,.83.22Z" fill="#a2231d"/><path d="M1018.74,30.71a1.1,1.1,0,0,0,0-.11c0,.06,0-.09,0-.1s0-.21,0-.32,0-.43,0-.64a4.76,4.76,0,0,0,0-1.36A2,2,0,0,0,1018,27a5.45,5.45,0,0,0-.58-.4l-.26-.17,0,0a1.59,1.59,0,0,1-.13-.13c-.54-.55-1.4.3-.85.86a6.33,6.33,0,0,0,1,.74c.15.1,0,0,0,0l.12.1.07.08s0,.09,0,.09l.06.1c0-.09,0,0,0,0a.57.57,0,0,1,0,.14s0,.16,0,.09,0,.06,0,.07a.76.76,0,0,1,0,.15c0,.11,0,.21,0,.31s0,.41,0,.61a4.56,4.56,0,0,0,.05,1.33.61.61,0,0,0,1.17-.32Z" fill="#a2231d"/><path d="M1021.7,32.44a4.29,4.29,0,0,0,0-3.87c-.25-.63-.49-1.25-.69-1.9a4.07,4.07,0,0,0-.9-1.72c-.54-.56-1.39.3-.85.86a3.09,3.09,0,0,1,.63,1.33c.17.56.38,1.1.6,1.64.38.95.79,2.1.2,3-.41.66.63,1.27,1,.61Z" fill="#a2231d"/><path d="M1025.9,26.3c.12-.59.2-1.19.26-1.78a8.25,8.25,0,0,0,0-1.49,2.33,2.33,0,0,0-1.38-2.16.62.62,0,0,0-.75.42.63.63,0,0,0,.42.75s0,0,0,0l.1.06s.05,0,0,0l.08.08h0l.06.09s.11.2.07.11a2.25,2.25,0,0,1,.18.89,12.25,12.25,0,0,1-.27,2.7.6.6,0,0,0,1.16.32Z" fill="#a2231d"/><path d="M1024.89,28.52a2.58,2.58,0,0,0,3.91.16c1.27-1.27,1.22-3.14,1-4.8a.61.61,0,0,0-1.21,0,8.92,8.92,0,0,1,.08,2.25,3.2,3.2,0,0,1-.56,1.48,1.86,1.86,0,0,1-.58.51,1.61,1.61,0,0,1-.55.18,1.27,1.27,0,0,1-.65-.09h0l-.08,0-.16-.1h0L1026,28l-.08-.09a.63.63,0,0,0-.83-.22.62.62,0,0,0-.22.83Z" fill="#a2231d"/><path d="M1028.27,45.09h2a6.79,6.79,0,0,0,1.91-.09,2.58,2.58,0,0,0,1.29-1.08,11.83,11.83,0,0,0,.92-1.58.6.6,0,0,0-1-.61,14.63,14.63,0,0,1-.79,1.39c-.22.33-.46.7-.89.76a12.51,12.51,0,0,1-1.62,0h-1.74a.61.61,0,0,0,0,1.21Z" fill="#a2231d"/><path d="M1033.23,39.63a1.55,1.55,0,0,1-.08-.23.35.35,0,0,1,0-.11c0-.14,0,.06,0,0v-.19c0-.07,0,.09,0,0s0-.06,0-.08l0-.09c0-.07-.05.09,0,0a1.62,1.62,0,0,1,.1-.18c.08-.14.18-.28.28-.42a6.9,6.9,0,0,0,1-2,.62.62,0,0,0-.42-.75.63.63,0,0,0-.75.42,4.68,4.68,0,0,1-.39,1,9,9,0,0,1-.62,1,2.43,2.43,0,0,0-.42.89,1.9,1.9,0,0,0,.13,1.13.6.6,0,1,0,1.16-.32Z" fill="#a2231d"/><path d="M1006.56,36.31c1.5,0,2,.38,2.42,1a2.07,2.07,0,0,1-.07,2.31,2.67,2.67,0,0,1-2.3.9,2.11,2.11,0,0,1-2.27-1.29A2.18,2.18,0,0,1,1006.56,36.31Z" fill="#f3f3f3"/><path d="M1007.36,38.07a.88.88,0,0,1,.17,1,.71.71,0,0,1-1.1.17.89.89,0,0,1,0-1.19A.73.73,0,0,1,1007.36,38.07Z"/><path d="M329.41,19.87c-11,.35-16.19,11.46-17.49,21.05a30.77,30.77,0,0,0,.51,12.78,21,21,0,0,0,8.63,11.39c3.78,2.48,9.18,4.29,13.56,2.39A11,11,0,0,0,338.91,64a8.16,8.16,0,0,0,1.49-4.26,14.93,14.93,0,0,0-.73-6.95c-1-2.58-2.94-4.72-4.31-7.09a12.88,12.88,0,0,1-1.95-8.36,8.65,8.65,0,0,1,4-6.34c2.47-1.4,5.55-1.16,8-2.66a10.66,10.66,0,0,0,3.79-4.84c.94-1.95,1.73-4.19,3.41-5.65,2.42-2.1,6-1.38,8.34.54s3.52,4.8,4.44,7.57a27.65,27.65,0,0,1,1.74,9.81A12.43,12.43,0,0,1,363.76,44,9.43,9.43,0,0,1,355,46.33c-6.05-1.13-11.47-5.64-17.89-4.53-5.18.89-8.86,5.18-12.55,8.54-4.45,4.06-10,7.27-16.16,7.64-5.68.34-11.68-1.85-15-6.64s-3.66-10.9-3-16.51c.74-6.1,2.59-12.56,6.84-17.17a27.9,27.9,0,0,1,6-4.9,16,16,0,0,1,5.09-2.25,29.13,29.13,0,0,1,17.1,1.73,25.05,25.05,0,0,1,7,4.52c.57.52,1.43-.33.86-.85A27.66,27.66,0,0,0,318.4,9.05c-4.68-.65-9.84-.49-14.09,1.74a26.42,26.42,0,0,0-11.17,10.64,38.44,38.44,0,0,0-4.23,17.42C288.84,44.27,290.16,50,294,54a18.69,18.69,0,0,0,14.74,5.16c5.77-.47,11.12-3.23,15.48-6.94s8.25-9,14.27-9.38c6.71-.37,12.25,4.95,19,4.94,5.54,0,9.56-4.41,10.54-9.63a21.9,21.9,0,0,0-.61-9.42A28.3,28.3,0,0,0,364,20.21c-2.61-4-8.38-6.83-12.45-3.09-3.66,3.36-3.41,9.41-8.8,11-2.52.75-5.18.92-7.26,2.7A10.23,10.23,0,0,0,332.24,37a13,13,0,0,0,1.13,7.46c1.26,2.76,3.3,5,4.7,7.68a13.09,13.09,0,0,1,1.12,7.58A7.32,7.32,0,0,1,337,64.38c-4,4-10,2.82-14.43.23A19.71,19.71,0,0,1,313.24,52a33.68,33.68,0,0,1,.46-14.2c1.19-5.33,3.65-11.11,8.25-14.37a13.5,13.5,0,0,1,7.46-2.37c.77,0,.77-1.23,0-1.2Z" fill="#b99f60"/><path d="M331.13,16.88c1.27-2.46,2.89-1.64,4.52-1,.62.23,2.12,1.89,4,1.85A114.44,114.44,0,0,0,351.21,17c-3.79,1.13-12.66.81-15,1.59,2.55.77,10.86,2.33,12,2.66-3.48-.4-12-1.5-14.64-1.54C329.82,19.62,331.13,16.88,331.13,16.88Z" fill="#b99f60"/><path d="M335,16.6a.61.61,0,0,0,0-1.21.61.61,0,0,0,0,1.21Z" fill="#fff"/></svg>