<svg id="Layer_1" data-name="Layer 1" xmlns="http://www.w3.org/2000/svg" viewBox="0 0 621.73 114.22"><path d="M263.11,8.16c0-.8,2.75-.38,2.74-1.68s-2.81-2-3.69-1A5.68,5.68,0,0,1,258.61,7a10.71,10.71,0,0,1-6.3-1.88c-1.43-.91-3.15-.7-3.15,1,0,1,1.6-.13,1.57.88-.11,3.76-1.74,9.67-3,11.71-3.27,5.45-1,8.83,1.33,11.05,1.72,1.62,4.65,1.87,7.16,1.76a8.66,8.66,0,0,0,2.67-.51c4.94-1.79,5.07-5.68,4.87-9.24C263.55,17.34,263.11,8.16,263.11,8.16Z" fill="#457b9d"/><path d="M260,12.24a1.69,1.69,0,0,0,0-3.37,1.69,1.69,0,0,0,0,3.37Z" fill="#f0f3bd"/><path d="M254.07,12.11a1.69,1.69,0,0,0,0-3.38,1.69,1.69,0,0,0,0,3.38Z" fill="#f0f3bd"/><text transform="translate(233.32 110.82)" font-size="14.17" fill="#fdf2ce" font-family="VT323-Regular, VT323">player 2</text><circle cx="255.99" cy="55.52" r="35.37" fill="#0b132b"/><path d="M290,55.52a34,34,0,1,1-63.16-17.65A34,34,0,0,1,290,55.52a1.33,1.33,0,0,0,2.66,0,36.7,36.7,0,1,0-68.11,19,36.7,36.7,0,0,0,67.66-13.28,39.15,39.15,0,0,0,.45-5.72A1.33,1.33,0,0,0,290,55.52Z" fill="#fdf2ce"/><path d="M256,76.37a20.85,20.85,0,1,1,20.85-20.85A20.87,20.87,0,0,1,256,76.37ZM256,38a17.49,17.49,0,1,0,17.49,17.49A17.51,17.51,0,0,0,256,38Z" fill="#ffc800"/><path d="M256,71.18a15.66,15.66,0,1,1,15.66-15.66A15.68,15.68,0,0,1,256,71.18Zm0-28.79a13.13,13.13,0,1,0,13.13,13.13A13.14,13.14,0,0,0,256,42.39Z" fill="#ffc800"/><path d="M256,81.55A1.52,1.52,0,0,1,254.46,80V31a1.53,1.53,0,1,1,3.06,0V80A1.52,1.52,0,0,1,256,81.55Z" fill="#ffc800"/><path d="M280.49,57.05h-49a1.53,1.53,0,0,1,0-3.06h49a1.53,1.53,0,0,1,0,3.06Z" fill="#ffc800"/><path d="M238.66,74.38a1.54,1.54,0,0,1-1.08-2.62l34.65-34.65a1.55,1.55,0,0,1,2.17,0,1.53,1.53,0,0,1,0,2.17L239.75,73.93A1.53,1.53,0,0,1,238.66,74.38Z" fill="#ffc800"/><path d="M273.31,74.38a1.52,1.52,0,0,1-1.08-.45L237.58,39.28a1.53,1.53,0,0,1,0-2.17,1.55,1.55,0,0,1,2.17,0L274.4,71.76a1.54,1.54,0,0,1-1.09,2.62Z" fill="#ffc800"/><g><circle cx="585.03" cy="56.54" r="35.37" fill="#0b132b"/><path d="M619.07,56.54a33.95,33.95,0,1,1-.41-5.35,34.38,34.38,0,0,1,.41,5.35,1.33,1.33,0,0,0,2.66,0,36.7,36.7,0,1,0-68.11,19,36.69,36.69,0,0,0,67.65-13.27,39.16,39.16,0,0,0,.46-5.72A1.33,1.33,0,0,0,619.07,56.54Z" fill="#fdf2ce"/></g><g><path d="M609.58,56.49c-4-5.25-20.36-6.71-31.23-7.09-1.23-2.15-3-4.92-3.18-5.11-.34-.36-7.07-1.41-9.37-2.12a1.62,1.62,0,0,1,0,.22c-.32-.07-.62-.15-.85-.22C565,45.4,567,50,567.4,50.75c-2.87,1.48-5.28,3.1-8.72,5.27,1.62.76,5.09,2.92,8.65,4.68-.5,1.12-2.31,5.37-2.37,8.43.23-.07.53-.15.85-.22a1.62,1.62,0,0,1,0,.22c2.3-.71,9-1.76,9.37-2.12.13-.14,1.15-1.72,2.17-3.4,10.88-.3,27.84-1.28,32.19-5.7A1.22,1.22,0,0,0,609.58,56.49Z" fill="#ffc800"/></g><path d="M370.35,7.66c0-.8,0-2,0-3.34a1.46,1.46,0,0,0-2.56-1,14.68,14.68,0,0,1-2.45,2.37c-1.16.75-1.69,0-2.13-.27A17.14,17.14,0,0,1,361.28,3a1.73,1.73,0,0,0-3.15,1c0,1,0,2,0,3-.11,3.75-1.25,9.77-2.47,11.81-3.27,5.45-1,8.82,1.33,11.05,1.72,1.62,4.65,1.87,7.16,1.76a9.35,9.35,0,0,0,2.67-.51c4.93-1.79,5.06-5.69,4.87-9.24-.25-4.46-1.29-14.11-1.3-14.22Z" fill="#30d6ba"/><path d="M367.83,12.33a1.69,1.69,0,0,0,0-3.37,1.69,1.69,0,0,0,0,3.37Z" fill="#f0f3bd"/><path d="M361.92,12.2a1.69,1.69,0,0,0,0-3.38,1.69,1.69,0,0,0,0,3.38Z" fill="#f0f3bd"/><text transform="translate(341.01 110.82)" font-size="14.17" fill="#fdf2ce" font-family="VT323-Regular, VT323">player 3</text><circle cx="365.67" cy="56.54" r="35.37" fill="#0b132b"/><path d="M399.71,56.54a33.95,33.95,0,1,1-.41-5.35,34.38,34.38,0,0,1,.41,5.35,1.33,1.33,0,0,0,2.66,0,36.7,36.7,0,1,0-68.11,19,36.7,36.7,0,0,0,67.66-13.27,39.15,39.15,0,0,0,.45-5.72A1.33,1.33,0,0,0,399.71,56.54Z" fill="#fdf2ce"/><path d="M353.87,45.65c0,6.24,0,13.49,0,19.73,1.26.07,2.52-.08,3.78,0,.1-5.13.36-19,0-19.73A26.35,26.35,0,0,0,353.87,45.65Z" fill="#385475"/><path d="M382,45.75c5.23-.08,8.32,3.7,8.26,10.37-.08,8.71-6.1,8.63-8.36,8.78-1.41.09-21.61.15-21.88-.25s-.06-12.78,0-18.7Z" fill="#385475"/><path d="M341.34,49h7.83a1.18,1.18,0,0,0,1.16-1.15,1.17,1.17,0,0,0-1.16-1.15h-7.83a1.15,1.15,0,1,0,0,2.3Z" fill="#385475"/><path d="M344.52,55.66h4.65a1.16,1.16,0,1,0,0-2.31h-4.65a1.17,1.17,0,0,0-1.16,1.15,1.18,1.18,0,0,0,1.16,1.16Z" fill="#385475"/><path d="M340.5,62.71h8.67a1.15,1.15,0,0,0,0-2.3H340.5a1.15,1.15,0,0,0,0,2.3Z" fill="#385475"/><text transform="translate(123.64 110.82)" font-size="14.17" fill="#fdf2ce" font-family="VT323-Regular, VT323">player 1</text><path d="M152.26,7.56c0-.8,4.48-2,4.47-3.35a1.46,1.46,0,0,0-2.56-1c-.91,1-4.09,2-4.7,2.37-1.16.75-5.06,0-5.5-.27a44.46,44.46,0,0,1-4.16-2.47c-1.42-.91-3.14-.7-3.14,1,0,1,4.48,2,4.45,3-.11,3.76-2.37,9.77-3.59,11.82-3.27,5.44-1,8.82,1.33,11,1.72,1.63,4.65,1.87,7.16,1.76a9,9,0,0,0,2.67-.5c4.93-1.79,5.06-5.69,4.87-9.24-.25-4.46-1.29-14.11-1.3-14.22Z" fill="#5bc0be"/><path d="M149.74,12.23a1.69,1.69,0,0,0,0-3.38,1.69,1.69,0,0,0,0,3.38Z" fill="#f0f3bd"/><path d="M143.83,12.09a1.69,1.69,0,0,0,0-3.37,1.69,1.69,0,0,0,0,3.37Z" fill="#f0f3bd"/><circle cx="146.31" cy="56.54" r="35.37" fill="#0b132b"/><path d="M180.35,56.54a33.95,33.95,0,1,1-.41-5.35,33.07,33.07,0,0,1,.41,5.35,1.33,1.33,0,0,0,2.66,0,36.7,36.7,0,1,0-68.11,19,36.7,36.7,0,0,0,67.66-13.27,39.15,39.15,0,0,0,.45-5.72A1.33,1.33,0,0,0,180.35,56.54Z" fill="#fdf2ce"/><path d="M173.21,57c-.14-1.16-25.21-6.32-25.47-6.62,1.89-3.69,4.67-7.38,6.57-11.08-4.37,2.2-11.79,6.43-16.11,8.73-1.08-.85,2.67-8.36,2.42-8.12-5.57,5.31-15.57,12.6-21.13,17.91,0,0,15.56,12.21,21.13,17.52.25.25-3.5-7.27-2.42-8.11,4.32,2.3,11.74,6.53,16.11,8.72-1.9-3.69-4.68-7.39-6.57-11.08C147.81,64.74,173.21,57,173.21,57Z" fill="#e67e22"/><path d="M144,61.09c0-2.1,0-4.53,0-6.62-.55,0-1.1,0-1.64,0,0,1.72-.16,6.36,0,6.62C142.44,61.14,144,61.09,144,61.09Z" fill="#0b132b"/><path d="M131.85,61.05a3.19,3.19,0,0,1-3.58-3.48c0-2.92,2.65-2.89,3.63-2.94.61,0,9.37-.05,9.49.08s0,4.29,0,6.27Z" fill="#0b132b"/><text transform="translate(28.17 110.82)" font-size="14.17" fill="#73fbd3" font-family="VT323-Regular, VT323">you</text><path d="M29.12,9.32c0-1.5,0-5.34.06-7.62a.33.33,0,0,1,.61-.17c1.24,2,3.29,5.16,4.37,5.85s1.69,0,2.13-.26A49.05,49.05,0,0,0,40.71.77a.34.34,0,0,1,.64.17c0,2.58,0,5.16,0,7.73.11,3.76,1.25,9.77,2.47,11.81,3.27,5.45,1,8.83-1.33,11.05-1.72,1.63-4.67,1.87-7.19,1.76a9,9,0,0,1-2.62-.49c-4.95-1.79-5.08-5.7-4.89-9.26C28.07,19.06,29.12,9.32,29.12,9.32Z" fill="#02c39a"/><path d="M31.64,14a1.69,1.69,0,0,0,0-3.37,1.69,1.69,0,0,0,0,3.37Z" fill="#f0f3bd"/><path d="M37.55,13.85a1.69,1.69,0,0,0,0-3.38,1.69,1.69,0,0,0,0,3.38Z" fill="#f0f3bd"/><circle cx="36.63" cy="56.54" r="35.37" fill="#0b132b"/><path d="M70.67,56.54a34.35,34.35,0,0,1-22.33,32A34,34,0,0,1,7.52,38.89a34.33,34.33,0,0,1,35.8-15.74,34.4,34.4,0,0,1,26.94,28,33.07,33.07,0,0,1,.41,5.35,1.33,1.33,0,0,0,2.66,0A37.11,37.11,0,0,0,49.21,22.05a36.71,36.71,0,0,0-44,53.48,37.09,37.09,0,0,0,38.64,17,37,37,0,0,0,29-30.27,39.15,39.15,0,0,0,.45-5.72A1.33,1.33,0,0,0,70.67,56.54Z" fill="#73fbd3"/><path d="M24,66.86,58.84,79.13a33.55,33.55,0,0,0,8.73-24.5C66.68,39.17,57,32.15,57,32.15L23.54,46.79Z" fill="#ffc800"/><path d="M25.09,42.42c.5,9,.95,29.64.14,30.62C25,73.29,12.64,68,5.81,66.23c0-6.46-.09-9.36-.17-15.81Z" fill="#385475"/><path d="M482.64,11c0-.8,2.23-7.68,2.22-9a1.46,1.46,0,0,0-2.56-1c-.92,1.05-4.09,7.6-4.7,8-1.16.75-1.69,0-2.13-.27-.17-.09-2.09-6.76-3-8.1a1.73,1.73,0,0,0-3.14,1c0,1,1.11,7.65,1.08,8.66-.11,3.76-1.25,9.77-2.47,11.82-3.27,5.44-1,8.82,1.33,11,1.72,1.63,4.65,1.87,7.16,1.76a9,9,0,0,0,2.67-.5c4.93-1.8,5.06-5.69,4.87-9.24-.25-4.46-1.29-14.11-1.3-14.22Z" fill="#d81e5b"/><path d="M480.12,15.71a1.69,1.69,0,0,0,0-3.38,1.69,1.69,0,0,0,0,3.38Z" fill="#f0f3bd"/><path d="M474.21,15.57a1.69,1.69,0,0,0,0-3.37,1.69,1.69,0,0,0,0,3.37Z" fill="#f0f3bd"/><text transform="translate(452.89 110.82)" font-size="14.17" fill="#fdf2ce" font-family="VT323-Regular, VT323">player 4</text><circle cx="475.35" cy="56.63" r="35.37" fill="#0b132b"/><path d="M509.39,56.63a33.93,33.93,0,1,1-.41-5.35,34.38,34.38,0,0,1,.41,5.35,1.33,1.33,0,0,0,2.66,0,36.7,36.7,0,1,0-68.11,19A36.7,36.7,0,0,0,511.6,62.35a40.47,40.47,0,0,0,.45-5.72A1.33,1.33,0,0,0,509.39,56.63Z" fill="#fdf2ce"/><path d="M508,55.94H493.59A18.16,18.16,0,0,0,488.25,43L498.4,32.89A32.37,32.37,0,0,1,508,55.94Z" fill="#c0392b"/><path d="M488.25,43a18.16,18.16,0,0,0-12.91-5.34V23.33a32.37,32.37,0,0,1,23.06,9.56Z" fill="#e67e22"/><path d="M462.45,43,452.29,32.89a32.4,32.4,0,0,1,23-9.56V37.7A18.13,18.13,0,0,0,462.45,43Z" fill="#f1c40f"/><path d="M457.11,55.94H442.74a32.38,32.38,0,0,1,9.55-23.06l10.16,10.17A18.06,18.06,0,0,0,457.11,55.94Z" fill="#27ae60"/><path d="M472.87,84.78a1.29,1.29,0,0,1-1.18-1.39h0a1.3,1.3,0,0,1,1.38-1.18h0a1.3,1.3,0,0,1,1.19,1.39h0A1.3,1.3,0,0,1,473,84.78h-.1Zm7.69-1.71a1.27,1.27,0,0,1,.93-1.55h0a1.28,1.28,0,0,1,1.56.92h0a1.28,1.28,0,0,1-.93,1.57h0a1.08,1.08,0,0,1-.32,0h0A1.3,1.3,0,0,1,480.56,83.07Zm-16.7-.56h0a1.28,1.28,0,0,1-.67-1.69h0a1.3,1.3,0,0,1,1.7-.67h0a1.28,1.28,0,0,1,.65,1.7h0a1.27,1.27,0,0,1-1.17.77h0A1.26,1.26,0,0,1,463.86,82.51Zm25-2.61a1.3,1.3,0,0,1,.37-1.79h0a1.3,1.3,0,0,1,1.79.37h0a1.31,1.31,0,0,1-.38,1.79h0a1.3,1.3,0,0,1-.7.21h0A1.3,1.3,0,0,1,488.85,79.9Zm-32.78-2.47a1.29,1.29,0,0,1-.08-1.81h0a1.3,1.3,0,0,1,1.83-.08h0a1.29,1.29,0,0,1,.07,1.81h0a1.28,1.28,0,0,1-.95.43h0A1.27,1.27,0,0,1,456.07,77.43Zm39.59-3.24a1.28,1.28,0,0,1-.23-1.8h0a1.28,1.28,0,0,1,1.81-.22h0a1.29,1.29,0,0,1,.22,1.8h0a1.3,1.3,0,0,1-1,.49h0A1.21,1.21,0,0,1,495.66,74.19Zm-45.31-4.08a1.29,1.29,0,0,1,.51-1.74h0a1.29,1.29,0,0,1,1.75.52h0a1.3,1.3,0,0,1-.51,1.74h0a1.38,1.38,0,0,1-.62.15h0A1.28,1.28,0,0,1,450.35,70.11Zm49.91-3.52a1.28,1.28,0,0,1-.81-1.63h0a1.28,1.28,0,0,1,1.63-.8h0a1.31,1.31,0,0,1,.81,1.64h0a1.29,1.29,0,0,1-1.22.87h0A1.15,1.15,0,0,1,500.26,66.59Zm-52.95-5.25a1.32,1.32,0,0,1,1.07-1.5h0a1.3,1.3,0,0,1,1.48,1.07h0a1.3,1.3,0,0,1-1.07,1.49h-.2A1.32,1.32,0,0,1,447.31,61.34Zm53.53-4.71v-.05h0v0h0a1.29,1.29,0,0,1,1.27-1.3h0a1.3,1.3,0,0,1,1.3,1.29h0v.06h0v.05h0a1.29,1.29,0,0,1-1.29,1.29h0A1.29,1.29,0,0,1,500.84,56.63Zm-52.47-3.11A1.3,1.3,0,0,1,447.3,52h0A1.3,1.3,0,0,1,448.78,51h0a1.29,1.29,0,0,1,1.05,1.48h0a1.28,1.28,0,0,1-1.26,1.08h-.2Zm51.05-5.32h0a1.28,1.28,0,0,1,.79-1.63h0a1.27,1.27,0,0,1,1.64.79h0a1.29,1.29,0,0,1-.79,1.64h0a1.28,1.28,0,0,1-.43.06h0A1.29,1.29,0,0,1,499.42,48.2ZM450.82,45a1.29,1.29,0,0,1-.52-1.75h0a1.29,1.29,0,0,1,1.74-.53h0a1.3,1.3,0,0,1,.52,1.74h0a1.27,1.27,0,0,1-1.13.67h0A1.34,1.34,0,0,1,450.82,45Zm44.56-4.2a1.29,1.29,0,0,1,.2-1.81h0a1.31,1.31,0,0,1,1.81.22h0a1.29,1.29,0,0,1-.21,1.81h0a1.33,1.33,0,0,1-.8.27h0A1.24,1.24,0,0,1,495.38,40.79Zm-39.45-3.07A1.27,1.27,0,0,1,456,35.9h0a1.28,1.28,0,0,1,1.81.07h0a1.29,1.29,0,0,1-.06,1.82h0a1.28,1.28,0,0,1-.87.34h0A1.26,1.26,0,0,1,455.93,37.72Zm33.2-2.63a1.29,1.29,0,0,1-.37-1.78h0a1.28,1.28,0,0,1,1.78-.37h0a1.3,1.3,0,0,1,.38,1.78h0a1.28,1.28,0,0,1-1.08.58h0A1.3,1.3,0,0,1,489.13,35.09Zm-26-2.6a1.28,1.28,0,0,1,.65-1.7h0a1.31,1.31,0,0,1,1.7.66h0a1.3,1.3,0,0,1-.65,1.7h0a1.39,1.39,0,0,1-.53.1h0A1.27,1.27,0,0,1,463.1,32.49Zm18.29-.77a1.3,1.3,0,0,1-.94-1.56h0a1.29,1.29,0,0,1,1.56-.93h0a1.27,1.27,0,0,1,.94,1.55h0a1.29,1.29,0,0,1-1.25,1h0A1.1,1.1,0,0,1,481.39,31.72Zm-9.81-1.84a1.29,1.29,0,0,1,1.17-1.39h0a1.29,1.29,0,0,1,1.39,1.17h0A1.27,1.27,0,0,1,473,31.05h-.1A1.29,1.29,0,0,1,471.58,29.88Z" fill="#385475"/><path d="M496,56.75c0,1.69-18.52,3.07-20.22,3.07a3.08,3.08,0,1,1,0-6.15C477.46,53.67,496,55.05,496,56.75Z" fill="#2c3e50"/><path d="M472.68,56.75a3.08,3.08,0,0,1,3.08-3.08c1.7,0,20.22,1.38,20.22,3.08Z" fill="#34495e"/><path d="M491.11,57.06l-10.21.69c-1.09,0-2.07-.4-2.07-1h0c0-.61,1-1.06,2.07-1l10.21.69c.1,0,.18.15.18.32h0C491.29,56.92,491.21,57.06,491.11,57.06Z" fill="#f1c40f"/><path d="M476.81,56.75a1.06,1.06,0,0,1-2.11,0,1.06,1.06,0,1,1,2.11,0Z" fill="#2c3e50"/></svg>