<svg xmlns="http://www.w3.org/2000/svg" viewBox="0 0 343.6 244" overflow="visible"><style>.st2{fill:#ffc800}.st3{fill:#fdf2ce}</style><path d="M67.4 74c-1.1-21.3-1.1-43.2 12-56.6 23.1-23.5 54.7-22.5 84.2-.8 24.5 17.9 35.3 31.9 65.2 37 16.2 2.7 32.6-3.2 47-11.1 18.4-10.1 34.9-23.4 50.8-37.1-25 43.8-76.5 73.8-126.9 71.7 46.2 11.7 99.7 16.7 144-.8-19 19.2-45 26.6-71.4 31.9-26.5 5.3-64.9 2.5-93.4-4.2 28.6 31.5 73.5 60.9 111.1 74.8-29 16.5-133.2-43.6-146-55.8-12.1 43.8-29 98.7-68.6 121.2 27.7-34.5 20.3-68.3 25-112.3C69.6 164.6 50 185.2 0 198.9 44.4 161.6 70.8 140.8 67.4 74z" fill="#030c21" opacity=".7"/><path class="st2" d="M120.5 33.5c-1.6 2.5-.6 7 2.5 7.5 9.2 1.3 8.2-12.4 14.9-23M103.7 42.2c3-.2 6.5 2.7 5.5 5.6-3.1 8.8-14.7 1.6-27.3 2.6"/><path class="st3" d="M106.6 64.6c-.1 1.4 5.6 3.7 7.5 4.7.5-1.8 1.2-7.5 1.6-7.9.8-.9 7 2.6 9.1 3.3.3-1.8-.6-8.4-.3-8.6.3-.2 7.1 2.3 9.9 3.2-.4-1.3-.6-8.4.5-9.1.6-.4 7.3 2.6 8.8 2.9-.4-1.7-1.1-8.9-2.2-8.4 0 .2-34.8 18.2-34.9 19.9zM152.2 62.6c.1-1.4-5.6-3.7-7.5-4.7-.5 1.8-1.2 7.5-1.6 7.9-.8.9-7-2.6-9.1-3.3-.3 1.8.6 8.4.3 8.6-.3.2-7.1-2.3-9.9-3.2.4 1.3.6 8.4-.5 9.1-.6.4-7.3-2.6-8.8-2.9.4 1.7 1.1 8.9 2.2 8.4 0-.1 34.8-18.2 34.9-19.9z"/></svg>