<svg xmlns="http://www.w3.org/2000/svg" width="326.7" height="41" overflow="visible"><style>.st0{fill:#02c39a}.st1{fill:#f0f3bd}.st2{fill:#30d6ba}.st3{fill:#457b9d}.st4{fill:#d81e5b}.st5{fill:#5bc0be}</style><path class="st0" d="M12.6 8.3c0-1.3 0-4.7.1-6.8 0-.3.4-.4.5-.2 1.1 1.8 2.9 4.6 3.9 5.2 1 .7 1.5 0 1.9-.2.3-.1 2.6-3.5 3.9-5.6.2-.3.6-.2.6.2v6.9c.1 3.3 1.1 8.7 2.2 10.5 2.9 4.8.9 7.8-1.2 9.8-1.5 1.4-4.2 1.7-6.4 1.6-.8 0-1.6-.2-2.3-.4-4.4-1.6-4.5-5.1-4.3-8.2.1-4.2 1.1-12.8 1.1-12.8z"/><path class="st0" d="M15.3 27.5c-1 3.4-1.4 7-1.2 10.5 0 .8.7 1.5 1.5 1.5s1.5-.7 1.5-1.5c-.1-3.3.2-6.5 1.1-9.7.2-.8-.3-1.6-1-1.8-.8-.3-1.7.2-1.9 1zM21.7 27.5c-.2 3.3-.1 6.5.2 9.8.1.8.6 1.5 1.5 1.5.7 0 1.6-.7 1.5-1.5-.3-3.3-.4-6.5-.2-9.8 0-.8-.7-1.5-1.5-1.5-.9 0-1.5.6-1.5 1.5zM12 17.3c-3.6 1-7.3 2-10.9 2.9-.8.2-1.3 1.1-1 1.8.2.8 1.1 1.3 1.8 1 3.6-1 7.3-2 10.9-2.9.8-.2 1.3-1.1 1-1.8-.2-.8-1-1.2-1.8-1zM14.1 21.1c-3.8 1.3-7.3 3.5-11 4.9-.8.3-1.3 1-1 1.8.2.7 1.1 1.3 1.8 1 2.1-.8 4.1-1.7 6-2.7.8-.4 1.6-.8 2.5-1.2.5-.2.6-.3 1.1-.5.5-.2 1-.4 1.4-.5.8-.3 1.3-1 1-1.8-.1-.7-1-1.3-1.8-1z"/><path class="st1" d="M14.8 12.4c1.9 0 1.9-3 0-3s-1.9 3 0 3zM20.1 12.3c1.9 0 1.9-3 0-3-2 0-2 3 0 3z"/><g><path class="st2" d="M240 6.8v-3c0-1.2-1.5-1.7-2.3-.8-.8.9-1.6 1.8-2.2 2.1-1 .7-1.5 0-1.9-.2-.1-.1-.9-1-1.7-2.2-.9-1.2-2.8-.6-2.8.9v2.7c-.1 3.3-1.1 8.7-2.2 10.5-2.9 4.8-.9 7.8 1.2 9.8 1.5 1.4 4.1 1.7 6.4 1.6.8 0 1.6-.2 2.4-.4 4.4-1.6 4.5-5.1 4.3-8.2-.3-4.1-1.2-12.7-1.2-12.8z"/><path class="st2" d="M234.3 26.8c.9 3.2 1.3 6.4 1.1 9.7 0 .8.7 1.5 1.5 1.5s1.5-.7 1.5-1.5c.2-3.5-.3-7.1-1.2-10.5-.2-.8-1.1-1.3-1.8-1-.8.2-1.3 1-1.1 1.8zM227.9 26c.2 3.3.1 6.5-.2 9.8-.1.8.7 1.5 1.5 1.5.9 0 1.4-.7 1.5-1.5.3-3.3.4-6.5.2-9.8 0-.8-.7-1.5-1.5-1.5s-1.6.7-1.5 1.5zM239.9 16.2c2 0 3.6-1.4 4.9-2.9 1.3-1.5 2.4-3.1 3.9-4.4.1-.1.2-.2.3-.2-.2.2-.1.1.1 0l.6-.3c.3-.2-.2.1 0 0 .1 0 .2-.1.3-.1 0 0 .3 0 .3-.1h-.2.2c.8 0 1.5-.7 1.5-1.5s-.7-1.5-1.5-1.5c-2 0-3.6 1.4-4.9 2.9-1.3 1.5-2.4 3.1-3.9 4.4-.1.1-.2.2-.3.2.2-.2.1-.1-.1 0l-.6.3c-.3.2.2-.1 0 0-.1 0-.2.1-.3.1 0 0-.3 0-.3.1h.2-.2c-.8 0-1.5.7-1.5 1.5s.7 1.5 1.5 1.5zM236.3 19.4c1.8.3 3.5.2 5.2 0 .8-.1 1.6-.2 2.4-.1 1.1 0 1.9.1 2.9.3.8.2 1.6-.2 1.8-1 .2-.7-.3-1.7-1-1.8-2-.4-3.9-.5-5.9-.3-.8.1-1.5.2-2.3.2H237.2h-.2c-.8-.1-1.6.2-1.8 1-.1.5.3 1.5 1.1 1.7z"/><path class="st1" d="M237.7 11c1.9 0 1.9-3 0-3s-1.9 3 0 3zM232.5 10.8c1.9 0 1.9-3 0-3-2 0-2 3 0 3z"/></g><g><path class="st3" d="M165 7.3c0-.7 2.4-.3 2.4-1.5s-2.5-1.7-3.3-.8c-.8.9-2.5 1.3-3.2 1.3-1 0-3 0-5.6-1.7-1.3-.8-2.8-.6-2.8.9 0 .9 1.4-.1 1.4.8-.1 3.3-1.5 8.6-2.6 10.4-2.9 4.8-.9 7.8 1.2 9.8 1.5 1.4 4.1 1.7 6.4 1.6.8 0 1.6-.2 2.4-.4 4.4-1.6 4.5-5.1 4.3-8.2-.2-4.1-.6-12.2-.6-12.2z"/><path class="st3" d="M164.4 18.1h12.3c1.9 0 1.9-3 0-3h-12.3c-1.9 0-1.9 3 0 3z"/><path class="st3" d="M159.3 17.8c4 1.8 8.1 3.4 12.2 5 .9.3 2-.4 2.2-1.2.2-1-.3-1.8-1.2-2.2-2.6-1-5.2-2-7.8-3.1-.2-.1-.3-.1-.5-.2-.1 0-.2-.1-.3-.1.6.2.3.1.2.1-.3-.1-.6-.3-.9-.4-.7-.3-1.3-.6-2-.9-.9-.4-1.9-.2-2.4.6-.6.7-.4 2 .5 2.4z"/><path class="st1" d="M162.2 10.9c1.9 0 1.9-3 0-3s-1.9 3 0 3zM157 10.8c1.9 0 1.9-3 0-3-2 0-2 3 0 3z"/><path class="st3" d="M159.4 24.7c.9 3.2 1.3 6.4 1.1 9.7 0 .8.7 1.5 1.5 1.5s1.5-.7 1.5-1.5c.2-3.5-.3-7.1-1.2-10.5-.2-.8-1.1-1.3-1.8-1-.8.2-1.3 1-1.1 1.8zM153 23.9c.2 3.3.1 6.5-.2 9.8-.1.8.7 1.5 1.5 1.5.9 0 1.4-.7 1.5-1.5.3-3.3.4-6.5.2-9.8 0-.8-.7-1.5-1.5-1.5s-1.6.7-1.5 1.5z"/></g><g><path class="st4" d="M314 9.8c0-.7 2-6.8 2-8 0-1.2-1.5-1.7-2.3-.8-.8.9-3.6 6.8-4.2 7.1-1 .7-1.5 0-1.9-.2-.1-.1-1.9-6-2.7-7.2-.9-1.2-2.8-.6-2.8.9 0 .9 1 6.8 1 7.7-.1 3.3-1.1 8.7-2.2 10.5-2.9 4.8-.9 7.8 1.2 9.8 1.5 1.4 4.1 1.7 6.4 1.6.8 0 1.6-.2 2.4-.4 4.4-1.6 4.5-5.1 4.3-8.2-.3-4.1-1.2-12.7-1.2-12.8z"/><path class="st4" d="M308.3 29.8c.9 3.2 1.3 6.4 1.1 9.7 0 .8.7 1.5 1.5 1.5s1.5-.7 1.5-1.5c.2-3.5-.3-7.1-1.2-10.5-.2-.8-1.1-1.3-1.8-1-.8.2-1.3 1-1.1 1.8zM301.9 29c.2 3.3.1 6.5-.2 9.8-.1.8.7 1.5 1.5 1.5.9 0 1.4-.7 1.5-1.5.3-3.3.4-6.5.2-9.8 0-.8-.7-1.5-1.5-1.5s-1.6.7-1.5 1.5zM313.9 19.2h11.3c1.9 0 1.9-3 0-3h-11.3c-1.9 0-1.9 3 0 3zM311.3 22.4c4 .7 7.7 2.4 11.6 3.2.8.2 1.6-.2 1.8-1 .2-.7-.3-1.7-1-1.8-3.9-.9-7.7-2.5-11.6-3.2-.8-.1-1.6.2-1.8 1-.2.6.2 1.6 1 1.8z"/><path class="st1" d="M311.7 14c1.9 0 1.9-3 0-3s-1.9 3 0 3zM306.5 13.8c1.9 0 1.9-3 0-3-2 0-2 3 0 3z"/></g><g><path class="st5" d="M95.3 6.7c0-.7 4-1.8 4-3S97.8 2 97 2.9c-.8.9-3.6 1.8-4.2 2.1-1 .7-4.5 0-4.9-.2-.1-.1-1.1-.5-3.7-2.2-1.3-.8-2.8-.6-2.8.9 0 .9 4 1.8 4 2.7-.1 3.3-2.1 8.7-3.2 10.5-2.9 4.8-.9 7.8 1.2 9.8 1.5 1.4 4.1 1.7 6.4 1.6.8 0 1.6-.2 2.4-.4 4.4-1.6 4.5-5.1 4.3-8.2-.3-4.1-1.2-12.7-1.2-12.8z"/><path class="st5" d="M89.6 26.7c.9 3.2 1.3 6.4 1.1 9.7 0 .8.7 1.5 1.5 1.5s1.5-.7 1.5-1.5c.2-3.5-.3-7.1-1.2-10.5-.2-.8-1.1-1.3-1.8-1-.8.2-1.3 1-1.1 1.8zM83.2 25.9c.2 3.3.1 6.5-.2 9.8-.1.8.7 1.5 1.5 1.5.9 0 1.4-.7 1.5-1.5.3-3.3.4-6.5.2-9.8 0-.8-.7-1.5-1.5-1.5s-1.6.7-1.5 1.5zM78.6 25.5c.4-.8.9-1.6 1.4-2.4 0-.1.1-.1.1-.2-.1.1-.2.3-.1.1.1-.1.2-.2.3-.4.2-.3.5-.5.7-.8.6-.6 1.2-1.1 1.8-1.6.2-.2.4-.3.6-.5.1-.1 0 0-.1 0l.2-.2c.1-.1.2-.2.4-.3.6-.4 1.1-.8 1.7-1.2.6-.4 1-1.3.5-2.1-.4-.6-1.4-1-2.1-.5-2.8 1.9-5.7 4.1-7.5 7-.3.4-.5.9-.7 1.4-.4.7-.2 1.7.5 2.1.9.5 1.9.3 2.3-.4zM95.1 16.1c-.5.5-1 .5-1.5.3-.3-.1-.2-.1-.1 0 .3.1-.3-.3 0 0 .2.2.5.4.7.7.3.3.6.7.9 1 .1.1.1.2.2.3.3.3-.2-.3.1.1.2.2.3.5.5.7 1.5 2.2 2.6 4.4 3 7 .1.8 1.1 1.2 1.8 1 .8-.2 1.2-1 1-1.8-.5-3-2-5.9-3.8-8.4-.8-1.1-3.2-4.7-5-2.9-1.3 1.3.8 3.4 2.2 2z"/><path class="st1" d="M93 10.9c1.9 0 1.9-3 0-3s-1.9 3 0 3zM87.8 10.7c1.9 0 1.9-3 0-3-2 0-2 3 0 3z"/></g></svg>