<svg
	xmlns="http://www.w3.org/2000/svg"
	width="204.5"
	height="60.2"
	overflow="visible"
>
<g transform="translate(-100, -20)">
	<path
		fill="#8b3d9b"
		d="M30.9 10.2c6.1.2 21.9-.7 21.6-1.3-.4-1-1.7-8.9-6.8-8.9-1.5 0-13.2 5.8-18.1 7.1 1 1.2 3.3 3.1 3.3 3.1zM34 20.4c1.9-2.2 14.1-1.4 21.1-.7-2.1 2.6-3.2 10.5-8 10.5-5.3 0-16.7-4-19.6-5.9.1-.1 4.8-2 6.5-3.9z"
	/>
	<path
		fill="#ae6ac2"
		d="M20.6 10.3c-1.1 3.4 0 3.8.3 7.4 7.1 1 14.3 2.2 21.5 2.4 19 .4 118.4 6.4 140.5 14.6 4.6 1.7 9.3 3.7 14.3 3.5-4.8-4.7-10.7-8.3-17-10.4-2-.7-4.6-2.2-3.9-4.2.3-.7.9-1.1 1.5-1.5 7.9-5 19.2-1.8 26.7-7.3-6-8.2-10.1-11.7-13.4-11.7-25.4-.2-152.8 7-168.6 6.5"
	/>
	<path
		fill="#8b3d9b"
		d="M23.2 10.3c-1.6 0-14-6.3-15.6-6.1S3.1 7.4 6.5 9.6c1.8 1.2 3.5 2.6 5.4 3.7C7.4 16.2-.9 21.7.1 23.9c.6 1.3 8.6 2 12.1-.4s6.9-5.4 11-6.1"
	/>
	<path
		fill="#ae6ac2"
		d="M119.7 22.4c-.4 2.1-1.8 3.9-2.9 5.7-1.1 1.9-2.3 3.7-3.5 5.5-2.4 3.7-4.9 7.4-7.8 10.8-1.2 1.5.9 3.6 2.1 2.1 3-3.6 5.7-7.4 8.2-11.4 1.3-1.9 2.5-3.9 3.7-5.9 1.2-1.9 2.5-3.8 3-6.1.5-1.8-2.4-2.6-2.8-.7zM160.3 28.3c-1.9 2.1-11.1 6.5-12.1 8.4-.6 1.2 2.6 5.7 4 5.4 2.3-.4 10.9-10.2 13.5-12.6M182.6 33.4c-4.5 9.5-13 16.9-23.1 19.9-1.8.6-1.1 3.5.8 2.9 10.8-3.3 20-11.1 24.8-21.3.9-1.7-1.7-3.2-2.5-1.5z"
	/>
	<path
		fill="#70ee49"
		d="M155.7 58.8c-1.8 1.2-4.1 2-6.1.9-4.5-2.5-2.4-5.8.6-5.2 3.8.8 7.7-2.5 11.4-1.3.1.1-4 4.3-5.9 5.6zM181.4 11.1c2.9-2.7 5.9 1.4 3.9 3.2-3 2.7-7 2.8-10.7 1.3 0 0 4.7-2.5 6.8-4.5z"
	/>
	<path
		fill="#f1faee"
		d="M195.7 9.7c.5 1.1.6 5.7-4.4 5.2-2.3-.2-3.2-2-3.1-4.1 0-.7 0-1.6 1.8-2.8 0-.1 3.9-2 5.7 1.7z"
	/>
	<path
		d="M190.8 12.3c.4.5 1.4.8 1.9.4.7-.5 1.3-1.3 1.1-2.1-.2-.8-1.4-1.5-2.6-.9 0 0-1.7.9-.4 2.6z"
	/>
	<path
		fill="#f1faee"
		d="M201.8 15.5c.1 1.6 0 3.1-.1 4.7-.1.8-.3 1.7-1 2.1 0-2.3-.1-4.7-1.3-6.6M193.8 35.2c2.8-2.3 3-5.1 4.3-8.5-.1 3.5.2 7.7-1.8 10.7M180.4 27.7c1.4-1 1.9-1.5 2.1-3 0 1.1.4 1.9 0 3.9M184.1 29.3c1.3-1.3 1.2-2.7 1.6-4.1 1 2.1.8 3.8.2 4.9M186.8 30.7c.6 0 1-.5 1.3-.9.6-1 1-2.1 1.2-3.3.4 1.1.2 5-.3 5.3M190.8 33c.6-1.4 1.5-2 2.1-5.1.6 1.7.4 4.7-.4 6.2M182.4 19.1c1 1.3 1.3 2 1.2 3.5.3-1.1 1-1.7 1.1-3.7M186.4 18.6c.9 1.6.4 2.9.4 4.4 1.5-1.7 1.8-3.5 1.6-4.6M189.4 18.1c.6.1.8.7 1 1.3.3 1.1.4 2.3.2 3.5.7-1 1.5-4.7 1.2-5.2M194.3 17.2c.2 1.5.9 2.4.6 5.5 1-1.5 1.7-4.3 1.3-6.1"
	/>
	<path
		fill="#70ee49"
		d="M41.9 18.3c1.9 0 1.9-3 0-3s-1.9 3 0 3zM49.4 18.3c1.9 0 1.9-3 0-3s-1.9 3 0 3zM56.2 19c1.9 0 1.9-3 0-3s-1.9 3 0 3zM62.2 19.1c1.9 0 1.9-3 0-3-2 0-2 3 0 3zM69.1 19.9c1.9 0 1.9-3 0-3-2 0-2 3 0 3zM75.9 19.9c1.9 0 1.9-3 0-3-2 0-2 3 0 3zM81.9 20.4c1.9 0 1.9-3 0-3s-1.9 3 0 3zM88.4 21.1c1.9 0 1.9-3 0-3-2 0-2 3 0 3zM94.1 21.1c1.9 0 1.9-3 0-3s-1.9 3 0 3zM99.6 21.7c1.9 0 1.9-3 0-3s-1.9 3 0 3zM110.9 22.5c1.9 0 1.9-3 0-3s-1.9 3 0 3zM115.8 23.1c1.9 0 1.9-3 0-3s-1.9 3 0 3zM131.6 25.1c1.9 0 1.9-3 0-3s-1.9 3 0 3zM137.6 25.5c1.9 0 1.9-3 0-3s-1.9 3 0 3zM143.4 26.2c1.9 0 1.9-3 0-3s-1.9 3 0 3zM149.1 26.9c1.9 0 1.9-3 0-3s-1.9 3 0 3zM120.8 23.7c1.9 0 1.9-3 0-3-2 0-2 3 0 3zM126.2 24.5c1.9 0 1.9-3 0-3-2 0-2 3 0 3zM105.4 22.1c1.9 0 1.9-3 0-3s-1.9 3 0 3z"
	/>
	</g>
</svg>
