<svg
	xmlns="http://www.w3.org/2000/svg"
	width="234.4"
	height="120.2"
	overflow="visible"
>
<g transform="translate(-130, -80)">
	<path
		fill="#91a5bc"
		d="M85.9 48c-.2-.8-.8-3.4.9-4.8 1.3-1 6.4.6 6.7-2.9.1-1.1-.6-3.7 1-4.3 2.2-.8 10.2 12.9 12.6 16.8M64 52.7c2.1 3.2 4.2 6.4 6.2 9.6.3.4.6.9 1.1 1.1.4.2.8.2 1.2.2 3 .1 6.1 0 9.1-.3.2-.5-.3-1-.7-1.3-5.2-4.3-11.3-7.7-17.7-9.8M152 98.2c.4 7.3.1 14.7-.7 22 1.8.5 17.4-10.4 23.4-15M182.9 96c-.4 4 .1 8.1 1.8 11.8.3.7 1.4.9 2.1.5.8-.4.9-1.3.5-2.1-1.5-3.2-1.7-6.7-1.4-10.3.1-.8-.7-1.5-1.5-1.5-.9.1-1.4.8-1.5 1.6zM102.2 73.2c-3.1 1.4-7.6 2.8-10.9 2.2 6.2 5.7 18.2 16.3 21.1 17.2 2.8.9 12.8-5.6 16.3-6.5"
	/>
	<path
		fill="#9eb3ca"
		d="M7.8 17.2c3.4-.7 6.8-2.3 10.1-1.5-.7 1.7-1.6 3.3-2.7 4.9 5 4.7 23 22 22.7 23.5-1 4.1-10 3.3-9.7 4.6 2.7 11.5 21.4-3.1 28.5.9 11.8 6.5 84.1 46.3 114.9 56.7 4.6 1.6 37.1 16.4 53.3 9.6-3.7-2.9-7.3-2.8-11-5.7 10.3-1.5 20.2-3.3 20.4-4.4.3-1.4-.7-2.6-1.6-3.7-25-29.7-154.2-55.3-163.4-58.6C43.8 34.6 26.5 5.1 0 0c5.9 4.1 7.8 17.2 7.8 17.2z"
	/>
	<path
		d="M214.4 98.7c-1 1.3-.9 3.7 0 5.1.9 1.3 2.4 2.1 4 2.2 3 .2 4.8-2.5 5-3.6.3-1.3 0-3.5-1.1-4.3-2.5-1.6-6-2.1-7.9.6z"
		fill="#fdf2ce"
	/>
	<path
		d="M218.2 100c.9-.6 2.3.1 2.4 1.2.1 1.1-1.2 2.3-2.2 1.7-2.4-1.5-.2-2.9-.2-2.9z"
	/>
	<path
		fill="#91a5bc"
		d="M200.2 99.4c-.1 2 .8 4.1 2 5.7 1.5 2.1 3.4 3.9 5.7 5.1 1.4.7 2.9 1.2 4.5 1.5.8.1 1.6-.2 1.8-1 .2-.7-.2-1.7-1-1.8-.8-.1-1.6-.3-2.3-.5-.7-.2-1.1-.4-1.9-.8-.3-.2-.7-.4-1-.6-.1-.1-.2-.2-.4-.3-.1-.1-.2-.1-.2-.2.1.1.1.1 0 0-.6-.5-1.1-.9-1.6-1.5-.2-.2-.4-.5-.6-.7l-.2-.2c.1.1.1.1 0 0s-.2-.3-.3-.4c-.3-.5-.7-1.1-.9-1.6-.1-.1-.1-.3 0-.1-.1-.1-.1-.3-.2-.4-.1-.3-.2-.5-.2-.8 0-.1 0-.2-.1-.3-.1-.3 0 .3 0-.1v-.7c.1-.8-.7-1.5-1.5-1.5-.9-.3-1.5.4-1.6 1.2zM195 92.9c-.8 5.7-.4 11.4 1.4 16.9.6 1.8 3.5 1.1 2.9-.8-1.5-4.9-2-10.2-1.4-15.3.1-.8-.2-1.6-1-1.8-.8-.3-1.8.2-1.9 1zM188.5 92.4c-.8 5.7-.2 11.5 1.7 16.9.3.8 1 1.3 1.8 1 .7-.2 1.3-1.1 1-1.8-1.8-4.9-2.4-10.1-1.7-15.3.1-.8-.2-1.6-1-1.8-.6-.2-1.7.2-1.8 1z"
	/>
	</g>
</svg>
