<svg
	xmlns="http://www.w3.org/2000/svg"
	width="197.2"
	height="147.8"
	overflow="visible"
>
<g transform="translate(-70, -60) scale(0.8)">
	<path
		fill="#b99f60"
		d="M100.6 27.6c-6.2.2-12.3 1.6-17.6 4.7-5.4 3.2-9.7 7.7-13.2 12.7-7.8 11.1-11.6 24.6-13 37.9-1.2 10.9-1.1 22.6 3.1 32.9 4.8 11.8 14 21.7 25.4 27.3 5.7 2.8 12.2 4.8 18.6 4.8 5.9 0 11.4-2 15.9-5.8 3-2.6 5.8-5.7 7-9.6 1.7-5.4 1.8-11.3.9-16.8-.5-3.1-1.4-6.1-2.8-8.9-1.6-3.2-3.8-6-5.8-9-4-6-8-12.4-8.7-19.6-.6-6 .7-12.4 4.1-17.4 1.7-2.5 4-4.5 6.8-5.9 3.2-1.6 6.8-2.2 10.2-2.9 3.4-.8 6.8-1.8 9.7-3.8 2.3-1.6 4.1-3.7 5.6-6.1 3-4.7 4.7-10.2 7.7-15 1.4-2.2 3.1-4.3 5.4-5.7 2.7-1.7 6-2.2 9.1-1.8 7.1.9 12.5 5.9 16 11.9 3.9 6.6 6.2 14.3 7.8 21.7 1.7 7.7 2.2 15.8-.3 23.4-2 6.1-5.9 11.7-11.6 14.8-6.9 3.8-15.1 2.8-22.4.6-7.8-2.4-15-6.3-22.9-8.6-7.2-2.1-14.7-2.4-21.8.4-12.8 5.2-21.2 17-32 25.1-11.6 8.7-25.9 14.5-40.6 13.3-13.7-1.2-26.4-8.5-32.8-20.9-6.6-12.8-6.3-28.1-3.9-42 2.4-14.5 7.7-29 18.4-39.4 4.5-4.4 9.6-8.2 15-11.2 2.1-1.2 4.2-2.3 6.4-3.1 2.3-.9 4.7-1.3 7.1-1.7C64.9 1.7 79.2 3.4 91.7 9c6 2.7 11.7 6.4 16.5 10.9 1.4 1.3 3.5-.8 2.1-2.1C100.1 8.3 86.9 2.6 73.1.7c-7-1-14-1-21 0-2.6.4-5.3.7-7.8 1.6-2.2.8-4.4 1.8-6.5 2.9-11.7 6.3-21.8 15.6-28 27.5-3.5 6.9-5.9 14.4-7.5 22C.8 62-.1 69.6 0 77.1c.2 13.9 4.4 28.5 15.4 37.8 10.7 9 25.4 12 39 9.7 14.9-2.5 27.6-11 38.4-21.1 5-4.7 9.8-9.6 15.6-13.4 6.1-4 12.8-6.1 20.1-5.2 16 1.9 29.8 14.5 46.6 11.7 6.9-1.2 12.6-5.4 16.4-11.1 4-6 5.8-13.1 5.7-20.3 0-8.4-2.2-16.7-4.9-24.6-2.4-6.8-5.5-13.7-11-18.5-5-4.3-12.1-6.8-18.6-5.1-5.9 1.5-9.7 6.3-12.3 11.5-2.5 4.9-4.3 10.5-8.1 14.8-4.8 5.4-12.1 5.5-18.5 7.5-6.2 1.9-11.1 6.2-13.8 12.2-2.6 5.8-3.3 12.4-1.9 18.6 1.6 7.3 5.9 13.7 10 19.8 1.9 2.9 4.1 5.7 5.3 8.9 1.1 3 1.7 6.1 1.9 9.3.2 2.9.1 5.8-.4 8.6-.3 2-.8 4.1-1.8 5.8-.9 1.6-2.3 3-3.6 4.3-1.8 1.8-3.8 3.3-6 4.4-5.8 2.9-12.5 2.4-18.6.7-6.2-1.7-12-4.7-16.9-8.7-9.6-7.7-16.3-18.8-18-31-1.6-11.8-.3-24.2 2.8-35.6 3.4-12.4 9.8-25.6 21.1-32.7 5.1-3.2 10.9-4.7 16.9-4.8 1.7 0 1.7-3-.2-3z"
	/>
	<path
		fill="#b99f60"
		d="M104.9 20.2c3.1-6.1 7.2-4.1 11.2-2.6 1.5.6 5.3 4.7 9.9 4.6 6.9-.1 21.9-.8 28.8-1.8-9.4 2.8-31.4 2-37.2 4 6.3 1.9 27 5.8 29.8 6.6-8.6-1-29.9-3.7-36.3-3.8-9.5-.2-6.2-7-6.2-7z"
	/>
	<path d="M114.3 19.5c1.9 0 1.9-3 0-3s-1.9 3 0 3z" fill="#fff" />
	</g>
</svg>
