<svg
	xmlns="http://www.w3.org/2000/svg"
	width="152.1"
	height="119.3"
	overflow="visible"
>
	<path
		fill="#b27b60"
		d="M13.1 48.1c-.1 12.1-.3 20.3-.3 32.4 0 15.3 7.4 8.9 8.6 6.9 5-8.4 6.8-22.1 7.8-31.4M17.1 27.8C20.6 14.4 23.2 7.7 31 1.1c.9-.8 2.2-1.5 3.2-.9.8.5 1 1.6 1 2.6.2 8.7-.6 17.4-2.4 25.9M130.5 104.8c1.5-5-10.6-6.3-15.7-8.5-3.8-1.6-30.7-12.4-36.5-21.4 2.7-.6 55 18.5 55.3 13.3 0-5.9-51.8-25.4-51.6-26.5.2-1.1 16.1-2 58.8 7.9 1.7.4 2.7-3.3 1-3.8-19.3-6.1-59.8-23.2-59-24.1.4-.5 10-4.9 51-2.1 2.3.2 4.9-4.8-2.9-5.2-10.7-.5-31.1-5.7-41.7-6.2-2.4-.1-1.2 3.1-3.2 5.1-9.9 10-19.5 43.4-18 47.1 1.6 3.7 56.9 29.2 62.5 24.4z"
	/>
	<path
		fill="#d89b7e"
		d="M130.6 118.1c2.4-5.3-7-5.1-13.8-7.9-8.3-3.4-38.4-18.4-40.1-25.6 18.6 10.3 31.9 12.3 55.1 17.4 3.7.8 9.9 2.4 10.7-1.2 2.3-7.4-40.3-14-52.4-18.7-7.1-2.8-15.1-5.3-16-13 20.8.3 40 8.8 60.3 13.4 5.1 1.2 12.7 4.2 15.1-.4.9-1.6.6-4.5-4.9-5.9-1.4-.3-54.3-10.2-60-15.9-2.5-2.5-4.9-6.4-2.9-9.4 1.3-1.9 3.9-2.3 6.2-2.5 20.2-1.5 58.6 14 63.3 9.3 3.2-5.6-5.4-7.6-9.9-8.7-9.6-2.4-53.7-13.2-54-13.5-1.3-1.1.3-3.4 1.9-4 22.8-7.9 60.1-2.3 60.6-6.3.6-4.6-7.2-5.4-13.8-5.1-40.3 1.7-80.5 9.2-120.8 7.2-3.2-.2-6.4-.4-9.4.6s-5.8 3.5-6 6.6c-.4 4.4 3.8 7.6 7.6 10 20.2 12.9 39.6 27 58.3 41.9 42.2 33.4 63.4 35.1 64.9 31.7z"
	/>
	<path
		fill="#d89b7e"
		d="M52.7 72.5c.5 1.6-.5 4.9-4 5.3-5.7.6-11.7-2.6-13-7.4-.5-1.9.6-4.2 2.4-5.1 1.8-.9 3.9-.3 5.8.2 2.6.8 8.1 4.6 8.8 7zM58.4 19.7c4.2-.8 8.3 3 8.3 5 0 1.6-.7 1.9-1.5 2.6-2.1 1.7-4.9 2.1-7.7 2-2-.1-4.3-1-5-2.9-.5-1.6-.6-5.5 5.9-6.7z"
	/>
	<path
		d="M41.7 69.8c-1.7.4-1.5 3.3-.1 4.5s3.4 1.1 5 .3c1-.5 1.9-1.6 1.4-2.5 0-.1-2.3-3.3-6.3-2.3zM60.4 22.2c1.4.2 2 1.4 2 2.2 0 1.9-3.4 1.6-4.4 1.3s-1.8-1.3-1.7-2.4c.1-1.1 2.9-1.3 4.1-1.1zM16.5 39.8c1.9 0 1.9-3 0-3s-1.9 3 0 3zM26.3 33.6c1.9 0 1.9-3 0-3s-1.9 3 0 3zM30.2 39.3c.2.1.4.3.6.4.2.1.5.2.8.2.3 0 .5-.1.8-.2.2-.1.4-.3.5-.5.1-.2.2-.5.2-.8v-.5c0-.2 0-.4-.1-.6-.1-.2-.2-.3-.3-.5-.1-.1-.3-.2-.5-.3-.2-.1-.4-.1-.6-.1-.1 0-.3 0-.4.1-.3.1-.5.2-.7.4-.1.1-.2.2-.2.3-.1.2-.2.5-.2.8v.5c.8-.4 1.5-.9 2.3-1.3-.2-.1-.4-.3-.6-.4-.2-.1-.4-.2-.6-.2h-.6c-.2 0-.4.1-.5.3-.2.1-.3.2-.4.4-.1.1-.1.2-.2.4-.1.3-.1.5 0 .8.1.1.1.2.2.4.1.1.2.2.5.4zM38.5 44.1c1.9 0 1.9-3 0-3-2 0-2 3 0 3zM42.3 37c.4 0 .6-.1 1-.3.1 0 .1-.1.1-.1.1-.1.3-.2.4-.3.1-.1.2-.3.3-.4l.1-.1c.2-.4.3-.6.3-1 0-.3-.1-.5-.2-.8-.1-.2-.3-.4-.5-.5-.3-.1-.6-.3-.9-.3-.2-.1-.6-.2-.9-.2-.2 0-.4 0-.6.1-.1 0-.3.1-.4.2 0 0-.1 0-.1.1-.3.2-.6.5-.8.8-.1.2-.2.3-.2.5v.1c0 .2-.1.3-.1.5 0 .3.1.8.3 1.1.2.3.3.4.6.6.1.1.3.2.5.2h.1c.1 0 .3.1.5.1h.1c.2 0 .3 0 .5-.1h.1c.1 0 .3-.1.4-.2.1-.1.3-.2.4-.3.1-.1.2-.3.3-.4.1-.1.1-.3.2-.4 0-.2.1-.3.1-.5s0-.4-.1-.6c-.1-.2-.2-.3-.3-.5-.1-.1-.3-.2-.5-.3h-.8c-.4 0-.8.1-1.1.4-.1.1-.2.2-.2.3-.1.2-.2.5-.2.8 0-.1 0-.3.1-.4v.1c.1-.1.1-.2.2-.4v.1c.1-.1.2-.2.2-.3l-.1.1c.1-.1.2-.2.3-.2 0 0-.1 0-.1.1.1-.1.2-.1.4-.2h-.1c.1 0 .3 0 .4-.1h-.2c.1 0 .3 0 .4.1H42c.1.1.2.1.4.2 0 0-.1 0-.1-.1.1.1.2.2.3.2 0 0-.1 0-.1-.1.1.1.2.2.2.3 0 0 0-.1-.1-.1.1.1.1.2.2.4v-.1c0 .1 0 .3.1.4v-.1c0 .1 0 .3-.1.4 0-.1 0-.1.1-.2-.1.1-.1.2-.2.4 0-.1.1-.1.1-.2-.1.1-.2.2-.2.3l.2-.2c-.1.1-.2.2-.3.2.1 0 .1-.1.2-.1-.1.1-.2.1-.4.2.1 0 .2-.1.2-.1-.1 0-.3 0-.4.1h.3c-.1 0-.3 0-.4-.1.2 0 .4.1.7.2-.1-.1-.2-.1-.4-.2h.1c-.2-.4-.5-.9-.7-1.3v.1c0-.1 0-.3.1-.4 0 .1 0 .1-.1.2.1-.1.1-.2.2-.4 0 .1-.1.1-.1.2.1-.1.2-.2.2-.3 0 .1-.1.1-.1.1.1-.1.2-.2.3-.2-.1 0-.1.1-.2.1.1-.1.2-.1.4-.2-.1 0-.1 0-.2.1.1 0 .3 0 .4-.1-.2 0-.4 0-.6.1-.2.1-.3.2-.5.3-.1.1-.2.3-.3.5-.1.2-.1.4-.1.6 0 .4.1.8.4 1.1.1.2.4.5.8.4zM52 41.6c1.9 0 1.9-3 0-3s-1.9 3 0 3zM47.7 47c-.1.4-.1.7 0 1 0 .2.1.4.2.5 0 0 0 .1.1.1.2.3.4.5.7.7.1.1.3.1.5.2s.4.1.5.1h.1c.1 0 .3 0 .4-.1.1-.1.2-.1.4-.2.1-.1.2-.2.3-.2.1-.1.2-.2.3-.4.1-.1.1-.3.2-.4v-.1c0-.2.1-.3.1-.5v-.1c0-.2 0-.3-.1-.5V47c0-.1-.1-.3-.2-.5-.1-.1-.2-.3-.3-.4l-.1-.1c-.1-.1-.3-.2-.4-.3-.1-.1-.3-.1-.4-.2h-.1c-.2-.1-.4-.1-.6 0-.2 0-.4.1-.6.2-.2.1-.3.2-.4.4-.1.1-.2.3-.3.5 0 .1 0 .3-.1.4 0 .3.1.5.2.8.1.1.2.2.2.3.2.2.4.3.7.4h.1c-.1-.1-.2-.1-.4-.2 0 0 .1 0 .1.1-.1-.1-.2-.2-.3-.2l.1.1c-.1-.1-.2-.2-.2-.3 0 .1.1.1.1.2-.1-.1-.1-.2-.2-.4 0 .1 0 .1.1.2 0-.1 0-.3-.1-.4v.2c0-.1 0-.3.1-.4v.2c.1-.1.1-.2.2-.4v.1c.3-.2.6-.5.9-.7.1 0 .3 0 .4-.1h-.1c.1 0 .3 0 .4.1h-.1c.1.1.2.1.4.2 0 0-.1 0-.1-.1.1.1.2.2.3.2l-.1-.1c.1.1.2.2.2.3l-.1-.1c.1.1.1.2.2.4v-.1c0 .1 0 .3.1.4v-.1c0 .1 0 .3-.1.4v-.1c.1-.2.1-.4 0-.6 0-.2-.1-.4-.2-.6-.1-.2-.2-.3-.4-.4-.1-.1-.3-.2-.5-.3-.1 0-.3 0-.4-.1-.3 0-.5.1-.8.2-.1.1-.2.2-.3.2-.4.2-.5.5-.6.7zM41.6 49.1c1.9 0 1.9-3 0-3s-1.9 3 0 3zM35.8 49.1c1.9 0 1.9-3 0-3s-1.9 3 0 3zM27.1 46c1.9 0 1.9-3 0-3-2 0-2 3 0 3zM45 56.4h.5c.2 0 .4 0 .6-.1.2-.1.3-.2.5-.3.1-.1.2-.3.3-.5.1-.2.1-.4.1-.6 0-.1 0-.3-.1-.4-.1-.3-.2-.5-.4-.7-.1-.1-.2-.2-.3-.2-.2-.1-.5-.2-.8-.2h-.5c-.2 0-.4 0-.6.1-.2.1-.3.2-.5.3-.1.1-.2.3-.3.5-.1.2-.1.4-.1.6 0 .1 0 .3.1.4.1.3.2.5.4.7.1.1.2.2.3.2.3.1.5.2.8.2zM52.3 58.6c1.9 0 1.9-3 0-3-2 0-2 3 0 3zM63.6 55.3h-1c-.2 0-.4 0-.6.1-.2.1-.3.2-.5.3-.1.1-.2.2-.2.3-.1.2-.2.5-.2.8 0 .2 0 .4.1.5 0 .1.1.3.2.5.1.1.2.2.2.3l.1.1c.1.1.3.2.4.3.2.1.3.2.5.2h.1c.1 0 .3 0 .4.1.3 0 .7-.1 1-.3.2-.1.3-.2.4-.4.1-.1.2-.3.3-.5.1-.2.1-.4 0-.6 0-.2-.1-.4-.2-.6-.1-.1-.2-.2-.2-.3-.2-.2-.4-.3-.7-.4-.1 0-.3 0-.4-.1-.3 0-.5.1-.8.2h-.1c.1-.1.2-.1.4-.2h-.1c.1 0 .3 0 .4-.1H63c.1 0 .3 0 .4.1h-.2c.1.1.2.1.4.2 0 0-.1 0-.1-.1.1.1.2.2.3.2l-.1-.1c.1.1.2.2.2.3 0 0 0-.1-.1-.1.1.1.1.2.2.4v-.1c0 .1 0 .3.1.4l-1.5 1.5h1c.2 0 .4 0 .6-.1.2-.1.3-.2.5-.3.1-.1.2-.3.3-.5.1-.2.1-.4.1-.6 0-.1 0-.3-.1-.4-.1-.3-.2-.5-.4-.7-.1-.1-.2-.2-.3-.2-.1 0-.4-.1-.7-.1zM55.9 50.2v.1c.1.1.1.3.2.4v.1c.1.1.2.3.3.4l.1.1.2.2c.1 0 .1.1.2.1s.3.1.4.2h.1c.1 0 .3.1.5.1h.1c.1 0 .3 0 .4-.1.1 0 .3-.1.4-.2l.3-.2c.1-.1.2-.2.2-.3.1-.1.1-.2.2-.4v-.1c0-.1 0-.3.1-.4V50v-.2-.1c-.1-.1-.1-.3-.2-.4 0-.1-.2-.2-.2-.3l-.3-.2s-.3-.1-.4-.2l-.4-.1-.4.1s-.3.1-.4.2c-.2.1-.3.2-.4.4-.1.1-.2.3-.3.5-.1.2-.1.4 0 .6 0 .2.1.4.2.6.1.1.2.2.2.3.2.2.4.3.7.4.1 0 .3 0 .4.1.3 0 .5-.1.8-.2-.1.1-.2.1-.4.2-.1 0-.3 0-.4.1-.1 0-.3 0-.4-.1-.1-.1-.2-.1-.4-.2-.1-.1-.2-.2-.3-.2-.1-.1-.2-.2-.2-.3v.1c-.1-.1-.1-.2-.2-.4v.1c0-.1 0-.3-.1-.4v.1c0-.1 0-.3.1-.4v.1c.1-.1.1-.2.2-.4v.1c.1-.1.2-.2.2-.3.1-.1.2-.2.3-.2.1-.1.2-.1.4-.2h-.1c.1 0 .3 0 .4-.1h-.1c.1 0 .3 0 .4.1h-.1c.1.1.2.1.4.2 0 0-.1 0-.1-.1.1.1.2.2.3.2l-.1-.1c.1.1.2.2.2.3 0-.1-.1-.1-.1-.2.1.1.1.2.2.4v-.1c0-.2-.1-.4-.3-.5-.1-.2-.2-.3-.4-.4-.2-.1-.4-.2-.6-.2h-.6c-.1.1-.2.1-.4.2s-.4.3-.5.5c-.1.1-.1.2-.2.4-.2-.1-.2.2-.1.4zM60.2 44.6c.2.2.5.4.7.7l.3-2.4s-.1 0-.1.1c.1-.1.2-.1.4-.2h-.1c.1 0 .3 0 .4-.1h-.1c.1 0 .3 0 .4.1h-.2c.1.1.2.1.4.2-.1 0-.1-.1-.2-.1.1.1.2.2.3.2-.1 0-.1-.1-.2-.2.1.1.2.2.2.3 0-.1-.1-.1-.1-.2.1.1.1.2.2.4v-.2c0 .1 0 .3.1.4v-.1c0 .1 0 .3-.1.4v-.1c-.1.1-.1.2-.2.4v-.1c.1-.2.2-.4.2-.6v-.6c0-.2-.1-.4-.3-.5-.1-.2-.2-.3-.4-.4-.1-.1-.2-.1-.4-.2-.3-.1-.5-.1-.8 0-.1.1-.2.1-.4.2s-.4.3-.5.5c0 .1-.1.2-.1.3 0 .1-.1.2-.1.3 0 .1 0 .3-.1.4v.1c0 .2 0 .4.1.6.1.2.1.4.2.5.1.2.2.3.3.4l.1.1.3.3c.2.1.3.2.5.2.2.1.4.1.6.1h.1c.2 0 .3 0 .5-.1.1 0 .4-.1.4-.2 0 0 .1 0 .1-.1.2-.1.4-.3.5-.5.1-.2.2-.4.2-.6v-.6c-.1-.3-.2-.5-.4-.7-.2-.2-.5-.4-.7-.7-.1-.1-.3-.2-.5-.3-.2-.1-.4-.1-.6-.1-.2 0-.4 0-.6.1-.2.1-.3.2-.5.3-.1.1-.2.2-.2.3-.1.2-.2.5-.2.8 0 .1 0 .3.1.4.1.4.3.6.5.8zM73.2 38.8c.1 0 .1 0 0 0 .2.1.3.2.4.3.1.1.2.1.3.2.1 0 .2.1.4.1s.3 0 .5.1H75.5c.1 0 .1-.1.2-.1s.1-.1.2-.1c.1-.1.2-.2.3-.2 0-.1.1-.1.1-.2.1-.1.2-.2.2-.3 0-.1.1-.1.1-.2.1-.2.1-.5.1-.8v-.2c0-.2 0-.3-.1-.5v-.1-.1c-.1-.1-.1-.3-.2-.4 0-.1-.1-.1-.2-.2 0-.1-.1-.2-.2-.2s-.1-.1-.2-.1c0 0-.1-.1-.2-.1h-.1c-.1-.1-.3-.1-.4-.2H75c-.1 0-.3 0-.4-.1h-.1c-.1 0-.3 0-.5.1h-.1c-.1 0-.3.1-.4.2h-.1l-.3.3c-.1.1-.2.2-.2.3v.1c0 .1-.1.2-.1.2s-.1.1-.1.2 0 .3-.1.4c0 .1 0 .3.1.4 0 .2.1.4.3.5.1.2.2.3.4.4.2.1.4.2.6.2h.6c.1-.1.2-.1.4-.2s.4-.3.5-.5c.1-.1.1-.2.2-.4.1-.3.1-.5 0-.8 0 .1 0 .3.1.4v-.1c0 .1 0 .3-.1.4v-.1c-.1.1-.1.2-.2.4v-.1c-.1.1-.2.2-.2.3l.1-.1c-.1.1-.2.2-.3.2 0 0 .1 0 .1-.1-.1.1-.2.1-.4.2h.1c-.1 0-.3 0-.4.1h.1c-.1 0-.3 0-.4-.1h.1c-.1-.1-.2-.1-.4-.2 0 0 .1 0 .1.1-.1-.1-.2-.2-.3-.2l.1.1c-.1-.1-.2-.2-.2-.3l.1.1c-.1-.1-.1-.2-.2-.4v.2c0-.1 0-.3-.1-.4v.3c0-.1 0-.3.1-.4 0 .1-.1.2-.1.4l1-1h-.1c.1 0 .3 0 .4-.1h-.2c.1 0 .3 0 .4.1-.1 0-.2 0-.2-.1.1.1.2.1.4.2-.1 0-.1-.1-.2-.1.1.1.2.2.3.2l-.1-.1c-.1-.1-.3-.2-.5-.3-.2-.1-.4-.1-.6-.1-.2 0-.4 0-.6.1-.2.1-.3.2-.5.3-.1.1-.2.2-.2.3-.1.2-.2.5-.2.8 0 .1 0 .3.1.4.3.3.5.5.6.7zM68 51.1c1.9 0 1.9-3 0-3s-1.9 3 0 3zM54.9 36.8c1.9 0 1.9-3 0-3s-1.9 3 0 3zM34.1 33.2c1.9 0 1.9-3 0-3s-1.9 3 0 3z"
	/>
	<path
		fill="#f1faee"
		d="M59.5 24.2c1.9 0 1.9-3 0-3s-1.9 3 0 3zM43.4 74.6c1.9 0 1.9-3 0-3s-1.9 3 0 3zM95 23.8c1.9 0 1.9-3 0-3s-1.9 3 0 3zM99.1 23.8c1.9 0 1.9-3 0-3s-1.9 3 0 3zM103.8 23.5c1.9 0 1.9-3 0-3s-1.9 3 0 3zM108.2 22.9c1.9 0 1.9-3 0-3s-1.9 3 0 3zM113.8 22.3c1.9 0 1.9-3 0-3s-1.9 3 0 3zM118.5 21.7c1.9 0 1.9-3 0-3s-1.9 3 0 3zM122.6 21.7c1.9 0 1.9-3 0-3s-1.9 3 0 3zM127.3 21.7c1.9 0 1.9-3 0-3s-1.9 3 0 3zM131.5 21.4c1.9 0 1.9-3 0-3-2 0-2 3 0 3zM136.8 21.4c1.9 0 1.9-3 0-3-2 0-2 3 0 3z"
	/>
	<path
		fill="#f1faee"
		d="M140.6 21.4c1.9 0 1.9-3 0-3-2 0-2 3 0 3zM145.3 22c1.9 0 1.9-3 0-3-2 0-2 3 0 3zM95 30.3c1.9 0 1.9-3 0-3s-1.9 3 0 3zM99.1 30.2c1.9 0 1.9-3 0-3s-1.9 3 0 3zM103.8 29.8c1.9 0 1.9-3 0-3s-1.9 3 0 3zM108.2 29.1c1.9 0 1.9-3 0-3s-1.9 3 0 3zM113.8 28.4c1.9 0 1.9-3 0-3s-1.9 3 0 3zM118.5 28.8c1.9 0 1.9-3 0-3s-1.9 3 0 3zM122.6 28.7c1.9 0 1.9-3 0-3s-1.9 3 0 3zM127.3 28.6c1.9 0 1.9-3 0-3s-1.9 3 0 3zM131.4 28.2c1.9 0 1.9-3 0-3s-1.9 3 0 3zM136.7 28.1c1.9 0 1.9-3 0-3s-1.9 3 0 3zM140.5 28c1.9 0 1.9-3 0-3s-1.9 3 0 3zM145.3 27.5c1.9 0 1.9-3 0-3-2 0-2 3 0 3zM97.1 39.6c1.9 0 1.9-3 0-3s-1.9 3 0 3zM101 40.9c1.9 0 1.9-3 0-3-2 0-2 3 0 3zM105.5 42.2c1.9 0 1.9-3 0-3s-1.9 3 0 3zM109.9 43.1c1.9 0 1.9-3 0-3-2 0-2 3 0 3zM115.3 44.4c1.9 0 1.9-3 0-3s-1.9 3 0 3zM120 45.4c1.9 0 1.9-3 0-3-2 0-2 3 0 3zM124.8 46.8c1.9 0 1.9-3 0-3s-1.9 3 0 3zM129.3 47.4c1.9 0 1.9-3 0-3s-2 3 0 3zM134.3 49.4c1.9 0 1.9-3 0-3-2 0-2 3 0 3zM139.9 50.5c1.9 0 1.9-3 0-3-2 0-2 3 0 3zM146.7 52.5c1.9 0 1.9-3 0-3-2 0-2 3 0 3zM97.2 49.7c1.9 0 1.9-3 0-3s-1.9 3 0 3zM101.2 50.9c1.9 0 1.9-3 0-3-2 0-2 3 0 3zM105.8 52c1.9 0 1.9-3 0-3-2 0-2 3 0 3zM110.2 52.7c1.9 0 1.9-3 0-3-2 0-2 3 0 3zM115.7 53.8c1.9 0 1.9-3 0-3-2 0-2 3 0 3zM120.3 54.6c1.9 0 1.9-3 0-3s-1.9 3 0 3zM125.3 55.7c1.9 0 1.9-3 0-3-2 0-2 3 0 3zM129.7 56.1c1.9 0 1.9-3 0-3s-1.9 3 0 3zM134.8 58c1.9 0 1.9-3 0-3s-1.9 3 0 3zM140.4 58.8c1.9 0 1.9-3 0-3s-1.9 3 0 3zM145.7 59.7c1.9 0 1.9-3 0-3s-1.9 3 0 3zM89.1 64.6c1.9 0 1.9-3 0-3s-1.9 3 0 3zM93 65.9c1.9 0 1.9-3 0-3-2 0-2 3 0 3zM97.5 67.2c1.9 0 1.9-3 0-3s-1.9 3 0 3zM101.9 68.1c1.9 0 1.9-3 0-3-2 0-2 3 0 3zM107.3 69.4c1.9 0 1.9-3 0-3s-1.9 3 0 3zM112 70.4c1.9 0 1.9-3 0-3-2 0-2 3 0 3zM116.8 71.8c1.9 0 1.9-3 0-3s-1.9 3 0 3zM121.3 72.4c1.9 0 1.9-3 0-3s-2 3 0 3zM126.3 73.4c1.9 0 1.9-3 0-3-2 0-2 3 0 3zM131.9 75.5c1.9 0 1.9-3 0-3-2 0-2 3 0 3zM138.7 76.5c1.9 0 1.9-3 0-3-2 0-2 3 0 3zM144.7 77.5c1.9 0 1.9-3 0-3-2 0-2 3 0 3zM89.2 72.7c1.9 0 1.9-3 0-3s-1.9 3 0 3zM141.9 84.8c1.9 0 1.9-3 0-3-2 0-2 3 0 3zM94.8 74c1.9 0 1.9-3 0-3-2 0-2 3 0 3zM100.2 74.7c1.9 0 1.9-3 0-3-2 0-2 3 0 3zM104.7 75.8c1.9 0 1.9-3 0-3-2 0-2 3 0 3zM110.3 76.6c1.9 0 1.9-3 0-3s-1.9 3 0 3zM115.3 77.7c1.9 0 1.9-3 0-3-2 0-2 3 0 3zM119.7 79.1c1.9 0 1.9-3 0-3s-1.9 3 0 3zM125.8 81c1.9 0 1.9-3 0-3s-1.9 3 0 3zM131.4 81.8c1.9 0 1.9-3 0-3s-1.9 3 0 3zM136.7 83.7c1.9 0 1.9-3 0-3s-1.9 3 0 3zM83.5 94.1c1.9 0 1.9-3 0-3s-1.9 3 0 3zM87.7 96.3c1.9 0 1.9-3 0-3s-1.9 3 0 3zM91.8 99.1c1.9 0 1.9-3 0-3-2 0-2 3 0 3zM96.8 101.5c1.9 0 1.9-3 0-3s-1.9 3 0 3zM101.1 103.5c1.9 0 1.9-3 0-3s-1.9 3 0 3zM105.6 105.9c1.9 0 1.9-3 0-3s-1.9 3 0 3zM110.8 108.3c1.9 0 1.9-3 0-3s-1.9 3 0 3zM115.5 110.5c1.9 0 1.9-3 0-3-2 0-2 3 0 3zM120.5 112.6c1.9 0 1.9-3 0-3s-1.9 3 0 3zM78.5 97.8c1.9 0 1.9-3 0-3-2 0-2 3 0 3z"
	/>
	<g><path fill="#f1faee" d="M83.6 101.3c1.9 0 1.9-3 0-3-2 0-2 3 0 3z" /></g>
	<g><path fill="#f1faee" d="M88.7 104.1c1.9 0 1.9-3 0-3s-1.9 3 0 3z" /></g>
	<g><path fill="#f1faee" d="M92.9 106.1c1.9 0 1.9-3 0-3-2 0-2 3 0 3z" /></g>
	<g><path fill="#f1faee" d="M98.2 109.1c1.9 0 1.9-3 0-3s-1.9 3 0 3z" /></g>
	<g><path fill="#f1faee" d="M102.8 112.3c1.9 0 1.9-3 0-3s-1.9 3 0 3z" /></g>
	<g><path fill="#f1faee" d="M106.9 114.6c1.9 0 1.9-3 0-3-2 0-2 3 0 3z" /></g>
	<g><path fill="#f1faee" d="M112.4 116.7c1.9 0 1.9-3 0-3s-1.9 3 0 3z" /></g>
	<g><path fill="#f1faee" d="M117.7 118.7c1.9 0 1.9-3 0-3s-1.9 3 0 3z" /></g>
	<g><path fill="#f1faee" d="M91.1 83.4c1.9 0 1.9-3 0-3s-1.9 3 0 3z" /></g>
	<g><path fill="#f1faee" d="M95.5 85.2c1.9 0 1.9-3 0-3s-1.9 3 0 3z" /></g>
	<g><path fill="#f1faee" d="M99.7 86.5c1.9 0 1.9-3 0-3s-1.9 3 0 3z" /></g>
	<g><path fill="#f1faee" d="M105 88.4c1.9 0 1.9-3 0-3s-1.9 3 0 3z" /></g>
	<g><path fill="#f1faee" d="M109.5 88.9c1.9 0 1.9-3 0-3s-1.9 3 0 3z" /></g>
	<g><path fill="#f1faee" d="M114.2 90.8c1.9 0 1.9-3 0-3s-1.9 3 0 3z" /></g>
	<g><path fill="#f1faee" d="M118.6 91.8c1.9 0 1.9-3 0-3-2 0-2 3 0 3z" /></g>
	<g><path fill="#f1faee" d="M123.4 92.5c1.9 0 1.9-3 0-3s-1.9 3 0 3z" /></g>
	<g><path fill="#f1faee" d="M128.8 94.1c1.9 0 1.9-3 0-3-2 0-2 3 0 3z" /></g>
	<g><path fill="#f1faee" d="M134.4 95.9c1.9 0 1.9-3 0-3s-1.9 3 0 3z" /></g>
	<g><path fill="#f1faee" d="M86.7 89.7c1.9 0 1.9-3 0-3s-1.9 3 0 3z" /></g>
	<g><path fill="#f1faee" d="M92 91.6c1.9 0 1.9-3 0-3s-1.9 3 0 3z" /></g>
	<g><path fill="#f1faee" d="M96.3 93.9c1.9 0 1.9-3 0-3s-1.9 3 0 3z" /></g>
	<g><path fill="#f1faee" d="M101.7 95.4c1.9 0 1.9-3 0-3s-1.9 3 0 3z" /></g>
	<g><path fill="#f1faee" d="M107.2 96.9c1.9 0 1.9-3 0-3s-1.9 3 0 3z" /></g>
	<g><path fill="#f1faee" d="M112 98.5c1.9 0 1.9-3 0-3s-1.9 3 0 3z" /></g>
	<g><path fill="#f1faee" d="M117.3 99.4c1.9 0 1.9-3 0-3s-1.9 3 0 3z" /></g>
	<g><path fill="#f1faee" d="M122.1 100.9c1.9 0 1.9-3 0-3s-1.9 3 0 3z" /></g>
	<g><path fill="#f1faee" d="M127.6 102.3c1.9 0 1.9-3 0-3s-1.9 3 0 3z" /></g>
	<g><path fill="#f1faee" d="M132.7 103.8c1.9 0 1.9-3 0-3s-1.9 3 0 3z" /></g>
</svg>
