<svg xmlns="http://www.w3.org/2000/svg" width="60.5" height="60.5" overflow="visible"><style>.st2{fill:#f0f3bd}</style><circle cx="30.2" cy="30.3" r="26.7" fill="#0b132b"/><path d="M43.7 16.1c-1.5 1.8-6.8 3.3-7.9 4-1.9 1.3-8.5-.1-9.2-.4-.3-.1-2-1-7-4.1-2.4-1.5-5.3-1.2-5.3 1.7 0 1.7 7.5 3.4 7.5 5.1-.2 6.3-4 16.4-6 19.8-2 3.3-2.7 6.1-2.7 8.6 4.6 3.9 10.6 6.3 17.2 6.3 4.4 0 8.5-1.1 12.1-2.9.4-2.2.4-4.6.3-6.8-.4-7.5-2.2-23.6-2.2-23.8 0-1.3 7.5-3.4 7.5-5.6-.1-2.5-2.9-3.6-4.3-1.9z" fill="#5bc0be"/><path class="st2" d="M36.2 31.2c3.6 0 3.6-5.7 0-5.7s-3.6 5.7 0 5.7zM26.3 30.9c3.6 0 3.6-5.7 0-5.7-3.6.1-3.6 5.7 0 5.7z"/><g><path d="M57 30.3c-.1 11.1-7 21.3-17.5 25.1-10.7 3.9-22.7.6-30-8.1-7.2-8.6-8-21.3-2.2-30.9C13.1 6.8 24.6 1.8 35.6 4 48 6.6 56.9 17.7 57 30.3c0 2.3 3.5 2.3 3.5 0-.1-12.7-8.1-24.1-20-28.5-11.7-4.4-25.6-.6-33.6 9.1-8.1 9.8-9.3 24.1-2.6 35 6.6 10.9 19.5 16.5 31.9 14C48.4 57.5 58.3 47.3 60.1 35c.2-1.6.4-3.2.4-4.8 0-2.2-3.5-2.2-3.5.1z" fill="#fdf2ce"/></g></svg>