<svg xmlns="http://www.w3.org/2000/svg" width="283.3" height="209.7" overflow="visible"><style>.st0{fill:#fdf2ce}</style><path class="st0" d="M80 103.7s1.8-1.7 4.8-1.4c2.6.3 3.8 2.4 3.8 2.4s1.7-1.4 3.9-2.5c-.5-.6-1.3-.7-1.1-1.1.3-.5 3.1-1.2 3.5-1.1.2.1.6.6.9 1.1.4-.1.8-.1 1.2-.1 2.3.2 6.1 2.7 6.2 3.2.1.5-3.3 2.5-6.3 2.7h-1.1c-.8.9-2.1 2.1-2.9 2-1-.1.2-.9.8-2.3-.5-.1-1-.1-1.4-.2-.2.4-.6.9-1.2.9-.6.1-.4-.5-.1-1.1-1-.1-1.8 0-2.5.4-.9.5-2.8 4.1-6.7 2.7-2.4-.9 3-1 5.5-3.9-3.1-1.6-6.4 0-7.3-1.7zM110 83.7s1.8-1.7 4.8-1.4c2.6.3 3.8 2.4 3.8 2.4s1.7-1.4 3.9-2.5c-.5-.6-1.3-.7-1.1-1.1.3-.5 3.1-1.2 3.5-1.1.2.1.6.6.9 1.1.4-.1.8-.1 1.2-.1 2.3.2 6.1 2.7 6.2 3.2.1.5-3.3 2.5-6.3 2.7h-1.1c-.8.9-2.1 2.1-2.9 2-1-.1.2-.9.8-2.3-.5-.1-1-.1-1.4-.2-.2.4-.6.9-1.2.9-.6.1-.4-.5-.1-1.1-1-.1-1.8 0-2.5.4-.9.5-2.8 4.1-6.7 2.7-2.4-.9 3-1 5.5-3.9-3.1-1.6-6.4 0-7.3-1.7zM110 123.7s1.8-1.7 4.8-1.4c2.6.3 3.8 2.4 3.8 2.4s1.7-1.4 3.9-2.5c-.5-.6-1.3-.7-1.1-1.1.3-.5 3.1-1.2 3.5-1.1.2.1.6.6.9 1.1.4-.1.8-.1 1.2-.1 2.3.2 6.1 2.7 6.2 3.2.1.5-3.3 2.5-6.3 2.7h-1.1c-.8.9-2.1 2.1-2.9 2-1-.1.2-.9.8-2.3-.5-.1-1-.1-1.4-.2-.2.4-.6.9-1.2.9-.6.1-.4-.5-.1-1.1-1-.1-1.8 0-2.5.4-.9.5-2.8 4.1-6.7 2.7-2.4-.9 3-1 5.5-3.9-3.1-1.6-6.4 0-7.3-1.7zM140 103.7s1.8-1.7 4.8-1.4c2.6.3 3.8 2.4 3.8 2.4s1.7-1.4 3.9-2.5c-.5-.6-1.3-.7-1.1-1.1.3-.5 3.1-1.2 3.5-1.1.2.1.6.6.9 1.1.4-.1.8-.1 1.2-.1 2.3.2 6.1 2.7 6.2 3.2.1.5-3.3 2.5-6.3 2.7h-1.1c-.8.9-2.1 2.1-2.9 2-1-.1.2-.9.8-2.3-.5-.1-1-.1-1.4-.2-.2.4-.6.9-1.2.9-.6.1-.4-.5-.1-1.1-1-.1-1.8 0-2.5.4-.9.5-2.8 4.1-6.7 2.7-2.4-.9 3-1 5.5-3.9-3.1-1.6-6.4 0-7.3-1.7zM140 143.7s1.8-1.7 4.8-1.4c2.6.3 3.8 2.4 3.8 2.4s1.7-1.4 3.9-2.5c-.5-.6-1.3-.7-1.1-1.1.3-.5 3.1-1.2 3.5-1.1.2.1.6.6.9 1.1.4-.1.8-.1 1.2-.1 2.3.2 6.1 2.7 6.2 3.2.1.5-3.3 2.5-6.3 2.7h-1.1c-.8.9-2.1 2.1-2.9 2-1-.1.2-.9.8-2.3-.5-.1-1-.1-1.4-.2-.2.4-.6.9-1.2.9-.6.1-.4-.5-.1-1.1-1-.1-1.8 0-2.5.4-.9.5-2.8 4.1-6.7 2.7-2.4-.9 3-1 5.5-3.9-3.1-1.6-6.4 0-7.3-1.7zM140 63.7s1.8-1.7 4.8-1.4c2.6.3 3.8 2.4 3.8 2.4s1.7-1.4 3.9-2.5c-.5-.6-1.3-.7-1.1-1.1.3-.5 3.1-1.2 3.5-1.1.2.1.6.6.9 1.1.4-.1.8-.1 1.2-.1 2.3.2 6.1 2.7 6.2 3.2.1.5-3.3 2.5-6.3 2.7h-1.1c-.8.9-2.1 2.1-2.9 2-1-.1.2-.9.8-2.3-.5-.1-1-.1-1.4-.2-.2.4-.6.9-1.2.9-.6.1-.4-.5-.1-1.1-1-.1-1.8 0-2.5.4-.9.5-2.8 4.1-6.7 2.7-2.4-.9 3-1 5.5-3.9-3.1-1.6-6.4 0-7.3-1.7zM170 83.7s1.8-1.7 4.8-1.4c2.6.3 3.8 2.4 3.8 2.4s1.7-1.4 3.9-2.5c-.5-.6-1.3-.7-1.1-1.1.3-.5 3.1-1.2 3.5-1.1.2.1.6.6.9 1.1.4-.1.8-.1 1.2-.1 2.3.2 6.1 2.7 6.2 3.2.1.5-3.3 2.5-6.3 2.7h-1.1c-.8.9-2.1 2.1-2.9 2-1-.1.2-.9.8-2.3-.5-.1-1-.1-1.4-.2-.2.4-.6.9-1.2.9-.6.1-.4-.5-.1-1.1-1-.1-1.8 0-2.5.4-.9.5-2.8 4.1-6.7 2.7-2.4-.9 3-1 5.5-3.9-3.1-1.6-6.4 0-7.3-1.7zM170 123.7s1.8-1.7 4.8-1.4c2.6.3 3.8 2.4 3.8 2.4s1.7-1.4 3.9-2.5c-.5-.6-1.3-.7-1.1-1.1.3-.5 3.1-1.2 3.5-1.1.2.1.6.6.9 1.1.4-.1.8-.1 1.2-.1 2.3.2 6.1 2.7 6.2 3.2.1.5-3.3 2.5-6.3 2.7h-1.1c-.8.9-2.1 2.1-2.9 2-1-.1.2-.9.8-2.3-.5-.1-1-.1-1.4-.2-.2.4-.6.9-1.2.9-.6.1-.4-.5-.1-1.1-1-.1-1.8 0-2.5.4-.9.5-2.8 4.1-6.7 2.7-2.4-.9 3-1 5.5-3.9-3.1-1.6-6.4 0-7.3-1.7zM200 103.7s1.8-1.7 4.8-1.4c2.6.3 3.8 2.4 3.8 2.4s1.7-1.4 3.9-2.5c-.5-.6-1.3-.7-1.1-1.1.3-.5 3.1-1.2 3.5-1.1.2.1.6.6.9 1.1.4-.1.8-.1 1.2-.1 2.3.2 6.1 2.7 6.2 3.2.1.5-3.3 2.5-6.3 2.7h-1.1c-.8.9-2.1 2.1-2.9 2-1-.1.2-.9.8-2.3-.5-.1-1-.1-1.4-.2-.2.4-.6.9-1.2.9-.6.1-.4-.5-.1-1.1-1-.1-1.8 0-2.5.4-.9.5-2.8 4.1-6.7 2.7-2.4-.9 3-1 5.5-3.9-3.1-1.6-6.4 0-7.3-1.7zM170 163.7s1.8-1.7 4.8-1.4c2.6.3 3.8 2.4 3.8 2.4s1.7-1.4 3.9-2.5c-.5-.6-1.3-.7-1.1-1.1.3-.5 3.1-1.2 3.5-1.1.2.1.6.6.9 1.1.4-.1.8-.1 1.2-.1 2.3.2 6.1 2.7 6.2 3.2.1.5-3.3 2.5-6.3 2.7h-1.1c-.8.9-2.1 2.1-2.9 2-1-.1.2-.9.8-2.3-.5-.1-1-.1-1.4-.2-.2.4-.6.9-1.2.9-.6.1-.4-.5-.1-1.1-1-.1-1.8 0-2.5.4-.9.5-2.8 4.1-6.7 2.7-2.4-.9 3-1 5.5-3.9-3.1-1.6-6.4 0-7.3-1.7zM170 43.7s1.8-1.7 4.8-1.4c2.6.3 3.8 2.4 3.8 2.4s1.7-1.4 3.9-2.5c-.5-.6-1.3-.7-1.1-1.1.3-.5 3.1-1.2 3.5-1.1.2.1.6.6.9 1.1.4-.1.8-.1 1.2-.1 2.3.2 6.1 2.7 6.2 3.2.1.5-3.3 2.5-6.3 2.7h-1.1c-.8.9-2.1 2.1-2.9 2-1-.1.2-.9.8-2.3-.5-.1-1-.1-1.4-.2-.2.4-.6.9-1.2.9-.6.1-.4-.5-.1-1.1-1-.1-1.8 0-2.5.4-.9.5-2.8 4.1-6.7 2.7-2.4-.9 3-1 5.5-3.9-3.1-1.6-6.4 0-7.3-1.7zM140 23.7s1.8-1.7 4.8-1.4c2.6.3 3.8 2.4 3.8 2.4s1.7-1.4 3.9-2.5c-.5-.6-1.3-.7-1.1-1.1.3-.5 3.1-1.2 3.5-1.1.2.1.6.6.9 1.1.4-.1.8-.1 1.2-.1 2.3.2 6.1 2.7 6.2 3.2.1.5-3.3 2.5-6.3 2.7h-1.1c-.8.9-2.1 2.1-2.9 2-1-.1.2-.9.8-2.3-.5-.1-1-.1-1.4-.2-.2.4-.6.9-1.2.9-.6.1-.4-.5-.1-1.1-1-.1-1.8 0-2.5.4-.9.5-2.8 4.1-6.7 2.7-2.4-.9 3-1 5.5-3.9-3.1-1.6-6.4 0-7.3-1.7zM140 183.7s1.8-1.7 4.8-1.4c2.6.3 3.8 2.4 3.8 2.4s1.7-1.4 3.9-2.5c-.5-.6-1.3-.7-1.1-1.1.3-.5 3.1-1.2 3.5-1.1.2.1.6.6.9 1.1.4-.1.8-.1 1.2-.1 2.3.2 6.1 2.7 6.2 3.2.1.5-3.3 2.5-6.3 2.7h-1.1c-.8.9-2.1 2.1-2.9 2-1-.1.2-.9.8-2.3-.5-.1-1-.1-1.4-.2-.2.4-.6.9-1.2.9-.6.1-.4-.5-.1-1.1-1-.1-1.8 0-2.5.4-.9.5-2.8 4.1-6.7 2.7-2.4-.9 3-1 5.5-3.9-3.1-1.6-6.4 0-7.3-1.7zM80 23.7s1.8-1.7 4.8-1.4c2.6.3 3.8 2.4 3.8 2.4s1.7-1.4 3.9-2.5c-.5-.6-1.3-.7-1.1-1.1.3-.5 3.1-1.2 3.5-1.1.2.1.6.6.9 1.1.4-.1.8-.1 1.2-.1 2.3.2 6.1 2.7 6.2 3.2.1.5-3.3 2.5-6.3 2.7h-1.1c-.8.9-2.1 2.1-2.9 2-1-.1.2-.9.8-2.3-.5-.1-1-.1-1.4-.2-.2.4-.6.9-1.2.9-.6.1-.4-.5-.1-1.1-1-.1-1.8 0-2.5.4-.9.5-2.8 4.1-6.7 2.7-2.4-.9 3-1 5.5-3.9-3.1-1.6-6.4 0-7.3-1.7zM80 183.7s1.8-1.7 4.8-1.4c2.6.3 3.8 2.4 3.8 2.4s1.7-1.4 3.9-2.5c-.5-.6-1.3-.7-1.1-1.1.3-.5 3.1-1.2 3.5-1.1.2.1.6.6.9 1.1.4-.1.8-.1 1.2-.1 2.3.2 6.1 2.7 6.2 3.2.1.5-3.3 2.5-6.3 2.7h-1.1c-.8.9-2.1 2.1-2.9 2-1-.1.2-.9.8-2.3-.5-.1-1-.1-1.4-.2-.2.4-.6.9-1.2.9-.6.1-.4-.5-.1-1.1-1-.1-1.8 0-2.5.4-.9.5-2.8 4.1-6.7 2.7-2.4-.9 3-1 5.5-3.9-3.1-1.6-6.4 0-7.3-1.7zM80 143.7s1.8-1.7 4.8-1.4c2.6.3 3.8 2.4 3.8 2.4s1.7-1.4 3.9-2.5c-.5-.6-1.3-.7-1.1-1.1.3-.5 3.1-1.2 3.5-1.1.2.1.6.6.9 1.1.4-.1.8-.1 1.2-.1 2.3.2 6.1 2.7 6.2 3.2.1.5-3.3 2.5-6.3 2.7h-1.1c-.8.9-2.1 2.1-2.9 2-1-.1.2-.9.8-2.3-.5-.1-1-.1-1.4-.2-.2.4-.6.9-1.2.9-.6.1-.4-.5-.1-1.1-1-.1-1.8 0-2.5.4-.9.5-2.8 4.1-6.7 2.7-2.4-.9 3-1 5.5-3.9-3.1-1.6-6.4 0-7.3-1.7zM80 63.7s1.8-1.7 4.8-1.4c2.6.3 3.8 2.4 3.8 2.4s1.7-1.4 3.9-2.5c-.5-.6-1.3-.7-1.1-1.1.3-.5 3.1-1.2 3.5-1.1.2.1.6.6.9 1.1.4-.1.8-.1 1.2-.1 2.3.2 6.1 2.7 6.2 3.2.1.5-3.3 2.5-6.3 2.7h-1.1c-.8.9-2.1 2.1-2.9 2-1-.1.2-.9.8-2.3-.5-.1-1-.1-1.4-.2-.2.4-.6.9-1.2.9-.6.1-.4-.5-.1-1.1-1-.1-1.8 0-2.5.4-.9.5-2.8 4.1-6.7 2.7-2.4-.9 3-1 5.5-3.9-3.1-1.6-6.4 0-7.3-1.7zM0 103.7s1.8-1.7 4.8-1.4c2.6.3 3.8 2.4 3.8 2.4s1.7-1.4 3.9-2.5c-.5-.6-1.3-.7-1.1-1.1.3-.5 3.1-1.2 3.5-1.1.2.1.6.6.9 1.1.4-.1.8-.1 1.2-.1 2.3.2 6.1 2.7 6.2 3.2.1.5-3.3 2.5-6.3 2.7h-1.1c-.8.9-2.1 2.1-2.9 2-1-.1.2-.9.8-2.3-.5-.1-1-.1-1.4-.2-.2.4-.6.9-1.2.9-.6.1-.4-.5-.1-1.1-1-.1-1.8 0-2.5.4-.9.5-2.8 4.1-6.7 2.7-2.4-.9 3-1 5.5-3.9-3.1-1.6-6.4 0-7.3-1.7zM110 163.7s1.8-1.7 4.8-1.4c2.6.3 3.8 2.4 3.8 2.4s1.7-1.4 3.9-2.5c-.5-.6-1.3-.7-1.1-1.1.3-.5 3.1-1.2 3.5-1.1.2.1.6.6.9 1.1.4-.1.8-.1 1.2-.1 2.3.2 6.1 2.7 6.2 3.2.1.5-3.3 2.5-6.3 2.7h-1.1c-.8.9-2.1 2.1-2.9 2-1-.1.2-.9.8-2.3-.5-.1-1-.1-1.4-.2-.2.4-.6.9-1.2.9-.6.1-.4-.5-.1-1.1-1-.1-1.8 0-2.5.4-.9.5-2.8 4.1-6.7 2.7-2.4-.9 3-1 5.5-3.9-3.1-1.6-6.4 0-7.3-1.7zM110 203.7s1.8-1.7 4.8-1.4c2.6.3 3.8 2.4 3.8 2.4s1.7-1.4 3.9-2.5c-.5-.6-1.3-.7-1.1-1.1.3-.5 3.1-1.2 3.5-1.1.2.1.6.6.9 1.1.4-.1.8-.1 1.2-.1 2.3.2 6.1 2.7 6.2 3.2.1.5-3.3 2.5-6.3 2.7h-1.1c-.8.9-2.1 2.1-2.9 2-1-.1.2-.9.8-2.3-.5-.1-1-.1-1.4-.2-.2.4-.6.9-1.2.9-.6.1-.4-.5-.1-1.1-1-.1-1.8 0-2.5.4-.9.5-2.8 4.1-6.7 2.7-2.4-.9 3-1 5.5-3.9-3.1-1.6-6.4 0-7.3-1.7zM110 43.7s1.8-1.7 4.8-1.4c2.6.3 3.8 2.4 3.8 2.4s1.7-1.4 3.9-2.5c-.5-.6-1.3-.7-1.1-1.1.3-.5 3.1-1.2 3.5-1.1.2.1.6.6.9 1.1.4-.1.8-.1 1.2-.1 2.3.2 6.1 2.7 6.2 3.2.1.5-3.3 2.5-6.3 2.7h-1.1c-.8.9-2.1 2.1-2.9 2-1-.1.2-.9.8-2.3-.5-.1-1-.1-1.4-.2-.2.4-.6.9-1.2.9-.6.1-.4-.5-.1-1.1-1-.1-1.8 0-2.5.4-.9.5-2.8 4.1-6.7 2.7-2.4-.9 3-1 5.5-3.9-3.1-1.6-6.4 0-7.3-1.7zM40 83.7s1.8-1.7 4.8-1.4c2.6.3 3.8 2.4 3.8 2.4s1.7-1.4 3.9-2.5c-.5-.6-1.3-.7-1.1-1.1.3-.5 3.1-1.2 3.5-1.1.2.1.6.6.9 1.1.4-.1.8-.1 1.2-.1 2.3.2 6.1 2.7 6.2 3.2.1.5-3.3 2.5-6.3 2.7h-1.1c-.8.9-2.1 2.1-2.9 2-1-.1.2-.9.8-2.3-.5-.1-1-.1-1.4-.2-.2.4-.6.9-1.2.9-.6.1-.4-.5-.1-1.1-1-.1-1.8 0-2.5.4-.9.5-2.8 4.1-6.7 2.7-2.4-.9 3-1 5.5-3.9-3.1-1.6-6.4 0-7.3-1.7zM40 123.7s1.8-1.7 4.8-1.4c2.6.3 3.8 2.4 3.8 2.4s1.7-1.4 3.9-2.5c-.5-.6-1.3-.7-1.1-1.1.3-.5 3.1-1.2 3.5-1.1.2.1.6.6.9 1.1.4-.1.8-.1 1.2-.1 2.3.2 6.1 2.7 6.2 3.2.1.5-3.3 2.5-6.3 2.7h-1.1c-.8.9-2.1 2.1-2.9 2-1-.1.2-.9.8-2.3-.5-.1-1-.1-1.4-.2-.2.4-.6.9-1.2.9-.6.1-.4-.5-.1-1.1-1-.1-1.8 0-2.5.4-.9.5-2.8 4.1-6.7 2.7-2.4-.9 3-1 5.5-3.9-3.1-1.6-6.4 0-7.3-1.7zM40 163.7s1.8-1.7 4.8-1.4c2.6.3 3.8 2.4 3.8 2.4s1.7-1.4 3.9-2.5c-.5-.6-1.3-.7-1.1-1.1.3-.5 3.1-1.2 3.5-1.1.2.1.6.6.9 1.1.4-.1.8-.1 1.2-.1 2.3.2 6.1 2.7 6.2 3.2.1.5-3.3 2.5-6.3 2.7h-1.1c-.8.9-2.1 2.1-2.9 2-1-.1.2-.9.8-2.3-.5-.1-1-.1-1.4-.2-.2.4-.6.9-1.2.9-.6.1-.4-.5-.1-1.1-1-.1-1.8 0-2.5.4-.9.5-2.8 4.1-6.7 2.7-2.4-.9 3-1 5.5-3.9-3.1-1.6-6.4 0-7.3-1.7zM40 43.7s1.8-1.7 4.8-1.4c2.6.3 3.8 2.4 3.8 2.4s1.7-1.4 3.9-2.5c-.5-.6-1.3-.7-1.1-1.1.3-.5 3.1-1.2 3.5-1.1.2.1.6.6.9 1.1.4-.1.8-.1 1.2-.1 2.3.2 6.1 2.7 6.2 3.2.1.5-3.3 2.5-6.3 2.7h-1.1c-.8.9-2.1 2.1-2.9 2-1-.1.2-.9.8-2.3-.5-.1-1-.1-1.4-.2-.2.4-.6.9-1.2.9-.6.1-.4-.5-.1-1.1-1-.1-1.8 0-2.5.4-.9.5-2.8 4.1-6.7 2.7-2.4-.9 3-1 5.5-3.9-3.1-1.6-6.4 0-7.3-1.7zM110 3.7s1.8-1.7 4.8-1.4c2.6.3 3.8 2.4 3.8 2.4s1.7-1.4 3.9-2.5c-.5-.6-1.3-.7-1.1-1.1.3-.5 3.1-1.2 3.5-1.1.2.1.6.6.9 1.1.4-.1.8-.1 1.2-.1 2.3.2 6.1 2.7 6.2 3.2.1.5-3.3 2.5-6.3 2.7h-1.1c-.8.9-2.1 2.1-2.9 2-1-.1.2-.9.8-2.3-.5-.1-1-.1-1.4-.2-.2.4-.6.9-1.2.9-.6.1-.4-.5-.1-1.1-1-.1-1.8 0-2.5.4-.9.5-2.8 4.1-6.7 2.7-2.4-.9 3-1 5.5-3.9-3.1-1.6-6.4 0-7.3-1.7zM200 143.7s1.8-1.7 4.8-1.4c2.6.3 3.8 2.4 3.8 2.4s1.7-1.4 3.9-2.5c-.5-.6-1.3-.7-1.1-1.1.3-.5 3.1-1.2 3.5-1.1.2.1.6.6.9 1.1.4-.1.8-.1 1.2-.1 2.3.2 6.1 2.7 6.2 3.2.1.5-3.3 2.5-6.3 2.7h-1.1c-.8.9-2.1 2.1-2.9 2-1-.1.2-.9.8-2.3-.5-.1-1-.1-1.4-.2-.2.4-.6.9-1.2.9-.6.1-.4-.5-.1-1.1-1-.1-1.8 0-2.5.4-.9.5-2.8 4.1-6.7 2.7-2.4-.9 3-1 5.5-3.9-3.1-1.6-6.4 0-7.3-1.7zM200 63.7s1.8-1.7 4.8-1.4c2.6.3 3.8 2.4 3.8 2.4s1.7-1.4 3.9-2.5c-.5-.6-1.3-.7-1.1-1.1.3-.5 3.1-1.2 3.5-1.1.2.1.6.6.9 1.1.4-.1.8-.1 1.2-.1 2.3.2 6.1 2.7 6.2 3.2.1.5-3.3 2.5-6.3 2.7h-1.1c-.8.9-2.1 2.1-2.9 2-1-.1.2-.9.8-2.3-.5-.1-1-.1-1.4-.2-.2.4-.6.9-1.2.9-.6.1-.4-.5-.1-1.1-1-.1-1.8 0-2.5.4-.9.5-2.8 4.1-6.7 2.7-2.4-.9 3-1 5.5-3.9-3.1-1.6-6.4 0-7.3-1.7zM230 83.7s1.8-1.7 4.8-1.4c2.6.3 3.8 2.4 3.8 2.4s1.7-1.4 3.9-2.5c-.5-.6-1.3-.7-1.1-1.1.3-.5 3.1-1.2 3.5-1.1.2.1.6.6.9 1.1.4-.1.8-.1 1.2-.1 2.3.2 6.1 2.7 6.2 3.2.1.5-3.3 2.5-6.3 2.7h-1.1c-.8.9-2.1 2.1-2.9 2-1-.1.2-.9.8-2.3-.5-.1-1-.1-1.4-.2-.2.4-.6.9-1.2.9-.6.1-.4-.5-.1-1.1-1-.1-1.8 0-2.5.4-.9.5-2.8 4.1-6.7 2.7-2.4-.9 3-1 5.5-3.9-3.1-1.6-6.4 0-7.3-1.7zM230 123.7s1.8-1.7 4.8-1.4c2.6.3 3.8 2.4 3.8 2.4s1.7-1.4 3.9-2.5c-.5-.6-1.3-.7-1.1-1.1.3-.5 3.1-1.2 3.5-1.1.2.1.6.6.9 1.1.4-.1.8-.1 1.2-.1 2.3.2 6.1 2.7 6.2 3.2.1.5-3.3 2.5-6.3 2.7h-1.1c-.8.9-2.1 2.1-2.9 2-1-.1.2-.9.8-2.3-.5-.1-1-.1-1.4-.2-.2.4-.6.9-1.2.9-.6.1-.4-.5-.1-1.1-1-.1-1.8 0-2.5.4-.9.5-2.8 4.1-6.7 2.7-2.4-.9 3-1 5.5-3.9-3.1-1.6-6.4 0-7.3-1.7zM260 103.7s1.8-1.7 4.8-1.4c2.6.3 3.8 2.4 3.8 2.4s1.7-1.4 3.9-2.5c-.5-.6-1.3-.7-1.1-1.1.3-.5 3.1-1.2 3.5-1.1.2.1.6.6.9 1.1.4-.1.8-.1 1.2-.1 2.3.2 6.1 2.7 6.2 3.2.1.5-3.3 2.5-6.3 2.7h-1.1c-.8.9-2.1 2.1-2.9 2-1-.1.2-.9.8-2.3-.5-.1-1-.1-1.4-.2-.2.4-.6.9-1.2.9-.6.1-.4-.5-.1-1.1-1-.1-1.8 0-2.5.4-.9.5-2.8 4.1-6.7 2.7-2.4-.9 3-1 5.5-3.9-3.1-1.6-6.4 0-7.3-1.7z"/></svg>