<svg id="Layer_1" data-name="Layer 1" xmlns="http://www.w3.org/2000/svg" viewBox="0 0 391.3 134.6"><path d="M131.42,112.31V66.46c0-.32-.19-1.44,0-1.72s.56-.11.84-.11h44.31a9.4,9.4,0,0,1,2.31,0c.35.11.24,0,.3.43a20.52,20.52,0,0,1,0,2.48v44.2c0,.34.07.51-.17.65a5.89,5.89,0,0,1-1.92,0H132.56c-.11,0-1.12.09-1.14-.08-.19-1.9-3.19-1.92-3,0,.35,3.51,3.62,3.08,6.17,3.08h38.17c2.08,0,4.18.09,6.26,0a3.19,3.19,0,0,0,3.16-3.19c0-.7,0-1.42,0-2.13V85.64c0-6.86.13-13.74,0-20.61a3.21,3.21,0,0,0-3.08-3.4c-.5,0-1,0-1.5,0H132.26a3.68,3.68,0,0,0-3.13,1.13,4,4,0,0,0-.71,2.82v46.73A1.5,1.5,0,0,0,131.42,112.31Z" fill="#fdf2ce"/><path d="M157.09,79.61c1.72,1.91,3.47,3.81,5.25,5.67,1,1,2,2,3,3l.4.41.16-.4a5.71,5.71,0,0,0-.58.51c-.17.17-.32.35-.48.53-2.7,2.8-5.63,5.41-8.51,8-1.43,1.3.7,3.42,2.12,2.12,3.07-2.78,6.09-5.61,9-8.56,1-1,1.87-2,1-3.53-.72-1.33-2.2-2.42-3.24-3.5-2-2.12-4-4.28-6-6.46-1.3-1.43-3.41.69-2.12,2.13Z" fill="#fdf2ce"/><path d="M166.21,86.9H143.3a1.5,1.5,0,0,0,0,3h22.91a1.5,1.5,0,0,0,0-3Z" fill="#fdf2ce"/><path d="M114.92,50.81H69.07c-.33,0-1.44.2-1.72,0s-.11-.56-.11-.83V5.66a8.85,8.85,0,0,1,0-2.3c.11-.36,0-.25.42-.3a20.69,20.69,0,0,1,2.49,0h44.2c.34,0,.51-.08.64.17s0,1.49,0,1.92V49.67c0,.11.1,1.13-.07,1.14-1.9.2-1.92,3.2,0,3,3.51-.35,3.07-3.61,3.07-6.17V9.48c0-2.08.1-4.19,0-6.27A3.16,3.16,0,0,0,114.81.06c-.71,0-1.42,0-2.13,0H88.25c-6.86,0-13.74-.13-20.61,0a3.21,3.21,0,0,0-3.4,3.07c0,.5,0,1,0,1.51V50a3.68,3.68,0,0,0,1.13,3.13,4,4,0,0,0,2.81.7h46.74A1.5,1.5,0,0,0,114.92,50.81Z" fill="#fdf2ce"/><path d="M82.21,25.15q2.88-2.59,5.68-5.26c1-1,2-2,3-3,.13-.14.27-.27.41-.41l-.4-.15a4.69,4.69,0,0,0,.51.57l.52.49c2.81,2.7,5.42,5.62,8,8.5,1.3,1.43,3.42-.69,2.12-2.12-2.78-3.06-5.61-6.08-8.56-9-1-1-2-1.87-3.53-1-1.33.73-2.42,2.2-3.51,3.25-2.11,2-4.27,4-6.45,6-1.43,1.29.69,3.41,2.12,2.12Z" fill="#fdf2ce"/><path d="M89.51,16v22.9a1.5,1.5,0,0,0,3,0V16a1.5,1.5,0,0,0-3,0Z" fill="#fdf2ce"/><path d="M67.31,64.63h45.86c.32,0,1.44-.19,1.71,0s.11.56.11.84v44.31a8.93,8.93,0,0,1,0,2.31c-.1.35,0,.24-.42.3a20.69,20.69,0,0,1-2.49,0H67.88c-.34,0-.51.07-.64-.17a5.89,5.89,0,0,1,0-1.92V65.77c0-.11-.09-1.12.07-1.14,1.9-.19,1.92-3.19,0-3-3.51.35-3.07,3.62-3.07,6.17V106c0,2.08-.1,4.18,0,6.26a3.17,3.17,0,0,0,3.18,3.16c.71,0,1.42,0,2.13,0H94c6.87,0,13.75.13,20.61,0a3.21,3.21,0,0,0,3.4-3.08c0-.5,0-1,0-1.51V65.47a3.67,3.67,0,0,0-1.13-3.13,4,4,0,0,0-2.81-.71H67.31A1.5,1.5,0,0,0,67.31,64.63Z" fill="#fdf2ce"/><path d="M100,90.3q-2.88,2.58-5.68,5.25c-1,1-2,2-3,3l-.42.41.41.16a6,6,0,0,0-.52-.58c-.16-.17-.35-.32-.52-.48-2.81-2.7-5.42-5.63-8-8.51-1.3-1.43-3.41.7-2.12,2.12,2.79,3.07,5.62,6.09,8.56,9,1,1,2,1.87,3.54,1,1.32-.73,2.41-2.2,3.5-3.24,2.11-2,4.27-4,6.45-6,1.44-1.3-.69-3.41-2.12-2.12Z" fill="#fdf2ce"/><path d="M92.72,99.42V76.51a1.5,1.5,0,0,0-3,0V99.42a1.5,1.5,0,0,0,3,0Z" fill="#fdf2ce"/><text transform="translate(55.92 129.76)" font-size="16" fill="#fdf2ce" font-family="VT323-Regular, VT323">move around</text><path d="M50.81,64.7v45.86c0,.32.2,1.44,0,1.71s-.56.12-.83.12H5.66a9.32,9.32,0,0,1-2.3,0c-.36-.11-.25,0-.3-.43a20.69,20.69,0,0,1,0-2.49V65.27c0-.33-.08-.5.17-.64a5.89,5.89,0,0,1,1.92,0H49.67c.11,0,1.13-.09,1.14.07.2,1.9,3.2,1.92,3,0-.35-3.51-3.61-3.07-6.17-3.07H9.48c-2.08,0-4.19-.09-6.27,0A3.16,3.16,0,0,0,.06,64.81c0,.71,0,1.42,0,2.13V91.37c0,6.87-.13,13.75,0,20.61a3.22,3.22,0,0,0,3.07,3.41c.5,0,1,0,1.51,0H50a3.69,3.69,0,0,0,3.13-1.14,4,4,0,0,0,.7-2.81V64.7A1.5,1.5,0,0,0,50.81,64.7Z" fill="#fdf2ce"/><path d="M25.15,97.41c-1.73-1.91-3.48-3.81-5.26-5.67-1-1-2-2-3-3-.14-.14-.27-.28-.41-.41l-.15.4a5.73,5.73,0,0,0,.57-.51c.17-.17.32-.36.49-.53,2.7-2.81,5.62-5.42,8.5-8,1.43-1.31-.69-3.42-2.12-2.13-3.06,2.79-6.08,5.62-9,8.57-1,1-1.87,2-1,3.53C14.51,90.9,16,92,17,93.08c2,2.11,4,4.27,6,6.45,1.29,1.44,3.41-.69,2.12-2.12Z" fill="#fdf2ce"/><path d="M16,90.11h22.9a1.5,1.5,0,0,0,0-3H16a1.5,1.5,0,0,0,0,3Z" fill="#fdf2ce"/><path d="M340.48,112.31V66.46c0-.32-.19-1.44,0-1.72s.57-.11.84-.11h44.31a9.4,9.4,0,0,1,2.31,0c.36.11.25,0,.3.43a20.52,20.52,0,0,1,0,2.48v44.2c0,.34.08.51-.17.65a5.89,5.89,0,0,1-1.92,0H341.62c-.11,0-1.12.09-1.14-.08-.19-1.9-3.19-1.92-3,0,.36,3.51,3.62,3.08,6.17,3.08h38.17c2.08,0,4.18.09,6.26,0a3.17,3.17,0,0,0,3.16-3.19c0-.7,0-1.42,0-2.13V85.64c0-6.86.13-13.74,0-20.61a3.21,3.21,0,0,0-3.07-3.4c-.5,0-1,0-1.51,0H341.32a3.68,3.68,0,0,0-3.13,1.13,4,4,0,0,0-.71,2.82v46.73A1.5,1.5,0,0,0,340.48,112.31Z" fill="#fdf2ce"/><path d="M324,51.81H278.13c-.32,0-1.44.2-1.71,0s-.12-.56-.12-.83V6.66a9.32,9.32,0,0,1,0-2.3c.11-.36,0-.25.43-.3a20.52,20.52,0,0,1,2.48,0h44.2c.34,0,.51-.08.65.17a5.89,5.89,0,0,1,0,1.92V50.67c0,.11.09,1.13-.07,1.14-1.91.2-1.93,3.2,0,3,3.5-.35,3.07-3.61,3.07-6.17V10.48c0-2.08.09-4.19,0-6.27a3.17,3.17,0,0,0-3.18-3.15c-.71,0-1.43,0-2.14,0H297.31c-6.86,0-13.74-.13-20.61,0a3.21,3.21,0,0,0-3.4,3.07c0,.5,0,1,0,1.51V51a3.68,3.68,0,0,0,1.13,3.13,4,4,0,0,0,2.82.7H324A1.5,1.5,0,0,0,324,51.81Z" fill="#fdf2ce"/><path d="M276.37,64.63h45.86c.32,0,1.44-.19,1.71,0s.12.56.12.84v44.31a9.4,9.4,0,0,1,0,2.31c-.11.35,0,.24-.43.3a20.69,20.69,0,0,1-2.49,0H277c-.34,0-.51.07-.65-.17a5.89,5.89,0,0,1,0-1.92V65.77c0-.11-.09-1.12.07-1.14,1.91-.19,1.93-3.19,0-3-3.5.35-3.07,3.62-3.07,6.17V106c0,2.08-.09,4.18,0,6.26a3.18,3.18,0,0,0,3.18,3.16c.71,0,1.43,0,2.13,0H303c6.87,0,13.75.13,20.61,0a3.22,3.22,0,0,0,3.41-3.08c0-.5,0-1,0-1.51V65.47a3.68,3.68,0,0,0-1.14-3.13,4,4,0,0,0-2.81-.71H276.37A1.5,1.5,0,0,0,276.37,64.63Z" fill="#fdf2ce"/><text transform="translate(264.98 130.76)" font-size="16" fill="#fdf2ce" font-family="VT323-Regular, VT323">move around</text><path d="M259.88,64.7v45.86c0,.32.19,1.44,0,1.71s-.56.12-.84.12H214.73a9.4,9.4,0,0,1-2.31,0c-.36-.11-.25,0-.3-.43a20.69,20.69,0,0,1,0-2.49V65.27c0-.33-.08-.5.17-.64a5.89,5.89,0,0,1,1.92,0h44.53c.11,0,1.12-.09,1.14.07.19,1.9,3.19,1.92,3,0-.36-3.51-3.62-3.07-6.17-3.07H218.54c-2.08,0-4.18-.09-6.26,0a3.17,3.17,0,0,0-3.16,3.18c0,.71,0,1.42,0,2.13V91.37c0,6.87-.13,13.75,0,20.61a3.22,3.22,0,0,0,3.08,3.41c.49,0,1,0,1.5,0H259a3.69,3.69,0,0,0,3.13-1.14,4,4,0,0,0,.71-2.81V64.7A1.5,1.5,0,0,0,259.88,64.7Z" fill="#fdf2ce"/><path d="M222.26,102.2c4.49-9.84,8.43-19.91,13.54-29.46h-2.59c4.33,9.76,8.34,19.65,12.56,29.46.76,1.77,3.34.24,2.59-1.51-4.22-9.81-8.23-19.7-12.56-29.46a1.5,1.5,0,0,0-2.59,0c-5.11,9.54-9.05,19.61-13.54,29.46-.79,1.74,1.79,3.27,2.59,1.51Z" fill="#fdf2ce"/><path d="M225.15,93h17.46a1.5,1.5,0,0,0,0-3H225.15a1.5,1.5,0,0,0,0,3Z" fill="#fdf2ce"/><path d="M284.62,16.16a97,97,0,0,0,5.23,23.67,1.52,1.52,0,0,0,2.74.36,60.12,60.12,0,0,0,5.18-8.61c.63-1.2,1.23-2.41,1.86-3.6.21-.41.43-.83.67-1.23a2.91,2.91,0,0,0,.25-.42c.1-.14.09-.12-.06.07.44-.44-.1-.4-1.59.13l.36-2.74c-1.57.58-1.11,2-.61,3.13.62,1.39,1.36,2.73,2.11,4.06,1.87,3.32,3.92,6.84,6.69,9.51a1.51,1.51,0,0,0,2.5-.66,128.52,128.52,0,0,0,5.93-23.27c.33-1.89-2.56-2.7-2.89-.8A128.31,128.31,0,0,1,307.06,39l2.51-.66A35.51,35.51,0,0,1,304,30.62c-.74-1.27-1.46-2.56-2.12-3.88-.23-.44-.45-.88-.65-1.33-.11-.27,0,.06,0-.06a.84.84,0,0,0-.07-.19,1.31,1.31,0,0,1,0-.15c.16-.11-.38,1.43-.16,1l-.9.68h0a1.52,1.52,0,0,0,.36-2.74c-2-1.56-3.87,3.49-4.42,4.57a68.68,68.68,0,0,1-6,10.17l2.74.35a94.35,94.35,0,0,1-5.12-22.87c-.18-1.91-3.18-1.93-3,0Z" fill="#fdf2ce"/><path d="M306.66,73.5c-3.47-3.15-9.26-2.32-13-.06a8.45,8.45,0,0,0-4.06,5c-.61,2.67.6,5.17,2.34,7.13a16.88,16.88,0,0,0,7.59,4.61c2.06.69,5,1.21,6.36,3.11,1.23,1.74.62,4.87-.62,6.48a6,6,0,0,1-4.72,2,17.89,17.89,0,0,1-6.78-1.3,16.48,16.48,0,0,1-2.59-1.22l-.48-.29c-.07,0-.54-.39-.25-.16l-.31-.27-.07-.06c-1.07-1.6-3.67-.1-2.59,1.51a8.26,8.26,0,0,0,3.57,2.58,23.3,23.3,0,0,0,6.15,1.94c4.52.74,9.62-.1,11.53-4.83,1-2.4,1.23-5.62-.25-7.87s-4.15-3.17-6.6-4c-2.81-.93-5.41-1.82-7.5-4-1.41-1.47-2.54-3.51-1.57-5.43,1.75-3.5,8.71-5.51,11.7-2.77,1.43,1.29,3.56-.82,2.13-2.13Z" fill="#fdf2ce"/><path d="M357.83,100.07q0-7.29,0-14.56c0-2.46,0-4.92,0-7.37a6.26,6.26,0,0,0,0-1.56c-.24-.82.12.13-.29,0a3.89,3.89,0,0,0,.69,0A20.4,20.4,0,0,1,361,77a11.38,11.38,0,0,1,5.19,2.13,14.07,14.07,0,0,1,3.53,5.17,14.06,14.06,0,0,1,1.45,6,13,13,0,0,1-1.38,5.4c-2.53,4.72-9,4.05-13.45,3.58-1.91-.21-1.9,2.79,0,3,5.09.54,11.17.81,14.89-3.44,3.16-3.62,3.51-9.2,2.06-13.58-1.58-4.8-4.4-9-9.36-10.66a19.74,19.74,0,0,0-3.39-.75,11.37,11.37,0,0,0-3.58-.2c-2.87.55-2.16,4.14-2.16,6.29l0,20.12a1.5,1.5,0,0,0,3,0Z" fill="#fdf2ce"/></svg>