<svg id="Layer_1" data-name="Layer 1" xmlns="http://www.w3.org/2000/svg" viewBox="0 0 319.18 71.25"><path d="M64.05,50.74V4.89c0-.32-.19-1.44,0-1.72s.56-.11.84-.11H109.2a9.4,9.4,0,0,1,2.31,0c.35.11.25,0,.3.43a20.52,20.52,0,0,1,0,2.48v44.2c0,.34.07.51-.17.64-.39.22-1.49,0-1.92,0H65.19c-.11,0-1.12.1-1.14-.07-.19-1.9-3.19-1.92-3,0,.36,3.51,3.62,3.07,6.17,3.07h38.17c2.08,0,4.18.1,6.26,0a3.17,3.17,0,0,0,3.16-3.18c0-.7,0-1.42,0-2.13V24.07c0-6.86.13-13.74,0-20.61a3.21,3.21,0,0,0-3.08-3.4c-.49,0-1,0-1.5,0H64.89a3.68,3.68,0,0,0-3.13,1.13A4,4,0,0,0,61.05,4V50.74A1.5,1.5,0,0,0,64.05,50.74Z" fill="#fdf2ce"/><path d="M89.72,18C91.45,20,93.19,21.84,95,23.71q1.47,1.53,3,3.05l.41.41.15-.4a4.69,4.69,0,0,0-.58.51l-.48.52c-2.7,2.81-5.63,5.42-8.51,8-1.43,1.3.7,3.42,2.13,2.12,3.06-2.78,6.08-5.61,9-8.56,1-1,1.87-2,1-3.53-.72-1.33-2.2-2.42-3.24-3.51-2-2.11-4-4.27-6-6.45-1.29-1.43-3.41.69-2.12,2.12Z" fill="#fdf2ce"/><path d="M98.84,25.33H75.94a1.5,1.5,0,0,0,0,3h22.9a1.5,1.5,0,0,0,0-3Z" fill="#fdf2ce"/><path d="M197.92,50.81H152.07c-.32,0-1.44.2-1.72,0s-.11-.56-.11-.83V5.66a9.32,9.32,0,0,1,0-2.3c.11-.36,0-.25.43-.3a20.52,20.52,0,0,1,2.48,0h44.2c.34,0,.51-.08.64.17s0,1.49,0,1.92V49.67c0,.11.1,1.13-.07,1.14-1.9.2-1.92,3.2,0,3,3.51-.35,3.07-3.61,3.07-6.17V9.48c0-2.08.1-4.19,0-6.27A3.16,3.16,0,0,0,197.81.06c-.7,0-1.42,0-2.13,0H171.25c-6.86,0-13.74-.13-20.61,0a3.21,3.21,0,0,0-3.4,3.07c0,.5,0,1,0,1.51V50a3.68,3.68,0,0,0,1.13,3.13,4,4,0,0,0,2.82.7h46.73A1.5,1.5,0,0,0,197.92,50.81Z" fill="#fdf2ce"/><path d="M165.21,25.15q2.88-2.59,5.68-5.26c1-1,2-2,3.05-3l.41-.41-.4-.15a5.73,5.73,0,0,0,.51.57c.17.17.35.32.53.49,2.8,2.7,5.41,5.62,8,8.5,1.3,1.43,3.42-.69,2.12-2.12-2.78-3.06-5.61-6.08-8.56-9-1-1-2-1.87-3.53-1-1.33.73-2.42,2.2-3.5,3.25-2.12,2-4.28,4-6.46,6-1.43,1.29.69,3.41,2.12,2.12Z" fill="#fdf2ce"/><path d="M172.51,16v22.9a1.5,1.5,0,0,0,3,0V16a1.5,1.5,0,0,0-3,0Z" fill="#fdf2ce"/><path d="M247.37,3.06h45.86c.32,0,1.44-.19,1.71,0s.12.56.12.84V48.21a9.4,9.4,0,0,1,0,2.31c-.11.35,0,.24-.43.29a20.52,20.52,0,0,1-2.48,0H248c-.34,0-.51.08-.65-.16a6,6,0,0,1,0-1.93V4.2c0-.11-.09-1.12.07-1.14,1.91-.19,1.93-3.19,0-3-3.5.35-3.07,3.62-3.07,6.17V44.39c0,2.09-.09,4.19,0,6.27a3.17,3.17,0,0,0,3.18,3.15c.71,0,1.43,0,2.14,0h24.43c6.86,0,13.74.14,20.61,0a3.2,3.2,0,0,0,3.4-3.07c0-.5,0-1,0-1.51V3.9A3.67,3.67,0,0,0,296.93.77a4,4,0,0,0-2.82-.71H247.37A1.5,1.5,0,0,0,247.37,3.06Z" fill="#fdf2ce"/><path d="M280.08,28.73c-1.91,1.72-3.81,3.47-5.67,5.25-1,1-2,2-3.05,3l-.41.41.4.15a7.13,7.13,0,0,0-.51-.57c-.17-.17-.36-.32-.53-.49-2.8-2.69-5.41-5.62-8-8.5-1.3-1.43-3.42.7-2.12,2.12,2.78,3.07,5.61,6.08,8.56,9,1,1,2,1.87,3.53,1,1.33-.73,2.42-2.2,3.5-3.24q3.18-3.06,6.45-6c1.44-1.3-.69-3.41-2.12-2.12Z" fill="#fdf2ce"/><path d="M272.79,37.84V14.94a1.5,1.5,0,0,0-3,0v22.9a1.5,1.5,0,0,0,3,0Z" fill="#fdf2ce"/><text transform="translate(132.52 67.41)" font-size="16" fill="#fdf2ce" font-family="VT323-Regular, VT323">extend lights</text><text transform="translate(223.18 67.41)" font-size="16" fill="#fdf2ce" font-family="VT323-Regular, VT323">contract lights</text><path d="M50.81,3.13V49c0,.32.2,1.44,0,1.71s-.56.11-.83.11H5.66a8.85,8.85,0,0,1-2.3,0c-.36-.1-.25,0-.3-.42a20.69,20.69,0,0,1,0-2.49V3.7c0-.34-.08-.51.17-.64a5.89,5.89,0,0,1,1.92,0H49.67c.11,0,1.13-.09,1.14.07.2,1.9,3.2,1.92,3,0C53.46-.38,50.2.06,47.64.06H9.48C7.4.06,5.29,0,3.21.06A3.16,3.16,0,0,0,.06,3.24c0,.71,0,1.42,0,2.13V29.8c0,6.87-.13,13.75,0,20.61a3.2,3.2,0,0,0,3.07,3.4c.5,0,1,0,1.51,0H50a3.68,3.68,0,0,0,3.13-1.13,4,4,0,0,0,.7-2.81V3.13A1.5,1.5,0,0,0,50.81,3.13Z" fill="#fdf2ce"/><path d="M25.15,35.84c-1.73-1.91-3.48-3.81-5.26-5.68-1-1-2-2-3-3l-.41-.42-.15.41a5.73,5.73,0,0,0,.57-.51c.17-.17.32-.36.49-.53,2.7-2.81,5.62-5.42,8.5-8,1.43-1.3-.69-3.41-2.12-2.12-3.06,2.79-6.08,5.62-9,8.56-1,1-1.87,2-1,3.54.73,1.32,2.2,2.42,3.25,3.5,2,2.11,4,4.27,6,6.45,1.29,1.44,3.41-.69,2.12-2.12Z" fill="#fdf2ce"/><path d="M16,28.54h22.9a1.5,1.5,0,0,0,0-3H16a1.5,1.5,0,0,0,0,3Z" fill="#fdf2ce"/><text transform="translate(22.23 67.41)" font-size="16" fill="#fdf2ce" font-family="VT323-Regular, VT323">move lights</text></svg>