<svg id="Layer_1" data-name="Layer 1" xmlns="http://www.w3.org/2000/svg" viewBox="0 0 247.97 72.51"><text transform="translate(72.79 68.67)" font-size="16" fill="#fdf2ce" font-family="VT323-Regular, VT323">turn off controls</text><path d="M131.42,50.74V4.89c0-.32-.19-1.44,0-1.72s.56-.11.84-.11h44.31a9.4,9.4,0,0,1,2.31,0c.35.11.24,0,.3.43a20.52,20.52,0,0,1,0,2.48v44.2c0,.34.07.51-.17.64s-1.5,0-1.92,0H132.56c-.11,0-1.12.1-1.14-.07-.19-1.9-3.19-1.92-3,0,.35,3.51,3.62,3.07,6.17,3.07h38.17c2.08,0,4.18.1,6.26,0a3.17,3.17,0,0,0,3.16-3.18c0-.7,0-1.42,0-2.13V24.07c0-6.86.13-13.74,0-20.61A3.21,3.21,0,0,0,179.1.06c-.5,0-1,0-1.5,0H132.26a3.68,3.68,0,0,0-3.13,1.13A4,4,0,0,0,128.42,4V50.74A1.5,1.5,0,0,0,131.42,50.74Z" fill="#fdf2ce"/><path d="M244.85,50.81H199c-.32,0-1.44.2-1.72,0s-.11-.56-.11-.83V5.66a9.32,9.32,0,0,1,0-2.3c.11-.36,0-.25.43-.3a20.52,20.52,0,0,1,2.48,0h44.2c.34,0,.51-.08.65.17a5.89,5.89,0,0,1,0,1.92V49.67c0,.11.09,1.13-.08,1.14-1.9.2-1.92,3.2,0,3,3.51-.35,3.08-3.61,3.08-6.17V9.48c0-2.08.09-4.19,0-6.27A3.17,3.17,0,0,0,244.74.06c-.7,0-1.42,0-2.13,0H218.18c-6.86,0-13.74-.13-20.61,0a3.21,3.21,0,0,0-3.4,3.07c0,.5,0,1,0,1.51V50a3.68,3.68,0,0,0,1.13,3.13,4,4,0,0,0,2.82.7h46.73A1.5,1.5,0,0,0,244.85,50.81Z" fill="#fdf2ce"/><path d="M67.31,3.06h45.86c.32,0,1.44-.19,1.71,0s.11.56.11.84V48.21a8.93,8.93,0,0,1,0,2.31c-.1.35,0,.24-.42.29a20.69,20.69,0,0,1-2.49,0H67.88c-.34,0-.51.08-.64-.16a6,6,0,0,1,0-1.93V4.2c0-.11-.09-1.12.07-1.14,1.9-.19,1.92-3.19,0-3-3.51.35-3.07,3.62-3.07,6.17V44.39c0,2.09-.1,4.19,0,6.27a3.16,3.16,0,0,0,3.18,3.15c.71,0,1.42,0,2.13,0H94c6.87,0,13.75.14,20.61,0a3.2,3.2,0,0,0,3.4-3.07c0-.5,0-1,0-1.51V3.9A3.67,3.67,0,0,0,116.86.77a4,4,0,0,0-2.81-.71H67.31A1.5,1.5,0,0,0,67.31,3.06Z" fill="#fdf2ce"/><path d="M50.81,3.13V49c0,.32.2,1.44,0,1.71s-.56.11-.83.11H5.66a8.85,8.85,0,0,1-2.3,0c-.36-.1-.25,0-.3-.42a20.69,20.69,0,0,1,0-2.49V3.7c0-.34-.08-.51.17-.64a5.89,5.89,0,0,1,1.92,0H49.67c.11,0,1.13-.09,1.14.07.2,1.9,3.2,1.92,3,0C53.46-.38,50.2.06,47.64.06H9.48C7.4.06,5.29,0,3.21.06A3.16,3.16,0,0,0,.06,3.24c0,.71,0,1.42,0,2.13V29.8c0,6.87-.13,13.75,0,20.61a3.2,3.2,0,0,0,3.07,3.4c.5,0,1,0,1.51,0H50a3.68,3.68,0,0,0,3.13-1.13,4,4,0,0,0,.7-2.81V3.13A1.5,1.5,0,0,0,50.81,3.13Z" fill="#fdf2ce"/><path d="M15.48,15.19l18.72,0-1.45-1.11c.22.76-1.16,1.84-1.6,2.33l-2.5,2.76-5,5.51-10,11a1.51,1.51,0,0,0,.66,2.5c7.73,1.65,15.56-.51,23.32.55a1.54,1.54,0,0,0,1.84-1,1.51,1.51,0,0,0-1-1.85c-7.74-1.07-15.64,1.08-23.31-.55l.66,2.51L27,25.45l5.47-6c1.51-1.67,3.87-3.58,3.16-6.1a1.53,1.53,0,0,0-1.45-1.1l-18.72,0a1.5,1.5,0,0,0,0,3Z" fill="#fdf2ce"/><path d="M76.35,16.53c7.2,8.35,15.88,15.24,24.07,22.57,1.44,1.29,3.57-.83,2.12-2.12-8.18-7.33-16.87-14.22-24.07-22.57-1.26-1.47-3.38.66-2.12,2.12Z" fill="#fdf2ce"/><path d="M79.15,39.1c8.34-6.45,15.49-14.3,22.23-22.37,1.23-1.47-.88-3.6-2.12-2.12C92.52,22.68,85.37,30.53,77,37a1.52,1.52,0,0,0,0,2.12,1.54,1.54,0,0,0,2.12,0Z" fill="#fdf2ce"/><path d="M162,18.22c-1.37-4.13-6-5.6-9.91-4.33a15.88,15.88,0,0,0-9,8.11,16.72,16.72,0,0,0-1.33,11.68A10,10,0,0,0,151,41.21c4.08.39,8.87-1.14,10.72-5.08.82-1.74-1.77-3.26-2.59-1.51-1.54,3.27-5.68,4.1-9,3.46-4.48-.88-6.1-5-5.88-9.21A14.43,14.43,0,0,1,149,19.06a9.54,9.54,0,0,1,5.75-2.65,4.24,4.24,0,0,1,4.3,2.6c.61,1.83,3.51,1,2.89-.79Z" fill="#fdf2ce"/><path d="M208.36,15c3.61,8.2,6.82,16.59,10.67,24.68l2.36-1.81h0l.44,1.06c0,.21-.15.55-.06.36l.29-.59c.33-.69.69-1.36,1-2,1.08-2.09,2.16-4.18,3.22-6.29a151.87,151.87,0,0,0,7.13-15.71c.67-1.81-2.23-2.59-2.89-.8A156.88,156.88,0,0,1,223,30.29c-1,2-2.07,4-3.1,6-.49,1-1.76,2.74-.64,3.71a1.51,1.51,0,0,0,2.35-1.82c-3.85-8.1-7.06-16.48-10.67-24.68-.77-1.77-3.36-.24-2.59,1.51Z" fill="#fdf2ce"/></svg>