<svg
	xmlns="http://www.w3.org/2000/svg"
	width="179"
	height="89"
	overflow="visible"
>
<g>
	<path
		fill="e0894f"
		d="M48 28.5l-17-12s-32 4-31 21c0 0 11 22 31 21l17-9s-2-17 0-21z"
	/>
	<path
		d="M179 52.5s1 25-48 24-83-27-83-27-2-17 0-21c0 0 35-18 58-21s63-12 71 24c0 0-25.5 3.5-39.5 27.5 0 0 22 2 41.5-6.5z"
		fill="#c0644b"
	/>
	<path
		fill="e0894f"
		d="M120.5 33s1 15-2 18c0 0-25 13-38-9 0 0 12-27 40-9zM60.4 22.6L48.5 19h14l-7-6 14 2-6-7 14 3-6-7 13 5V0l8 11zM58.1 55.9L47.5 60h14l-7 5L70 62.1 62.5 71l18-4.5-9 10.5L86 68.5 81.5 77l14-6.8zM113.1 73.5L97.5 87l23 2 7.5-14z"
	/>
	<path
		fill="#f1faee"
		d="M169.5 56.5l1-9L172 57M162.5 57.5l1-11 1 12M156.5 58.5l2-10v11M150.5 58.5l1-7 1 8M145 59l.5-4.5 1 6M171.5 33l1 9 1.5-9.5M164.5 36l1 11 1-12M157.5 39l2 10V38M151.5 43l1 7 1-8M147 47.5l.5 4.5 1-6"
	/>
	<circle cx="156" cy="21.5" r="4.5" stroke="#f1faee" stroke-miterlimit="10" />
	<circle fill="#f1faee" cx="156.8" cy="20.2" r="1.2" />
	<path
		fill="#b46836"
		d="M96.2 52.7c4.3-.1 8.6-.7 12.7-1.6 4.1-.9 8.3-2.2 12-4.3 1.7-.9.2-3.5-1.5-2.6-3.5 1.9-7.4 3.1-11.3 4-3.9.9-7.9 1.5-11.9 1.5-2 0-2 3 0 3z"
	/>
	<path
		fill="#b46836"
		d="M89.3 49.1c10.2-.9 20.3-3.1 30.6-3.2 1.9 0 1.9-3 0-3-10.3 0-20.4 2.3-30.6 3.2-2 .1-2 3.1 0 3z"
	/>
	<path
		fill="#b46836"
		d="M82.8 43.1l37.6.3c1.9 0 1.9-3 0-3l-37.6-.3c-1.9 0-1.9 3 0 3z"
	/>
	<path
		fill="#b46836"
		d="M88.8 36.1c6.3 1.1 12.6 2.5 18.9 3.2 2.2.3 4.4.5 6.5.9 1.5.3 3.9.6 4.9 1.4 1.4 1.3 3.6-.8 2.1-2.1-1.4-1.2-3.4-1.7-5.2-2-2.4-.5-4.8-.8-7.3-1-6.4-.7-12.8-2.1-19.2-3.2-1.8-.4-2.6 2.5-.7 2.8z"
	/>
	<path
		fill="#b46836"
		d="M97.2 30.7c8.1.1 16.3 3.6 22.5 8.7 1.5 1.2 3.6-.9 2.1-2.1-6.9-5.6-15.7-9.5-24.6-9.5-1.9-.1-1.9 2.9 0 2.9zM2.9 38.7c15.3-1.3 30.6-1.3 45.9 0 1.9.2 1.9-2.8 0-3-15.3-1.3-30.6-1.3-45.9 0-1.9.2-2 3.2 0 3z"
	/>
	<path
		fill="#b46836"
		d="M8 32.6c6.6-.4 13.2.2 19.7 1 6.6.8 13.1 1.9 19.6 3 1.9.3 2.7-2.6.8-2.9-6.6-1.2-13.3-2.3-20-3.1-6.7-.8-13.4-1.4-20.1-1-1.9.1-1.9 3.1 0 3z"
	/>
	<path
		fill="#b46836"
		d="M20 26.4c2.1.2 4.2.8 6.2 1.4 2.3.7 4.6 1.4 6.8 2.1 4.5 1.4 9 2.7 13.4 4.1 1.9.6 2.6-2.3.8-2.9-4.6-1.4-9.3-2.8-13.9-4.2-4.4-1.3-8.8-3.1-13.4-3.5-1.8-.1-1.8 2.9.1 3zM9.3 45.4c6.5.7 12.6-2.2 18.9-3.4 6.4-1.2 12.9-1.6 19.2-3.6 1.8-.6 1-3.5-.8-2.9-6.1 2-12.4 2.4-18.7 3.5-6.2 1.1-12.2 4.1-18.6 3.4-1.9-.2-1.9 2.8 0 3z"
	/>
	<path
		fill="#b46836"
		d="M20.4 51.5c9.5-4.4 20.4-6.1 28.7-12.9 1.5-1.2-.6-3.3-2.1-2.1-3.9 3.2-8.8 5.2-13.6 6.9-4.9 1.8-9.8 3.3-14.5 5.5-1.7.8-.2 3.4 1.5 2.6z"
	/>
	<path
		fill="#b46836"
		d="M32.8 52.6c5.9-4.5 13.1-7.4 18.4-12.7 1.4-1.4-.8-3.5-2.1-2.1C44 42.9 37 45.7 31.3 50c-.6.5-1 1.3-.5 2.1.4.6 1.4 1 2 .5zM110 84.9c.3-.4.7-.8 1-1.3.4-.4.7-.8 1.1-1.2.7-.7 1.5-1.3 2.3-2 1.7-1.5 3.2-3.2 4.3-5.2.4-.7.2-1.7-.5-2.1-.7-.4-1.6-.2-2.1.5-.6 1.1-1.1 1.8-1.9 2.7-.7.7-1.4 1.4-2.2 2.1-1.7 1.5-3.3 3-4.7 4.9-.5.6-.1 1.7.5 2.1.9.4 1.7.1 2.2-.5z"
	/>
	<path
		fill="#b46836"
		d="M115.4 86.4c2.1-3.7 4.8-7.1 6.4-11 .3-.8-.3-1.6-1-1.8-.9-.2-1.5.3-1.8 1-1.5 3.6-4.1 6.9-6.1 10.3-.4.7-.2 1.6.5 2.1.6.4 1.6.1 2-.6z"
	/>
	<path
		fill="#b46836"
		d="M121.6 84.8c1.6-2.8 1.5-6 2.3-9.1.2-.8-.2-1.7-1-1.8-.8-.2-1.6.2-1.8 1-.4 1.4-.5 2.9-.8 4.4-.1.7-.3 1.4-.5 2.2-.1.4-.2.7-.4 1.1 0 0-.1.3 0 .1.1-.2 0 .1-.1.1-.1.2-.2.3-.3.5-.4.7-.2 1.7.5 2.1.7.3 1.7.2 2.1-.6z"
	/>
	<path
		fill="#874030"
		d="M130.7 35.6c.2-3.1.6-6.2 1.2-9.3.5-2.5.8-5.6 2.5-7.6.5-.6.6-1.5 0-2.1-.5-.5-1.6-.6-2.1 0-2 2.4-2.6 5.6-3.2 8.6-.7 3.5-1.1 7-1.3 10.5-.3 1.9 2.7 1.9 2.9-.1z"
	/>
	<path
		fill="#874030"
		d="M131.5 37.4c3-4.1 6.1-8.2 9.3-12.2.5-.6.6-1.5 0-2.1-.5-.5-1.6-.6-2.1 0-3.3 4.2-6.6 8.5-9.7 12.8-.5.7-.1 1.7.5 2.1.7.3 1.5 0 2-.6z"
	/>
	</g>
</svg>
