<svg
	xmlns="http://www.w3.org/2000/svg"
	width="204.5"
	height="132.1"
	overflow="visible"
>
<g>
	<path
		fill="#f1faee"
		d="M11.2 74.6c15.7 17.1 33.5 32.4 52.4 45.9 5.1 3.6 10.4 7.1 15.7 10.4 1.5.9 2.9-1.1 1.8-2.4-6.9-8-14.3-15.5-21.9-22.9-3.5-3.4-7.1-6.8-10.7-10.1-4-3.6-7.7-7.5-10.8-11.9-3.3-4.9-5.8-10.4-6.3-16.4-.2-1.9-3.2-1.9-3 0 .9 11.1 7.5 20.4 15.3 27.9 3.7 3.6 7.6 7 11.3 10.6 4.1 3.9 8.1 7.9 12 11.9 4.1 4.2 8.1 8.5 11.9 12.9l1.8-2.4C61.1 116.2 43 101.6 26.4 85.8c-4.5-4.3-9-8.8-13.2-13.4-1.2-1.3-3.3.8-2 2.2z"
	/>
	<path
		fill="#f1faee"
		d="M39.7 34.7c7.3 11 13.3 22.9 18.6 35 5.6 12.9 10.5 26.1 14.7 39.5 2 6.8 4 13.8 5.6 20.8.4 1.9 3.3 1.1 2.9-.8-3.1-13-7-25.7-11.6-38.2-4.8-13.3-10.3-26.4-16.8-39-3.3-6.4-6.9-12.8-10.9-18.8-1-1.6-3.6-.1-2.5 1.5zM67.2 36.3C64.7 64.5 78.7 90.5 93 113.7c3.7 6 7.6 11.9 11.7 17.7 1.1 1.5 3.6.1 2.6-1.5-6-9.4-10.6-19.7-14.1-30.3-3.6-11-6.1-22.3-7-33.9-.5-6.1-.6-12.3-.1-18.4.2-1.9-2.8-1.9-3 0-1 11.4.1 22.8 2.2 34 2.2 11.5 5.7 22.7 10.5 33.4 2.6 5.8 5.5 11.3 8.9 16.6.9-.5 1.7-1 2.6-1.5-7.4-10.4-14.2-21.2-20.3-32.4-6.5-11.7-12.2-23.8-15.1-37-1.7-7.9-2.4-16.1-1.7-24.2.2-1.8-2.8-1.8-3 .1z"
	/>
	<path
		fill="#f1faee"
		d="M50.5 68.8c.4 5.5 3.7 10.4 6.6 14.9 2.9 4.7 6.1 9.2 9.5 13.5 7 8.9 14.9 17.1 23.7 24.3 4.7 3.8 9.7 7.4 15 10.4 1.7 1 3.2-1.6 1.5-2.6-9.2-5.3-17.5-12.1-25-19.6-7.6-7.6-14.5-15.9-20.4-24.9-1.6-2.4-3-4.8-4.4-7.2-1.6-2.7-3.2-5.6-3.4-8.8-.2-1.9-3.2-1.9-3.1 0z"
	/>
	<path
		fill="#f1faee"
		d="M103.4 125.5c6.9-6.3 11.5-15 15.5-23.4 4.7-9.8 8.7-20 12.7-30.1 2.5-6.3 4.8-12.7 6.9-19.2.6-1.8-2.3-2.6-2.9-.8-3.6 11.3-8 22.3-12.6 33.2-3.7 8.9-7.4 17.8-12.4 26.1-2.6 4.3-5.5 8.6-9.3 12-1.5 1.4.7 3.5 2.1 2.2zM81.5 130C85 104.5 95.9 80.8 100 55.5c1.1-7 1.8-14.1 1.5-21.3-.1-1.9-3.1-1.9-3 0 .9 25.6-9.2 49.7-15.6 74-1.8 6.9-3.4 13.9-4.3 21-.1.8.2 1.6 1 1.8.8.2 1.8-.2 1.9-1z"
	/>
	<path
		fill="#f1faee"
		d="M118.7 130.1c-2-13.7-3.1-27.6-2.9-41.5.2-14.2 1.6-28.4 5.3-42.1 2-7.3 4.6-14.4 8.2-21.1.9-1.7-1.7-3.2-2.6-1.5-6.6 12.3-10.2 26-12.1 39.8-2 14.5-2.2 29.2-1.2 43.8.5 7.8 1.4 15.6 2.5 23.3.2 2 3.1 1.2 2.8-.7z"
	/>
	<path
		fill="#f1faee"
		d="M106.8 131.9c21.6-12.9 40.3-30.5 54.4-51.3 4-5.9 7.6-12 10.9-18.4.9-1.7-1.7-3.2-2.6-1.5-11.3 22.1-27.4 41.5-46.9 56.8-5.5 4.3-11.3 8.3-17.3 11.8-1.7 1-.2 3.6 1.5 2.6zM117.2 132c7.1.1 13.8-2.7 19.8-6.3 6.7-4 12.8-9 19.2-13.5 8.9-6.4 16.9-14 24.9-21.5 3.6-3.3 7.1-6.7 10.5-10.2 1.3-1.4-.8-3.5-2.1-2.1-6.8 7.1-14.1 13.7-21.4 20.1-3.8 3.4-7.7 6.8-11.8 9.9-5.6 4.3-11.4 8.6-17.3 12.5-6.5 4.3-13.8 8.2-21.8 8.1-1.9 0-1.9 3 0 3z"
	/>
	<path
		fill="#f1faee"
		d="M119 130.3c6.6-14.8 16.7-27.6 24.7-41.6 3.5-6.1 6.7-12.5 8.6-19.2 1.6-6.1 2.7-12.3 3.6-18.5.9-5.6 1.5-11.2 2.5-16.7.3-1.9-2.6-2.7-2.9-.8-1.8 11-2.9 22.1-5.5 33-1.6 6.5-4.3 12.5-7.5 18.3-4 7.3-8.5 14.2-13 21.2-4.7 7.4-9.5 14.9-13.1 23-.7 1.6 1.9 3.1 2.6 1.3z"
	/>
	<path
		fill="#dc5a42"
		d="M9.3 73.7c-.4 1-1.9.4-2.6-.4C1.1 67.5-.1 58.8 0 50.7c4.9.4 9.2 3.8 11.3 8.2s2.1 9.6.7 14.3M27.8 68.7c-1.8-4.1-3.4-8.3-3.7-12.7-.3-4.4.8-9.1 3.8-12.4 4.6 3.9 7.4 9.8 7.6 15.8.1 3.7-1.2 7.9-4.7 9.1M38.4 33c-3.9.2-9.3-1.6-11-5-1-2-1.3-4.3-1.6-6.6-.5-3.7-1-7.3-1.5-11 2.8 1.3 5.6 2.9 8.1 4.7 1.5 1.1 3 2.3 4 3.8 2.8 3.9 2.4 9.2 2 14.1M50.8 69.5c-4.8-6.2-9.3-9.4.5-25.2 2.1 3.5 3.8 7.3 4.9 11.2.8 2.7 1.4 5.5.8 8.3-.6 2.7-3.6 5.3-6.3 5.9M75 22.7c-.4-3.8-1.9-7.3-3.5-10.7-3.6 4.9-8.1 8.3-7.9 14.4 0 1.1 4.3 9.1 5.4 8.9.1-.1 6.4-8.9 6-12.6zM100.6 34.4c-1.8 1.2-4.4 0-5.5-1.9-1.1-1.9-1.1-4.1-1.1-6.3 0-4.6.1-9.1.2-13.7 3.4 3.6 6.3 7.7 8.4 12.2 1.5 3.2 2.4 7.5-.3 9.9M84.7 48.5c-6.5-6.8-6.2-10.9.4-22.5 1.3 3.7 4.8 6.2 5.9 11.1.5 2.1-3.6 10.1-5.3 11.4M127.6 25.1c-3-8.2 2.3-20.2 9.5-25.1 2.4 7.1 3.3 20.2-9.5 25.1M134.8 54.5c-2 .6-3.2-2.1-3.4-4.1-.6-6.3.9-12.8 4.1-18.3 3.3 3.3 6.7 6.8 7.6 11.4s-1.6 10.1-6.2 10.6M156.9 33.8c-2.1 0-3.4-2.3-4-4.3-2-6.9-1.5-14.4 1.6-20.9 3 3.1 5.3 6.9 6.8 11 1.7 4.7 1.9 10.7-2.1 13.7M170.1 63.3c-2.2-6.3 4.7-17 10.5-20.3.6 3.3 1.1 6.7.6 10-.5 3.3-2.4 8.4-11 10.3M191.1 78.5c-.6-3 1.3-6.1 4-7.8 2.6-1.7 5.8-2.3 8.8-2.8 1.3 3.5.4 7.7-2.3 10.3-2.7 2.6-6.9 3.4-10.4 2"
	/>
	</g>
</svg>
