<svg
	xmlns="http://www.w3.org/2000/svg"
	width="166.2"
	height="131.4"
	overflow="visible"
>
<g>
	<path
		fill="#46834f"
		d="M108.3 9.2c7 2.7 14.6 3.8 22 2.3 2.3-.5 4.5-1.2 6.5-2.3 1.1-.6 2.5-1.4 3.1-2.6.9-1.7-1.7-3.2-2.6-1.5-.2.4.1 0-.1.2-.1.1-.5.4-.4.4-.3.3-1.2.8-1.7 1.1-1.8.9-3.8 1.5-5.8 1.9-6.8 1.4-13.7.1-20.1-2.3-1.9-.7-2.7 2.2-.9 2.8z"
	/>
	<path
		fill="#f1faee"
		d="M100.6 114.9c.9 0-.9-2.9-1.6-3.5-.6.5-1.2 1-1.8 1.4l-1.8-2.1c-.8.7-1.5 1.5-2.3 2.2-.4-1-1-2-1.8-2.9-.9.9-1.7 1.9-2.6 2.8-1.1-1.2-1.9-2.6-2.3-4.2-.9.8-1.8 1.7-2.7 2.5-.2.2-.5.4-.8.4-.4 0-.7-.5-.9-.9-.4-.9-.8-1.8-1-2.7-1 .9-1.2.9-2.2 1.5-1 .5-1.4 1.4-2 .4-.5-.9-2.1-3.3-2.9-3.9-1.3 1.1-1.7 1.9-3.3 2.4-.3-1.2-1.6-2.5-1.9-3.7-1.7.8-2.4 1.6-4 2.4-.5-1.9-.8-2.9-.8-4.8-1.3.9-2.6 1.9-3.9 2.8 0-1.3-.9-3.2-1.3-4.4-2 1-2.4 1.6-4.5 2.1-.2-1.6-1.3-2.4-1.5-4-1.5.8-2 1.4-3.7 1.8-.2-.8-.4-2.7-.6-3.5-1.2.6-2.3 1.8-3.5 2.3-.5.2-.2-3.3-.6-3.6-.3-.2-2.4 2.4-2.4 2.1-.3-1.3-.6-2.5-.9-3.8-1 .7-2.2 1.4-3.4 1.8v-3.9c-1.6.6-3.2 1.3-4.9 1.9-.1-1.2-.3-2.3-.4-3.5-1 .4-3.7 1.3-4 1.3-.6-.1-.8-2.9-1.1-3.5-.8.1-2.6 1.1-3.4 1.3-.7.2-1.2-2.5-1.6-3.5-.8.7-3.1 1.7-3.6 1.5-.5-.2-1-2.4-1-3.6-.7.7-2.2 1.7-2.9 2.4.1.2 45.7 27.2 85.9 28.7zM14.5 55.1c-.6-.1.3 2.5.3 3.1 0 .2 0 .4.2.5.2.2.6.1.8-.1 1.5-.8 2-.7 3.6-1.5-.4 1.9.2 2.8-.2 4.7 2.3-.1 4.6-.9 6.4-2.3-.1 1.1-.1 2.2-.2 3.3 0 .4 0 .8.3 1 .3.2.8.1 1.2-.1 1-.4 1.9-.9 2.9-1.3-.4 1.2-.7 2.3-1.1 3.5 2.3.2 4.7-.4 6.6-1.8-.3 1-.6 3.1-.9 4.1-.1.3-.1.5 0 .8.2.2.5.3.8.3.8-.1 3.1-1.1 4.6-1.4-.2 1-.3 1.9-.5 2.9 0 .2-.1.5.1.6.2.2.5.1.7 0 1.4-.4 2.8-.9 4.1-1.3-.1 1-.1 2-.1 3 0 .5.2 1 .6 1.2.2.1.5 0 .7-.1 1.1-.5 2.3-.9 3.4-1.4-.1 1.2 0 2.5.3 3.7 1.2-.6 2.6-1.1 4-1.4l.9 4.8c1.2-.6 2.3-1.2 3.5-1.8.4 1 .3 3.5.5 3.5.2.1 3.5-1.1 4.4-1.5-.1 1.4-.4 3.7.3 3.7 1.1 0 3.1 0 4.1-.5-.2.9.2 2.8.8 3.4.6.6 4.7-2 4.9-1.4.1.2-.6 4.3.7 4.3 1.2 0 3.6-.7 4.6-1.3-.5 1.1.6 4.2.6 4.2s3-1 3.5-2.1c.2 1.6.5 3.2.7 4.8 1.1-.5 2.3-1.8 3.4-2.2 0 .9-.1 3.6-.1 4.5 1 0 3.2-1.5 3.9-2.1-.1.1-62.5-39.1-75.3-40.3z"
	/>
	<path
		fill="#46834f"
		d="M29.1 103c2.7 1 5.2 2.5 7.3 4.5 3.8 3.7 4.3 12.4 9.7 12.4 9.5.1 20.6 5.3 31.8 9.6 11.6 4.4 25.5 0 35.6-1.3 8-1.1 15.1-7.6 14.4-15.6-.2-2-.7-4.1-.4-6.1.3-2.1 1.5-4 2.7-5.8 2.3-3.6 4.7-7.3 7-10.9.7-1.1 1.5-2.3 2.5-3 1.2-.9 2.8-1.2 4.2-1.6 7.9-2.4 13.5-9.3 17.5-16.5 3.1-5.7 5.5-12.2 4.8-18.7-1.2-11-11.2-19.2-21.8-22.4-10.6-3.1-21.8-2.2-32.9-1.9-15.7.4-51.4 1.7-50.7-3.9 1.2-9 45.1-2.1 61.7-2.2 6.4 0 35.4-.2 37.1-12.8.4-2.7-2-7.3-10.3-6.4-4.3.5-11.5 2.7-12.2 5.2-.6 2.4 1.3 2.1 3.8 1.5 2.5-.6 6.3-2.8 8.7-3.6s7.5-.6 7.1 3.8c-.1 1.6-3.6 4.4-5 5.1-11.4 5.9-28.9 5.3-43.5 2.6s-29.9-6.8-44-2c-5.5 1.9-10.9 6.3-10.7 12.2.8 17.4 70.1 17.5 71.8 22.9 1.1 3.6-12.2 6.3-14.1 6.4-20.1 1.6-32.9-2.3-52.9-4.7S17.7 41.4 0 52.3c7.1 2.2 14.6 2.4 21.3 5.7 10 4.8 17.3 7.3 25.1 12.5 22.5 14.8 52.2 26.1 70.3 46.2-34.9-2.8-74.6-14-104.7-32 0 .1 12 16.4 17.1 18.3z"
	/>
	<path
		d="M14.5 52.4c1.2.8 2.9.8 4-.1 1.1-1 1.1-2.9-.1-3.7-.4-.3-2.8-.9-4 .4-.1 0-2.1 2 .1 3.4z"
		fill="#b1cf4b"
	/>
	<path
		d="M15.3 50.1c.2-.7 1.1-.7 1.6-.5.2.1.8.4.7 1-.1.8-.7 1-1.3 1 .1 0-1.3-.2-1-1.5z"
	/>
	<path
		d="M142 14.2c-8.4.7-16.9.2-25.3-.5-8.6-.6-17.1-1.5-25.7-2.5-6-.7-12-1.5-18.2-1.3-4.4.2-9 .8-13.1 2.6-2.3 1-4.8 2.7-5.6 5.3-1.8 6.1 6.1 8.1 10.4 9C75 29.1 86 29.3 96.7 28.9c6.7-.3 13.4-1 20.1-.9 6.6 0 13.2.3 19.8.8 3.3.2 6.7 1 9.9 2 1.7.5 3.4 1.2 4.9 2.1 1 .6 2.1 1.4 2.3 2.4.4 2-1.3 4.2-2.8 5.6-1.8 1.6-4 2.7-6.1 3.8-4.3 2.1-8.9 3.6-13.5 4.7-9.9 2.5-20.1 3.6-30.3 4-2.2.1-4.4.1-6.6.1-1.9 0-1.9 3 0 3 9.9 0 19.8-.8 29.5-2.5 5.1-.9 10.1-2.1 15-3.8 4.3-1.5 8.7-3.2 12.5-5.9 3.2-2.3 7.2-7 4.8-11.2-1.7-2.9-5.6-4.2-8.6-5.2-3.4-1.1-7-1.8-10.5-2.1-6.2-.6-12.5-.8-18.8-.9-6.8-.1-13.4.5-20.2.9-6 .3-12 .3-18-.1-4.9-.3-9.8-.8-14.5-1.8-1.7-.4-3.4-.8-5-1.4-.6-.2-1.1-.4-1.7-.7-.2-.1-.5-.2-.7-.4-.1-.1-.7-.4-.5-.3-.2-.1-.3-.3-.5-.4-.3-.3.1.2 0 0-.1-.1-.1-.2-.1-.2s-.1-.1-.1-.4c0-.1 0-.2-.1-.3-.1-.3 0-.2 0-.2 0-.8.2-1.4.7-2.1 1.9-2.3 5.3-3.2 8-3.8 6.8-1.5 13.7-.9 20.5-.1 16.7 1.9 33.5 4.1 50.3 3.8 1.8 0 3.7-.1 5.5-.3 2-.1 2.1-3.1.1-2.9z"
		fill="#77ab43"
	/>
	</g>
</svg>
