<svg xmlns="http://www.w3.org/2000/svg" viewBox="0 0 285.1 222" overflow="visible"><style>.st3{fill:#fdf2ce}</style><path d="M129.8 166c20.2 18.8 49.3 25.9 76.8 23.8 27.5-2 53.8-12.3 78.4-24.7-51.8 7.8-106-8.2-152.4-32.5 48.9-.8 97.5-11.6 135.5-42.4-51.2 18.8-108.3 15.9-157.3-8-11.3-20.8-17.7-51.5-32.3-69.4C78.4 12.7 70.3 3 57 .7 37.9-2.6 11.5 5.2 3.9 27.9 2 33.4.5 52.9.6 57.1c0 2.4-1.3 6.7 0 8.8 1.7 2.9 6.5.8 9.1.2 4.9-1.1 9.7-2.4 14.5-3.9 2.3-.7 27.6-10.2 27.2-10.9.9 1.8.6 3.9-.4 5.7-11.3 21.9-21.2 31.9-20.1 33.7 1.3 2.3 11.8 5 13.1 7.9 5.4 12.2 6.7 27.2 10.5 41 0 0 12 52.9 71.4 73.9 27.6 9.7 61.1 11.1 89.5 3.9-33.3-6.7-64-25.2-85.6-51.4z" fill="#030c21" opacity=".7"/><path d="M39.6 19.4c1.4-1.1 3.3.5 2.4 2.1C34.9 34 23.3 48.3 22.8 48.4c-1 .2-9-5.5-7.2-14.1.1-.5.5-.9.9-1.1 2.8-1.2 13.3-6.1 23.1-13.8z" fill="#ffc800"/><path class="st3" d="M35 58.2c0 3.2-1.2 6.7-1.4 9.9-2.2-2-5.6-3.9-7.3-6.3-.4 3.3-.6 6.7-.5 10-1.9-2.4-6.1-4.3-8.3-6.4-.3 4-1.2 6.2-1.8 10.1-2-3.3-4.4-6.3-7.1-9-.1 0 26.4-9.1 26.4-8.3zM32 87.8c4.8-6.1 10.7-15.5 14.3-22.4-2.9-.8-6.2-.7-9.7-.9 1.2 2.5 2.5 5 3.7 7.4-2.3-.4-5.4-.2-7.8 0 1.2 2.9 1.7 5.1 2.9 7.9-2.3-.1-8.2-1-8.4-.8-.2.5 5 8.8 5 8.8z"/></svg>