<svg xmlns="http://www.w3.org/2000/svg" viewBox="0 0 99.4 99.4" overflow="visible"><style>.st0{fill:#ffc800}</style><path class="st0" d="M49.7 7.6c23.5 0 42.6 19.1 42.6 42.6S73.2 92.8 49.7 92.8 7.1 73.7 7.1 50.2 26.2 7.6 49.7 7.6zm0-1.8C25.2 5.8 5.3 25.7 5.3 50.2s19.9 44.4 44.4 44.4 44.4-19.9 44.4-44.4S74.2 5.8 49.7 5.8z"/><path class="st0" d="M49.7 99.4c-.5 0-.9-.4-.9-.9V.9c0-.5.4-.9.9-.9s.9.4.9.9v97.6c0 .5-.4.9-.9.9z"/><path class="st0" d="M98.5 50.6H.9c-.5 0-.9-.4-.9-.9s.4-.9.9-.9h97.6c.5 0 .9.4.9.9s-.4.9-.9.9z"/><path class="st0" d="M49.7 61.6c-6.3 0-11.4-5.1-11.4-11.4 0-6.3 5.1-11.4 11.4-11.4 6.3 0 11.4 5.1 11.4 11.4 0 6.3-5.1 11.4-11.4 11.4zm0-21.9c-5.8 0-10.5 4.7-10.5 10.5s4.7 10.5 10.5 10.5S60.2 56 60.2 50.2s-4.7-10.5-10.5-10.5z"/><circle transform="rotate(-80.008 49.715 50.208)" class="st0" cx="49.7" cy="50.2" r="7.9"/><path class="st0" d="M49.7 72.2c-12.1 0-22-9.9-22-22s9.9-22 22-22 22 9.9 22 22-9.9 22-22 22zm0-43.1c-11.6 0-21.1 9.5-21.1 21.1 0 11.6 9.5 21.1 21.1 21.1 11.6 0 21.1-9.5 21.1-21.1 0-11.6-9.5-21.1-21.1-21.1z"/></svg>