<svg
	xmlns="http://www.w3.org/2000/svg"
	width="167.3"
	height="102.2"
	overflow="visible"
>
	<path
		fill="#f1faee"
		d="M15.9 9.1c2.4-.6 4.7-1.3 7-2 2.3-.6 4.7-1.4 7.1-1.4 1.9 0 4.1.4 5.1 1.8.9 1.2 1.1 2.6 1 4.1 0 .7-.2 1.3-.4 2.1 0 .1-.1.3-.1.4-.1.2-.2.4 0 .1l-.3.6c-1.1 1.6 1.5 3.1 2.6 1.5.8-1.1 1.1-2.7 1.3-4.1.2-1.9 0-3.9-.9-5.6-2.7-5.1-9.3-4.1-13.8-3-3.1.8-6.1 1.7-9.2 2.5-2 .6-1.2 3.5.6 3z"
	/>
	<path
		d="M18.3 6.3c1.7.1-3.8 4.6-4.2 4.9-.6.4-1.3.8-1.9 1.2-1.9 1.1-3.9 2.4-6.2 2.6s-4.8-.6-5.7-2.7c-.8-1.8-.1-4.1 1.4-5.4S5.3 5 7.3 5s4 .3 6 .6c0 0 3 .6 5 .7z"
		fill="#70ee49"
	/>
	<path
		fill="#f1faee"
		d="M104.3 69.4c4.6.4 9.3.2 13.9-.5-.3-.9-1.1-1.7-2.1-1.9 2.2-.1 4.4-.4 6.5-1-.8-.8-1.6-1.6-2.3-2.4 2.9-.6 5.9-.9 8.9-.9-1.7-.6-3.2-1.7-4.4-3.1l10.8-.9c-1.7-1.7-3.9-2.9-6.2-3.6 6.2.7 12.4 1 18.6.9 3.5-.1 7.2-.3 10-2.3-1.7-.7-3.3-1.8-4.4-3.3 2.6-.4 5.2-.8 7.7-1.2-1.2-1-2.3-2.1-3.3-3.3 2.1-1.4 4.4-2.2 6.9-2.5-3.3.2-6.6.1-9.9-.4 3.8-2.3 7.9-3.9 12.2-4.9-4.6-.9-9.3-1.1-13.9-.5 2-1.3 4.3-2.2 6.6-2.8-8.7-.8-16.7 5-25.4 5.7 3-1.7 5.7-3.8 8.1-6.3-5.3.3-10.5 1.6-15.4 3.7 2.4-1.9 4.9-3.7 7.3-5.6l-12 2.1c2.6-2.2 5.3-4.5 7.9-6.7-4.7 2.7-9.6 4.9-14.7 6.6.3-1.9.6-3.9 1-5.8-2.6.6-5.1 1.4-7.6 2.3 1.6-1.8 3.2-3.7 4.8-5.5-2.1-.9-4.7-.5-6.5.9-.6.4-1.1 1-1.8 1s-1.4-1-.8-1.4c-.7.3-1.4.5-2.1.8"
	/>
	<path
		fill="#bf8e5e"
		d="M44.5 71c-5.2 1.4-8.2 6.4-11.5 10.7-4.2 5.5-9.5 10.1-15.4 13.6 3.7 4.8 10.3 6.1 16.4 6.6 14.8 1.1 30.4-1.6 42.5-10.2 13-9.4 21.5-25.2 36.5-30.9 4.9-1.9 10.3-2.6 14.5-5.7 4.2-3.1 6.2-10.1 2.2-13.5-2.3-2-5.7-1.9-8.7-2.5-13.8-2.6-21.4-19.1-35.1-22.7-3.5-.9-7.1-.9-10.7-1.5-7.6-1.2-14.8-5-22.6-5.2-10.6-.1-20 6.5-28.6 12.8-1.6 1.2-4.3 3.5-4.9 5.4-.8 2.6 1.7 4.2 3.2 6.5 7.7 11.9 15.3 23.7 23 35.5"
	/>
	<path
		fill="#f1faee"
		d="M39.9 32.1s-4.9.9-8-.8c-2.7-1.5-3.3-2.7-3.7-4.5s.2-3.9 1.6-4.8c1.5-1 4-.4 5.1 1.9.2 0 2.2 7.5 5 8.2z"
	/>
	<path
		fill="#3d2412"
		d="M39.5 30.6h-.1-.1c-.3.1.1 0 .1 0-.5 0-1 .1-1.5.1h-2.7-.1c-.4-.1-.7-.1-1.1-.2-.2 0-.3-.1-.5-.1-.1 0-.2-.1-.2-.1-.3-.1.2.1-.1 0-.4-.2-.8-.4-1.1-.6-.7-.4-1-.6-1.5-1.2-.1-.1-.2-.3-.1-.1-.1-.1-.1-.2-.2-.3-.1-.1-.1-.3-.2-.4-.1-.1 0 .1 0 .1 0-.1-.1-.1-.1-.2-.1-.2-.2-.5-.2-.8 0-.1-.1-.5-.1-.2V26v-.6-.2c0-.2.1-.4.1-.6 0-.1.1-.2.1-.2-.1.2 0 0 0-.1.1-.2.2-.3.3-.5.1-.2 0 0 0 0 0-.1.1-.1.2-.2l.2-.2c-.1 0-.2.1 0 0 .1 0 .4-.2.3-.1-.2.1.2-.1.3-.1.3-.1-.2 0 .1 0h.4c.3 0 0 0 0 0 .1 0 .2 0 .3.1.1 0 .3.1.4.1-.3-.1.1.1.2.1s.4.2.3.2l.1.1.2.2.2.2s-.1-.2 0 0l.3.5s-.1-.4-.1-.1c.1.2.1.4.2.7.3.8.6 1.7.9 2.5.9 2.2 2.3 5.3 4.9 6 .8.2 1.7-.3 2-1.1.2-.8-.3-1.7-1.1-2-.1 0-.4-.1-.1 0 .3.1-.1 0-.1-.1-.1-.1-.3-.3-.1 0l-.3-.3c-.2-.2-.3-.4-.5-.6l-.1-.1c-.1-.1-.2-.3-.3-.4-.3-.5-.6-1-.9-1.6-.1-.1-.1-.3-.2-.4 0-.1-.2-.4-.1-.3.1.2-.1-.2-.1-.3-.1-.2-.1-.3-.2-.5-.3-.8-.6-1.5-.8-2.3-.4-1.2-1.3-2.3-2.4-3-1.4-.9-3.3-1-4.8-.3-1.8.9-2.6 2.8-2.8 4.7-.2 1.5.2 3.2 1 4.4.9 1.4 2.4 2.6 3.9 3.3 2.7 1.3 5.9 1.3 8.8.8.8-.2 1.3-1.2 1.1-2-.3-.9-1.1-1.3-2-1.1z"
	/>
	<path
		fill="#3d2412"
		d="M30.1 24.1c.1-.1.1-.2.2-.3.1-.2-.1.2 0 0s.3-.3.4-.5l.2-.2.1-.1c-.2.1.1-.1.2-.1s.1-.1.2-.1c.2-.1.3-.2.5-.3.2-.1-.3.1 0 0 .1 0 .2-.1.2-.1.2-.1.4-.1.6-.2.2 0 .1 0 0 0h1.4.1c.1 0 .2 0 .3.1.2 0 .4.1.6.2.2.1.4.1.6.2.1 0 .2.1.3.1-.2-.1.1 0 .1.1.5.2 1 .5 1.4.8.7.4 1.8.2 2.2-.6.4-.8.2-1.7-.6-2.2-1.9-1.2-4.2-2.1-6.5-1.8-2.3.2-4.2 1.5-5.5 3.4-.5.7-.2 1.8.6 2.2 1.1.4 2 .2 2.4-.6zM87.8 47.8c.5 4.8.6 9.7-.2 14.4-.8 4.5-2.3 8.8-4.1 13.1-.7 1.8 2.2 2.6 2.9.8 1.8-4.3 3.4-8.8 4.2-13.4.8-4.9.8-9.9.3-14.9-.3-1.9-3.3-1.9-3.1 0zM81.8 47.8c1 10.9-2.2 21.5-6.3 31.5-.3.8.3 1.6 1 1.8.9.2 1.5-.3 1.8-1 4.3-10.2 7.5-21.1 6.4-32.3-.1-1.9-3.1-1.9-2.9 0zM94.4 47.6c.8 7.1.4 14.2-1.5 21.1-.5 1.9 2.4 2.7 2.9.8 1.9-7.1 2.5-14.6 1.6-21.9-.1-.8-.6-1.5-1.5-1.5-.8 0-1.6.7-1.5 1.5z"
	/>
	<path
		fill="#f1faee"
		d="M102.4 45.3c.8 5.6.1 11.3-1.9 16.5-.3.8.3 1.6 1 1.8.8.2 1.6-.3 1.8-1 2.1-5.8 2.7-12 1.9-18.1-.1-.8-1.1-1.2-1.8-1-.8.2-1.1 1-1 1.8zM54.8 17.4c0-1.9-7-11.7-6.9-13.6 1.2 1.7 4.5 2.2 6 3.6.8-2 1.7-4 2.5-6.1.1 2 .1 3.9.2 5.9 1-2 1.9-4 2.6-6.1.1 2.6.2 5.2.3 7.9 1.8-3 3.5-6 5.1-9.1l-.6 9c.4.1.8-.3 1-.7 1.6-2.3 3.1-4.6 4.7-7-.6 2.8-1.1 5.4-1.7 8.1 1.7-1.4 3.3-2.8 5-4.2-.4 1.2-.8 2.4-1.1 3.6-.1.2-.1.4 0 .6.2.4.9.2 1.2-.2.9-.8 1.7-1.6 2.6-2.4-.2 1.8-.8 7.5-1.6 9.1M21.4 93.1c-1.9-.2-3.1-2.2-3.7-4-1.6-4.7-1.3-10 .7-14.6-.3 3-.5 6.1.1 9.2.6 3 1.9 6 4.3 7.9"
	/>
	<path
		fill="#f1faee"
		d="M24.5 90.5c-1.9-.2-3.1-2.2-3.7-4-1.6-4.7-1.3-10 .7-14.6-.3 3-.5 6.1.1 9.2.6 3 1.9 6 4.3 7.9M31.5 84.1c-1.7-.9-1.9-3.1-2-5-.1-2.9-.2-6.2 1.8-8.4-1.1 3.6-.8 8.8 2.2 11.1"
	/>
	<path
		fill="#f1faee"
		d="M34.3 80.9c-1.5-.8-1.7-2.8-1.8-4.5-.1-2.7-.1-5.7 1.6-7.6-1 3.3-.7 8 2 10.1M19.5 30.6c-1.3.1-3.5 4.6-4 8-.4 2.6-.8 6.6.3 8.9 0-5.1 2.5-11.2 5.5-15.3M23.4 35.5C21 40.4 19 48.1 20.9 53.2c.8-7.2 1.9-11 4.2-15.1M27.2 41.4c-1.2 3.2-1.5 5.9-1.1 10.3.1 1.3.2 2.8 1.2 3.7-.2-3.6.5-7.2 1.9-10.5"
	/>
	<path
		fill="#f1faee"
		d="M21.5 33.6c-1.3.1-3.5 4.6-4 8-.4 2.6-.8 6.6.3 8.9 0-5.1 2.5-11.2 5.5-15.3M25.4 38.5C23 43.4 21 51.1 22.9 56.2c.8-7.2 1.9-11 4.2-15.1M29.5 44.8C28.3 48 28 50.7 28.4 55c.1 1.3.2 2.8 1.2 3.7-.2-3.6.5-7.2 1.9-10.5M25.8 89.1c-2.4-4.4-4.3-11.2-2.1-15.6.7 6.3 1.7 9.7 4 13.4"
	/>
	<path
		fill="#f1faee"
		d="M28.6 86.7c-2.3-4.1-4.1-10.6-2-14.8.6 6 1.6 9.2 3.8 12.7"
	/>
	<path
		fill="#774b2a"
		d="M18.1 30.9c.1 1.4.8 2.6 1.4 3.8C26.5 47.3 35 59 44.9 69.5c-.8-4-3.4-7.3-5.9-10.6-6-8-11.2-16.7-16.5-25.3-1-1.7-2.1-3.4-3.1-5.2 0 0-1.5-.2-1.3 2.5z"
	/>
	<path
		fill="#774b2a"
		d="M42.6 58.1c4.2 4.8 5.5 11.6 4.6 17.9s-3.7 12.1-7 17.6c6.1-3.4 12.1-7.3 16.9-12.4s8.3-11.7 8.7-18.7c.3-5.3-1.1-11 1.3-15.7.7-1.3 1.6-2.5 2-3.9 1.2-4.3 1.2-8.1-.6-12.1-2.5-5.6 4.9-10.1 10.2-13.1-2.6-1-8.5-5.1-16.9-5-2.8 0-5.7.8-7.3 3.1-2.4 3.4-.9 8 .7 11.7 3.5 8.3 7.3 17.1 5.8 26-.4 2.2-1.2 4.5-2.9 6-1.3 1.1-2.9 1.6-4.6 1.8-3.9.4-8.1-1.1-10.7-4.1"
	/>
	<path
		fill="#774b2a"
		d="M71 26.2s-4.4 15.6 8.4 18.1c4.3.8 19.4-.1 22.6-1.7 3.8-1.9 7.8-3.2 11.9-4l-8.1-6.3c-5.2-4.1-10.6-8.3-16.7-10.8-9.2-4-17.2 1.3-18.1 4.7"
	/>
	<path
		fill="#3d2412"
		d="M32.5 28.1c1.1-.3 1.7-1.1 2.1-2.1.3-.8.4-1.7.1-2.5-.2-.5-.5-1-.9-1.4-.3-.3-.7-.6-1.1-.8-.9-.4-1.8-.6-2.8-.4-.9.2-1.7.8-2.2 1.5-.2.4-.4.8-.5 1.2-.1.2-.1.5-.1.7 0 .8.3 1.6.8 2.3.5.7 1.1 1.2 2 1.5.7.3 1.7.2 2.6 0 .8-.2 1.3-1.1 1-1.8-.3-.8-1-1.2-1.8-1-.2.1-.4.1-.6.1.1 0 .3 0 .4-.1h-.9c.1 0 .3 0 .4.1-.2 0-.4-.1-.6-.2.1.1.2.1.4.2-.2-.1-.3-.2-.5-.3.1.1.2.2.3.2-.1-.1-.3-.2-.4-.4.1.1.2.2.2.3l-.3-.6c.1.1.1.2.2.4-.1-.3-.2-.5-.2-.8 0 .1 0 .3.1.4v-.2c0 .1 0 .3-.1.4 0-.2.1-.4.2-.6-.1.1-.1.2-.2.4.1-.2.2-.4.3-.5-.1.1-.2.2-.2.3.1-.1.2-.3.4-.4-.1.1-.2.2-.3.2.2-.1.3-.2.5-.3-.1.1-.2.1-.4.2.2-.1.4-.1.6-.2-.1 0-.3 0-.4.1h.6c-.1 0-.3 0-.4-.1.2 0 .5.1.7.2-.1-.1-.2-.1-.4-.2.3.1.5.3.7.4-.1-.1-.2-.2-.3-.2.2.1.4.3.5.5-.1-.1-.2-.2-.2-.3.1.1.2.2.2.4-.1-.1-.1-.2-.2-.4.1.2.1.3.1.5 0-.1 0-.3-.1-.4v.6c0-.1 0-.3.1-.4 0 .2-.1.4-.2.7.1-.1.1-.2.2-.4-.1.2-.2.3-.3.5.1-.1.2-.2.2-.3l-.3.3c.1-.1.2-.2.3-.2-.1.1-.2.1-.3.2.1-.1.2-.1.4-.2-.1 0-.1 0-.2.1-.8.2-1.3 1.1-1 1.8.2.7.9 1.2 1.8 1z"
	/>
	<g>
		<path
			fill="#bf8e5e"
			d="M41.2 92.1c7.9 1.2 16.8 7.4 24.7 8.6-1-1.6-3-8.2-4-9.8 1.9-.6 3.9-1.3 5.8-1.9-.2-1.4-.8-2.7-1.6-3.7 1.9-1.2 3.8-2.5 5.6-3.7-1.1-.5-2.1-1.1-3.2-1.6 2.1-1 4.1-2.4 5.7-4.2-2.2-.6-4.4-1.3-6.6-1.9 2.9-.9 5.5-2.7 7.6-5.1-1-1.2-2.3-2-3.8-2.3 1.4-2 2.8-4.1 4.3-6.1-1-.6-2-1.2-2.9-1.8.9-1 1.8-2.1 2.6-3.1-1.2-.4-2.5-.8-3.3-1.9-.8-1.1-.5-3.1.7-3.4-.3-.4-.8-.6-1.3-.4.6-1.5 1.2-3.1 1.9-4.6-1.3.2-2.6-1-3-2.5-.4-1.5-.1-3 .2-4.5-2.9 3.7-5.3 7.9-7.1 12.4-.3.6-.5 1.3-.3 1.9.2.9 1.1 1.3 1.5 2.1 1.3 2.3-2 5.7-.5 7.9-1 3.7-2.3 7.2-4 10.6-3.9 8-9.8 15.2-17.3 18.9"
		/>
		<path
			fill="#774b2a"
			d="M40.8 93.4c8.7 1.4 16 7.2 24.7 8.6 1.1.2 2.1-.9 1.5-1.9-1.8-3-2.2-6.8-4-9.8-.3.6-.5 1.3-.8 1.9 1.9-.6 3.9-1.3 5.8-1.9.7-.2 1.1-.9.9-1.6-.3-1.5-.9-2.8-1.8-4-.2.6-.3 1.2-.5 1.8 1.9-1.2 3.8-2.5 5.6-3.7.8-.5.9-1.8 0-2.3-1.1-.5-2.1-1.1-3.2-1.6v2.3c2.3-1.1 4.3-2.5 6-4.4.7-.7.4-1.9-.6-2.2-2.2-.6-4.4-1.3-6.6-1.9v2.5c3.2-1 5.9-2.9 8.1-5.4.5-.6.5-1.3 0-1.8-1.1-1.3-2.6-2.2-4.3-2.6.3.6.5 1.3.8 1.9 1.4-2 2.8-4.1 4.3-6.1.4-.6.1-1.4-.5-1.8-1-.6-2-1.2-2.9-1.8l.3 2.1c.9-1 1.8-2.1 2.6-3.1.6-.7.4-1.9-.6-2.2-.6-.4-1.6-.6-2.2-1.3-.2-.2-.8-1.4-.2-1.7 1-.4 1.2-1.4.6-2.2-.6-.8-1.6-1-2.6-.8l1.6 1.6c.6-1.5 1.2-3.1 1.9-4.6.3-.8-.5-1.7-1.3-1.7-2.5.2-1.8-4-1.6-5.3.3-1.5-1.5-2.2-2.4-1-1.8 2.3-3.3 4.7-4.7 7.3-.7 1.3-1.3 2.5-1.9 3.8-.5 1.2-1.2 2.5-1 3.8.2 1.2 1 1.7 1.6 2.7.5.7.1 1.6-.1 2.4-.6 1.9-1.4 3.8-.3 5.7 0-.3-.1-.7-.1-1-3.1 11.4-9.7 23.2-20.7 28.7-1.5.8-.2 3 1.3 2.3 7.6-3.8 13.3-10.6 17.2-18.1 1.1-2.1 2.1-4.3 2.9-6.6.4-1.1.8-2.3 1.2-3.4.3-1 .8-2.1.5-3.2-.5-1.5.4-2.9.8-4.4.4-1.8.1-3.2-1.1-4.6-.5-.5-.7-.7-.5-1.4.2-.7.5-1.3.8-1.9.6-1.2 1.1-2.4 1.8-3.6 1.3-2.5 2.9-4.9 4.6-7.1-.8-.3-1.6-.7-2.4-1-.4 2-.7 4.1.2 6 .7 1.5 2.2 2.8 3.9 2.6-.4-.6-.8-1.1-1.3-1.7-.6 1.5-1.2 3.1-1.9 4.6-.4 1 .7 1.8 1.6 1.6v.1c.2-.7.4-1.5.6-2.2-1.8.7-2.4 2.6-1.9 4.4.6 2 2.6 2.9 4.5 3.4-.2-.7-.4-1.5-.6-2.2-.9 1-1.8 2.1-2.6 3.1-.6.6-.5 1.6.3 2.1 1 .6 2 1.2 2.9 1.8-.2-.6-.3-1.2-.5-1.8-1.4 2-2.8 4.1-4.3 6.1-.5.7 0 1.7.8 1.9 1.3.3 2.3.9 3.2 1.9v-1.8c-1.9 2.2-4.2 3.9-7 4.8-1.2.4-1.3 2.1 0 2.5 2.2.6 4.4 1.3 6.6 1.9-.2-.7-.4-1.5-.6-2.2-1.6 1.7-3.4 3-5.5 4-.9.4-.8 1.8 0 2.3 1.1.5 2.1 1.1 3.2 1.6v-2.3c-1.9 1.2-3.8 2.5-5.6 3.7-.5.4-.9 1.2-.5 1.8.8 1 1.3 2.1 1.5 3.4.3-.5.6-1.1.9-1.6-1.9.6-3.9 1.3-5.8 1.9-.8.3-1.2 1.2-.8 1.9 1.8 3 2.2 6.8 4 9.8.5-.6 1-1.3 1.5-1.9-8.7-1.4-16-7.2-24.7-8.6-1.5-.1-2.2 2.4-.6 2.7z"
		/>
	</g>
</svg>
