<svg
	xmlns="http://www.w3.org/2000/svg"
	width="290.7"
	height="191.3"
	overflow="visible"
>
<g transform="translate(-100, -80) scale(0.8)">

	<path
		fill="#c36c67"
		d="M247.5 23.8c1.2-7.5 8.8-12.2 15.8-15.1 8.3-3.4 17-5.8 25.8-7.2-6.1 15.6-22.3 26.7-39 26.8"
	/>
	<path
		fill="#dc7c77"
		d="M249 24.2c1.2-7.1 8.1-11.2 14.2-13.7 8.4-3.6 17.4-6 26.4-7.5l-1.8-1.8c-4.6 11.6-15.1 20.6-27 24.1-3.4 1-6.9 1.5-10.5 1.6-1.9 0-1.9 3 0 3 13.6-.2 26.7-7.1 34.9-17.9 2.3-3.1 4.2-6.4 5.6-10 .5-1.2-.9-2-1.8-1.8-9.5 1.6-19 4.2-27.8 8.1-6.6 2.9-13.6 7.6-14.9 15.3-.5 1.6 2.4 2.5 2.7.6zM140.9 93.8c-14.4 15.8-28.9 31.8-46.6 43.9-8.3 5.7-17.3 10.5-26.9 13.8-4.7 1.6-9.6 2.9-14.5 3.6-5.1.8-10.3 1.3-15 3.5-8.8 4.1-14.8 13.2-15.2 22.8-.1 1.9 2.9 1.9 3 0 .4-8.4 5.6-16.2 13.1-19.9 4.6-2.3 9.9-2.7 14.9-3.5 4.8-.8 9.5-2 14.1-3.5 19.2-6.5 35.8-18.8 50.3-32.6 8.7-8.3 16.8-17.2 24.9-26.1 1.3-1.3-.8-3.4-2.1-2z"
	/>
	<path
		fill="#dc7c77"
		d="M141.3 88.8c-9.5 1.7-18.3 5.7-26.8 10.1-8.3 4.3-16.6 8.8-24.2 14.4-3.5 2.7-6.9 5.6-9.9 8.8-2.7 2.8-5.2 5.9-7.8 8.8-4.9 5.7-10.3 11.7-17.5 14.6-4.5 1.8-9 1.8-13.8 1.7-4.7-.1-9.5.1-13.7 2.6-1.6 1-.1 3.6 1.5 2.6 3.6-2.2 7.8-2.3 12-2.2 4.2.1 8.5.3 12.6-1 7.4-2.3 13.2-7.5 18.3-13.1 5.5-6 10.4-12.5 16.6-17.7 7.1-6 15.3-10.5 23.5-14.9 9.5-5.1 19.2-9.9 29.9-11.8 2-.4 1.2-3.3-.7-2.9z"
	/>
	<path
		fill="#dc7c77"
		d="M138.2 82.8c-8.6 5.6-18.7 7.7-28.5 10s-19.4 5-27.7 10.8c-8.3 5.8-15 13.5-20.8 21.7-6 8.5-10.8 18.1-17.7 26-7.2 8.2-18.4 15-29.7 11.5-1.8-.6-2.6 2.3-.8 2.9 9.8 3.1 20.3-1 27.8-7.5 8.2-7.1 13.4-16.9 19.2-25.8 5.5-8.5 11.7-16.7 19.6-23.3 3.9-3.2 8.2-6 12.9-8 4.7-2.1 9.7-3.4 14.7-4.7 11.1-2.7 22.6-4.7 32.4-11.1 1.8-1 .3-3.6-1.4-2.5z"
	/>
	<path
		fill="#dc7c77"
		d="M137.7 80c-13.5 1.9-27.1 3.8-40.6 5.6-12 1.7-24.4 2.9-35.5 8.3-9.6 4.7-17.2 12.5-23.2 21.2-6 8.6-10.4 18.1-15.3 27.4-4.9 9.5-11.2 20-22 23.5-1.8.6-1 3.5.8 2.9 9.6-3.2 16.1-11.2 21-19.7 5.2-9 9.2-18.6 14.7-27.4 5.5-8.9 12.3-17.4 21.3-23 10.2-6.3 22.4-8.1 34.1-9.7l45.6-6.3c1.8-.2.9-3-.9-2.8z"
	/>
	<path
		fill="#dc7c77"
		d="M145.1 90.7c-18.9 9-39.5 14.3-60.4 15.4-10.8.6-21.8.1-32.5 2.5-7.2 1.6-14.2 4.5-20.7 8-6.6 3.7-14.2 8.8-16.7 16.3-.6 1.8 2.3 2.6 2.9.8 2.1-6.3 8.7-10.7 14.1-13.8 6.1-3.5 12.9-6.4 19.8-8.1 10.5-2.6 21.4-2.1 32.1-2.6 10.2-.5 20.4-1.9 30.4-4.3 11.2-2.7 22.1-6.6 32.5-11.6 1.8-.8.2-3.4-1.5-2.6z"
	/>
	<path
		fill="#dc7c77"
		d="M142.5 93c-12.2 18.3-27.3 34.5-43.6 49.2-8.2 7.4-16.7 14.4-25.3 21.3-5.7 4.5-12.2 9-14.4 16.4-1 3.2-.6 7.2 2 9.6 1.5 1.4 3.7 1.9 5.7 1.9 5.7.1 11.6-2.2 16.7-4.4 6.3-2.6 12.4-5.8 18.2-9.2 4.1-2.4 8.2-4.9 11.9-7.9 18.7-15.6 38-30.6 57.7-45 2.5-1.8 4.9-3.6 7.4-5.4 1.6-1.1.1-3.7-1.5-2.6-19.2 13.8-38 28.3-56.4 43.2-2.4 1.9-4.7 3.9-7.1 5.8-1.1.9-2.2 1.8-3.3 2.8-.1.1-.2.1-.3.2-.3.2.2-.2 0 0l-.2.2c-1.6 1.2-3.3 2.3-5 3.4-5.2 3.3-10.7 6.3-16.2 9-5.6 2.7-11.4 5.3-17.5 6.6-2 .4-4.4.7-6.1.3-.2 0-.4-.1-.6-.2-.2-.1-.4-.2-.3-.1-.3-.2-.8-.5-.8-.5-1-.9-1.5-2.2-1.7-3.5-.4-3.4 1.7-6.7 3.7-9.2 2-2.5 4.3-4.3 6.7-6.3 8.5-6.7 16.9-13.5 25-20.6 16-14.1 31.1-29.5 43.5-46.8 1.5-2.1 3-4.3 4.4-6.4 1.1-1.9-1.5-3.4-2.6-1.8zM141.2 84c-8.9-.9-17.8-.9-26.6.7-8.2 1.6-15.8 4.9-22.7 9.6-12.9 8.8-23.4 21.3-37.8 27.8-4.1 1.9-8.6 3.1-13 3.8-2.2.3-4.5.5-6.8.5-2.1 0-4.3.1-6.4-.4-4-1.1-3.2-7.2-2.5-10.3.9-4 3-7.8 5.6-10.9 5.8-6.9 13.8-11.4 21.3-16.3 8.2-5.3 16.3-10.8 24.4-16.2 16.2-11 32.2-22.2 48.2-33.5l6-4.2c1.6-1.1.1-3.7-1.5-2.6-16.5 11.6-33 23.3-49.7 34.7C71.4 72.4 63 78 54.5 83.6c-7.8 5.1-16.3 9.7-22.9 16.3-6 5.9-10.6 14.1-9.4 22.8.3 2 .9 3.9 2.5 5.1 1.6 1.3 3.6 1.5 5.6 1.6 4.6.3 9.3 0 13.9-.9 8.5-1.7 16.2-5.6 23.2-10.6 6.6-4.7 12.5-10.2 18.8-15.3 6.4-5.2 13.2-9.9 21-12.6 8.7-3 18.1-3.7 27.2-3.3 2.3.1 4.6.3 6.9.5 1.8 0 1.8-3-.1-3.2z"
	/>
	<path
		fill="#dc7c77"
		d="M143.4 92.5c-19.2-.7-41.1 3-53.4 19.3-3.5 4.7-6 10.1-8.5 15.4-2.4 5-4.9 10-7.9 14.7-5.7 9.2-13.1 17.8-22.6 23.3-10.3 5.9-23 8.1-34.2 3.5-1.8-.7-2.6 2.2-.8 2.9 10 4.1 21.3 3 31.1-1.2 10.1-4.3 18.2-11.8 24.6-20.5 3.3-4.4 6.1-9.2 8.7-14 2.7-5.1 4.9-10.4 7.6-15.5 2.6-4.8 5.7-9.2 9.8-12.7 3.6-3.2 7.9-5.6 12.4-7.4 10.4-4.2 21.9-5.2 33-4.7 2.1-.1 2.1-3.1.2-3.1zM178.1 118.8c4.3-5.4 9.1-10.4 15-14.2s12.7-6 19.6-5.6c.4 0 1 .2 1.1.6 0 .3-.1.5-.3.7-9.3 11-24 15.8-38.2 18.3"
	/>
	<path
		fill="#dc7c77"
		d="M179.2 119.9c7.1-8.8 16-17.1 27.5-19.1 1.4-.2 2.8-.3 4.2-.4h.9c.6 0 1.1.4.6-.4-.4-.7-.4-.4-.8.1-.3.3-.5.6-.8.9-1.7 1.8-3.6 3.5-5.7 4.9-4.2 3-8.8 5.3-13.6 7-5.4 2-11.1 3.3-16.8 4.3-1.9.3-1.1 3.2.8 2.9 11.3-2 22.9-5.4 32.2-12.4 2.3-1.7 4.4-3.6 6.2-5.7.8-.9 1.8-2.1 1-3.4-.8-1.3-2.7-1.2-4-1.2-6.4.1-12.8 2.3-18.2 5.7-6.1 3.8-11.2 9.1-15.6 14.6-1.2 1.5.9 3.7 2.1 2.2zM131.5 31.7c6.1-9.7 18.4-15.2 29.7-13.1-9.4 6.4-19.9 11.3-30.9 14.3"
	/>
	<path
		fill="#dc7c77"
		d="M132.8 32.5c5.8-9.2 17.3-14.3 28-12.4-.1-.9-.2-1.8-.4-2.7-9.4 6.3-19.7 11.1-30.6 14.1-1.9.5-1.1 3.4.8 2.9 11.1-3.1 21.7-7.9 31.3-14.4 1-.7 1-2.5-.4-2.7-12.1-2.1-24.8 3.4-31.4 13.8-.9 1.5 1.7 3 2.7 1.4zM131.8 80.4l8.1 17.6c1.7.3 11.4-2.1 13-2.5C200.1 83.6 242.7 54 270.4 14c-41.7 10.1-85 21.1-117.6 49-6.2 5.2-15.9 11.1-21 17.4"
	/>
	<path
		fill="#dc7c77"
		d="M130.5 81.2c1.2 2.6 2.4 5.3 3.6 7.9 1.4 3.1 2.7 6.4 4.3 9.5.8 1.5 2.7 1 4 .8 2.4-.4 4.9-.9 7.3-1.5 5.6-1.3 11.2-2.9 16.7-4.7 13.5-4.4 26.5-10.3 38.8-17.4 12.4-7.1 24-15.6 34.6-25.1 10.6-9.5 20.3-20.1 28.7-31.6 1-1.4 2.1-2.9 3.1-4.3.8-1.1-.5-2.5-1.7-2.2-20.2 4.9-40.4 9.9-59.9 17-19.2 7-37.8 16-53.9 28.7-2.2 1.7-4.3 3.6-6.4 5.3-2.2 1.7-4.4 3.4-6.7 5-4.4 3.3-8.9 6.6-12.4 10.8-1.2 1.5.9 3.6 2.1 2.1 3.1-3.7 7-6.7 10.8-9.6 3.9-2.9 7.8-5.8 11.5-8.9 7.7-6.5 16.2-12.1 25-16.9 17.9-9.8 37.4-16.5 57-22 11.1-3.1 22.4-5.9 33.6-8.6-.6-.7-1.1-1.5-1.7-2.2-12.4 18-27.9 33.9-45.5 46.9s-37.2 23.3-58 30.1c-4.9 1.6-9.9 3-15 4.3-2 .5-4 .9-6 1.3l-3 .6c-.3 0-.6.1-1 .1h-.5c.3.2.6.5.9.7-2.7-5.9-5.4-11.7-8.1-17.6-.4-1.8-3-.3-2.2 1.5z"
	/>
	<g>
		<path
			fill="#c36c67"
			d="M159 61.3c10.5 4 12.5 16.8 12.4 26.6 0 1.9 3 1.9 3 0 .1-6.3-.5-12.7-3.2-18.5-2.3-4.9-6.3-9-11.4-11-1.8-.7-2.6 2.2-.8 2.9z"
		/>
	</g>
	<g>
		<path
			fill="#f1faee"
			d="M148.5 79.3c0 1.9 1.1 4 2.4 5.3 1 1 2.5 1.5 3.9 1.6 2.4.3 4.9 0 6.9-1.4 2.7-1.8 3.9-5.5 3-8.6-.9-3.1-3.8-5.5-7-6 0 .1-9-.9-9.2 9.1z"
		/>
	</g>
	<g>
		<path
			d="M160 74.4c1.9 1 3.2 4.5 1.4 6.6-1.6 1.7-4.2 2.2-6.1 1.4-1.5-.7-4.2-2.2-2.7-6.1 0-.1 2.1-4.6 7.4-1.9z"
		/>
	</g>
	<g><path fill="#f1faee" d="M154.8 77.8c1.9 0 1.9-3 0-3s-1.9 3 0 3z" /></g>
</g></svg>
