<svg
	xmlns="http://www.w3.org/2000/svg"
	width="161.3"
	height="89"
	overflow="visible"
>
<g transform="translate(-140, -60) scale(1.5)">

	<path
		fill="#fdf2ce"
		d="M1.9 29.8c3.3-.6 7 .5 10 1.7 3.2 1.3 6.3 3.2 8.6 5.8 1.3 1.5 3.4-.7 2.1-2.1-2.6-3-6.2-5.1-9.9-6.6-3.6-1.4-7.7-2.4-11.6-1.7-1.9.3-1.1 3.2.8 2.9zM42.4 19.6c-.1-3.3.8-6.5 2.3-9.4 1.4-2.7 3.2-5.5 5.7-7.4.6-.5 1-1.3.5-2.1-.4-.6-1.4-1-2.1-.5-2.9 2.2-5.1 5.2-6.8 8.4-1.7 3.4-2.8 7.1-2.7 11 .1 1.9 3.1 2 3.1 0zM56.5 15.8c.3-2.6 1.2-5 2.7-7.2 1.5-2.2 3.6-4.1 5.7-5.8.6-.5.5-1.6 0-2.1-.6-.6-1.5-.5-2.1 0-2.3 1.9-4.6 4-6.3 6.6-1.7 2.6-2.6 5.5-3 8.6-.1.8.8 1.5 1.5 1.5.9-.1 1.4-.8 1.5-1.6zM72 14.8c.1-1.1.2-2 .6-3.2.3-.9.8-1.8 1.4-2.7.3-.5.5-.7.9-1.2.4-.4.8-.9 1.3-1.3 1-.9 2-1.6 3.1-2.3 1.6-1 .1-3.6-1.5-2.6-2.4 1.5-4.7 3.4-6.4 5.8-1.5 2.2-2.3 4.8-2.4 7.5-.1.8.7 1.5 1.5 1.5.9 0 1.5-.7 1.5-1.5zM86.6 15.1c.3-.7.5-1.4.8-2.2.1-.2.2-.5.3-.7-.2.4 0 0 0 0 0-.1.1-.2.1-.3.2-.5.5-.9.7-1.4.3-.5.6-.9.9-1.4 0-.1.1-.1.1-.2-.1.1-.1.1 0 0l.3-.3c.2-.2.4-.4.6-.7.2-.2.4-.4.7-.6l.3-.3c.1-.1.2-.1.2-.2-.1.1-.1.1 0 0 .6-.4 1.2-.8 1.8-1.1.7-.4.9-1.4.5-2.1-.4-.7-1.3-.9-2.1-.5C89.4 4.6 87.4 6.6 86 9c-1 1.7-1.6 3.6-2.3 5.4-.3.8.3 1.6 1 1.8.9.2 1.6-.3 1.9-1.1zM97.8 18.2c1.3-3.4 3.4-6.6 6-9.2.6-.6.6-1.6 0-2.1-.6-.6-1.5-.6-2.1 0-3 2.9-5.3 6.5-6.8 10.5-.3.7.3 1.7 1 1.8 1 .2 1.7-.2 1.9-1zM38.8 71.9c1.3 6.6 5.6 11.9 10 16.7 1.3 1.4 3.4-.7 2.1-2.1-4.1-4.5-8-9.3-9.2-15.4-.4-1.9-3.3-1.1-2.9.8zM53.2 71.5c0 2.7 1.1 5.3 2.5 7.6 1.3 2.2 3 4.2 4.8 6 1.4 1.3 3.5-.8 2.1-2.1-1.6-1.6-3-3.3-4.2-5.2-1.2-1.9-2.2-4.1-2.2-6.3 0-1.9-3-1.9-3 0zM64.8 72c0 2.4 1.1 4.8 2.5 6.7 1.5 2 3.2 3.9 5.4 5.2.7.4 1.7.1 2.1-.5.4-.7.1-1.6-.5-2.1-.2-.1-.4-.3-.6-.4l-.3-.3c.2.1 0 0-.1-.1-.4-.3-.8-.7-1.2-1.1-.8-.7-1.5-1.6-2-2.3-.3-.4-.6-.9-.9-1.4-.1-.2-.3-.5-.4-.8-.1-.1-.1-.2-.2-.3 0 0-.2-.3-.1-.1-.2-.4-.3-.9-.5-1.4 0-.1-.1-.3-.1-.4 0 0-.1-.4 0-.2v-.2-.4c0-.8-.7-1.5-1.5-1.5-.9.1-1.6.8-1.6 1.6zM78.1 71.5c1.4 4.5 5.2 8.1 9.2 10.4.7.4 1.7.2 2.1-.5.4-.7.2-1.6-.5-2.1-.9-.5-1.8-1.1-2.6-1.7.2.1-.1-.1-.1-.1-.1-.1-.2-.2-.3-.2l-.6-.6c-.4-.4-.8-.7-1.2-1.1-.4-.4-.7-.8-1-1.2-.3-.4.2.2-.1-.2-.1-.1-.1-.2-.2-.3-.1-.2-.3-.4-.4-.6-.3-.4-.5-.9-.8-1.4-.1-.1-.1-.3-.2-.4.1.1 0 0 0 0-.1-.3-.2-.5-.3-.8-.2-.7-1.1-1.3-1.8-1-.9.2-1.4.9-1.2 1.8zM91.8 70.5c1.1 4.1 4.3 6.9 7.3 9.7.6.5 1.6.6 2.1 0s.6-1.5 0-2.1c-1.4-1.3-2.8-2.6-4-4-.1-.2-.3-.3-.4-.5 0 0-.2-.3-.1-.2.1.1-.1-.2-.1-.2-.3-.4-.5-.8-.8-1.2-.2-.4-.5-.8-.6-1.2.1.1 0 .1 0 0s-.1-.2-.1-.3c-.1-.2-.2-.5-.2-.8-.2-.8-1.1-1.3-1.8-1-1 .2-1.5.9-1.3 1.8zM124.2 20.4c-.5-2.6 1.8-5.8 5.5-5.7 2.2.1 5.4.7 7.4 1.6 2 .9 3.6 4 3.1 6.1"
	/>
	<path
		fill="#0b132b"
		d="M125.7 20c-.1-.4 0-1.1.3-1.5.3-.6.7-1.2 1.3-1.6 1.4-1 3.2-.8 4.8-.5 1 .2 2.1.4 3.1.7.7.2 1.5.4 2 .8 1.1.9 2 2.7 1.8 4-.4 1.9 2.5 2.7 2.9.8.5-2.4-.6-5.2-2.4-6.8-1.8-1.7-4.7-2.2-7.1-2.5-2.6-.4-5.1-.4-7.2 1.3-1.8 1.5-2.6 3.8-2.3 6 .1.8 1.1 1.2 1.8 1 .8-.1 1.1-.9 1-1.7z"
	/>
	<path
		fill="#fdf2ce"
		d="M123.2 71.5c-.6 1.6.1 5.5 1.4 6.6 1.3 1.1 3.1 1.5 4.8 1.7 2.9.3 5.9-.1 8.2-1.9 2.3-1.7 2.6-4 1.5-6.6"
	/>
	<path
		fill="#0b132b"
		d="M121.8 71.1c-.6 1.7-.3 3.8.3 5.5.3.9.7 1.7 1.3 2.4.8.9 2 1.4 3.1 1.8 4.2 1.4 10.4.8 13.4-2.9 1.6-2 1.6-4.6.7-6.9-.3-.7-1-1.3-1.8-1-.7.2-1.4 1.1-1 1.8.7 1.8.9 3.5-.7 4.8-1.7 1.5-4.2 1.9-6.4 1.8-1.2 0-2.3-.2-3.4-.6-.9-.3-1.6-.7-1.9-1.4-.7-1.3-1-3.3-.6-4.5.3-.8-.3-1.6-1-1.8-1-.3-1.7.3-2 1z"
	/>
	<path
		fill="#fdf2ce"
		d="M18.4 46.8c-.1-8.5 2.3-15.1 8.9-20.6s15-8.1 23.4-9.7c10.8-2.1 22-2.9 33-1.6 8.6 1 16.9 3.2 25.4 4.6 3.3.5 6.6.9 10 1.3l5.1.6c4.6.6 19.1 2.4 19.1 2.4 2.2-.5 8.6-1.5 10.6-1.7-1.5 2.2-4 5.4-5.5 7.6 3.3-.4 6.5-.8 9.8-1.2-2.4 2.2-4.9 4.3-7.3 6.5 2.4.7 4.9 1.3 7.3 2-2 1.4-4.3 2.5-6.7 3.1 3.4.5 6.7 1.8 9.5 3.9-3 .8-6.1-.4-9.1.4.3.2 9.3 4.4 9.6 4.6-.7.3-10.1.6-10.8.9 4.4 1.9 7.3 4.4 10.9 5.6-3.7.5-9.5-.3-13.2-.5 3.7 1.6 7.2 3.8 10.4 6.3-3.5 0-7.1-.3-10.6-1 2.3 1.5 4.4 3.4 6 5.6-3.5.5-7.1.2-10.5-.9.6.9 3.1 4.8 3.7 5.6l-9.4-1.2c-30.1.9-61.1 1.8-91.2 2.6-2.7.1-5.4.1-7.9-.6-5.8-1.4-20.4-10.6-20.5-24.6z"
	/>
	<path
		fill="#0b132b"
		d="M119.3 20.1v49.6c0 1.9 3 1.9 3 0V20.1c0-1.9-3-2-3 0zM114.8 20.7c-.7 3.7-.9 7.5-1 11.3-.2 4-.5 8-.7 12-.4 8.8-.2 17.5 1.4 26.2.4 1.9 3.3 1.1 2.9-.8-1.6-8.4-1.8-16.9-1.3-25.4.2-3.8.5-7.7.6-11.5.2-3.6.3-7.3.9-10.9.5-2-2.4-2.8-2.8-.9z"
	/>
	<path
		fill="#0b132b"
		d="M112.3 18.2c-4.3 8.2-5.3 17.5-5.4 26.7v7c0 1.5-.1 3.1.1 4.6.3 2.7.8 5.4 1.3 8.1.3 1.5.6 2.9.9 4.4.2.9.4 2 .9 2.7 1 1.6 3.6.1 2.6-1.5-.1-.1-.2-.4 0 0-.1-.1-.1-.3-.2-.4-.1-.4-.3-.8-.4-1.3-.3-1.2-.6-2.5-.8-3.7-.5-2.5-1-5.1-1.3-7.7-.4-3.3-.2-6.6-.2-9.9 0-4.4.1-8.9.7-13.2.7-4.9 2-9.7 4.3-14.1 1-1.8-1.6-3.4-2.5-1.7z"
	/>
	<path
		fill="#0b132b"
		d="M108 17.2c-3.8 7.3-6.1 15-6.8 23.2-.6 7.3-.6 14.7.7 21.8.6 3.2 1.2 6.6 2.4 9.7.7 1.8 3.6 1 2.9-.8-1-2.5-1.5-5.3-2-8s-1.1-5.4-1.2-8.2c-.1-7.8-.3-15.7 1.6-23.3 1.1-4.5 2.9-8.8 5-12.9.9-1.7-1.7-3.2-2.6-1.5zM88.1 14.3C83.8 21 82.3 28.9 82 36.7c-.2 4.1 0 8.1.1 12.2.2 3.8.3 7.6.8 11.4.7 4.2 1.9 8.5 4.2 12.2 1 1.6 3.6.1 2.6-1.5-3.9-6.2-4.2-13.7-4.5-20.8-.4-7.5-.7-15.2.8-22.6.9-4.1 2.3-8.1 4.6-11.6 1.1-1.8-1.5-3.3-2.5-1.7z"
	/>
	<path
		fill="#0b132b"
		d="M102.1 17.3c-3.9 6.2-6.1 13-6.7 20.3-.3 3.7-.3 7.3-.2 11 .1 3.8.2 7.5.9 11.3.7 4 1.9 8.1 4.1 11.6 1 1.6 3.6.1 2.6-1.5-3.7-6-4.2-13.2-4.5-20.1-.3-6.8-.3-13.6 1.5-20.2 1.1-3.9 2.7-7.5 4.9-10.9 1-1.6-1.6-3.1-2.6-1.5z"
	/>
	<path
		fill="#0b132b"
		d="M95.1 16.3c-2.2 3.5-4.1 7.3-5.3 11.3-1 3.6-1.5 7.4-1.6 11.2-.3 7.7.1 15.3 2.4 22.8 1.1 3.7 2.5 7.6 4.6 11 1 1.6 3.6.1 2.6-1.5-1.7-2.8-2.9-5.9-3.9-9-1-3.2-2-6.5-2.3-9.9-.4-3.8-.4-7.8-.4-11.7 0-3.5.3-7 1.2-10.5 1.1-4.3 3-8.3 5.3-12 1-1.8-1.6-3.3-2.6-1.7zM74.8 13.1c-4.7 7.3-5.7 15.9-6 24.4-.3 7.9-.6 16 1.2 23.7.9 4.1 2.5 8 5.2 11.3 1.2 1.5 3.3-.6 2.1-2.1-4.4-5.4-5.3-13.2-5.6-19.9-.2-3.8 0-7.5.1-11.3.1-4 .3-8 1-11.9.8-4.5 2.2-8.8 4.7-12.6 1-1.7-1.6-3.2-2.7-1.6z"
	/>
	<path
		fill="#0b132b"
		d="M80.8 13.1c-4.8 7.4-5.2 16.2-5.2 24.8 0 7.8-.5 15.8.9 23.5.7 4 2.1 7.9 4.7 11.1 1.2 1.5 3.3-.6 2.1-2.1C79 65 78.7 57 78.6 50.5c-.1-3.6.1-7.3.1-10.9 0-4.1-.1-8.1.4-12.2.5-4.6 1.9-8.9 4.4-12.8 1-1.6-1.6-3.1-2.7-1.5zM66.6 12.9c-2.5 4.6-3.5 9.8-4.2 15-.6 4.7-.9 9.5-.8 14.2.1 7.1 1.3 14.5 2.9 21.4.7 3 1.5 7 3.8 9.2 1.4 1.3 3.5-.8 2.1-2.1-1.5-1.4-2.2-4.7-2.8-7-.9-3.7-1.6-7.5-2.1-11.3-.4-3.1-.8-6.2-.9-9.4-.2-4.1.1-8.2.5-12.3.5-5.5 1.4-11.3 4-16.2 1-1.7-1.6-3.2-2.5-1.5zM57.3 14.3c-4.1 15.7-5 32.5-2.8 48.5.5 3.7 1.2 7.7 3.6 10.6 1.2 1.5 3.3-.6 2.1-2.1-1.9-2.3-2.3-5.9-2.7-8.7-.5-3.5-.8-7.1-.9-10.6-.3-8 0-16 1.1-23.9.6-4.4 1.5-8.7 2.6-13 .4-1.8-2.5-2.6-3-.8zM46.9 16.5c-2.6 7.4-3 15.4-3.3 23.2-.3 7.3-.5 14.6.7 21.9.6 4 1.7 7.9 3.5 11.5.9 1.7 3.5.2 2.6-1.5-3.1-6.2-3.8-13.5-4-20.3-.2-7.1.1-14.4.8-21.5.4-4.2 1.2-8.4 2.6-12.4.6-1.9-2.3-2.7-2.9-.9zM35.6 20.4c-2 13.8-1.6 27.9-.7 41.7.2 2.9.4 5.8.7 8.7.2 1.9 3.2 1.9 3 0-1.1-12.5-1.8-25.2-1.2-37.7.2-4 .5-7.9 1.1-11.9.2-1.9-2.7-2.7-2.9-.8z"
	/>
	<path
		fill="#fdf2ce"
		d="M4.3 65c3.5-.8 6.9-2.5 10-4.3 3.1-1.8 6.2-3.9 8.5-6.6 1.2-1.5-.9-3.6-2.1-2.1-2.2 2.6-5 4.5-7.9 6.1-2.9 1.7-6 3.2-9.2 3.9-2 .6-1.2 3.5.7 3z"
	/>
	<g>
		<path
			fill="#0b132b"
			d="M23.8 34.4c1.3 1.4.7 3.4.2 5-.5 1.5-1.4 2.9-1.6 4.5-.5 3.9 3.8 8.1.7 11.7-1.3 1.5.9 3.6 2.1 2.1 1.9-2.1 2.4-4.6 1.8-7.3-.3-1.2-.7-2.3-1-3.4-.3-.9-.7-1.9-.5-2.8.1-.7.5-1.4.8-2 .4-1 .8-2 1.1-3.1.6-2.4.5-4.8-1.3-6.7-1.5-1.6-3.6.6-2.3 2z"
		/>
	</g>
	<g>
		<path
			fill="#fdf2ce"
			d="M16.4 46.6h1.8c.4 0 .8-.2 1.1-.4.1-.1.2-.3.3-.5.1-.2.1-.4.1-.6 0-.4-.1-.8-.4-1.1-.3-.3-.7-.4-1.1-.4h-1.8c-.4 0-.8.2-1.1.4-.1.1-.2.3-.3.5-.1.2-.1.4-.1.6 0 .4.1.8.4 1.1.3.2.7.4 1.1.4z"
		/>
	</g>
	</g>
</svg>
