<svg xmlns="http://www.w3.org/2000/svg" width="132.7" height="100" overflow="visible"><style>.st0{fill:#f0c1a9}.st1{fill:#cc9883}</style><path class="st0" d="M57.6 6.7c3.2 2.2 7.8-.6 11.2-2.5-2 1-3.6 3-4 5.2s.7 4.7 2.6 5.8c-1.5-.8-3.2-1.6-4.9-1.6-1.7 0-3.6 1.1-3.9 2.8-.7-1.6-3.4-1.8-4.2-.3-.2.4-.3.8-.7 1.1-.7.6-1.2-1.7-2-2-3.9-1.4-22.6-9.3-28.4 10.7-2.1 7.4-7.7 26.8-2.3 28.7 7 2.5 38.2-16.9 52.2-22.9 29.1-12.5 46.6-1.6 49 .9 8.7 8.8 14.9 20.8 6.3 34.2-2.7 4.2-25.7 23.3-33.3 27.2-5.9 3-18 10.1-23.2 2.8-5.5-7.8-.2-12.7 5.5-15.2.2-.1 32.9-14.8 36.7-21.1 3.8-6.2.9-21.1-15.6-21.2-13.8-.1-49.5 19.3-55.6 23-6.3 3.8-19.6 12.3-27 11.3C6.3 72.3 1.4 67.3.1 57.5c-1-7 10.1-40.4 16.2-47.9C21.4 3.3 27.2.4 35.3.1c0 0 11-1.3 22.3 6.6z"/><path class="st1" d="M57.6 6.7c3.2 2.2 7.8-.6 11.2-2.5-2 1-3.6 3-4 5.2s.7 4.7 2.6 5.8c-1.5-.8-3.2-1.6-4.9-1.6-1.7 0-3.6 1.1-3.9 2.8-.7-1.6-3.4-1.8-4.2-.3-.2.4-.3.8-.7 1.1-.7.6-1.2-1.7-2-2-3.9-1.4-22.6-9.3-28.4 10.7-2.1 7.4-7.7 26.8-2.3 28.7 7 2.5 38.2-14.9 52.2-20.9 29.1-12.5 43.8-2.6 49.4 3.6 5.4 6 12.9 20.4.4 31.4-3.6 3.3-44.7 31.6-46 24.8-1.1-5.8 27.9-21.5 40.9-32.5 5.5-4.7-2.4-24.4-18.9-24.5-13.8-.1-49.7 22.1-55.9 25.8-6.3 3.8-19.6 12.3-27 11.3-9.8-1.3-14.7-6.3-16-16.1-1-7 10.1-40.4 16.2-47.9C21.4 3.3 27.2.4 35.3.1c0 0 11-1.3 22.3 6.6z"/><path class="st0" d="M57.9 10.8c.5 1.7-27.4-8.6-35 10.8C20.8 27 10.2 54 17.2 58.1c8.4 4.9 42.9-14.4 53.4-19.7 23.7-11.8 39.7-7.7 44.2-4.3 7.8 5.8 15.7 21.2 9 29.5-2.4 3-33.8 24.4-34.1 22.6-.1-.7 26.1-19.4 30.4-23.1 6.2-5.4 1.8-34.3-29.4-27.5-10.4 2.3-35.6 16.1-40.3 19-4.8 3-26.5 14.4-32.1 13.7-7.6-1-11.3-4.8-12.4-12.4-.8-5.4 11.9-40.2 16.6-46C26.4 5 32.6 4.1 39.1 4.6c0 0 17.8 2.8 18.8 6.2z"/><path class="st1" d="M17.3 20.9c1.5 1 3 1.9 4.6 2.7.7.4 1.7.2 2.1-.5.4-.7.2-1.7-.5-2.1-1.6-.8-3.1-1.7-4.6-2.7-.7-.4-1.7-.1-2.1.5-.4.8-.2 1.6.5 2.1zM15.3 26.6l.9.3c-.1-.1-.2-.1-.4-.2 1.4.6 2.8 1.3 4.1 2.1.7.4 1.7.2 2.1-.5.4-.7.2-1.6-.5-2.1-1.7-1-3.5-1.9-5.3-2.6-.3-.1-.9 0-1.2.2-.3.2-.6.5-.7.9-.1.4-.1.8.2 1.2.1.4.4.6.8.7zM13.5 32.6c1.2.8 2.5 1.6 3.7 2.4.3.2.8.2 1.2.2.3-.1.7-.4.9-.7.4-.8.2-1.6-.5-2.1-1.2-.8-2.5-1.6-3.7-2.4-.3-.2-.8-.2-1.2-.2-.3.1-.7.4-.9.7-.4.8-.2 1.6.5 2.1zM11.3 38.7c1.4.8 2.7 1.5 4.1 2.3.7.4 1.7.2 2.1-.5.4-.7.2-1.6-.5-2.1-1.4-.8-2.7-1.5-4.1-2.3-.7-.4-1.7-.2-2.1.5-.5.7-.3 1.7.5 2.1zM9.2 45.1c1.4.8 2.9 1.5 4.3 2.3.7.4 1.7.2 2.1-.5.4-.7.2-1.7-.5-2.1-1.4-.8-2.9-1.5-4.3-2.3-.8-.4-1.8-.2-2.2.5-.3.7-.2 1.7.6 2.1z"/><path d="M57.5 11.7c1.9 0 1.9-3 0-3s-1.9 3 0 3z"/></svg>