<svg
	xmlns="http://www.w3.org/2000/svg"
	width="154.9"
	height="93.4"
	overflow="visible"
>
<g transform="translate(-80,-50)">
	<path
		fill="#f0deca"
		d="M95 44.3c4.7 2.3 14.8 4.7 20 4.3 5.3-.4 10.6-4.6 10.3-9.9-.2-2.1-2.6-10.4-11.3-10.4-4.8 0-10 .9-14.4-1-2.4-1.1-15-15.3-14.7-15.7C89.5 4.8 99.1.2 107.4 0s16.4 1.5 24 4.8c8 3.5 16.4 10.6 19 18.9 1.5 4.7 9.6 27.6-3.2 45.3-2 2.8-14.9 20-36.8 23.8-14.9 2.5-43.3-5.1-45.1-11.4-.5-1.6 8.8-20.1 10.9-25.8 2.9-7.7 9-5.7 13.1-6.4 4.1-.6 5.7-4.9 5.7-4.9z"
	/>
	<path
		fill="#f0deca"
		d="M83.5 9.4l26.9 26.8c.9.9.3 5.3-.9 5.4-21.2 1.8-42.5 3-63.8 3.7-1.4 0-2-4.7-.9-5.6 11.1-8.7 32-26.4 36.8-30.5.5-.3 1.4-.3 1.9.2z"
	/>
	<path
		fill="#a2231d"
		d="M78.3 9.2l27.6 27.6c.6.6.2 1.8-.7 1.8-21.8 1.8-43.7 3.1-65.6 3.8-1 0-1.5-1.3-.7-1.9 11-8.6 33.5-27.7 37.9-31.4.4-.3 1.1-.3 1.5.1z"
	/>
	<path
		fill="#f0deca"
		d="M79.7 46c-8.5-.6-17.1-1.3-25.6-1.2-8.4 0-17 .6-25.1 3.1-2.4.7-4.4 1.2-7 1-2.6-.2-5.1-.9-7.6-1.6-1.9-.5-2.7 2.4-.8 2.9 4.3 1.3 9.1 2.4 13.5 1.4 1.9-.4 3.7-1.2 5.6-1.7 2-.5 4.1-.9 6.2-1.2 8.8-1.3 17.8-1.1 26.6-.7 4.7.2 9.4.6 14.1.9 2 .3 2-2.7.1-2.9z"
	/>
	<path
		fill="#f0deca"
		d="M78.4 51.8C68.7 50.7 59.6 55 50 55.7c-9.5.7-19-.8-27.8-4.4-1.8-.7-2.6 2.2-.8 2.9 6.9 2.8 14.3 4.4 21.7 4.6 3.8.1 7.5-.1 11.2-.6 3.7-.5 7.3-1.6 10.9-2.4 4.3-1 8.8-1.6 13.2-1.1 2 .3 1.9-2.7 0-2.9zM68.2 78.3c-7.1-2.7-13.9-6.1-21.3-7.9-3.4-.8-7-1.3-10.5-.8-4.5.6-8.9 2.1-13.3 3.3-5 1.3-10 2.2-15.2 1.6-1.9-.2-1.9 2.8 0 3 9.1 1.1 17.7-2.5 26.4-4.4 7.4-1.6 14.7.9 21.6 3.5 3.8 1.5 7.6 3.2 11.5 4.7 1.8.5 2.6-2.4.8-3z"
	/>
	<path
		fill="#f0deca"
		d="M70.1 68.6c-13.7 2-28-1-40.9-5.9-1.3-.5-2.5-1-3.7-1.5-1.8-.7-2.6 2.2-.8 2.9 3.4 1.3 6.7 2.6 10.1 3.7 7 2.2 14.3 3.7 21.6 4.2 4.8.3 9.7.2 14.5-.5 1.9-.3 1.1-3.2-.8-2.9z"
	/>
	<path
		fill="#f0deca"
		d="M72.7 64.2c-7.1-.1-14.1-1.1-21.2-2.2-7.7-1.1-15.4-2.1-23.2-2-5.3 0-10.6.5-15.9 1.3-1.9.3-1.1 3.2.8 2.9 8.7-1.3 17.5-1.5 26.2-.7 7.1.7 14.2 2 21.3 2.8 4 .5 8 .8 12 .9 1.9 0 1.9-3 0-3z"
	/>
	<path
		fill="#f0deca"
		d="M75.9 59.5c-3.2 1.2-6.7-.1-9.6-1.4-3.7-1.6-7.2-3.6-10.8-5.2-3.8-1.7-7.5-2.4-11.7-2.3-5 .2-9.9 1.5-14.5 3.4-5.4 2.3-10.2 5.4-14.8 9-1.5 1.2.6 3.3 2.1 2.1 7.7-6.1 17.1-11.2 27.2-11.6 2.1-.1 4.2 0 6.2.5 1.7.4 3.4 1.1 5 1.9 3.6 1.6 7 3.5 10.6 5 3.4 1.4 7.5 2.7 11.1 1.4 1.8-.6 1-3.5-.8-2.8z"
	/>
	<path
		fill="#f0deca"
		d="M70.2 68.1c-9.5-.9-18.5-4-27.5-6.9-8.1-2.6-16.6-5.1-25.2-4.5-5.2.3-10.2 1.8-15 4.1-1.7.8-.2 3.4 1.5 2.6 7.9-3.9 16.5-4.5 25.1-2.8 8.6 1.7 16.8 5 25.2 7.4 5.2 1.5 10.5 2.6 15.9 3.1 1.9.2 1.9-2.8 0-3zM69.4 74.5c-16.5-1.6-32.6-6-49.1-7.6-4.5-.4-9-.7-13.5-.5-1.9.1-1.9 3.1 0 3 16.6-.6 33 3.6 49.2 6.3 4.4.7 8.9 1.4 13.4 1.8 1.9.1 1.9-2.9 0-3z"
	/>
	<path
		fill="#f0deca"
		d="M76.7 55.1c-10.8-.4-21.2-3.9-31.9-5.6-5.2-.8-10.6-1.3-15.9-.6-4.7.6-9.1 2-13.5 3.8-4.6 1.9-9 3.2-14 3.5-1.9.1-1.9 3.1 0 3 4.5-.2 8.8-1.1 13-2.8 4.1-1.7 8.1-3.2 12.5-4.1 10.6-2.1 21.6 1 31.9 3.2 5.9 1.3 11.8 2.4 17.9 2.7 1.9 0 1.9-3 0-3.1z"
	/>
	<path
		fill="#dfbda7"
		d="M91.6 49.2C85.9 51.8 82 57 79.4 62.6c-2.4 5.3-3.9 11-4.6 16.8-.2 2-.4 4-.2 6 .2 1.9 3.2 1.9 3 0-.4-3.9.4-8.1 1.3-11.9 1.3-5.5 3.3-11.2 6.8-15.7 2-2.6 4.4-4.7 7.4-6 1.8-.8.3-3.4-1.5-2.6zM100.4 47.1c-2.2 1.1-3.8 3.1-5.2 5.1-2 2.8-3.5 6-4.7 9.3-2.9 7.9-3.9 16.6-2.3 24.8.4 1.9 3.3 1.1 2.9-.8-1.5-7.6-.5-15.6 2.2-22.9 1.1-2.9 2.5-5.8 4.2-8.4 1.2-1.7 2.6-3.5 4.5-4.5 1.6-.9.1-3.5-1.6-2.6zM107.5 46.1c-2.1 1.1-3.3 3.2-4.2 5.3-1.3 3-1.9 6.3-2.3 9.6-1.1 8.4-.5 17 1.2 25.3.4 1.9 3.3 1.1 2.9-.8-1.5-7.7-2.1-15.6-1.2-23.4.3-3 .9-6 1.9-8.8.6-1.8 1.6-3.7 3.3-4.6 1.6-.9.1-3.5-1.6-2.6zM110.7 48.8c-1.2 5.5-.4 11.4.4 17s2 11.3 3.7 16.7c.6 1.8 3.5 1.1 2.9-.8-1.6-5.2-2.8-10.6-3.6-16-.8-5.2-1.6-10.9-.5-16.1.4-1.9-2.5-2.7-2.9-.8zM118.7 47.9c-.7 4.6.6 9.4 2.3 13.6 1.8 4.3 4.1 8.7 7.5 11.9 1.4 1.3 3.5-.8 2.1-2.1-3-2.8-5.1-6.8-6.7-10.5-1.5-3.6-3-8-2.3-12 .3-1.9-2.6-2.8-2.9-.9zM123 45.4c2.9 3.8 6.5 7.1 11.4 7.9.8.1 1.6-.2 1.8-1 .2-.7-.2-1.7-1-1.8-.9-.1-1.7-.4-2.6-.7 0 0-.4-.2-.1-.1-.1 0-.2-.1-.3-.1l-.6-.3c-.4-.2-.9-.5-1.3-.8-.5-.3-.7-.5-1-.8-.4-.3-.8-.7-1.2-1.1-.9-.8-1.7-1.8-2.4-2.7-.5-.6-1.3-1-2.1-.5-.7.3-1.1 1.3-.6 2z"
	/>
	<path
		fill="#a2231d"
		d="M102.2 70.4l-.1-.2c0-.1-.1-.2-.1-.4 0-.1-.1-.3-.1-.4 0 0-.1-.5-.1-.2v-.9-.4s.1-.5 0-.2c.2-1.1.6-2 1.1-2.7l.6-.6c.2-.2.3-.3.4-.3.6-.4 1.2-.6 1.8-1 1.3-.9 2.4-2.5 1.8-4.1-.3-.8-1-1.3-1.8-1-.7.2-1.3 1.1-1 1.8 0 .2.1.2.1.1v.1c.1-.2-.1.2 0 0-.1.2-.1.2-.3.3-.5.4-1.2.7-1.8 1-1.1.7-2.1 1.7-2.7 2.9-1.3 2.4-1.4 5.2-.2 7.6.3.7 1.4.9 2.1.5.5-.3.7-1.2.3-1.9zM135.1 57.2c2.6-.5 5.3.5 7.9-.1 1.4-.3 2.5-1.1 3.5-2 1.1-1.1 2.2-2.2 3.4-3.3 1.4-1.4-.7-3.5-2.1-2.1l-3.1 3.1c-.8.8-1.7 1.4-2.9 1.6-1.2.2-2.4 0-3.6-.1-1.3-.1-2.6-.1-3.9.1-.8.1-1.2 1.1-1 1.8.2.8 1 1.1 1.8 1zM125.7 50.2c3.1.7 6.4.5 9.4-.6 1.4-.5 2.7-1.3 3.9-2.2 1.2-.8 2.5-1.9 4-2 1.5-.1 2.8.1 3.9-1.2 1-1.1 1.5-2.8 2-4.2 1-2.9 1.9-6.1 5-7.4.8-.3.9-1.4.5-2.1-.4-.8-1.3-.9-2.1-.5-2.5 1.1-4.1 3.4-5.1 5.8-.6 1.5-1.1 3.1-1.7 4.7-.2.5-.4 1.4-.9 1.7-.5.4-1.4.1-2.1.2-2.9.3-4.9 2.5-7.4 3.7-2.7 1.4-5.8 1.7-8.8 1.1-1.7-.3-2.5 2.6-.6 3z"
	/>
	<path
		fill="#a2231d"
		d="M127.9 44.5c3 .1 5.7-1.5 7.6-3.6.9-1 1.6-2.7 3-2.8 1.5-.1 2.9.2 4.4-.5 2.5-1.2 3.5-4.1 4.6-6.5 1.4-3 3.3-5.6 5.6-8 1.3-1.4-.8-3.5-2.1-2.1-2.1 2.2-3.9 4.7-5.4 7.4-.7 1.3-1.2 2.6-1.9 3.8-.5 1-1.1 2.1-2.1 2.7-1.2.6-2.7.1-3.9.3-1.4.2-2.4 1.1-3.3 2.2-1.6 2.2-3.7 4.3-6.6 4.2-1.8-.2-1.8 2.8.1 2.9zM132.5 32.8c-.1-1.9 1.1-3.9 3-4.4 1.3-.3 2.6 0 3.9-.3 1.1-.2 2.1-.6 3-1.3 4.6-3.2 4.8-9 4.6-14-.1-1.9-3.1-1.9-3 0 .1 2.7.2 5.7-.8 8.3-.7 1.8-2.2 3.6-4.2 4-1.2.3-2.5 0-3.8.2-1.2.2-2.2.7-3.2 1.5-1.7 1.4-2.8 3.7-2.6 5.9.2 2 3.2 2 3.1.1zM135.3 11.3c-.1 2.2-.4 4.4-.5 6.7 0 .8.7 1.5 1.5 1.5.9 0 1.5-.7 1.5-1.5.1-2.2.4-4.4.5-6.7 0-.8-.7-1.5-1.5-1.5-.9 0-1.5.7-1.5 1.5zM124.8 5.3c.6 3.9 1 7.7 1.3 11.6.1.8.6 1.5 1.5 1.5.8 0 1.6-.7 1.5-1.5-.3-4.2-.8-8.3-1.4-12.4-.1-.8-1.1-1.2-1.8-1-.9.2-1.2 1-1.1 1.8z"
	/>
	<path
		fill="#a2231d"
		d="M129.1 26.1c-.8-2.4-2.5-4.3-4.9-5.3-.9-.4-2.4-.5-2.3-1.7.1-1.4 1.4-2.7 1.8-4 .8-2.2.5-4.9-.8-6.8-.7-1-1.5-1.9-2.6-2.5-.7-.4-2.9-1-2.6-2.1.5-1.9-2.4-2.7-2.9-.8-.4 1.4.1 2.7 1.1 3.7 1 .9 2.3 1.2 3.3 2 2 1.5 2.4 4.2 1.2 6.3-.7 1.3-1.5 2.6-1.6 4.1-.1 1.4.6 2.7 1.7 3.5 1 .7 2.3.8 3.3 1.4 1.1.6 1.9 1.7 2.3 2.9.7 1.9 3.6 1.1 3-.7z"
	/>
	<path
		fill="#a2231d"
		d="M108.1 3.4c-1.3 3.9 2 7.5 5.4 8.8.6.2 1.4.4 2 .9.6.5.4 1.5.6 2.2.3 2.1 1.3 3.9 2.7 5.5 1.3 1.4 3.4-.7 2.1-2.1-1.1-1.3-1.8-2.8-2-4.5-.2-1.9-1-3.3-2.8-4.1-1.4-.6-2.9-1-4-2.2-1-1-1.6-2.3-1.1-3.7.6-1.8-2.3-2.6-2.9-.8zM94.5 6.1c4.5 1.9 8.8 4.2 13 6.7 1.7 1 3.2-1.6 1.5-2.6-4.2-2.5-8.6-4.7-13-6.7-.7-.3-1.6-.2-2.1.5-.3.7-.2 1.7.6 2.1zM87.3 10.9c.3 1.9 2.4 2.3 4 2.3 1.9.1 3.8-.3 5.7-.2.8.1 1.6.2 2.3.6.9.5 1.6 1.1 2.5 1.5 1.9.9 3.8 1.1 5.8.9.8-.1 1.2-1.1 1-1.8-.2-.9-1-1.2-1.8-1-1.6.2-3.1-.2-4.4-1-1.4-.8-2.6-1.7-4.2-1.9-1.5-.2-3.1-.2-4.6-.1-.7 0-1.5.1-2.2.1-.3 0-.7 0-1-.1-.1 0-.2 0-.3-.1 0 .1.1.1.1 0-.1-.8-1.1-1.2-1.8-1-.9.2-1.2 1-1.1 1.8zM92.7 17.6c1.1-.3 2.2.5 3.2.9 1.1.4 2.3.7 3.4.9 2.3.4 4.7.6 6.8 1.6.7.3 1.6.2 2.1-.5.4-.6.2-1.7-.5-2.1-2.5-1.1-5.1-1.4-7.7-1.9-1.2-.2-2.4-.5-3.5-1-1.4-.7-2.9-1.3-4.5-.8-2 .6-1.2 3.5.7 2.9z"
	/>
	<path
		fill="#f0deca"
		d="M71.8 33.1c1.9 0 1.9-3 0-3s-1.9 3 0 3zM62.4 33.1c1.9 0 1.9-3 0-3s-1.9 3 0 3zM68.5 25.6c1.9 0 1.9-3 0-3-2 0-2 3 0 3zM74.1 25.6c1.9 0 1.9-3 0-3s-1.9 3 0 3zM68.1 30.1c1.9 0 1.9-3 0-3-2 0-2 3 0 3zM55.7 36.5c1.9 0 1.9-3 0-3-2 0-2 3 0 3zM62.8 36.5c1.9 0 1.9-3 0-3s-1.9 3 0 3zM78.2 27.9c1.9 0 1.9-3 0-3s-1.9 3 0 3zM77.9 21.1c1.9 0 1.9-3 0-3-2 0-2 3 0 3zM29.7 47c9 .4 17.7 3.1 25.5 7.7 3.7 2.2 7.5 4.3 11.9 3.4 2.3-.5 4.5-1.5 6.7-2.3l7.2-2.7c1.8-.7 1-3.6-.8-2.9-2.3.9-4.6 1.7-6.9 2.6-2.2.8-4.4 1.9-6.7 2.3-4.3.9-8.1-2.2-11.7-4.1-7.7-4.2-16.3-6.6-25.1-7-2-.1-2 2.9-.1 3z"
	/>
	<path
		fill="#f0deca"
		d="M27.2 57.6c3.4-.6 6.8.8 10 1.8 3.3 1.1 6.7 1.8 10.2 2.2 3.4.4 6.9.4 10.3 0 3.7-.4 7.4-1.1 11.2-1.4 1.9-.1 1.9-3.2 0-3-3.7.3-7.4 1-11.2 1.4-3.5.4-7.1.4-10.7 0-3.6-.4-7-1.4-10.5-2.6-3.3-1.1-6.6-2-10.1-1.3-1.9.3-1.1 3.2.8 2.9zM41.1 48.2c7.1 1 14.2 1.8 21.2 3.1 3.1.6 5.6 1.8 8.1 3.6 2.2 1.6 4.3 3.3 7 3.8 1.9.4 2.7-2.5.8-2.9-2.7-.6-4.8-2.4-6.9-4-2.5-1.8-5.2-2.9-8.2-3.5-7-1.3-14.2-2.1-21.2-3.1-1.9-.2-2.7 2.7-.8 3zM33.7 78.8c11.2-3 23.1-3.2 34.4-.5 1.9.4 2.7-2.4.8-2.9-11.8-2.8-24.2-2.7-36 .5-1.9.5-1.1 3.4.8 2.9z"
	/>
	<path
		fill="#f0deca"
		d="M18.8 72.9c15.1-1.8 29.9 2.1 44.7 4.6 1.9.3 2.7-2.6.8-2.9-15-2.6-30.1-6.6-45.5-4.7-1.9.2-1.9 3.2 0 3z"
	/>
	<path
		fill="#a2231d"
		d="M91.6 55.4c1.4.7 3 .5 4.3-.2 1.3-.7 2.1-1.8 2.9-3 .7-.9 1.3-1.7 1.9-2.8l.3-.6c.1-.1.1-.2.2-.3.2-.3-.2.2 0 0l.2-.2c.2-.2-.2.1 0 0 .1-.1.2-.2.4-.2.1 0 .1-.1.2-.1-.1.1-.1.1 0 0 .7-.3 1.3-1 1-1.8-.2-.7-1.1-1.3-1.8-1-1.1.4-2 1-2.7 2.1-.2.4-.4.8-.7 1.1-.1.2-.2.4-.4.6-.1.1-.2.2-.2.3-.1.1-.1.1 0 0 0 .1-.1.1-.1.2-.8 1.1-1.3 2-2.3 2.8-.1.1-.3.2-.1.1-.1.1-.2.2-.4.2-.1.1-.3.1-.4.2.3-.1-.2 0-.2.1-.1 0-.3.1-.4.1H93c-.1 0-.5-.2-.2 0-.7-.3-1.6-.2-2.1.5 0 .5.2 1.6.9 1.9zM98 63.8c-.2-1.7.9-3 2.2-3.9 1.6-1.2 3.4-2 4.9-3.2 2.7-2.2 4.6-5.5 5.3-8.9.4-1.9-2.5-2.7-2.9-.8-.7 3.4-2.6 6.4-5.6 8.3-3.1 2-7.4 4.2-7 8.6.1.8.6 1.5 1.5 1.5.9-.1 1.7-.8 1.6-1.6zM113.3 55.2c.6-2.4.8-4.9.6-7.4-.1-.8-.6-1.5-1.5-1.5-.8 0-1.6.7-1.5 1.5.1 1.1.1 2.3 0 3.4 0 .3 0 .5-.1.8 0 0-.1.5 0 .3 0-.2 0 .3-.1.3-.1.6-.2 1.1-.3 1.7-.2.8.2 1.7 1 1.8.8.4 1.7-.1 1.9-.9zM124.3 72.9c2.6-4.3 4.7-9.9 1.6-14.5-1.3-2-3.1-3-5.4-3.5-.4-.1-1.1-.1-1.4-.4-.3-.4-.2-1.2-.3-1.7-.1-1.5-.1-3.1-.2-4.6-.1-1.9-3.1-1.9-3 0 .1 1.4.1 2.8.2 4.2.1 1.2 0 2.5.6 3.6 1.3 2.1 3.8 1.5 5.6 2.7 4.4 3.1 1.8 9.2-.4 12.8-.9 1.5 1.7 3 2.7 1.4zM95 22c.4-.2 1.3.2 1.7.4.7.3 1.5.5 2.2.8 1.3.5 2.6 1.1 3.7 2 2.1 1.7 3.6 4.7 6.7 4.5 1.9-.1 1.9-3.1 0-3-1.2.1-2-1-2.8-1.8-1.1-1.2-2.2-2.2-3.5-3.1-1.4-.8-2.9-1.4-4.4-2-1.7-.6-3.4-1.3-5.2-.5-.7.3-.9 1.4-.5 2.1.5.8 1.4.9 2.1.6zM115.6 27.3s-.1-.4-.1-.3v-.3-.8c0-.5.1-1.1.1-1.6.1-1.1.2-2.3-.1-3.4-.2-1.1-.9-2.2-1.8-2.9-.5-.4-.9-.7-1.4-1-.2-.1-.4-.3-.6-.4l-.1-.1-.3-.3c-1.4-1.4-3.5.7-2.1 2.1.7.7 1.7 1.3 2.5 1.8.4.3-.1-.1.1.1l.3.3.2.2c-.1-.1.1.2.1.2 0 .1.1.2.1.3-.1-.2 0 .1 0 .1 0 .1.1.2.1.3 0 0 .1.4 0 .2V23.2c0 .5-.1 1-.1 1.5-.1 1.1-.1 2.2.1 3.3.2.8 1.1 1.3 1.8 1 1-.1 1.4-.9 1.2-1.7zM123 31.6c1.9-3 1.1-6.5-.1-9.6-.6-1.6-1.2-3.1-1.7-4.7s-1.1-3.1-2.2-4.3c-1.3-1.4-3.5.7-2.1 2.1.9.9 1.2 2.1 1.6 3.3.4 1.4.9 2.7 1.5 4.1.9 2.4 2 5.2.5 7.6-1.2 1.7 1.4 3.2 2.5 1.5zM133.4 16.4c.3-1.5.5-2.9.6-4.4.1-1.2.2-2.5.1-3.7-.2-2.3-1.1-4.5-3.4-5.4-.8-.3-1.6.3-1.8 1-.2.8.3 1.6 1 1.8-.1-.1-.1 0 0 0s.2.1.2.1c.1.1.1.1 0 0l.2.2c.1.1.1.1 0 0 .1.1.1.2.2.2 0 .1.3.5.2.3.4.8.4 1.4.4 2.2.1 2.2-.2 4.5-.7 6.7-.2.8.2 1.6 1 1.8.9.4 1.8 0 2-.8zM130.9 21.9c2.3 3.2 7 3.1 9.7.4 3.1-3.2 3-7.8 2.6-11.9-.1-.8-.6-1.5-1.5-1.5-.7 0-1.6.7-1.5 1.5.2 1.8.4 3.7.2 5.6-.2 1.3-.6 2.7-1.4 3.7-.4.5-.9 1-1.4 1.3-.4.2-1 .4-1.4.4-.7 0-1 0-1.6-.2-.2-.1-.2-.1-.1 0-.1 0-.1-.1-.2-.1-.1-.1-.3-.2-.4-.2-.1-.1-.1-.1 0 0-.1 0-.1-.1-.2-.2 0 0-.3-.4-.2-.2-.5-.7-1.3-1-2.1-.5-.6.2-1 1.2-.5 1.9zM139.3 63h4.9c1.5 0 3.3.2 4.7-.2 1.4-.4 2.4-1.5 3.2-2.7.9-1.2 1.6-2.6 2.3-3.9.4-.7.2-1.6-.5-2.1-.7-.4-1.7-.2-2.1.5-.6 1.2-1.2 2.3-2 3.4-.5.8-1.1 1.8-2.2 1.9-1.3.2-2.7 0-4 0h-4.3c-2 .1-2 3.1 0 3.1zM151.6 49.5c-.1-.2-.2-.4-.2-.6 0-.1 0-.2-.1-.3-.1-.4 0 .1 0 0v-.5c0-.2-.1.2 0 .1 0-.1 0-.2.1-.2 0-.1.1-.1.1-.2 0-.2-.1.2 0 0 .1-.1.2-.3.2-.4.2-.4.5-.7.7-1 1.1-1.5 1.9-3.2 2.5-5 .2-.8-.3-1.7-1-1.8-.8-.2-1.6.2-1.8 1-.3 1-.5 1.6-1 2.4-.4.9-1 1.6-1.5 2.4-.5.7-.9 1.4-1 2.2-.2 1-.1 1.9.3 2.8.3.7 1 1.3 1.8 1 .5-.3 1.2-1.1.9-1.9z"
	/>
	<path
		d="M85.4 41.2c3.7 0 4.8.9 6 2.6s1 4.1-.2 5.7c-1.2 1.7-3.6 2.3-5.7 2.2-2.6 0-4.7-.8-5.6-3.2-1.7-4.3 1.8-7.2 5.5-7.3z"
		fill="#f3f3f3"
	/>
	<path
		d="M87.3 45.6c.6.5.8 1.6.4 2.5-.4 1-2 1.2-2.7.4s-.7-2.2 0-3c.1 0 1.1-.8 2.3.1z"
	/>
</g>
</svg>
